<svg width="348" height="453" viewBox="0 0 348 453" fill="none" xmlns="http://www.w3.org/2000/svg">
<path d="M165.392 439.637C162.165 439.167 159.93 436.17 160.4 432.942C161.284 426.876 163.417 423.837 165.132 421.394C166.476 419.478 167.365 418.212 167.843 414.927C168.154 412.796 167.513 411.815 165.613 409.292C163.416 406.373 160.096 401.962 161.132 394.85C162.168 387.739 166.609 384.458 169.549 382.288C172.088 380.413 172.983 379.656 173.293 377.526C173.604 375.395 172.963 374.414 171.063 371.891C168.866 368.973 165.545 364.562 166.581 357.451C167.617 350.341 172.059 347.06 174.997 344.89C177.538 343.015 178.432 342.258 178.743 340.127C179.053 337.997 178.412 337.016 176.513 334.494C174.316 331.575 170.994 327.165 172.031 320.053C173.067 312.942 177.509 309.663 180.447 307.493C182.987 305.618 183.881 304.861 184.192 302.732C184.502 300.603 183.861 299.622 181.962 297.1C179.764 294.182 176.443 289.771 177.479 282.661C178.363 276.596 180.496 273.558 182.211 271.115C183.556 269.201 184.444 267.936 184.922 264.654C185.392 261.427 188.39 259.192 191.617 259.662C194.845 260.132 197.079 263.13 196.609 266.357C195.725 272.422 193.592 275.46 191.877 277.902C190.534 279.817 189.645 281.082 189.167 284.364C188.857 286.493 189.498 287.473 191.397 289.995C193.595 292.913 196.916 297.324 195.88 304.435C194.844 311.546 190.402 314.825 187.463 316.994C184.923 318.87 184.029 319.627 183.719 321.756C183.408 323.886 184.05 324.867 185.948 327.39C188.146 330.308 191.467 334.719 190.431 341.83C189.395 348.941 184.953 352.221 182.014 354.392C179.474 356.267 178.58 357.024 178.269 359.154C177.959 361.284 178.6 362.265 180.499 364.787C182.696 367.706 186.017 372.117 184.981 379.229C183.945 386.339 179.504 389.619 176.565 391.79C174.025 393.665 173.13 394.422 172.82 396.553C172.509 398.684 173.151 399.665 175.05 402.189C177.247 405.108 180.568 409.519 179.531 416.63C178.647 422.697 176.514 425.737 174.8 428.179C173.455 430.095 172.567 431.361 172.088 434.645C171.617 437.873 168.62 440.108 165.392 439.637Z" fill="white"/>
<path d="M289.448 139.338C283.119 182.768 237.511 249.02 194.08 242.691C150.65 236.363 125.844 159.852 132.172 116.421C138.501 72.9905 178.838 42.9139 222.268 49.2422C265.699 55.5705 295.776 95.9083 289.448 139.338Z" fill="#FF7A72"/>
<path d="M259.209 64.8353C263.922 77.1199 265.649 90.7449 263.617 104.691C257.288 148.122 211.679 214.372 168.249 208.044C160.433 206.905 153.223 203.484 146.687 198.4C157.572 221.459 173.794 239.731 194.081 242.687C237.511 249.015 283.12 182.765 289.448 139.334C293.744 109.85 281.257 81.7954 259.209 64.8353Z" fill="#EF5D55"/>
<path d="M204.154 261.818C203.142 268.767 197.375 268.861 190.427 267.849C183.478 266.836 177.978 265.1 178.991 258.152C180.003 251.203 187.145 241.672 194.093 242.684C201.042 243.697 205.167 254.869 204.154 261.818Z" fill="#FF7A72"/>
</svg>
