<svg width="159" height="132" viewBox="0 0 159 132" fill="none" xmlns="http://www.w3.org/2000/svg">
<path d="M57.7922 8.34617C62.9591 6.32337 68.477 5.9023 73.867 4.96934C81.6979 3.6153 89.5825 2.57501 97.4134 1.21684C99.6065 0.837054 101.771 0.684316 103.964 0.704957C109.172 0.746238 112.786 3.28092 115 7.9251C116.821 11.7395 116.747 15.9296 117.387 19.9752C117.449 20.3798 117.412 20.7967 117.433 21.2095C117.631 25.6927 117.664 25.9239 122.253 25.2923C127.605 24.5533 132.95 24.7721 138.303 24.7308C144.382 24.6813 147.468 26.8899 148.934 32.8757C150.008 37.2515 150.512 41.7719 151.243 46.2303C152.75 55.4237 154.093 64.6501 155.782 73.8105C157.834 84.9441 158.425 96.1479 157.996 107.43C157.818 112.099 155.451 114.254 150.743 114.576C144.589 114.993 138.559 116.335 132.483 117.325C121.662 119.088 110.804 120.616 99.9287 122.011C89.4586 123.352 78.9968 124.781 68.5473 126.304C57.0198 127.984 45.5212 129.85 33.9938 131.539C32.4325 131.766 30.7062 132.133 29.211 131.039C29.876 130.288 29.0004 130.123 28.6948 129.821C26.3571 127.543 24.9692 124.797 24.3827 121.594C23.916 119.043 23.4783 116.467 22.1524 114.159C21.8922 113.705 21.7023 113.086 21.7766 112.582C22.4457 107.868 21.029 103.339 20.4714 98.7528C18.7202 84.3208 16.5106 69.9424 15.2385 55.4484C14.908 51.7042 15.4284 48.0095 16.3536 44.4387C17.3903 40.4385 19.8808 37.3589 23.6228 35.3856C26.2001 34.0274 28.9177 33.1358 31.813 32.822C36.5875 32.3019 41.3498 31.6496 46.1367 31.3483C48.3877 31.2079 48.9163 30.2708 48.8709 28.2852C48.813 25.8165 48.8006 23.3231 49.065 20.8751C49.6845 15.1576 52.4105 10.8148 57.7839 8.35855L57.7922 8.34617ZM80.2235 41.0536C74.2883 40.1536 66.8828 43.8442 62.798 45.995C61.3648 46.7463 60.0927 47.8898 58.9197 49.0333C49.6019 58.1111 47.5616 69.3727 49.4119 81.6788C50.2173 87.0371 52.1503 92.0239 55.5082 96.3709C57.9202 99.4918 60.7617 102.278 64.7474 102.852C72.8674 104.024 80.938 105.424 89.2975 104.053C99.842 102.32 106.702 96.4617 110.808 86.9628C113.666 80.3536 114.252 73.3605 113.212 66.3344C111.977 58.012 108.743 50.602 100.817 46.4945C94.4479 43.1919 87.6909 40.8678 80.2235 41.0577V41.0536ZM98.227 27.0426V27.0632C98.7764 27.0632 99.3257 27.055 99.8791 27.0632C102.489 27.1045 105.104 27.3068 107.301 25.3789C111.196 21.965 111.716 18.5757 109.532 12.7055C107.962 8.49065 104.794 6.55455 100.342 6.38942C97.8141 6.29861 95.4061 6.81875 93.0849 7.61136C88.7523 9.09336 84.7336 14.6953 85.6629 18.3198C86.8855 23.0919 88.3806 27.2985 96.1661 27.0426C96.8517 27.0178 97.5414 27.0426 98.227 27.0426Z" fill="#935750"/>
<path d="M57.7921 8.34599C52.4187 10.8022 49.6927 15.1492 49.0732 20.8626C48.8088 23.3106 48.8212 25.804 48.879 28.2726C48.9245 30.2583 48.3959 31.1953 46.1449 31.3357C41.358 31.6371 36.5916 32.2893 31.8212 32.8095C28.9218 33.1232 26.2083 34.0149 23.631 35.373C19.889 37.3463 17.3985 40.4259 16.3618 44.4261C15.4366 47.9969 14.9162 51.6916 15.2466 55.4359C16.5188 69.9298 18.7284 84.3082 20.4796 98.7403C21.0372 103.327 22.4539 107.851 21.7848 112.57C21.7146 113.073 21.9004 113.692 22.1606 114.147C23.4864 116.458 23.9242 119.03 24.3909 121.581C24.9774 124.785 26.3652 127.534 28.703 129.809C29.0086 130.106 29.8842 130.271 29.2192 131.027C26.9517 130.502 24.6965 129.916 22.4125 129.47C15.7133 128.162 11.4303 124.215 9.37761 117.75C7.99399 113.403 7.64291 108.871 6.99447 104.396C5.13999 91.6274 3.3433 78.8508 1.5797 66.07C0.774302 60.2246 0.125917 54.3708 0.196131 48.4387C0.278735 41.2185 4.11151 35.212 12.7148 34.3988C21.1611 33.6021 29.5785 32.3801 37.905 30.6587C39.4415 30.3408 40.1189 30.0271 40.0487 28.1116C39.7017 18.7944 44.2284 12.4411 53.0382 9.42757C54.587 8.89917 56.1194 8.30472 57.8004 8.33774L57.7921 8.34599Z" fill="#502F2B"/>
<path d="M80.2224 41.0574C87.6898 40.8675 94.4468 43.1957 100.816 46.4941C108.737 50.6017 111.971 58.0117 113.21 66.3341C114.255 73.3561 113.665 80.3533 110.807 86.9625C106.701 96.4572 99.8409 102.319 89.2965 104.053C80.941 105.428 72.8705 104.024 64.7463 102.852C60.7607 102.278 57.915 99.4914 55.5071 96.3705C52.1492 92.0236 50.2163 87.0368 49.4109 81.6784C47.5605 69.3724 49.6009 58.1108 58.9187 49.033C60.0916 47.8895 61.3637 46.7501 62.7969 45.9946C66.8817 43.8439 74.2873 40.1574 80.2224 41.0532V41.0574ZM83.8074 48.7564C74.8778 49.26 69.0707 54.1436 65.6839 62.0655C62.8465 68.7036 62.6193 75.6059 64.3871 82.6073C68.3067 98.1415 84.0593 101.176 94.7029 92.7501C99.242 89.1586 102.303 84.5392 104.223 79.119C108.907 77.1003 110.121 75.2509 109.848 70.3838C109.766 68.8853 109.568 67.3909 109.378 65.9047C108.184 56.604 102.885 50.5232 94.3973 47.0391C90.5727 45.4704 86.9175 45.6272 83.8033 48.7564H83.8074Z" fill="#502F2B"/>
<path d="M98.2221 27.0424C97.5365 27.0424 96.8467 27.0218 96.1611 27.0424C88.3756 27.3025 86.8805 23.0918 85.658 18.3196C84.7287 14.691 88.7474 9.0932 93.08 7.61119C95.4012 6.81858 97.8091 6.29431 100.337 6.38926C104.785 6.55438 107.957 8.48635 109.527 12.7053C111.711 18.5756 111.191 21.9648 107.296 25.3788C105.099 27.3025 102.484 27.1043 99.8742 27.0631C99.3248 27.0548 98.7755 27.0631 98.2221 27.0631V27.0424Z" fill="#83AFE1"/>
<path d="M104.223 79.1231C102.303 84.5392 99.2421 89.1586 94.703 92.7543C84.0552 101.18 68.3067 98.1456 64.3871 82.6114C62.6194 75.61 62.8465 68.7078 65.684 62.0697C69.0666 54.1478 74.8738 49.2641 83.8033 48.7605C81.0939 54.1271 83.9975 58.4452 88.5614 59.4524C93.6787 60.5794 95.7521 63.5063 96.1032 68.7903C96.1858 70.0329 96.4707 71.2053 96.7144 72.4066C97.7676 77.5585 99.1719 78.8548 104.223 79.1231Z" fill="#83AFE1"/>
<path d="M104.223 79.1234C99.1714 78.851 97.763 77.5547 96.714 72.4069C96.4703 71.2056 96.1853 70.0291 96.1027 68.7906C95.7558 63.5107 93.6783 60.5797 88.5609 59.4528C83.997 58.4455 81.0934 54.1315 83.8029 48.7608C86.9212 45.6317 90.5723 45.4748 94.3969 47.0435C102.884 50.5277 108.184 56.6084 109.377 65.9092C109.567 67.3994 109.765 68.8938 109.848 70.3882C110.121 75.2595 108.906 77.1048 104.223 79.1234Z" fill="white"/>
</svg>
