<svg width="1171" height="786" viewBox="0 0 1171 786" fill="none" xmlns="http://www.w3.org/2000/svg">
<path d="M310.333 182.57C304.473 180.307 298.294 178.006 291.899 175.824C291.068 175.491 290.734 175.395 290.734 175.395C290.734 175.395 290.88 175.479 290.953 175.521C275.471 170.335 258.933 166.049 243.484 165.367C237.353 165.093 231.173 165.327 225.029 165.922C206.777 151.091 183.985 140.073 162.658 131.754C158.999 130.324 155.313 129.024 151.569 127.74C151.496 127.697 151.423 127.655 151.292 127.628C100.099 110.496 45.6835 111.785 3.6362 150.006L51.978 168.953C77.3541 146.018 109.51 135.238 143.779 134.649C151.409 134.521 158.955 135.467 166.448 136.674C168.469 137.987 170.286 139.231 171.679 140.28C183.027 148.491 191.655 159.471 198.477 171.553C168.131 181.477 141.872 202.732 129.816 233.165C123.08 250.239 115.332 275.066 129.165 290.71C131.114 292.908 133.666 294.821 136.376 296.63C136.245 296.603 136.114 296.576 135.968 296.492C150.575 306.488 161.172 307.976 171.99 310.518C177.083 311.997 181.785 313.395 185.805 314.791C223.164 328.273 255.89 278.331 260.237 248.418C263.6 225.447 258.196 206.431 247.688 190.515C262.112 186.217 277.285 184.253 291.695 184.287C296.894 184.316 301.971 184.81 307.052 185.551C310.436 187.797 313.453 189.832 314.951 191.038C325.145 199.559 332.197 210.652 337.38 222.616C320.657 227.097 305.474 236.173 294.455 250.872C279.244 271.145 298.852 288.271 316.598 295.448C335.247 303.001 372.185 326.673 390.492 306.189C404.663 290.336 398.023 264.172 386.061 241.906C394.995 239.265 403.281 237.663 409.268 237.171C416.586 236.571 423.871 237.462 431.075 238.747C433.285 240.071 435.436 241.411 437.645 242.736C458.382 255.541 476.678 272.153 493.825 289.32C522.504 317.925 547.677 350.746 569.041 385.268L617.31 404.173C592.285 363.832 562.126 326.473 527.489 294.086C503.255 271.461 476.4 255.659 447.421 242.775C448.394 242.947 447.124 242.36 443.627 241.071C431.387 235.758 418.763 230.856 405.839 226.22C394.97 222.332 383.084 219.953 371.153 219.255C366.893 213.967 362.677 209.533 358.946 206.452C343.774 193.887 328.174 189.412 310.114 182.443L310.333 182.57ZM194.291 271.034C188.467 278.592 179.562 286.418 169.689 291.784C167.668 271.553 180.126 245.155 188.393 232.183C194.573 222.49 202.562 214.476 211.675 207.892C214.672 230.149 208.436 252.778 194.291 271.034ZM335.65 292.507C332.324 290.245 329.209 287.618 329.429 285.209C330.39 275.184 337.832 266.513 348.037 259.389C349.304 272.651 346.814 286.424 335.665 292.565L335.65 292.507Z" fill="#FFDF85"/>
<path d="M3.66884 150.131L52.0838 169.121C77.4599 146.186 109.616 135.406 143.885 134.817C151.514 134.689 159.061 135.634 166.554 136.841C161.531 133.55 155.4 129.815 151.34 127.811C100.147 110.679 45.6585 111.926 3.66884 150.131Z" fill="#FFBC01"/>
<path d="M338.64 290.595C338.013 287.795 337.617 284.934 337.887 282.018C338.627 274.401 342.484 267.803 348.138 262.146C347.803 256.054 346.657 249.931 345.12 244.655C342.968 237.318 340.54 229.87 337.393 222.738C320.67 227.219 305.487 236.296 294.468 250.994C279.256 271.268 298.864 288.393 316.61 295.57C316.814 295.639 317.018 295.708 317.18 295.85C320.514 296.07 324.421 295.888 327.309 295.362C331.915 294.561 335.608 292.891 338.525 290.626L338.64 290.595Z" fill="#FFBC01"/>
<path d="M443.86 241.254C445.114 241.783 446.384 242.371 447.654 242.958C448.627 243.13 447.357 242.543 443.86 241.254Z" fill="#8A3CE5"/>
<path d="M409.47 237.24C416.788 236.639 424.073 237.531 431.278 238.816C428.118 236.942 424.9 235.084 421.614 233.43C432.291 237.06 439.662 239.66 443.902 241.182C431.662 235.869 419.038 230.967 406.114 226.331C395.245 222.443 383.359 220.064 371.429 219.366C376.605 225.769 381.776 233.533 386.232 241.859C394.878 239.295 403.179 237.751 409.528 237.225L409.47 237.24Z" fill="#FFBC01"/>
<path d="M408.797 227.344C412.084 228.998 428.119 236.943 431.279 238.816C433.488 240.141 435.639 241.481 437.848 242.805C458.585 255.61 476.881 272.222 494.028 289.389C522.707 317.994 547.88 350.816 569.244 385.338L617.513 404.243C592.488 363.901 562.329 326.543 527.692 294.155C503.458 271.53 479.068 255.933 450.132 242.976C448.862 242.389 447.607 241.859 446.338 241.272C436.652 236.264 419.443 230.859 408.766 227.229L408.797 227.344Z" fill="#FFDF85"/>
<path d="M151.306 127.683C151.365 127.668 151.44 127.711 151.515 127.754C151.44 127.711 151.365 127.668 151.231 127.64L151.306 127.683Z" fill="#8A3CE5"/>
<path d="M243.482 165.363C237.352 165.089 231.172 165.323 225.027 165.919C233.939 173.113 241.695 181.298 247.744 190.496C262.168 186.198 277.341 184.235 291.751 184.268C296.877 184.255 301.912 184.822 306.993 185.563L294.172 176.695C277.735 170.713 261.612 166.131 243.467 165.305L243.482 165.363Z" fill="#FFBC01"/>
<path d="M151.586 127.79C172.843 135.386 181.802 140.219 169.092 137.071C168.25 136.926 167.423 136.839 166.596 136.751C168.616 138.064 170.433 139.309 171.827 140.357C183.174 148.568 191.803 159.548 198.625 171.63C201.327 176.408 203.698 181.337 205.839 186.328C208.839 193.375 210.787 200.643 211.75 207.927C214.747 230.184 208.511 252.813 194.366 271.069C188.541 278.627 179.637 286.453 169.764 291.819C159.13 297.574 147.231 300.453 136.524 296.707C146.261 303.062 159.268 309.16 171.332 312.666C176.426 314.145 181.096 315.428 185.059 316.839C222.403 330.264 255.965 278.366 260.369 248.438C263.732 225.466 258.328 206.451 247.82 190.534C241.713 181.352 233.958 173.167 225.103 165.957C206.852 151.126 184.06 140.109 162.732 131.79C159.073 130.359 155.387 129.059 151.644 127.775L151.586 127.79Z" fill="#FFDF85"/>
<path d="M169.743 291.767C167.721 271.536 180.179 245.139 188.446 232.166C194.626 222.473 202.615 214.46 211.729 207.876C210.766 200.591 208.818 193.323 205.817 186.276C203.677 181.286 201.248 176.372 198.604 171.579C168.258 181.503 141.999 202.758 129.942 233.19C123.207 250.265 115.458 275.092 129.292 290.736C131.241 292.934 133.793 294.847 136.502 296.655C147.194 300.344 159.109 297.522 169.743 291.767Z" fill="#FFBC01"/>
<path d="M889.327 728.351C910.686 721.725 931.207 710.078 939.044 689.418C964.943 692.576 988.454 688.928 1014.45 681.51C1014.45 681.51 1024.68 678.205 1028.98 677.168C1053.45 669.313 1075.35 659.44 1094.56 640.584C1119.42 616.267 1133.23 582.329 1142.77 549.481C1140.83 556.149 1106.35 553.599 1104.31 560.744C1091.7 604.231 1071.18 645.552 1032.25 671.045C1027.88 673.908 1023.2 676.234 1018.5 678.507C1018.29 678.564 1018.11 678.726 1017.91 678.835C1010.62 680.055 1003.2 680.801 995.835 680.463C981.215 679.811 966.607 676.674 952.392 673.319C949.192 672.54 945.768 671.765 942.197 670.861C941.932 651.131 930.686 631.693 917.695 617.743C905.188 604.34 894.297 600.545 879.554 602.803C872.443 603.637 854.346 607.696 846.672 611.276C843.573 612.557 840.784 614.151 838.599 616.316C829.99 624.828 832.417 638.731 838.371 647.685C850.982 666.532 878.086 676.08 902.485 682.065C902.089 701.013 893.059 719.115 872.945 730.597C872.159 731.033 871.292 731.378 870.453 731.828C863.074 732.508 855.673 731.84 848.331 730.761C830.756 728.137 814.176 720.169 799.175 710.932C766.941 691.081 741.271 660.559 722.915 627.851C711.045 606.719 702.056 580.752 700.637 555.24C708.574 554.749 716.434 553.546 724.124 551.711C730.694 550.12 733.541 549.583 738.156 548.064C758.242 542.795 779.527 538.84 782.628 514.824C784.817 497.935 772.846 480.214 757.269 474.516C748.703 471.396 740.042 474.45 731.713 476.851C718.714 480.56 703.631 483.022 692.286 490.8C680.744 498.687 672.975 510.754 668.177 524.224C658.113 516.993 649.148 508.169 641.77 497.905C611.795 456.452 628.926 357.376 633.182 335.509C633.57 333.517 631.707 331.851 629.753 332.401C624.565 333.862 616.342 336.18 614.755 336.644C612.68 337.245 601.44 340.671 597.212 341.961C596.226 342.262 595.506 343.076 595.361 344.097C592.992 360.788 575.214 499.691 633.742 538.697C642.606 544.615 652.339 548.72 662.327 551.459C661.613 559.322 661.664 567.093 662.391 574.232C666.017 610.717 685.197 645.235 707.473 673.62C729.926 702.241 759.83 726.664 794.558 738.344C827.185 749.345 857.867 738.134 889.222 728.379L889.327 728.351ZM872.815 629.035C871.865 626.751 871.427 624.274 871.319 621.764C882.805 630.307 891.482 641.634 896.766 653.982C886.111 647.699 877.29 639.626 872.815 629.035ZM722.608 487.301C726.834 489.384 730.534 492.454 733.697 495.837C743.079 505.79 746.863 520.966 742.44 533.941C740.953 538.289 738.17 541.799 734.796 544.79C728.357 544.766 721.84 544.031 715.52 543.186C710.485 542.504 705.614 541.383 700.792 540.024C702.213 520.689 708.74 502.299 722.608 487.301Z" fill="#67B887"/>
<path d="M838.655 616.353C830.046 624.865 832.474 638.769 838.427 647.722C851.038 666.569 878.142 676.117 902.542 682.103C918.387 686.488 939.034 689.417 939.034 689.417C963.714 692.45 986.267 689.228 1010.81 682.482C1013.88 681.095 1016.5 679.716 1018.65 678.464C1018.65 678.464 1018.54 678.492 1018.49 678.506C1018.28 678.563 1018.1 678.724 1017.9 678.833C1010.61 680.054 1003.19 680.8 995.824 680.462C981.205 679.81 966.596 676.673 952.381 673.318C949.182 672.539 945.758 671.764 942.186 670.859C920.832 665.92 896.741 653.928 896.741 653.928C886.086 647.645 877.265 639.572 872.791 628.981C871.84 626.697 871.402 624.22 871.294 621.71C870.925 615.491 875.596 607.865 879.228 602.887C871.906 603.777 854.244 607.776 846.661 611.275C843.563 612.556 840.773 614.15 838.588 616.315L838.655 616.353Z" fill="#67B887"/>
<path d="M707.586 673.59C730.039 702.21 759.943 726.634 794.671 738.313C813.59 744.695 831.856 743.581 849.981 739.627C858.776 736.65 866.036 733.632 870.078 731.872C862.857 732.51 855.561 731.813 848.458 730.783C830.883 728.159 814.303 720.191 799.302 710.954C767.068 691.104 741.398 660.581 723.042 627.874C711.172 606.741 702.183 580.775 700.764 555.262C700.38 550.458 700.207 549.601 700.852 540.008C702.273 520.673 708.8 502.283 722.668 487.285C727.092 481.473 734.741 477.168 741.408 474.253C738.221 474.994 735.038 475.96 731.893 476.859C718.893 480.568 703.81 483.03 692.465 490.808C680.924 498.696 673.154 510.762 668.356 524.233C664.371 536.526 662.506 551.467 662.506 551.467C661.792 559.33 661.843 567.101 662.571 574.24C666.197 610.725 685.377 645.243 707.653 673.628L707.586 673.59Z" fill="#67B887"/>
</svg>
