<svg width="1208" height="1382" viewBox="0 0 1208 1382" fill="none" xmlns="http://www.w3.org/2000/svg">
<path d="M894.648 1337.28C898.323 1339.05 902.732 1337.5 904.496 1333.82C907.811 1326.92 907.72 1322.28 907.646 1318.55C907.588 1315.62 907.551 1313.69 909.346 1309.95C910.511 1307.52 911.86 1306.95 915.591 1305.66C919.906 1304.17 926.427 1301.91 930.314 1293.81C934.201 1285.71 931.884 1279.21 930.349 1274.91C929.024 1271.19 928.625 1269.78 929.789 1267.36C930.954 1264.93 932.303 1264.36 936.033 1263.07C940.348 1261.58 946.869 1259.32 950.755 1251.22C954.642 1243.13 952.325 1236.63 950.791 1232.33C949.465 1228.61 949.066 1227.2 950.231 1224.77C951.395 1222.35 952.744 1221.78 956.473 1220.49C960.788 1218.99 967.31 1216.74 971.196 1208.64C975.083 1200.54 972.765 1194.04 971.231 1189.74C969.906 1186.03 969.506 1184.62 970.67 1182.19C971.834 1179.77 973.183 1179.2 976.912 1177.91C981.227 1176.41 987.748 1174.16 991.635 1166.06C994.95 1159.16 994.857 1154.52 994.782 1150.79C994.724 1147.86 994.686 1145.93 996.479 1142.2C998.243 1138.52 996.694 1134.11 993.019 1132.35C989.344 1130.58 984.935 1132.13 983.171 1135.81C979.856 1142.71 979.948 1147.35 980.023 1151.08C980.081 1154 980.119 1155.94 978.325 1159.67C977.162 1162.1 975.813 1162.67 972.084 1163.96C967.769 1165.45 961.248 1167.71 957.361 1175.8C953.475 1183.9 955.793 1190.4 957.327 1194.7C958.652 1198.42 959.051 1199.83 957.887 1202.25C956.723 1204.68 955.374 1205.25 951.645 1206.54C947.33 1208.03 940.809 1210.29 936.922 1218.39C933.035 1226.48 935.353 1232.98 936.886 1237.28C938.211 1241 938.611 1242.41 937.446 1244.84C936.282 1247.26 934.933 1247.83 931.204 1249.12C926.889 1250.62 920.367 1252.87 916.48 1260.97C912.594 1269.07 914.911 1275.57 916.444 1279.87C917.77 1283.59 918.17 1285 917.005 1287.42C915.84 1289.85 914.491 1290.42 910.76 1291.71C906.445 1293.2 899.924 1295.46 896.037 1303.56C892.721 1310.47 892.813 1315.11 892.886 1318.84C892.944 1321.76 892.982 1323.69 891.187 1327.43C889.423 1331.11 890.973 1335.52 894.648 1337.28Z" fill="white"/>
<path d="M975.51 939.312C951.772 988.765 952.846 1089.29 1002.3 1113.03C1051.75 1136.77 1130.86 1074.73 1154.6 1025.28C1178.34 975.822 1157.49 916.488 1108.04 892.75C1058.58 869.012 999.248 889.859 975.51 939.312Z" fill="#FFBC01"/>
<path d="M1058.85 883.148C1045.39 892.6 1034.09 905.525 1026.47 921.405C1002.73 970.86 1003.81 1071.38 1053.26 1095.12C1062.16 1099.39 1072.03 1100.88 1082.35 1100.16C1054.98 1116.48 1025.4 1124.11 1002.3 1113.03C952.85 1089.29 951.775 988.763 975.513 939.309C991.63 905.735 1024.15 885.354 1058.85 883.148Z" fill="#EEAF00"/>
<path d="M978.511 1125.84C974.713 1133.75 980.627 1137.87 988.54 1141.67C996.452 1145.47 1003.37 1147.5 1007.16 1139.59C1010.96 1131.68 1010.21 1116.81 1002.29 1113.01C994.382 1109.22 982.309 1117.92 978.511 1125.84Z" fill="#FFBC01"/>
<path d="M325.482 858.623C333.843 856.029 341.877 851.47 344.944 843.383C355.083 844.619 364.286 843.191 374.464 840.287C374.464 840.287 378.469 838.993 380.149 838.587C389.729 835.512 398.302 831.647 405.822 824.266C415.552 814.747 420.96 801.462 424.693 788.603C423.935 791.213 410.437 790.215 409.64 793.012C404.703 810.035 396.668 826.211 381.429 836.19C379.719 837.311 377.887 838.221 376.049 839.111C375.966 839.133 375.895 839.197 375.818 839.239C372.964 839.717 370.06 840.009 367.176 839.877C361.453 839.622 355.734 838.394 350.169 837.08C348.917 836.775 347.577 836.472 346.179 836.118C346.075 828.395 341.673 820.785 336.587 815.325C331.691 810.078 327.428 808.592 321.657 809.476C318.873 809.803 311.788 811.392 308.784 812.793C307.571 813.295 306.48 813.918 305.624 814.766C302.254 818.098 303.204 823.541 305.535 827.046C310.472 834.423 321.082 838.161 330.633 840.504C330.478 847.921 326.943 855.007 319.069 859.502C318.761 859.673 318.422 859.808 318.094 859.984C315.205 860.25 312.308 859.989 309.434 859.567C302.554 858.539 296.064 855.42 290.191 851.804C277.573 844.034 267.524 832.085 260.339 819.282C255.692 811.009 252.174 800.844 251.618 790.857C254.725 790.665 257.802 790.194 260.812 789.476C263.384 788.853 264.498 788.643 266.305 788.048C274.168 785.986 282.5 784.437 283.714 775.036C284.571 768.425 279.885 761.488 273.787 759.257C270.434 758.036 267.043 759.231 263.783 760.171C258.694 761.623 252.79 762.587 248.349 765.632C243.831 768.719 240.789 773.443 238.911 778.716C234.972 775.885 231.462 772.431 228.574 768.413C218.385 754.322 222.1 723.222 224.346 709.673C224.839 706.697 222.051 704.135 219.149 704.958C218.601 705.113 218.184 705.232 217.998 705.286C217.401 705.459 214.859 706.232 212.899 706.829C211.432 707.275 210.356 708.506 210.164 710.026C208.71 721.546 203.988 770.091 225.431 784.382C228.901 786.698 232.711 788.305 236.621 789.377C236.341 792.455 236.361 795.497 236.646 798.292C238.066 812.574 245.574 826.087 254.294 837.198C263.083 848.402 274.79 857.963 288.384 862.535C301.156 866.841 313.167 862.453 325.441 858.634L325.482 858.623ZM319.019 819.745C318.646 818.851 318.475 817.881 318.433 816.899C322.929 820.243 326.326 824.677 328.394 829.511C324.223 827.051 320.77 823.891 319.019 819.745ZM260.219 764.262C261.873 765.077 263.321 766.279 264.56 767.604C268.232 771.5 269.714 777.441 267.982 782.52C267.4 784.222 266.31 785.596 264.99 786.767C262.469 786.757 259.918 786.469 257.444 786.138C255.473 785.872 253.566 785.433 251.679 784.901C252.235 777.332 254.79 770.133 260.219 764.262Z" fill="#67B887"/>
<path d="M305.648 814.78C302.278 818.113 303.228 823.555 305.559 827.06C310.495 834.438 321.105 838.176 330.657 840.519C336.86 842.235 344.942 843.382 344.942 843.382C354.603 844.569 363.432 843.308 373.04 840.667C374.242 840.124 375.268 839.585 376.108 839.094C376.108 839.094 376.067 839.105 376.046 839.111C375.964 839.133 375.892 839.196 375.816 839.239C372.962 839.717 370.058 840.009 367.173 839.876C361.45 839.621 355.732 838.393 350.167 837.08C348.915 836.775 347.574 836.472 346.176 836.117C337.817 834.184 328.386 829.49 328.386 829.49C324.215 827.03 320.762 823.87 319.011 819.724C318.638 818.83 318.467 817.86 318.425 816.878C318.28 814.443 320.109 811.458 321.53 809.509C318.664 809.857 311.75 811.423 308.782 812.792C307.569 813.294 306.477 813.918 305.622 814.765L305.648 814.78Z" fill="#67B887"/>
<path d="M254.337 837.187C263.126 848.391 274.832 857.951 288.427 862.523C295.833 865.022 302.983 864.585 310.078 863.038C313.521 861.872 316.363 860.691 317.946 860.002C315.119 860.252 312.263 859.979 309.482 859.576C302.603 858.548 296.112 855.429 290.24 851.813C277.622 844.043 267.573 832.095 260.387 819.291C255.741 811.018 252.222 800.854 251.666 790.867C251.516 788.986 251.448 788.651 251.701 784.895C252.257 777.326 254.812 770.127 260.241 764.256C261.973 761.981 264.967 760.296 267.577 759.155C266.329 759.445 265.083 759.823 263.852 760.175C258.763 761.627 252.859 762.591 248.418 765.635C243.9 768.723 240.858 773.447 238.98 778.72C237.42 783.532 236.69 789.381 236.69 789.381C236.41 792.459 236.43 795.501 236.715 798.296C238.135 812.578 245.643 826.09 254.363 837.202L254.337 837.187Z" fill="#67B887"/>
<path d="M744.412 302.646C757.912 284.446 757.812 263.146 755.812 241.946C753.812 221.246 746.412 201.846 740.412 182.146C737.312 172.046 734.112 161.846 733.812 151.146C733.412 136.846 737.512 130.646 751.112 127.046C771.612 121.646 790.812 125.646 808.212 138.146C814.412 142.646 819.712 148.446 825.812 153.046C841.012 164.646 859.312 163.346 871.512 150.346C883.612 137.446 884.412 117.646 872.112 103.146C829.212 52.9459 761.812 42.9459 715.112 65.5459C678.712 83.1459 660.612 118.846 665.812 161.846C668.012 180.246 673.412 197.846 679.012 215.346C683.112 228.046 686.912 240.946 688.912 254.146C720.512 258.046 736.312 271.746 744.412 302.646Z" fill="#F03D01"/>
<path d="M584.812 685.846C605.012 670.146 625.212 654.546 645.312 638.646C655.612 630.546 665.412 621.846 672.912 610.846C688.112 588.446 688.012 563.246 672.412 540.946C666.312 532.246 659.012 524.846 650.812 518.346C640.012 509.846 629.312 501.346 618.412 493.246C598.512 478.546 580.112 462.346 565.612 441.846C546.512 458.946 523.212 458.146 505.312 445.146C501.412 442.346 497.512 439.446 493.612 436.546C494.612 453.846 502.412 468.446 511.112 482.546C522.812 501.546 537.912 517.546 555.112 531.346C568.712 542.346 582.712 552.846 596.512 563.646C601.112 567.246 606.312 570.346 610.612 576.446C583.712 600.046 552.712 617.646 529.612 644.746C554.812 645.446 573.012 656.646 582.412 681.546C582.812 683.146 583.912 684.446 584.812 685.846Z" fill="#F03D01"/>
<path d="M489.712 714.846C482.412 752.346 499.212 779.346 526.212 801.646C542.412 814.946 561.112 823.946 580.112 832.046C596.512 839.046 612.912 846.446 630.212 850.846C632.212 815.946 641.612 802.746 670.712 793.946C658.412 785.646 644.312 781.946 630.812 776.746C607.212 767.646 584.212 757.346 562.812 743.246C543.712 753.446 525.312 753.446 507.212 740.046C498.712 733.546 494.812 723.846 489.712 714.846Z" fill="#FF7A72"/>
<path d="M648.312 280.346C598.012 283.846 552.012 297.846 517.512 338.546C513.012 343.846 507.512 348.846 508.012 356.946C513.012 358.246 517.412 355.446 521.912 354.246C537.912 350.046 551.212 355.446 563.112 365.846C567.112 369.346 570.612 373.646 574.312 377.646C596.712 361.246 622.012 353.146 649.112 350.446C654.912 349.846 660.612 348.046 666.312 346.846C654.112 336.046 645.112 323.646 643.612 306.146C642.812 296.846 647.212 289.046 648.312 280.346Z" fill="#FF7A72"/>
<path d="M644.512 858.746L644.612 858.846C644.612 858.746 644.612 858.746 644.512 858.746Z" fill="#F03D01"/>
<path d="M677.001 816.09C682.561 818.863 672.275 803.305 677.001 809.09C678.08 813.232 669.668 831.59 660.001 809.09C662.656 829.084 667.273 805.627 649.853 816.09C646.696 816.09 645.738 822.724 647.626 826.231C658.173 846.29 658.694 867.23 649.853 888.246C646.673 895.805 641.926 902.704 638.601 910.093C630.23 928.703 635.935 947.376 652.518 956.956C668.863 966.327 689.715 962.406 701.778 946.109C743.564 889.589 730.001 826.231 695.001 809.09C680.026 790.531 698.85 819.857 677.001 816.09Z" fill="#F03D01"/>
<path d="M713.012 823.346C708.112 816.846 702.512 811.446 696.212 806.946C688.512 801.446 680.012 797.246 670.912 793.946C643.312 802.246 633.412 814.546 630.812 845.646C630.712 847.346 630.512 849.046 630.412 850.746C635.012 853.346 640.712 854.646 646.112 859.646C652.612 865.746 654.912 876.146 651.712 883.646C668.012 895.646 691.712 895.146 709.112 885.046C712.812 882.946 716.012 879.846 719.412 877.246C722.912 870.646 724.712 864.246 725.112 858.046C725.912 845.746 721.212 834.246 713.012 823.346Z" fill="#FFBC01"/>
<path d="M489.612 714.946C494.712 723.946 498.612 733.546 507.312 740.046C525.412 753.546 543.812 753.446 562.912 743.246C553.712 732.546 556.212 722.446 563.212 711.746C569.512 702.146 577.912 694.546 584.912 685.546C584.012 684.146 582.912 682.846 582.312 681.346C572.812 656.546 554.612 645.246 529.512 644.546C509.312 663.846 493.912 686.046 489.612 714.946Z" fill="#FFBC01"/>
<path d="M574.212 377.546C570.512 373.646 567.112 369.346 563.012 365.846C551.112 355.446 537.812 350.046 521.812 354.246C517.312 355.446 512.312 353.646 507.912 356.946C506.312 358.146 505.612 359.146 504.312 360.646C485.212 382.046 487.112 407.446 492.012 433.446C492.512 434.646 493.012 435.846 493.512 437.046L493.312 436.746C497.212 439.646 501.012 442.546 505.012 445.346C522.912 458.246 546.312 459.146 565.312 442.046C558.012 424.546 555.112 407.046 565.912 389.846C568.512 385.546 571.412 381.546 574.212 377.546Z" fill="#FFBC01"/>
<path d="M648.312 280.546C647.212 289.246 642.812 296.946 643.612 306.346C645.112 323.846 654.112 336.246 666.312 347.046C689.812 344.746 711.612 337.846 729.812 321.746C735.812 316.346 742.112 310.946 744.412 302.446C736.312 271.546 720.612 257.846 688.812 253.946C689.112 267.046 681.312 272.446 670.212 275.146C662.912 276.946 655.212 276.846 648.312 280.546Z" fill="#FFBC01"/>
<ellipse opacity="0.1" cx="20.5598" cy="12.307" rx="20.5598" ry="12.307" transform="matrix(-0.894959 0.446149 0.446149 0.894959 602.276 463.927)" fill="black"/>
<path fill-rule="evenodd" clip-rule="evenodd" d="M640.651 282.274C640.051 281.61 639.436 280.959 638.804 280.321C634.934 276.419 630.611 273.26 625.391 271.548C617.304 268.897 609.408 271.486 604.459 278.516C601.001 283.425 599.646 289.084 599.231 295.045C598.49 305.744 600.606 316.069 603.636 326.226C608.684 343.141 616.281 358.941 624.349 374.516C624.389 374.593 624.428 374.668 624.467 374.742C626.266 378.209 626.268 378.214 622.83 380.512C613.905 386.472 604.354 391.234 594.659 395.694C589.29 398.161 583.863 400.485 578.404 402.75C575.188 404.083 572.129 405.814 569.073 407.544C568.073 408.11 567.073 408.676 566.069 409.227C565.53 409.523 564.99 409.817 564.451 410.111C561.261 411.849 558.073 413.586 555.084 415.694C552.821 417.289 551.52 419.323 551.268 422.166C550.75 428.013 554.1 431.875 558.142 434.871C561.459 437.333 565.007 439.463 568.555 441.593C570.23 442.599 571.905 443.604 573.556 444.645C579.223 448.219 585.015 451.539 591.112 454.262C593.663 455.401 594.927 455.959 595.358 456.914C595.786 457.863 595.39 459.205 594.614 461.898C593.362 466.247 591.198 470.058 588.437 473.527C587.354 474.887 587.061 474.867 585.896 473.615C585.407 473.09 584.968 472.513 584.53 471.938C584.418 471.791 584.306 471.644 584.194 471.498C583.765 470.944 583.348 470.379 582.931 469.814C582.088 468.672 581.246 467.53 580.309 466.478C577.749 463.596 573.661 463.115 570.929 465.223C567.748 467.677 566.838 471.771 569.109 475.198C572.061 479.657 575.185 484.037 579.291 487.491C584.765 492.093 590.803 492.015 595.824 487.011C602.065 480.791 606.634 473.447 608.728 464.621L608.73 464.613C609.591 460.979 609.607 460.912 613.253 461.628C622.993 463.54 631.382 460.902 638.58 454.076C640.906 451.869 642.769 449.3 644.239 446.495C645.148 446.533 645.751 447.014 646.332 447.477C646.535 447.639 646.736 447.799 646.945 447.937C649.387 449.541 651.955 450.838 654.754 451.588C660.016 452.996 665.053 452.517 669.316 448.948C675.974 443.371 678.964 435.505 680.602 427.185C681.508 422.587 677.046 418.848 672.477 419.563C669.384 420.049 667.68 422.126 666.681 424.948C666.547 425.327 666.413 425.707 666.28 426.087C665.211 429.136 664.143 432.182 662.463 434.95C660.755 437.761 659.455 438.186 656.57 436.734C653.585 435.233 651.222 432.933 649.036 430.385C648.097 429.288 647.999 428.361 648.586 427.106C649.998 424.082 650.978 420.876 651.548 417.585C653.361 407.113 653.395 396.828 647.596 387.317C647.561 387.258 647.529 387.198 647.496 387.138C647.481 387.109 647.465 387.08 647.449 387.051C638.996 371.708 630.616 356.329 623.865 340.09C620.943 333.059 618.302 325.935 616.325 318.569C614.554 311.98 613.281 305.303 613.391 298.442C613.445 295.075 613.796 291.737 615.223 288.662C616.493 285.918 618.088 284.944 620.542 285.462C626.53 283.844 636.026 282.789 639.749 282.375C640.105 282.336 640.408 282.302 640.651 282.274Z" fill="#83AFE1"/>
<path d="M623.971 445.714C618.908 448.226 614.599 448.967 610.083 448.244C607.705 447.861 605.475 447.016 603.802 445.101C602.423 443.523 602.426 441.41 603.723 440.177C604.845 439.114 606.363 438.91 607.777 440.091C610.875 442.684 614.27 442.281 617.609 441.279C622.006 439.964 625.508 437.257 627.823 433.113C628.947 431.099 629.967 429.026 631.046 426.985C631.422 426.277 631.747 425.52 632.231 424.9C633.288 423.557 634.835 423.254 636.192 424.014C637.562 424.781 638.285 426.3 637.592 427.914C634.381 435.382 630.803 442.585 623.974 445.713L623.971 445.714Z" fill="#030303"/>
<path d="M589.873 423.553C589.327 426.549 589.777 429.02 590.222 431.48C590.457 432.777 590.889 434.04 591.051 435.342C591.24 436.846 590.352 438.245 589.041 438.692C587.654 439.164 586.52 438.601 585.623 437.523C585.04 436.821 584.7 435.964 584.482 435.067C583.323 430.294 582.833 425.474 583.597 420.605C584.087 417.457 585.177 414.56 587.381 412.215C590.785 408.595 595.708 407.979 599.716 410.947C603.927 414.063 606.127 418.383 605.92 423.749C605.685 429.884 599.981 432.851 594.871 429.603C592.707 428.229 591.293 426.165 589.876 423.558L589.873 423.553Z" fill="#030303"/>
<path d="M619.603 411.725C619.062 413.369 619.053 414.584 619.098 415.799C619.149 417.215 619.26 418.631 619.289 420.048C619.336 422.421 618.35 423.862 616.589 424.082C614.731 424.313 613.178 422.943 612.961 420.546C612.41 414.45 612.639 408.373 614.451 402.529C616.772 395.036 623.719 393.128 629.618 398.269C633.567 401.71 635.283 406.044 633.91 411.298C632.564 416.444 627.502 418.296 623.166 415.331C621.854 414.432 620.797 413.24 619.603 411.725Z" fill="#030303"/>
<path d="M564.937 316.61C559.542 310.524 549.562 315.437 551.094 323.424L566.041 401.32C567.036 406.506 572.693 409.323 577.431 406.99L615.102 388.446C619.84 386.113 621.058 379.912 617.555 375.961L564.937 316.61Z" fill="#8DBC76"/>
<circle cx="6.40247" cy="6.40247" r="6.40247" transform="matrix(-0.990292 0.139005 0.139005 0.990292 604.118 366.441)" fill="white"/>
<circle cx="3.20123" cy="3.20123" r="3.20123" transform="matrix(-0.990292 0.139005 0.139005 0.990292 570.843 354.588)" fill="white"/>
<circle cx="3.20123" cy="3.20123" r="3.20123" transform="matrix(-0.990292 0.139005 0.139005 0.990292 574.22 332.565)" fill="white"/>
<ellipse opacity="0.1" cx="694.889" cy="818.26" rx="24.3223" ry="18.7095" transform="rotate(-30.1116 694.889 818.26)" fill="black"/>
<path d="M756.227 770.936C757.894 769.349 759.18 767.499 760.238 765.485C763.408 759.455 764.873 752.972 765.152 746.221C765.749 731.781 761.319 718.762 753.471 706.775C749.624 700.9 745.007 695.652 739.686 691.031C728.764 681.549 716.194 675.499 701.88 673.101C690.292 671.159 678.803 671.884 667.403 674.443C655.246 677.173 643.764 681.682 632.84 687.593C629.353 689.48 625.933 691.506 623.002 694.229C621.969 695.188 621.064 696.243 620.432 697.503C619.057 700.245 619.552 703.124 621.7 705.365C622.894 706.609 624.333 707.482 625.846 708.244C628.879 709.769 632.062 710.938 635.225 712.151C642.755 715.037 650.253 717.998 657.488 721.575C660.044 722.838 662.594 724.112 665.021 725.577C665.021 725.577 666.481 726.365 668.941 727.793C670.028 727.154 670.825 727.418 672.802 728.418C674.787 729.422 676.628 730.667 678.396 732.002C679.379 732.745 679.892 733.626 680.005 734.61C681.561 735.623 683.19 736.706 684.863 737.85C686.119 737.493 687.406 737.692 688.753 738.452C689.861 739.079 691.074 739.516 692.218 740.084C692.786 740.367 693.338 740.706 693.84 741.094C695.392 742.296 695.73 743.394 695.19 745.348C698.422 747.852 701.641 750.51 704.692 753.28C706.109 753.488 707.329 754.2 708.568 754.835C713.868 757.551 718.952 760.648 724.135 763.571C729.37 766.523 734.56 769.56 740.069 771.996C742.158 772.921 744.301 773.697 746.583 774.008C750.296 774.515 753.507 773.518 756.228 770.931L756.227 770.936Z" fill="#502F2B"/>
<path d="M758.639 630.208C760.251 622.236 750.32 617.224 744.864 623.256L684.566 689.922C681.024 693.839 682.18 700.052 686.895 702.431L729.377 723.871C734.091 726.251 739.776 723.491 740.822 718.315L758.639 630.208Z" fill="#76B8BC"/>
<circle cx="6.97157" cy="6.97157" r="6.97157" transform="matrix(-0.707107 -0.707107 -0.707107 0.707107 740.48 699.479)" fill="white"/>
<circle cx="3.48578" cy="3.48578" r="3.48578" transform="matrix(-0.707107 -0.707107 -0.707107 0.707107 728.974 662.776)" fill="white"/>
<circle cx="3.48578" cy="3.48578" r="3.48578" transform="matrix(-0.707107 -0.707107 -0.707107 0.707107 750.337 651.277)" fill="white"/>
<path d="M705.377 821.126C707.403 818.814 709.485 816.537 711.249 814.009C713.009 811.488 713.177 808.821 711.685 806.13C711.126 805.118 710.508 804.124 709.886 803.149C707.413 799.266 705.357 795.179 703.563 790.957C701.355 785.762 699.362 780.494 698.571 774.871C698.165 771.979 698.165 769.11 698.913 766.239C699.74 763.066 701.146 760.14 702.523 757.198C703.16 755.839 703.733 754.424 704.747 753.266C687.247 737.378 665.076 725.564 665.076 725.564L662.54 729.912C658.794 736.066 655.137 742.28 650.718 747.998C646.799 753.066 642.618 757.87 637.224 761.497C634.978 763.007 632.593 764.205 630.003 764.934C627.52 765.633 624.981 766.07 622.383 765.505C621.116 765.23 620.976 765.04 620.904 763.764C620.847 762.766 621.043 761.795 621.163 760.817C621.495 758.085 621.454 755.367 620.788 752.684C619.755 748.527 617.419 745.378 613.248 743.978C608.942 742.533 605.001 743.751 601.577 746.422C598.602 748.743 596.477 751.825 594.953 755.267C592.24 761.395 591.15 767.796 591.977 774.474C592.536 778.999 594.174 783.15 596.933 786.775C598.581 788.94 600.581 790.847 602.873 792.389C611.399 798.134 620.868 799.946 630.956 798.878C636.824 798.256 642.346 796.476 647.478 793.516C651.389 791.259 654.917 788.543 658.142 785.407C659.103 784.472 659.881 783.341 661.059 782.48C661.945 785.535 663.108 788.299 664.642 790.921C666.619 794.301 668.946 797.415 671.582 800.305C673.188 802.066 674.883 803.747 676.45 805.54C677.72 806.994 677.67 807.052 676.527 808.666C674.711 811.23 672.952 813.819 671.803 816.772C670.387 820.414 669.645 824.123 670.52 828.016C671.376 831.815 673.619 834.451 677.335 835.751C680.079 836.713 682.854 836.503 685.616 835.77C688.937 834.888 691.889 833.218 694.631 831.264C698.669 828.387 702.125 824.846 705.381 821.129L705.377 821.126Z" fill="#EED8A4"/>
<path d="M679.634 736.943C678.079 740.94 675.274 743.594 671.041 744.552C668.039 745.231 665.484 743.992 664.308 741.486C663.674 740.135 663.604 738.693 663.783 737.236C664.072 734.895 664.99 732.787 666.198 730.786C666.491 730.301 666.978 729.918 667.01 729.294C667.107 729.228 667.214 729.174 667.3 729.096C669.582 727.045 670 726.977 672.818 728.404C674.803 729.407 676.643 730.652 678.411 731.987C680.131 733.286 680.415 735.006 679.635 736.947L679.634 736.943Z" fill="#020202"/>
<path d="M695.165 745.517C694.136 746.984 693.247 748.549 692.012 749.873C691.09 750.859 690.069 751.712 688.891 752.365C684.598 754.744 680.138 752.423 679.709 747.573C679.463 744.797 680.284 742.307 681.954 740.09C682.302 739.628 682.701 739.202 683.077 738.759C684.905 737.422 686.777 737.32 688.778 738.448C689.886 739.074 691.098 739.512 692.242 740.08C692.811 740.362 693.362 740.701 693.863 741.09C695.461 742.328 695.774 743.451 695.165 745.517Z" fill="#020202"/>
<path d="M663.89 754.038C662.847 754.844 661.412 754.954 660.347 754.342C659.208 753.686 658.771 752.672 658.898 751.403C658.933 751.059 659.046 750.723 659.111 750.381C659.53 748.142 661.644 747.387 663.386 748.89C664.432 749.792 665.273 750.832 664.926 752.362C664.765 753.068 664.366 753.628 663.889 754.037L663.89 754.038Z" fill="#020202"/>
<rect x="653.398" y="743.565" width="10.8918" height="4.83241" rx="2" transform="rotate(30 653.398 743.565)" fill="#FFF614"/>
<path d="M622.515 718.283C617.956 718.322 613.855 719.859 610.011 722.21C608.923 722.876 607.907 723.632 607.137 724.693C606.655 725.357 605.816 725.465 605.201 725.044C604.561 724.606 604.395 723.769 604.838 723.054C605.262 722.371 605.835 721.812 606.436 721.287C607.262 720.566 608.16 719.943 609.11 719.404C612.031 717.746 615.088 716.435 618.401 715.806C619.763 715.548 621.133 715.363 622.525 715.469C622.86 715.825 623.197 716.162 623.24 716.709C623.294 717.387 622.995 717.868 622.514 718.283L622.515 718.283Z" fill="#F03D01"/>
<path d="M641.599 727.158C641.723 727.461 641.676 727.791 641.74 728.105C641.673 729.065 641.484 730.007 641.298 730.95C641.098 731.098 641.076 731.339 640.992 731.547C639.861 734.358 638.057 736.624 635.5 738.253C634.112 739.138 632.615 739.708 630.928 739.52C630.294 739.449 629.681 739.294 629.205 738.821C629.647 737.993 630.039 737.131 630.815 736.539C631.344 736.737 631.874 736.7 632.409 736.547C633.113 736.346 633.752 736.012 634.345 735.59C635.867 734.505 637.057 733.131 637.89 731.452C638.373 730.484 638.593 729.447 638.726 728.385C638.894 728.093 638.791 727.774 638.823 727.47C638.912 727.37 638.996 727.265 639.091 727.17C639.981 726.275 640.746 726.272 641.6 727.156L641.599 727.158Z" fill="#FFBC01"/>
<path d="M621.94 733.376C620.697 733.628 619.491 733.478 618.348 732.969C616.596 732.189 615.804 730.427 616.321 728.562C616.674 727.289 617.444 726.281 618.375 725.383C619.367 724.426 620.505 723.671 621.722 723.037C623.1 722.32 624.537 721.754 626.041 721.367C626.065 721.453 626.083 721.541 626.113 721.624C626.411 722.441 626.565 723.271 626.357 724.139C625.909 724.478 625.357 724.559 624.854 724.762C623.133 725.456 621.503 726.298 620.173 727.634C619.752 728.057 619.387 728.525 619.165 729.084C618.877 729.807 619.062 730.2 619.798 730.444C620.165 730.566 620.549 730.604 620.937 730.613C621.162 730.618 621.391 730.563 621.61 730.656C621.7 730.887 621.769 731.128 621.884 731.345C622.163 731.874 622.213 732.41 622.008 732.976C621.963 733.102 621.961 733.243 621.94 733.376Z" fill="#FFBC01"/>
<path d="M626.341 724.144C626.548 723.277 626.393 722.447 626.096 721.632C626.065 721.549 626.048 721.461 626.024 721.375C626.793 721.123 627.588 720.988 628.379 720.828C629.488 720.834 630.58 720.652 631.676 720.513C633.501 720.453 635.293 720.643 637.001 721.305C639.366 722.223 640.957 723.854 641.516 726.397C641.57 726.643 641.601 726.888 641.593 727.138C640.74 726.255 639.975 726.258 639.085 727.152C638.991 727.246 638.907 727.351 638.818 727.451C638.593 726.247 638.108 725.209 637.027 724.535C636.465 724.185 635.866 723.927 635.229 723.752C634.306 723.499 633.359 723.423 632.409 723.367C631.525 723.294 630.657 723.52 629.777 723.53C629.696 723.531 629.614 723.602 629.533 723.64C629.214 723.576 628.907 723.676 628.595 723.707C627.829 723.782 627.117 724.138 626.339 724.144L626.341 724.144Z" fill="#4C6EFF"/>
<path d="M649.535 740.583C647.705 743.083 645.379 744.835 642.29 745.432C641.726 745.541 641.163 745.521 640.599 745.409C638.755 745.043 637.711 743.544 638.074 741.696C638.28 740.647 638.773 739.729 639.564 738.988C640.732 739.053 641.502 739.62 641.759 740.603C641.664 740.995 641.296 741.214 641.147 741.574C641.027 741.861 640.749 742.159 640.951 742.454C641.15 742.741 641.534 742.65 641.841 742.605C642.682 742.484 643.449 742.149 644.182 741.722C645.113 741.179 645.9 740.46 646.655 739.7C646.913 739.706 647.136 739.593 647.369 739.503C647.815 739.33 648.254 739.36 648.683 739.569C649.117 739.781 649.352 740.159 649.535 740.583L649.535 740.583Z" fill="#F03D01"/>
<path d="M649.522 740.578C649.339 740.154 649.103 739.775 648.668 739.563C648.239 739.354 647.799 739.324 647.353 739.497C647.12 739.587 646.896 739.701 646.638 739.694C647.011 739.103 647.5 738.592 647.834 737.974C648.418 737.041 648.637 735.998 648.759 734.926C648.769 733.4 648.022 732.374 646.663 731.772C646.214 731.573 645.743 731.425 645.282 731.253C646.092 730.473 646.362 729.571 645.911 728.506C649.011 729.055 650.953 731.049 651.463 733.259C651.597 733.836 651.697 734.418 651.644 735.015C651.545 736.001 651.286 736.955 651.043 737.913C650.656 738.87 650.205 739.79 649.523 740.577L649.522 740.578Z" fill="#F03D01"/>
<path d="M659.836 741.204C660.152 742.58 659.736 743.767 658.865 744.823C658.336 745.466 657.663 745.937 656.938 746.332C655.633 747.045 654.239 747.532 652.825 747.968C652.217 748.155 651.694 748.017 651.275 747.558C650.676 746.901 650.866 745.837 651.664 745.388C651.938 745.235 652.251 745.143 652.554 745.053C653.516 744.764 654.448 744.402 655.335 743.931C655.675 743.75 656.013 743.551 656.315 743.312C657.08 742.708 657.223 742.095 656.856 741.201C656.804 741.076 656.761 740.947 656.714 740.82C656.845 740.697 656.969 740.565 657.108 740.453C657.621 740.036 658.167 739.931 658.799 740.189C659.296 740.392 659.528 740.828 659.836 741.204Z" fill="#4C6EFF"/>
<path d="M630.824 736.538C630.048 737.13 629.655 737.992 629.213 738.82C628.057 738.198 627.658 736.58 627.901 735.431C628.129 734.353 628.645 733.426 629.384 732.626C630.877 731.011 632.731 729.99 634.803 729.337C634.83 729.536 634.696 729.679 634.619 729.839C634.112 730.901 634.284 731.504 635.276 732.119C635.034 732.237 634.797 732.367 634.549 732.472C633.734 732.817 632.97 733.251 632.281 733.807C631.644 734.321 631.073 734.893 630.789 735.697C630.685 735.991 630.655 736.265 630.824 736.538L630.824 736.538Z" fill="#67B887"/>
<path d="M631.679 720.493C630.582 720.632 629.49 720.814 628.381 720.809C628.125 720.274 627.636 719.976 627.177 719.662C625.914 718.798 624.477 718.454 622.974 718.327C622.817 718.314 622.661 718.301 622.503 718.288C622.983 717.873 623.282 717.392 623.229 716.713C623.186 716.167 622.849 715.83 622.514 715.473C626.445 715.548 629.67 716.911 631.679 720.493L631.679 720.493Z" fill="#FFBC01"/>
<path d="M621.934 733.384C621.955 733.25 621.957 733.109 622.002 732.984C622.206 732.418 622.157 731.882 621.878 731.354C621.763 731.137 621.694 730.895 621.604 730.665C621.835 730.498 622.118 730.5 622.378 730.439C624.264 729.996 625.917 729.112 627.362 727.822C627.513 727.687 627.673 727.562 627.829 727.432C628.838 727.317 629.499 727.875 629.695 728.61C629.763 728.865 629.739 729.145 629.758 729.413C629.673 729.519 629.599 729.636 629.502 729.728C627.464 731.637 625.083 732.866 622.339 733.367C622.207 733.391 622.07 733.379 621.934 733.384Z" fill="#F03D01"/>
<path d="M641.753 740.591C641.496 739.608 640.726 739.041 639.558 738.976C640.101 738.193 640.866 737.662 641.641 737.148C642.846 736.348 644.167 735.808 645.551 735.419C645.726 735.37 645.904 735.334 646.087 735.362C645.939 735.842 645.61 736.231 645.421 736.691C645.181 737.275 645.013 737.852 645.416 738.431C644.132 738.962 642.908 739.595 641.883 740.562C641.855 740.589 641.797 740.583 641.752 740.591L641.753 740.591Z" fill="#F2934C"/>
<path d="M629.752 729.412C629.733 729.143 629.758 728.863 629.689 728.608C629.493 727.873 628.832 727.314 627.822 727.43C627.912 727.302 627.992 727.165 628.093 727.047C628.933 726.063 629.498 724.963 629.539 723.641C629.62 723.603 629.701 723.533 629.783 723.531C630.664 723.521 631.532 723.294 632.417 723.368C632.386 725.759 631.463 727.758 629.752 729.412L629.752 729.412Z" fill="#67B887"/>
<path d="M659.831 741.196C659.523 740.821 659.291 740.384 658.794 740.181C658.163 739.924 657.617 740.029 657.104 740.445C656.966 740.558 656.842 740.689 656.711 740.812C655.846 739.694 654.68 739.008 653.393 738.495C653.269 738.446 653.147 738.388 653.024 738.334C653.331 737.779 653.816 737.5 654.418 737.333C655.221 737.11 656.032 737.117 656.847 737.113C656.847 737.113 656.834 737.105 656.835 737.105C656.845 737.124 656.853 737.16 656.864 737.16C656.902 737.161 656.94 737.15 656.977 737.144C658.114 737.882 658.969 738.87 659.542 740.099C659.702 740.443 659.858 740.797 659.831 741.196L659.831 741.196Z" fill="#D085CE"/>
<path d="M645.92 728.499C646.37 729.562 646.101 730.464 645.291 731.243C643.968 731.004 642.63 730.954 641.289 730.953C641.475 730.011 641.663 729.069 641.731 728.109C643.034 728.075 644.33 728.125 645.609 728.393C645.715 728.415 645.816 728.464 645.92 728.5L645.92 728.499Z" fill="#F2934C"/>
<path d="M635.266 732.116C634.275 731.501 634.102 730.898 634.609 729.836C634.685 729.676 634.82 729.534 634.792 729.334C636.06 728.837 637.37 728.513 638.724 728.381C638.592 729.442 638.372 730.481 637.889 731.447C637.756 731.466 637.619 731.472 637.49 731.507C636.747 731.705 636.007 731.912 635.266 732.116Z" fill="#F2934C"/>
<path d="M656.845 737.105C656.03 737.108 655.219 737.101 654.417 737.325C653.815 737.492 653.33 737.771 653.023 738.326C652.362 738.181 651.718 737.959 651.036 737.917C651.279 736.961 651.537 736.008 651.636 735.023C652.248 735.174 652.864 735.312 653.471 735.478C654.542 735.774 655.555 736.21 656.495 736.807C656.625 736.889 656.785 736.939 656.845 737.105L656.845 737.105Z" fill="#FFBC01"/>
<path d="M645.41 738.435C645.006 737.856 645.174 737.278 645.414 736.695C645.603 736.234 645.932 735.846 646.081 735.365L646.075 735.368C646.142 735.38 646.189 735.351 646.22 735.292C647.052 735.057 647.906 734.98 648.763 734.927C648.641 735.999 648.422 737.04 647.838 737.973C647.567 737.903 647.304 737.968 647.042 738.03C646.497 738.161 645.954 738.3 645.41 738.435Z" fill="#FFBC01"/>
<path d="M646.22 735.29C646.189 735.349 646.142 735.377 646.074 735.366C646.1 735.296 646.15 735.274 646.22 735.29Z" fill="#F2934C"/>
<path d="M656.976 737.141C656.938 737.147 656.899 737.157 656.861 737.157C656.851 737.157 656.842 737.12 656.832 737.101C656.881 737.114 656.928 737.128 656.976 737.141Z" fill="#FFBC01"/>
<path d="M448.836 700.714C462.211 704.112 475.117 703.082 487.447 696.632C488.204 696.237 488.893 695.803 489.806 696.242C493.615 698.082 497.523 699.742 501.017 702.171C502.766 703.387 502.842 703.614 501.555 705.244C499.75 707.526 497.827 709.717 495.922 711.916C494.567 713.481 493.258 715.079 492.158 716.836C491.254 718.282 490.551 719.816 490.255 721.514C489.527 725.7 492.002 729.456 496.134 730.463C498.299 730.992 500.468 730.833 502.55 730.224C511.242 727.679 518.674 723.107 524.594 716.198C525.321 715.348 525.907 714.364 526.461 713.385C530.013 707.115 528.896 700.869 523.413 696.164C521.176 694.245 518.618 692.861 515.956 691.651C512.183 689.937 508.264 688.591 504.355 687.223C503.206 686.822 502.061 686.41 500.975 686.025C500.93 685.128 501.508 684.7 501.869 684.171C503.582 681.675 505.068 679.055 505.818 676.103C506.146 674.807 506.737 674.293 508.102 674.177C511.959 673.85 515.68 672.869 519.271 671.397C540.69 662.613 539.587 640.374 527.916 628.766C526.369 627.228 524.577 626.012 522.497 625.287C517.5 623.542 512.657 625.966 511.07 631.01C510.408 633.112 510.4 635.263 510.62 637.436C510.983 641.009 512.005 644.435 512.861 647.902C514.141 653.091 514.158 653.16 509.354 655.35C506.964 656.439 504.443 657.232 501.99 658.182C501.189 658.491 500.533 658.371 499.958 657.726C499.25 656.935 498.369 656.386 497.36 656.097C491.5 654.417 487.167 650.514 483.274 646.132C474.771 636.564 471.479 625.37 473.289 612.681C474.022 607.543 475.342 602.539 476.727 597.55C478.208 592.199 479.762 586.864 480.577 581.353C481.452 575.415 481.486 569.512 479.334 563.818C476.204 555.537 470.018 550.553 461.678 548.128C453.605 545.781 445.48 546.256 437.413 548.179C409.549 554.827 389.4 577.994 386.43 606.826C384.861 622.062 387.636 636.601 393.784 650.55C400.241 665.198 409.655 677.571 422.285 687.455C423.393 688.322 424.57 689.101 425.716 689.921C425.977 689.395 425.682 689.082 425.328 688.729C424.201 687.608 423.105 686.456 422.011 685.306C420.88 684.116 420.046 682.75 420.136 681.054C420.265 678.682 421.075 676.649 423.409 675.566C425.643 674.53 427.745 674.651 429.721 676.231C431.78 677.875 433.394 679.964 435.33 681.724C437.819 683.984 440.225 686.347 443.238 687.962C445.102 688.964 447.165 689.186 449.143 689.74C451.224 690.327 452.643 691.586 452.949 693.772C453.257 695.985 452.535 697.819 450.579 699.088C449.915 699.52 448.902 699.625 448.836 700.714ZM416.627 564.011C417.892 563.009 419.905 562.444 421.852 561.793C424.764 560.817 427.633 562.299 428.682 565.162C429.627 567.732 428.284 570.955 425.5 571.818C421.086 573.192 419.04 576.373 418.046 580.536C417.612 582.36 417.338 584.221 416.931 586.052C416.589 587.59 415.741 588.784 414.32 589.549C412.271 590.651 410.138 590.907 408.171 589.592C406.3 588.339 405.154 586.501 405.36 584.118C405.498 582.531 405.692 580.941 405.999 579.38C407.268 572.915 410.271 567.599 416.627 564.011ZM457.856 561.095C459.85 559.905 461.931 559.784 464.049 560.688C466.214 561.614 468.272 562.765 470.063 564.29C471.405 565.433 472.692 566.707 473.423 568.369C475.883 573.964 475.057 579.597 473.289 585.12C472.329 588.118 469.662 589.201 466.742 588.303C464.011 587.462 462.678 585.148 463.191 581.86C463.466 580.092 463.721 578.34 463.633 576.55C463.547 574.727 462.778 573.367 461.076 572.539C459.901 571.967 458.702 571.371 457.676 570.577C454.264 567.939 454.389 563.156 457.852 561.094L457.856 561.095ZM485.317 672.373C484.847 671.558 484.307 670.776 483.922 669.922C483.161 668.243 482.884 666.514 483.766 664.769C485.602 661.128 490.004 660.293 493.005 663.157C496.331 666.33 498.044 670.353 498.464 674.9C498.89 679.516 497.008 683.359 494.09 686.715C492.267 688.808 489.31 689.008 487.189 687.482C485.234 686.075 484.515 683.231 485.545 680.894C485.847 680.207 486.212 679.546 486.562 678.881C487.366 677.34 487.384 675.829 486.456 674.328C486.061 673.689 485.701 673.026 485.322 672.376L485.317 672.373ZM443.834 615.261C442.881 613.779 442.456 612.178 442.613 610.427C442.815 608.183 442.843 605.909 443.257 603.705C443.916 600.195 444.75 596.706 446.835 593.688C448.494 591.288 450.956 590.568 453.474 591.731C455.943 592.87 457.319 595.746 456.142 598.364C454.49 602.036 454.427 605.815 454.532 609.676C454.572 611.18 454.596 612.703 454.024 614.126C453.082 616.467 451.492 618.025 448.825 618.191C446.487 618.341 444.862 617.301 443.836 615.258L443.834 615.261ZM410.108 658.412C407.583 654.111 406.315 649.677 406.333 645.328C406.348 641.913 408.477 639.457 411.682 639.153C415.022 638.836 417.666 640.951 418.144 644.378C418.274 645.305 418.277 646.253 418.291 647.194C418.334 649.975 418.898 652.596 420.467 654.953C420.829 655.494 421.132 656.099 421.338 656.715C422.283 659.549 421.261 662.058 418.679 663.356C416.229 664.588 413.433 663.791 411.809 661.341C411.186 660.403 410.671 659.392 410.107 658.415L410.108 658.412ZM443.107 660.884C446.098 659.138 448.871 659.684 451.003 662.587C453.405 665.859 455.905 669.003 459.51 671.059C459.749 671.196 459.93 671.437 460.155 671.6C462.578 673.366 462.168 676.471 461.205 678.222C460.044 680.331 457.158 681.322 454.847 680.388C449.091 678.06 444.656 674.04 441.109 669.082C438.989 666.117 439.992 662.706 443.106 660.888L443.107 660.884ZM404.049 613.754C401.285 615.285 397.522 614.198 396.015 611.436C394.573 608.791 395.442 606.132 398.258 604.588C400.888 603.148 404.749 604.201 406.137 606.734C407.524 609.268 406.611 612.337 404.049 613.754ZM463.453 697.73C461.941 695.083 462.764 691.988 465.396 690.442C468.124 688.838 471.342 689.721 472.865 692.489C474.292 695.085 473.352 698.335 470.754 699.773C468.135 701.223 464.94 700.328 463.453 697.73ZM421.908 617.77C423.467 620.413 422.869 623.023 420.355 624.523C417.725 626.094 413.784 625.224 412.419 622.775C411.006 620.237 411.789 617.168 414.234 615.668C417.005 613.968 420.178 614.841 421.908 617.77ZM461.443 617.109C463.918 615.592 467.216 616.2 468.612 618.595C470.358 621.59 469.588 624.315 466.848 626.188C464.751 627.624 461.049 626.508 459.624 624.26C458.188 621.993 459.059 618.573 461.443 617.109ZM440.142 581.169C442.412 579.85 446.099 580.778 447.351 582.979C448.701 585.357 447.71 589.179 445.417 590.435C442.97 591.775 439.51 590.739 438.101 588.241C436.735 585.825 437.665 582.609 440.145 581.168L440.142 581.169ZM478.209 659.033C475.329 661.176 472.097 659.296 470.901 657.321C469.465 654.953 470.464 651.654 472.939 650.232C475.473 648.779 478.636 649.55 480.072 651.974C481.505 654.393 480.668 657.561 478.21 659.029L478.209 659.033Z" fill="#F03D01"/>
<path d="M448.838 700.715C448.904 699.626 449.915 699.523 450.581 699.089C452.537 697.82 453.26 695.986 452.951 693.773C452.645 691.587 451.226 690.328 449.145 689.741C447.166 689.184 445.106 688.961 443.24 687.963C440.228 686.344 437.822 683.981 435.332 681.725C433.395 679.969 431.779 677.877 429.724 676.232C427.748 674.652 425.643 674.533 423.411 675.567C421.077 676.65 420.27 678.682 420.139 681.055C420.047 682.749 420.878 684.116 422.013 685.307C423.109 686.459 424.206 687.607 425.33 688.73C425.684 689.083 425.979 689.396 425.718 689.922C430.604 693.575 435.987 696.32 441.663 698.489C443.999 699.381 446.292 700.466 448.836 700.717L448.838 700.715Z" fill="#F2934C"/>
<path d="M416.628 564.01C410.271 567.598 407.269 572.914 406 579.38C405.693 580.94 405.496 582.532 405.361 584.117C405.155 586.501 406.301 588.339 408.172 589.591C410.139 590.906 412.269 590.651 414.321 589.548C415.744 588.786 416.59 587.589 416.931 586.051C417.339 584.22 417.612 582.359 418.047 580.535C419.038 576.374 421.087 573.191 425.501 571.817C428.286 570.95 429.627 567.729 428.683 565.161C427.631 562.3 424.765 560.816 421.853 561.792C419.907 562.446 417.893 563.009 416.628 564.01Z" fill="#F2934C"/>
<path d="M457.858 561.097C454.395 563.158 454.27 567.942 457.681 570.579C458.708 571.373 459.907 571.97 461.082 572.541C462.786 573.368 463.553 574.73 463.639 576.553C463.725 578.34 463.472 580.095 463.197 581.862C462.684 585.15 464.017 587.464 466.747 588.305C469.667 589.204 472.333 588.124 473.295 585.122C475.062 579.599 475.889 573.967 473.429 568.372C472.697 566.709 471.411 565.436 470.069 564.292C468.278 562.768 466.22 561.617 464.054 560.691C461.935 559.784 459.856 559.907 457.862 561.098L457.858 561.097Z" fill="#F2934C"/>
<path d="M485.319 672.372C485.695 673.022 486.055 673.686 486.453 674.324C487.383 675.827 487.364 677.338 486.559 678.876C486.211 679.544 485.846 680.201 485.542 680.889C484.511 683.23 485.233 686.073 487.186 687.478C489.308 689.006 492.264 688.803 494.087 686.71C497.009 683.356 498.887 679.511 498.461 674.896C498.041 670.348 496.326 666.327 493.002 663.153C490.001 660.288 485.599 661.123 483.763 664.764C482.881 666.51 483.158 668.239 483.919 669.917C484.304 670.772 484.844 671.553 485.314 672.368L485.319 672.372Z" fill="#F2934C"/>
<path d="M443.836 615.262C444.86 617.307 446.487 618.345 448.825 618.195C451.494 618.025 453.081 616.469 454.025 614.13C454.599 612.705 454.573 611.18 454.532 609.68C454.43 605.817 454.49 602.04 456.142 598.368C457.319 595.75 455.943 592.874 453.474 591.735C450.952 590.571 448.493 591.29 446.835 593.692C444.75 596.71 443.918 600.202 443.258 603.709C442.843 605.913 442.816 608.189 442.613 610.431C442.455 612.18 442.881 613.783 443.835 615.265L443.836 615.262Z" fill="#F2934C"/>
<path d="M410.108 658.409C410.672 659.386 411.187 660.397 411.81 661.335C413.433 663.785 416.231 664.584 418.68 663.35C421.262 662.052 422.284 659.543 421.339 656.709C421.133 656.093 420.827 655.49 420.468 654.947C418.896 652.592 418.334 649.967 418.292 647.188C418.279 646.249 418.275 645.299 418.145 644.373C417.667 640.945 415.023 638.83 411.682 639.147C408.477 639.451 406.348 641.911 406.333 645.322C406.314 649.673 407.581 654.106 410.109 658.406L410.108 658.409Z" fill="#F2934C"/>
<path d="M443.105 660.882C439.991 662.7 438.988 666.111 441.108 669.076C444.652 674.035 449.092 678.056 454.846 680.382C457.156 681.315 460.043 680.324 461.204 678.215C462.167 676.465 462.575 673.362 460.154 671.594C459.928 671.428 459.748 671.189 459.509 671.053C455.903 669.001 453.404 665.853 451.002 662.58C448.873 659.679 446.099 659.134 443.106 660.878L443.105 660.882Z" fill="#F2934C"/>
<path d="M404.049 613.754C406.614 612.335 407.525 609.268 406.137 606.734C404.749 604.201 400.886 603.149 398.258 604.588C395.441 606.129 394.569 608.789 396.016 611.436C397.522 614.198 401.288 615.283 404.049 613.754Z" fill="#F2934C"/>
<path d="M463.452 697.728C464.938 700.325 468.134 701.221 470.752 699.771C473.351 698.333 474.29 695.082 472.863 692.487C471.34 689.718 468.122 688.835 465.394 690.44C462.763 691.985 461.939 695.08 463.452 697.728Z" fill="#F2934C"/>
<path d="M421.907 617.768C420.175 614.836 417.004 613.965 414.233 615.666C411.788 617.166 411.005 620.235 412.418 622.773C413.78 625.223 417.724 626.092 420.354 624.521C422.868 623.021 423.468 620.41 421.907 617.768Z" fill="#F2934C"/>
<path d="M461.443 617.107C459.058 618.569 458.188 621.991 459.624 624.258C461.049 626.506 464.751 627.622 466.848 626.186C469.588 624.314 470.36 621.587 468.612 618.593C467.216 616.198 463.919 615.59 461.443 617.107Z" fill="#F2934C"/>
<path d="M440.141 581.168C437.661 582.609 436.732 585.825 438.097 588.24C439.509 590.737 442.967 591.775 445.413 590.434C447.706 589.179 448.697 585.357 447.347 582.978C446.098 580.776 442.408 579.849 440.139 581.169L440.141 581.168Z" fill="#F2934C"/>
<path d="M478.206 659.03C480.667 657.561 481.502 654.397 480.068 651.975C478.632 649.551 475.468 648.777 472.935 650.233C470.459 651.653 469.459 654.951 470.897 657.322C472.094 659.293 475.323 661.174 478.205 659.034L478.206 659.03Z" fill="#F2934C"/>
<path d="M474.301 675.608C474.48 677.896 473.889 679.715 472.77 681.399C472.25 682.182 471.647 682.919 471.203 683.743C470.336 685.356 470.653 686.853 471.95 687.749C473.244 688.64 474.82 688.477 475.991 687.119C478.303 684.433 479.959 681.412 480.313 677.798C480.845 672.362 479.121 667.585 475.976 663.267C474.72 661.545 472.942 661.217 471.562 662.229C470.266 663.177 470.03 664.758 470.967 666.534C471.48 667.507 472.061 668.444 472.857 669.824C469.993 670.434 467.56 671.177 465.078 671.438C453.296 672.677 442.231 670.341 431.985 664.36C428.633 662.403 425.662 659.959 423.243 656.882C421.939 655.223 420.974 653.428 420.66 651.319C420.592 650.856 420.528 650.377 420.36 649.945C419.818 648.542 418.684 647.849 417.283 647.996C415.859 648.146 414.895 649.064 414.859 650.341C414.815 651.988 415 653.738 415.54 655.283C416.675 658.527 418.698 661.284 421.219 663.6C423.083 665.314 425.003 667.041 427.141 668.364C441.407 677.199 456.683 680.125 473.109 675.895C473.38 675.827 473.653 675.763 474.296 675.611L474.301 675.608Z" fill="black"/>
<path d="M435.645 606.411C436.259 607.475 436.787 608.225 437.151 609.048C438.986 613.17 440.767 617.317 442.586 621.445C443.768 624.126 445.45 625.1 447.262 624.204C448.945 623.372 449.194 621.604 448.065 619.016C446.445 615.312 444.904 611.575 443.248 607.887C442.48 606.178 441.664 604.459 440.63 602.906C438.758 600.094 435.951 599.493 433.02 601.169C431.97 601.769 430.863 602.447 430.107 603.357C426.926 607.173 423.862 611.089 420.776 614.982C420.491 615.343 420.294 615.799 420.157 616.24C419.761 617.542 420.066 618.681 421.176 619.496C422.291 620.314 423.517 620.291 424.572 619.45C425.288 618.877 425.839 618.079 426.413 617.343C428.554 614.609 430.642 611.834 432.826 609.135C433.574 608.21 434.54 607.463 435.643 606.408L435.645 606.411Z" fill="black"/>
<path d="M406.758 594.557C407.177 597.131 407.563 599.336 407.888 601.549C408.286 604.246 408.62 606.954 409.012 609.651C409.12 610.392 409.225 611.173 409.548 611.828C410.138 613.037 411.201 613.589 412.567 613.439C413.849 613.299 414.61 612.498 414.921 611.323C415.084 610.707 415.095 610.009 415.005 609.372C414.331 604.531 413.755 599.669 412.876 594.862C411.778 588.869 408.85 587.205 403.185 589.396C399.597 590.783 396.169 592.589 392.672 594.206C392.502 594.285 392.342 594.387 392.183 594.489C390.021 595.854 389.335 597.53 390.281 599.124C391.221 600.702 392.957 600.91 395.249 599.658C398.798 597.724 402.421 595.968 406.754 594.556L406.758 594.557Z" fill="black"/>
<path d="M494.649 473.047C496.746 465.486 488.07 459.613 482.136 464.746C468.87 476.221 451.969 492.024 441.454 506.293C432.503 518.439 422.635 536.997 417.453 547.178C415.416 551.178 417.174 556.017 421.263 557.87L468.857 579.441C474.184 581.856 480.252 577.933 480.32 572.084C480.461 560.058 480.959 541.787 482.596 528.313C484.672 511.238 490.079 489.52 494.649 473.047Z" fill="#767DBC"/>
<circle cx="7.42016" cy="7.42016" r="7.42016" transform="matrix(-0.736076 -0.676898 -0.676898 0.736076 480.834 553.576)" fill="white"/>
<circle cx="3.71008" cy="3.71008" r="3.71008" transform="matrix(-0.736076 -0.676898 -0.676898 0.736076 466.965 515.058)" fill="white"/>
<circle cx="3.71008" cy="3.71008" r="3.71008" transform="matrix(-0.736076 -0.676898 -0.676898 0.736076 489.172 501.878)" fill="white"/>
<path d="M1071.88 676.729C1068.73 677.574 1065.49 675.704 1064.65 672.554C1063.06 666.633 1063.82 662.997 1064.43 660.075C1064.9 657.785 1065.22 656.27 1064.36 653.064C1063.8 650.984 1062.83 650.336 1060.08 648.769C1056.91 646.957 1052.12 644.218 1050.26 637.276C1048.4 630.335 1051.18 625.566 1053.02 622.41C1054.61 619.683 1055.13 618.634 1054.58 616.555C1054.02 614.475 1053.04 613.828 1050.3 612.262C1047.13 610.45 1042.33 607.711 1040.48 600.77C1038.62 593.829 1041.4 589.061 1043.24 585.905C1044.83 583.178 1045.35 582.129 1044.8 580.049C1044.24 577.97 1043.26 577.323 1040.52 575.757C1037.35 573.945 1032.55 571.207 1030.69 564.265C1028.83 557.324 1031.62 552.555 1033.46 549.401C1035.05 546.674 1035.57 545.626 1035.01 543.547C1034.46 541.469 1033.48 540.822 1030.74 539.255C1027.57 537.444 1022.77 534.706 1020.91 527.765C1019.33 521.845 1020.09 518.211 1020.7 515.29C1021.17 513 1021.49 511.487 1020.63 508.283C1019.79 505.133 1021.66 501.895 1024.81 501.051C1027.96 500.207 1031.19 502.076 1032.04 505.227C1033.62 511.147 1032.87 514.781 1032.26 517.702C1031.78 519.992 1031.46 521.505 1032.32 524.708C1032.88 526.787 1033.86 527.433 1036.6 528.999C1039.77 530.811 1044.56 533.549 1046.42 540.49C1048.28 547.431 1045.5 552.199 1043.66 555.354C1042.07 558.08 1041.55 559.13 1042.1 561.208C1042.66 563.287 1043.64 563.934 1046.38 565.501C1049.55 567.313 1054.34 570.051 1056.2 576.992C1058.06 583.934 1055.28 588.703 1053.44 591.858C1051.85 594.585 1051.33 595.634 1051.88 597.713C1052.44 599.792 1053.42 600.439 1056.16 602.006C1059.33 603.818 1064.13 606.556 1065.99 613.498C1067.85 620.439 1065.06 625.208 1063.22 628.363C1061.63 631.09 1061.11 632.139 1061.67 634.219C1062.22 636.3 1063.2 636.947 1065.94 638.514C1069.11 640.326 1073.91 643.065 1075.77 650.007C1077.36 655.928 1076.6 659.564 1075.99 662.486C1075.51 664.777 1075.2 666.29 1076.06 669.497C1076.9 672.648 1075.03 675.885 1071.88 676.729Z" fill="white"/>
<path d="M1067.09 351.851C1078.45 394.244 1062.75 473.13 1020.36 484.489C977.966 495.848 924.929 435.38 913.569 392.986C902.21 350.592 927.369 307.017 969.762 295.658C1012.15 284.299 1055.73 309.457 1067.09 351.851Z" fill="#FFBC01"/>
<path d="M1009.86 295.375C1019.04 304.795 1026.02 316.627 1029.66 330.241C1041.02 372.634 1025.33 451.52 982.933 462.879C975.303 464.923 967.328 464.631 959.315 462.546C978.43 479.423 1000.55 489.791 1020.36 484.485C1062.75 473.126 1078.45 394.241 1067.09 351.847C1059.38 323.067 1036.81 302.235 1009.86 295.375Z" fill="#EEAF00"/>
<path d="M1037.17 498.075C1038.99 504.858 1033.73 507.224 1026.95 509.042C1020.17 510.859 1014.43 511.439 1012.61 504.656C1010.79 497.874 1013.58 486.296 1020.37 484.478C1027.15 482.661 1035.36 491.292 1037.17 498.075Z" fill="#FFBC01"/>
<path d="M165.394 524.728C162.166 524.257 159.931 521.26 160.402 518.033C161.286 511.967 163.419 508.927 165.133 506.484C166.478 504.569 167.366 503.302 167.845 500.018C168.155 497.887 167.514 496.906 165.615 494.382C163.417 491.463 160.097 487.052 161.133 479.94C162.17 472.829 166.611 469.549 169.55 467.379C172.09 465.503 172.984 464.746 173.295 462.616C173.605 460.485 172.964 459.505 171.064 456.982C168.867 454.063 165.547 449.652 166.583 442.541C167.619 435.431 172.06 432.151 174.999 429.981C177.539 428.105 178.434 427.348 178.744 425.217C179.055 423.087 178.413 422.107 176.515 419.584C174.317 416.665 170.996 412.255 172.032 405.144C173.068 398.032 177.51 394.753 180.449 392.584C182.989 390.708 183.883 389.952 184.193 387.822C184.503 385.693 183.862 384.713 181.963 382.19C179.766 379.272 176.445 374.862 177.481 367.751C178.364 361.686 180.498 358.648 182.213 356.206C183.557 354.291 184.445 353.026 184.923 349.745C185.394 346.517 188.391 344.282 191.619 344.752C194.846 345.223 197.081 348.22 196.611 351.448C195.727 357.513 193.594 360.551 191.879 362.993C190.535 364.908 189.647 366.172 189.169 369.454C188.858 371.583 189.5 372.563 191.399 375.086C193.596 378.004 196.917 382.414 195.881 389.525C194.845 396.636 190.403 399.915 187.465 402.085C184.925 403.96 184.03 404.717 183.72 406.847C183.41 408.977 184.051 409.957 185.95 412.48C188.147 415.399 191.468 419.809 190.432 426.92C189.396 434.032 184.954 437.312 182.015 439.482C179.476 441.357 178.581 442.115 178.271 444.245C177.96 446.375 178.602 447.355 180.5 449.878C182.698 452.796 186.019 457.208 184.983 464.319C183.947 471.429 179.506 474.71 176.567 476.88C174.026 478.755 173.132 479.512 172.821 481.643C172.511 483.775 173.152 484.755 175.051 487.28C177.249 490.198 180.569 494.609 179.533 501.721C178.649 507.787 176.515 510.827 174.801 513.27C173.457 515.185 172.568 516.451 172.09 519.736C171.619 522.964 168.621 525.198 165.394 524.728Z" fill="white"/>
<path d="M289.449 224.429C283.121 267.859 237.512 334.11 194.082 327.782C150.652 321.453 125.845 244.942 132.174 201.512C138.502 158.081 178.84 128.004 222.27 134.333C265.7 140.661 295.777 180.999 289.449 224.429Z" fill="#FF7A72"/>
<path d="M259.211 149.926C263.923 162.21 265.65 175.835 263.618 189.781C257.29 233.212 211.681 299.463 168.251 293.134C160.434 291.995 153.225 288.574 146.689 283.49C157.573 306.55 173.795 324.821 194.083 327.777C237.513 334.106 283.121 267.855 289.45 224.425C293.745 194.94 281.259 166.886 259.211 149.926Z" fill="#EF5D55"/>
<path d="M204.156 346.908C203.143 353.857 197.377 353.951 190.428 352.939C183.479 351.926 177.98 350.191 178.992 343.242C180.005 336.293 187.146 326.762 194.095 327.775C201.044 328.787 205.168 339.96 204.156 346.908Z" fill="#FF7A72"/>
<path d="M885.138 173.061C885.135 173.063 885.131 173.06 885.133 173.057C886.191 171.607 887.282 170.072 888.357 168.469C888.462 168.329 888.519 168.245 888.545 168.205C888.548 168.201 888.55 168.19 888.547 168.194V168.194C888.543 168.197 888.531 168.2 888.534 168.195C891.118 164.291 893.529 160.029 894.864 155.801C895.15 154.897 895.396 153.979 895.608 153.05C895.96 151.512 896.811 150.129 898.035 149.134C902.696 145.341 906.787 140.519 910.214 135.855C910.867 134.968 911.487 134.065 912.106 133.146C912.138 133.098 912.18 133.057 912.206 133.005V133.005C919.003 122.738 922.731 111.044 920.244 99.3987C919.315 95.0475 913.885 94.5284 911.244 98.1096L910.323 99.3589C908.973 101.19 908.815 103.614 909.643 105.733C912.705 113.575 912.898 122.051 910.815 130.396C910.386 132.112 909.767 133.762 909.075 135.38C908.746 136.149 908.251 136.838 907.609 137.374C907.456 137.502 907.31 137.62 907.175 137.726C905.97 138.706 904.681 139.542 903.33 140.258C899.982 142.03 896.334 139.279 895.356 135.62C893.632 129.17 890.032 123.302 884.494 119.187C880.253 116.046 873.934 112.046 868.56 114.724C867.838 115.085 867.147 115.618 866.473 116.204C866.453 116.222 866.429 116.202 866.448 116.183V116.183C862.585 119.496 861.383 122.328 859.872 125.144C859.082 126.448 858.344 127.65 857.657 128.662C851.133 138.035 862.568 150.84 870.552 154.273C873.693 155.628 876.716 156.266 879.618 156.333C883.643 156.425 887.658 159.178 887.018 163.152C886.763 164.732 886.427 166.283 886.022 167.783C885.747 168.786 885.414 169.755 885.041 170.709C884.717 171.534 884.186 172.261 883.514 172.84C883.064 173.228 882.68 173.546 882.416 173.739C881.23 174.573 879.975 175.253 878.671 175.807C875.299 177.239 872.054 174.269 871.015 170.755C870.266 168.225 869.06 165.805 867.324 163.594C862.825 157.861 856.61 162.032 853.296 166.427C849.811 171.044 840.487 179.541 844.814 186.15C847.105 189.65 851.463 190.803 856.253 190.649C859.769 190.536 863.214 193.039 862.585 196.5V196.5C862.273 198.214 861.681 199.847 860.982 201.435C860.688 202.103 860.256 202.7 859.727 203.202C859.461 203.456 859.194 203.71 858.928 203.967C853.828 208.774 847.853 212.619 841.81 216.103C832.159 221.692 821.673 226.1 810.987 229.418C810.065 229.704 809.255 230.273 808.682 231.05V231.05C806.136 234.505 809.4 239.023 813.391 237.445C821.94 234.066 830.197 229.947 837.981 225.098C845.66 220.306 851.806 214.399 857.317 207.746C857.443 207.593 858.83 205.915 858.945 205.753V205.753C861.332 202.749 863.632 199.607 865.882 196.363C867.283 194.338 868.496 192.095 869.47 189.739C870.117 188.175 871.297 186.889 872.787 186.083C873.573 185.658 874.273 185.23 874.861 184.811C879.47 181.539 881.873 177.55 885.142 173.065C885.144 173.062 885.14 173.058 885.138 173.061V173.061ZM869.178 134.276C869.121 134.201 869.065 134.126 869.009 134.05C866.459 130.599 869.884 127.143 873.437 129.547C876.314 131.494 878.834 133.811 880.407 135.529V135.529C883.381 138.777 880.073 142.893 876.287 140.643C873.577 139.033 871.158 136.881 869.178 134.276ZM852.691 171.937C852.694 171.937 852.696 171.936 852.698 171.934C853.573 171.18 854.533 170.512 855.185 170.752C856.197 171.13 857.089 171.744 857.874 172.541C859.814 174.51 857.471 177.287 855.246 175.647C854.002 174.73 853.072 173.52 852.681 171.95C852.68 171.943 852.685 171.937 852.691 171.937V171.937Z" fill="#FFDF85"/>
<path d="M920.208 99.3918C919.28 95.0421 913.853 94.5237 911.213 98.1027L910.273 99.3765C908.922 101.208 908.764 103.632 909.592 105.752C912.654 113.594 912.847 122.069 910.764 130.414C910.645 130.888 910.512 131.358 910.367 131.822C910.018 132.94 911.382 133.886 912.154 133.006V133.006C918.951 122.738 922.69 111.033 920.208 99.3918Z" fill="#FFBC01"/>
<path d="M853.004 172.915C853.828 172.949 854.652 173.052 855.442 173.344C857.503 174.117 859.048 175.679 860.198 177.67C861.915 178.03 863.701 178.168 865.28 178.133C867.478 178.082 869.727 177.962 871.942 177.618C871.942 172.64 870.552 167.748 867.289 163.594C862.791 157.861 856.575 162.032 853.262 166.427C853.227 166.478 853.193 166.53 853.141 166.564C852.832 167.474 852.592 168.572 852.523 169.413C852.403 170.752 852.592 171.902 853.004 172.881V172.915Z" fill="#FFBC01"/>
<path d="M858.877 205.804C858.637 206.113 858.379 206.422 858.122 206.731C858.002 206.989 858.259 206.68 858.877 205.804Z" fill="#8A3CE5"/>
<path d="M862.551 196.553C862.173 198.63 861.384 200.587 860.491 202.492C861.246 201.754 862.002 200.999 862.706 200.209C860.903 202.904 859.632 204.758 858.894 205.822C861.281 202.818 863.581 199.677 865.831 196.432C867.719 193.703 869.265 190.579 870.346 187.318C868.183 188.279 865.642 189.137 862.998 189.755C863.066 192.347 862.877 194.767 862.551 196.57V196.553Z" fill="#FFBC01"/>
<path d="M865.357 197.101C865.353 197.101 865.349 197.103 865.346 197.106C864.634 197.905 861.245 201.755 860.491 202.491C859.959 203.006 859.427 203.504 858.895 204.019C853.795 208.825 847.82 212.67 841.776 216.155C832.125 221.743 821.64 226.152 810.954 229.47C810.032 229.756 809.222 230.325 808.649 231.102V231.102C806.103 234.557 809.367 239.074 813.358 237.497C821.907 234.118 830.164 229.999 837.947 225.15C846.034 220.103 852.181 214.49 857.933 207.418C858.191 207.109 858.431 206.8 858.689 206.491C860.795 204.18 863.566 199.821 865.37 197.124C865.376 197.114 865.369 197.101 865.357 197.101V197.101Z" fill="#FFDF85"/>
<path d="M912.188 133.006C912.188 133.023 912.171 133.04 912.154 133.057C912.171 133.04 912.188 133.023 912.205 132.989L912.188 133.006Z" fill="#8A3CE5"/>
<path d="M894.865 155.802C895.397 154.12 895.792 152.386 896.084 150.635C893.423 152.575 890.573 154.12 887.568 155.115C887.688 159.441 887.104 163.801 886.023 167.8C885.645 169.225 885.113 170.581 884.529 171.937L887.946 169.036C890.83 164.917 893.303 160.78 894.882 155.802H894.865Z" fill="#FFBC01"/>
<path d="M912.138 133.075C908.447 138.413 906.438 140.542 908.258 137.246C908.361 137.023 908.447 136.8 908.533 136.577C908.018 137.04 907.537 137.452 907.142 137.761C904.017 140.301 900.326 141.881 896.462 142.876C894.934 143.271 893.389 143.563 891.844 143.786C889.663 144.095 887.5 144.095 885.405 143.82C879.001 142.996 873.18 139.58 869.162 134.294C867.497 132.114 865.986 129.058 865.231 125.917C864.424 122.535 864.509 119.016 866.347 116.321C863.857 118.553 861.196 121.711 859.324 124.801C858.534 126.106 857.83 127.307 857.144 128.303C850.636 137.675 862.552 150.858 870.536 154.308C876.666 156.952 882.349 156.866 887.551 155.132C890.556 154.12 893.406 152.575 896.067 150.652C901.545 146.687 906.301 141.177 910.198 135.873C910.868 134.963 911.503 134.036 912.138 133.092V133.075Z" fill="#FFDF85"/>
<path d="M865.247 125.917C871.016 126.861 877.42 132.285 880.408 135.547C882.64 137.984 884.271 140.799 885.421 143.82C887.516 144.095 889.679 144.095 891.86 143.786C893.405 143.563 894.95 143.254 896.478 142.876C895.981 133.71 892.032 124.835 884.477 119.222C880.236 116.081 873.917 112.082 868.543 114.759C867.788 115.137 867.067 115.703 866.363 116.321C864.543 119.016 864.44 122.535 865.247 125.917Z" fill="#FFBC01"/>
<path d="M999.132 696.151C995.984 706.258 990.496 715.959 980.701 719.663C982.209 731.899 980.461 743.042 976.972 755.342C976.972 755.342 975.427 760.184 974.91 762.219C971.201 773.8 966.534 784.134 957.628 793.249C946.11 805.021 916.081 835.049 914.541 816.071C913.942 808.692 916.68 804.562 919.856 797.876C930.298 775.895 959.954 782.205 972.015 763.782C973.365 761.723 974.46 759.484 975.548 757.272C975.575 757.169 975.654 757.08 975.681 756.978C976.275 753.532 976.611 750.018 976.444 746.534C976.123 739.624 974.647 732.707 973.066 725.982C972.705 724.455 972.339 722.843 971.884 721.153C962.559 721.048 953.349 715.691 946.768 709.553C940.429 703.644 938.647 698.489 939.712 691.538C940.116 688.179 942.027 679.611 943.712 675.991C944.324 674.531 945.068 673.189 946.11 672.175C950.143 668.111 956.717 669.239 960.962 672.083C969.872 678.047 974.387 690.868 977.208 702.411C986.145 702.219 994.745 697.947 1000.18 688.451C1000.39 688.068 1000.55 687.671 1000.74 687.281C1001.07 683.792 1000.75 680.267 1000.21 676.822C998.974 668.51 995.187 660.672 990.814 653.584C981.416 638.354 966.983 626.204 951.519 617.493C941.527 611.871 929.236 607.642 917.175 606.97C916.944 610.705 916.385 614.435 915.492 618.075C914.737 621.202 914.489 622.539 913.769 624.713C911.282 634.199 909.403 644.29 898.06 645.763C890.082 646.789 881.689 641.156 878.99 633.774C877.493 629.713 878.948 625.618 880.084 621.685C881.838 615.551 883.009 608.408 886.677 603.035C890.398 597.566 896.112 593.897 902.467 591.637C899.06 586.9 894.865 582.639 890.026 579.141C873.483 567.169 837.51 571.088 820.473 573.815C816.238 574.493 812.539 570.521 813.745 566.406V566.406V566.406C815.36 560.845 820.127 556.785 825.893 556.236C846.289 554.293 894.033 552.448 909.322 575.396C912.133 579.589 914.066 584.179 915.359 588.901C919.077 588.576 922.732 588.592 926.136 588.927C943.419 590.641 959.722 599.714 973.157 610.248C986.681 620.861 998.237 635.019 1003.77 651.442C1008.95 666.892 1003.67 681.379 999.06 696.214L999.132 696.151ZM952.147 688.349C951.085 687.899 949.902 687.692 948.704 687.646C952.751 693.078 958.089 697.178 963.938 699.68C960.968 694.647 957.165 690.464 952.147 688.349ZM885.108 617.308C886.086 619.304 887.539 621.069 889.144 622.572C893.871 627.003 901.034 628.812 907.18 626.717C909.235 626.029 910.914 624.69 912.3 623.108C912.294 620.052 911.933 616.984 911.552 613.993C911.231 611.596 910.69 609.304 910.058 607.044C900.913 607.703 892.211 610.819 885.127 617.341L885.108 617.308Z" fill="#F26C64"/>
<path d="M946.161 672.189C950.194 668.124 956.769 669.253 961.013 672.097C969.923 678.061 974.438 690.882 977.26 702.425C979.325 709.912 980.719 719.696 980.719 719.696C982.16 731.363 980.619 742.039 977.452 753.655C976.782 755.127 976.149 756.36 975.545 757.382C975.545 757.382 975.559 757.33 975.566 757.305C975.594 757.202 975.672 757.113 975.7 757.01C976.293 753.565 976.63 750.05 976.463 746.566C976.141 739.656 974.666 732.74 973.084 726.015C972.723 724.487 972.357 722.876 971.902 721.186C969.546 711.089 963.88 699.692 963.88 699.692C960.91 694.659 957.106 690.476 952.089 688.361C951.026 687.911 949.844 687.704 948.646 687.658C945.69 687.499 942.101 689.702 939.746 691.41C940.178 687.948 942.059 679.593 943.712 675.991C944.323 674.531 945.068 673.19 946.11 672.176L946.161 672.189Z" fill="#FF7A72"/>
<path d="M973.229 610.185C986.753 620.798 998.309 634.956 1003.84 651.379C1006.86 660.332 1006.33 668.969 1004.47 677.551C1003.06 681.711 1001.64 685.156 1000.8 687.05C1001.08 683.632 1000.77 680.19 1000.27 676.81C999.032 668.498 995.246 660.66 990.873 653.572C981.475 638.342 967.042 626.193 951.578 617.481C941.586 611.86 929.295 607.631 917.234 606.958C914.967 606.791 914.55 606.707 910.014 607.005C900.869 607.664 892.167 610.78 885.083 617.302C882.347 619.402 880.281 623.004 878.913 626.159C879.261 624.657 879.725 623.13 880.149 621.648C881.903 615.514 883.074 608.371 886.742 602.998C890.463 597.529 896.178 593.86 902.533 591.6C908.346 589.718 915.406 588.831 915.406 588.831C919.124 588.506 922.778 588.523 926.183 588.857C943.466 590.571 959.768 599.645 973.204 610.178L973.229 610.185Z" fill="#FF7A72"/>
<path d="M863.515 425.202C862.979 428.11 860.979 430.467 858.146 431.314C844.556 435.378 801.653 444.563 754.918 416.912C749.939 413.967 749.471 407.004 752.799 402.272C754.873 399.323 756.598 396.332 757.989 393.612C760.66 388.39 767.381 385.844 772.646 388.431C790.532 397.219 828.17 411.988 853.687 395.946C859.094 392.547 865.995 393.829 866.075 400.216C866.187 409.14 864.584 419.406 863.515 425.202Z" fill="#67B887"/>
<path d="M240.226 537.956C238.357 540.248 237.926 543.339 239.283 545.967C243.423 553.984 254.75 571.223 278.766 579.847C283.023 581.376 288.124 574.978 289.8 570.777V570.777C291.501 566.517 288.144 564.044 283.949 562.187C274.939 558.197 261.244 550.501 256.061 538.941C253.448 533.113 248.054 529.202 243.728 533.901C242.422 535.321 241.223 536.732 240.226 537.956Z" fill="#FFBC01"/>
<path d="M351.211 428.19C353.768 428.501 356.26 427.528 357.905 425.546C366.492 415.196 392.393 378.807 384.685 324.183C383.877 318.455 377.692 315.403 372.359 317.642C370.265 318.521 368.397 319.27 366.777 319.898C362.603 321.515 359.926 325.804 360.301 330.264C361.818 348.32 362.649 393.115 336.373 411.715C331.158 415.407 329.618 422.46 335.62 424.651C341.264 426.712 347.342 427.719 351.211 428.19Z" fill="#FFBC01"/>
</svg>
