<svg width="1636" height="1516" viewBox="0 0 1636 1516" fill="none" xmlns="http://www.w3.org/2000/svg">
<path d="M307.662 955.57C301.802 953.307 295.623 951.006 289.228 948.824C288.397 948.491 288.063 948.395 288.063 948.395C288.063 948.395 288.209 948.479 288.282 948.521C272.8 943.335 256.262 939.049 240.813 938.367C234.682 938.093 228.502 938.327 222.358 938.922C204.106 924.091 181.314 913.073 159.987 904.754C156.328 903.324 152.642 902.024 148.898 900.74C148.825 900.697 148.752 900.655 148.621 900.628C97.428 883.496 43.0124 884.785 0.965062 923.006L49.3069 941.953C74.6829 919.018 106.839 908.238 141.108 907.649C148.738 907.521 156.284 908.467 163.777 909.674C165.798 910.987 167.614 912.231 169.008 913.28C180.355 921.491 188.984 932.471 195.806 944.553C165.46 954.477 139.201 975.732 127.145 1006.16C120.409 1023.24 112.661 1048.07 126.494 1063.71C128.443 1065.91 130.995 1067.82 133.705 1069.63C133.574 1069.6 133.443 1069.58 133.297 1069.49C147.904 1079.49 158.501 1080.98 169.319 1083.52C174.412 1085 179.113 1086.4 183.134 1087.79C220.493 1101.27 253.219 1051.33 257.565 1021.42C260.928 998.447 255.524 979.431 245.017 963.515C259.441 959.217 274.614 957.253 289.024 957.287C294.223 957.316 299.3 957.81 304.381 958.551C307.765 960.797 310.782 962.832 312.28 964.038C322.474 972.559 329.526 983.652 334.709 995.616C317.986 1000.1 302.803 1009.17 291.784 1023.87C276.573 1044.15 296.181 1061.27 313.926 1068.45C332.576 1076 369.514 1099.67 387.821 1079.19C401.991 1063.34 395.351 1037.17 383.39 1014.91C392.324 1012.26 400.61 1010.66 406.597 1010.17C413.915 1009.57 421.2 1010.46 428.404 1011.75C430.613 1013.07 432.765 1014.41 434.974 1015.74C455.711 1028.54 474.007 1045.15 491.154 1062.32C519.833 1090.93 545.006 1123.75 566.37 1158.27L614.639 1177.17C589.614 1136.83 559.455 1099.47 524.818 1067.09C500.584 1044.46 473.728 1028.66 444.75 1015.77C445.723 1015.95 444.453 1015.36 440.956 1014.07C428.716 1008.76 416.092 1003.86 403.168 999.22C392.299 995.332 380.413 992.953 368.482 992.255C364.222 986.967 360.006 982.533 356.275 979.452C341.103 966.887 325.503 962.412 307.442 955.443L307.662 955.57ZM191.62 1044.03C185.796 1051.59 176.891 1059.42 167.018 1064.78C164.997 1044.55 177.455 1018.15 185.722 1005.18C191.901 995.49 199.89 987.476 209.004 980.892C212.001 1003.15 205.765 1025.78 191.62 1044.03ZM332.978 1065.51C329.653 1063.25 326.538 1060.62 326.758 1058.21C327.719 1048.18 335.161 1039.51 345.366 1032.39C346.633 1045.65 344.143 1059.42 332.994 1065.56L332.978 1065.51Z" fill="#FFDF85"/>
<path d="M0.997694 923.131L49.4127 942.121C74.7887 919.186 106.945 908.406 141.213 907.817C148.843 907.689 156.39 908.634 163.883 909.841C158.86 906.55 152.729 902.815 148.669 900.811C97.4761 883.679 42.9874 884.926 0.997694 923.131Z" fill="#FFBC01"/>
<path d="M335.969 1063.59C335.342 1060.8 334.946 1057.93 335.216 1055.02C335.956 1047.4 339.813 1040.8 345.466 1035.15C345.132 1029.05 343.986 1022.93 342.449 1017.66C340.297 1010.32 337.869 1002.87 334.722 995.738C317.998 1000.22 302.815 1009.3 291.797 1023.99C276.585 1044.27 296.193 1061.39 313.939 1068.57C314.143 1068.64 314.347 1068.71 314.508 1068.85C317.843 1069.07 321.75 1068.89 324.637 1068.36C329.244 1067.56 332.937 1065.89 335.853 1063.63L335.969 1063.59Z" fill="#FFBC01"/>
<path d="M441.189 1014.25C442.443 1014.78 443.713 1015.37 444.983 1015.96C445.956 1016.13 444.686 1015.54 441.189 1014.25Z" fill="#8A3CE5"/>
<path d="M406.799 1010.24C414.117 1009.64 421.402 1010.53 428.606 1011.82C425.447 1009.94 422.229 1008.08 418.943 1006.43C429.619 1010.06 436.991 1012.66 441.231 1014.18C428.991 1008.87 416.367 1003.97 403.443 999.331C392.574 995.443 380.688 993.064 368.758 992.366C373.934 998.769 379.105 1006.53 383.561 1014.86C392.207 1012.3 400.508 1010.75 406.857 1010.22L406.799 1010.24Z" fill="#FFBC01"/>
<path d="M406.126 1000.34C409.412 1002 425.448 1009.94 428.607 1011.82C430.816 1013.14 432.968 1014.48 435.177 1015.81C455.914 1028.61 474.21 1045.22 491.357 1062.39C520.036 1090.99 545.209 1123.82 566.573 1158.34L614.842 1177.24C589.817 1136.9 559.658 1099.54 525.021 1067.16C500.787 1044.53 476.397 1028.93 447.461 1015.98C446.191 1015.39 444.936 1014.86 443.666 1014.27C433.98 1009.26 416.772 1003.86 406.095 1000.23L406.126 1000.34Z" fill="#FFDF85"/>
<path d="M148.635 900.683C148.694 900.668 148.769 900.711 148.844 900.754C148.769 900.711 148.694 900.668 148.56 900.64L148.635 900.683Z" fill="#8A3CE5"/>
<path d="M240.811 938.363C234.681 938.089 228.501 938.323 222.356 938.919C231.268 946.113 239.024 954.298 245.073 963.496C259.497 959.198 274.67 957.235 289.08 957.268C294.206 957.255 299.241 957.822 304.322 958.563L291.501 949.695C275.064 943.713 258.941 939.131 240.796 938.305L240.811 938.363Z" fill="#FFBC01"/>
<path d="M148.915 900.79C170.172 908.386 179.131 913.219 166.421 910.071C165.579 909.926 164.752 909.839 163.925 909.751C165.945 911.064 167.762 912.309 169.156 913.357C180.503 921.568 189.131 932.548 195.954 944.63C198.655 949.408 201.027 954.337 203.167 959.328C206.168 966.375 208.116 973.643 209.079 980.927C212.076 1003.18 205.839 1025.81 191.695 1044.07C185.87 1051.63 176.966 1059.45 167.093 1064.82C156.459 1070.57 144.56 1073.45 133.852 1069.71C143.59 1076.06 156.596 1082.16 168.661 1085.67C173.755 1087.14 178.425 1088.43 182.388 1089.84C219.732 1103.26 253.294 1051.37 257.698 1021.44C261.061 998.466 255.656 979.451 245.149 963.534C239.042 954.352 231.286 946.167 222.432 938.957C204.181 924.126 181.388 913.109 160.061 904.79C156.402 903.359 152.716 902.059 148.973 900.775L148.915 900.79Z" fill="#FFDF85"/>
<path d="M167.072 1064.77C165.05 1044.54 177.508 1018.14 185.775 1005.17C191.955 995.473 199.944 987.46 209.058 980.876C208.095 973.591 206.147 966.323 203.146 959.276C201.006 954.286 198.577 949.372 195.932 944.579C165.587 954.503 139.328 975.758 127.271 1006.19C120.536 1023.27 112.787 1048.09 126.621 1063.74C128.569 1065.93 131.122 1067.85 133.831 1069.66C144.523 1073.34 156.438 1070.52 167.072 1064.77Z" fill="#FFBC01"/>
<path d="M886.656 1501.35C908.015 1494.73 928.536 1483.08 936.373 1462.42C962.272 1465.58 985.783 1461.93 1011.78 1454.51C1011.78 1454.51 1022.01 1451.2 1026.31 1450.17C1050.78 1442.31 1072.68 1432.44 1091.89 1413.58C1116.74 1389.27 1130.56 1355.33 1140.1 1322.48C1138.16 1329.15 1103.68 1326.6 1101.64 1333.74C1089.03 1377.23 1068.5 1418.55 1029.57 1444.05C1025.21 1446.91 1020.53 1449.23 1015.83 1451.51C1015.62 1451.56 1015.44 1451.73 1015.24 1451.83C1007.95 1453.05 1000.53 1453.8 993.164 1453.46C978.544 1452.81 963.936 1449.67 949.72 1446.32C946.521 1445.54 943.097 1444.77 939.526 1443.86C939.261 1424.13 928.015 1404.69 915.024 1390.74C902.517 1377.34 891.626 1373.55 876.883 1375.8C869.771 1376.64 851.674 1380.7 844 1384.28C840.902 1385.56 838.113 1387.15 835.928 1389.32C827.319 1397.83 829.746 1411.73 835.7 1420.68C848.311 1439.53 875.415 1449.08 899.814 1455.07C899.418 1474.01 890.388 1492.11 870.273 1503.6C869.488 1504.03 868.621 1504.38 867.782 1504.83C860.403 1505.51 853.002 1504.84 845.66 1503.76C828.085 1501.14 811.505 1493.17 796.504 1483.93C764.27 1464.08 738.6 1433.56 720.243 1400.85C708.374 1379.72 699.385 1353.75 697.966 1328.24C705.903 1327.75 713.763 1326.55 721.453 1324.71C728.023 1323.12 730.87 1322.58 735.485 1321.06C755.571 1315.79 776.856 1311.84 779.956 1287.82C782.146 1270.93 770.175 1253.21 754.598 1247.52C746.032 1244.4 737.371 1247.45 729.042 1249.85C716.043 1253.56 700.96 1256.02 689.615 1263.8C678.073 1271.69 670.303 1283.75 665.505 1297.22C655.442 1289.99 646.476 1281.17 639.099 1270.9C609.124 1229.45 626.255 1130.38 630.511 1108.51C630.899 1106.52 629.036 1104.85 627.082 1105.4C621.894 1106.86 613.671 1109.18 612.083 1109.64C610.009 1110.24 598.769 1113.67 594.541 1114.96C593.555 1115.26 592.835 1116.08 592.69 1117.1C590.321 1133.79 572.542 1272.69 631.071 1311.7C639.935 1317.61 649.668 1321.72 659.656 1324.46C658.941 1332.32 658.992 1340.09 659.72 1347.23C663.346 1383.72 682.526 1418.23 704.802 1446.62C727.255 1475.24 757.159 1499.66 791.887 1511.34C824.514 1522.35 855.196 1511.13 886.55 1501.38L886.656 1501.35ZM870.144 1402.04C869.194 1399.75 868.756 1397.27 868.647 1394.76C880.134 1403.31 888.811 1414.63 894.095 1426.98C883.44 1420.7 874.618 1412.63 870.144 1402.04ZM719.937 1260.3C724.162 1262.38 727.863 1265.45 731.026 1268.84C740.408 1278.79 744.192 1293.97 739.769 1306.94C738.282 1311.29 735.498 1314.8 732.125 1317.79C725.686 1317.77 719.169 1317.03 712.849 1316.19C707.813 1315.5 702.943 1314.38 698.121 1313.02C699.542 1293.69 706.069 1275.3 719.937 1260.3Z" fill="#67B887"/>
<path d="M835.984 1389.35C827.375 1397.87 829.802 1411.77 835.756 1420.72C848.367 1439.57 875.471 1449.12 899.87 1455.1C915.716 1459.49 936.363 1462.42 936.363 1462.42C961.043 1465.45 983.596 1462.23 1008.14 1455.48C1011.21 1454.1 1013.83 1452.72 1015.98 1451.46C1015.98 1451.46 1015.87 1451.49 1015.82 1451.51C1015.61 1451.56 1015.43 1451.72 1015.23 1451.83C1007.94 1453.05 1000.52 1453.8 993.153 1453.46C978.534 1452.81 963.925 1449.67 949.71 1446.32C946.511 1445.54 943.087 1444.76 939.515 1443.86C918.161 1438.92 894.07 1426.93 894.07 1426.93C883.415 1420.64 874.594 1412.57 870.12 1401.98C869.169 1399.7 868.731 1397.22 868.623 1394.71C868.254 1388.49 872.925 1380.87 876.557 1375.89C869.234 1376.78 851.573 1380.78 843.99 1384.27C840.891 1385.56 838.102 1387.15 835.917 1389.31L835.984 1389.35Z" fill="#67B887"/>
<path d="M704.915 1446.59C727.367 1475.21 757.272 1499.63 792 1511.31C810.919 1517.7 829.185 1516.58 847.31 1512.63C856.104 1509.65 863.365 1506.63 867.407 1504.87C860.186 1505.51 852.89 1504.81 845.787 1503.78C828.212 1501.16 811.632 1493.19 796.631 1483.95C764.397 1464.1 738.727 1433.58 720.37 1400.87C708.501 1379.74 699.512 1353.77 698.093 1328.26C697.708 1323.46 697.535 1322.6 698.181 1313.01C699.602 1293.67 706.129 1275.28 719.997 1260.28C724.421 1254.47 732.069 1250.17 738.737 1247.25C735.55 1247.99 732.367 1248.96 729.222 1249.86C716.222 1253.57 701.139 1256.03 689.794 1263.81C678.253 1271.7 670.483 1283.76 665.685 1297.23C661.7 1309.53 659.835 1324.47 659.835 1324.47C659.121 1332.33 659.172 1340.1 659.9 1347.24C663.526 1383.73 682.706 1418.24 704.982 1446.63L704.915 1446.59Z" fill="#67B887"/>
<path d="M1365.65 1283.19C1369.32 1284.96 1373.73 1283.41 1375.49 1279.73C1378.81 1272.83 1378.72 1268.19 1378.64 1264.46C1378.59 1261.53 1378.55 1259.6 1380.34 1255.86C1381.51 1253.43 1382.86 1252.86 1386.59 1251.57C1390.9 1250.08 1397.43 1247.82 1401.31 1239.72C1405.2 1231.62 1402.88 1225.12 1401.35 1220.82C1400.02 1217.1 1399.62 1215.69 1400.79 1213.27C1401.95 1210.84 1403.3 1210.27 1407.03 1208.98C1411.35 1207.49 1417.87 1205.23 1421.75 1197.13C1425.64 1189.04 1423.32 1182.54 1421.79 1178.24C1420.46 1174.52 1420.06 1173.11 1421.23 1170.68C1422.39 1168.26 1423.74 1167.69 1427.47 1166.4C1431.79 1164.9 1438.31 1162.65 1442.19 1154.55C1446.08 1146.45 1443.76 1139.95 1442.23 1135.65C1440.9 1131.94 1440.5 1130.53 1441.67 1128.1C1442.83 1125.68 1444.18 1125.11 1447.91 1123.82C1452.23 1122.32 1458.75 1120.07 1462.63 1111.97C1465.95 1105.06 1465.86 1100.43 1465.78 1096.7C1465.72 1093.77 1465.68 1091.84 1467.48 1088.11C1469.24 1084.43 1467.69 1080.02 1464.02 1078.26C1460.34 1076.49 1455.93 1078.04 1454.17 1081.72C1450.85 1088.62 1450.95 1093.26 1451.02 1096.99C1451.08 1099.91 1451.12 1101.85 1449.32 1105.58C1448.16 1108.01 1446.81 1108.58 1443.08 1109.87C1438.77 1111.36 1432.25 1113.62 1428.36 1121.71C1424.47 1129.81 1426.79 1136.31 1428.33 1140.61C1429.65 1144.33 1430.05 1145.74 1428.89 1148.16C1427.72 1150.59 1426.37 1151.16 1422.64 1152.45C1418.33 1153.94 1411.81 1156.2 1407.92 1164.3C1404.03 1172.39 1406.35 1178.89 1407.88 1183.19C1409.21 1186.91 1409.61 1188.32 1408.44 1190.75C1407.28 1193.17 1405.93 1193.74 1402.2 1195.03C1397.89 1196.53 1391.37 1198.78 1387.48 1206.88C1383.59 1214.98 1385.91 1221.48 1387.44 1225.78C1388.77 1229.5 1389.17 1230.9 1388 1233.33C1386.84 1235.76 1385.49 1236.33 1381.76 1237.62C1377.44 1239.11 1370.92 1241.37 1367.04 1249.47C1363.72 1256.38 1363.81 1261.02 1363.88 1264.75C1363.94 1267.67 1363.98 1269.6 1362.19 1273.34C1360.42 1277.02 1361.97 1281.43 1365.65 1283.19Z" fill="white"/>
<path d="M1446.51 885.222C1422.77 934.675 1423.84 1035.2 1473.3 1058.94C1522.75 1082.68 1601.86 1020.64 1625.6 971.186C1649.33 921.731 1628.49 862.398 1579.03 838.66C1529.58 814.922 1470.25 835.768 1446.51 885.222Z" fill="#FFBC01"/>
<path d="M1529.85 829.058C1516.39 838.51 1505.09 851.435 1497.47 867.315C1473.73 916.769 1474.81 1017.29 1524.26 1041.03C1533.16 1045.3 1543.02 1046.79 1553.35 1046.07C1525.97 1062.39 1496.4 1070.02 1473.3 1058.93C1423.85 1035.2 1422.77 934.672 1446.51 885.218C1462.63 851.645 1495.15 831.264 1529.85 829.058Z" fill="#EEAF00"/>
<path d="M1449.51 1071.75C1445.71 1079.66 1451.63 1083.78 1459.54 1087.58C1467.45 1091.38 1474.36 1093.41 1478.16 1085.5C1481.96 1077.59 1481.2 1062.72 1473.29 1058.92C1465.38 1055.13 1453.31 1063.83 1449.51 1071.75Z" fill="#FFBC01"/>
<path d="M796.481 804.533C804.842 801.939 812.875 797.379 815.943 789.292C826.081 790.528 835.285 789.1 845.463 786.196C845.463 786.196 849.467 784.903 851.148 784.497C860.727 781.422 869.3 777.557 876.82 770.176C886.551 760.657 891.959 747.371 895.692 734.513C894.933 737.123 881.435 736.124 880.638 738.922C875.702 755.945 867.667 772.12 852.427 782.1C850.717 783.221 848.885 784.131 847.047 785.021C846.965 785.043 846.893 785.106 846.817 785.149C843.963 785.627 841.059 785.919 838.174 785.787C832.451 785.531 826.733 784.303 821.168 782.99C819.916 782.685 818.575 782.382 817.177 782.028C817.074 774.304 812.671 766.695 807.586 761.234C802.69 755.988 798.426 754.502 792.655 755.386C789.871 755.712 782.787 757.301 779.783 758.703C778.57 759.204 777.478 759.828 776.623 760.676C773.253 764.008 774.203 769.45 776.534 772.955C781.47 780.333 792.08 784.071 801.632 786.414C801.477 793.831 797.942 800.917 790.068 805.412C789.76 805.583 789.421 805.718 789.092 805.894C786.204 806.16 783.307 805.899 780.432 805.476C773.553 804.449 767.062 801.33 761.19 797.714C748.572 789.943 738.523 777.995 731.337 765.191C726.691 756.919 723.172 746.754 722.617 736.767C725.724 736.575 728.8 736.104 731.811 735.386C734.383 734.763 735.497 734.552 737.303 733.958C745.166 731.895 753.498 730.347 754.712 720.946C755.569 714.334 750.883 707.397 744.786 705.167C741.432 703.945 738.042 705.141 734.782 706.081C729.693 707.533 723.788 708.496 719.347 711.541C714.829 714.629 711.788 719.353 709.91 724.626C705.97 721.795 702.46 718.341 699.573 714.323C689.383 700.232 693.099 669.132 695.344 655.583C695.838 652.607 693.049 650.044 690.147 650.867C689.6 651.023 689.183 651.141 688.997 651.196C688.399 651.369 685.857 652.141 683.897 652.738C682.431 653.185 681.354 654.415 681.162 655.936C679.708 667.456 674.987 716.001 696.43 730.291C699.9 732.608 703.71 734.215 707.62 735.287C707.34 738.365 707.36 741.407 707.645 744.201C709.064 758.484 716.572 771.996 725.293 783.108C734.082 794.312 745.788 803.872 759.383 808.444C772.155 812.751 784.166 808.362 796.439 804.544L796.481 804.533ZM790.017 765.655C789.645 764.761 789.474 763.791 789.431 762.808C793.928 766.153 797.324 770.586 799.393 775.42C795.222 772.961 791.769 769.801 790.017 765.655ZM731.217 710.172C732.871 710.987 734.32 712.189 735.558 713.513C739.231 717.409 740.712 723.35 738.981 728.429C738.399 730.131 737.309 731.505 735.988 732.676C733.468 732.667 730.917 732.379 728.442 732.048C726.471 731.781 724.565 731.343 722.677 730.811C723.233 723.242 725.788 716.043 731.217 710.172Z" fill="#67B887"/>
<path d="M776.646 760.69C773.276 764.022 774.227 769.465 776.557 772.97C781.494 780.348 792.104 784.085 801.655 786.428C807.858 788.145 815.941 789.292 815.941 789.292C825.602 790.479 834.431 789.218 844.038 786.577C845.24 786.034 846.266 785.494 847.107 785.004C847.107 785.004 847.065 785.015 847.045 785.021C846.962 785.043 846.891 785.106 846.814 785.149C843.96 785.626 841.057 785.918 838.172 785.786C832.449 785.531 826.73 784.303 821.165 782.989C819.913 782.685 818.573 782.381 817.175 782.027C808.815 780.093 799.385 775.399 799.385 775.399C795.214 772.94 791.761 769.779 790.009 765.634C789.637 764.74 789.466 763.77 789.423 762.787C789.279 760.353 791.107 757.367 792.529 755.419C789.663 755.767 782.749 757.333 779.78 758.702C778.567 759.204 777.476 759.828 776.62 760.675L776.646 760.69Z" fill="#67B887"/>
<path d="M725.335 783.097C734.125 794.3 745.831 803.861 759.425 808.433C766.832 810.931 773.982 810.495 781.077 808.947C784.52 807.782 787.362 806.601 788.944 805.912C786.118 806.161 783.261 805.889 780.481 805.485C773.601 804.458 767.111 801.339 761.238 797.723C748.62 789.952 738.571 778.004 731.385 765.201C726.739 756.928 723.22 746.763 722.665 736.776C722.514 734.895 722.447 734.56 722.699 730.805C723.256 723.236 725.81 716.037 731.239 710.166C732.971 707.891 735.965 706.205 738.575 705.064C737.328 705.355 736.081 705.733 734.85 706.085C729.762 707.536 723.857 708.5 719.416 711.545C714.898 714.633 711.857 719.356 709.978 724.629C708.419 729.442 707.689 735.291 707.689 735.291C707.409 738.369 707.429 741.411 707.714 744.205C709.133 758.488 716.641 772 725.362 783.112L725.335 783.097Z" fill="#67B887"/>
<path d="M1215.41 248.556C1228.91 230.356 1228.81 209.056 1226.81 187.856C1224.81 167.156 1217.41 147.756 1211.41 128.056C1208.31 117.956 1205.11 107.756 1204.81 97.0555C1204.41 82.7555 1208.51 76.5555 1222.11 72.9555C1242.61 67.5555 1261.81 71.5555 1279.21 84.0555C1285.41 88.5555 1290.71 94.3555 1296.81 98.9555C1312.01 110.556 1330.31 109.256 1342.51 96.2555C1354.61 83.3555 1355.41 63.5555 1343.11 49.0555C1300.21 -1.14447 1232.81 -11.1445 1186.11 11.4555C1149.71 29.0555 1131.61 64.7555 1136.81 107.756C1139.01 126.156 1144.41 143.756 1150.01 161.256C1154.11 173.956 1157.91 186.856 1159.91 200.056C1191.51 203.956 1207.31 217.656 1215.41 248.556Z" fill="#F03D01"/>
<path d="M1055.81 631.756C1076.01 616.056 1096.21 600.456 1116.31 584.556C1126.61 576.456 1136.41 567.756 1143.91 556.756C1159.11 534.356 1159.01 509.156 1143.41 486.856C1137.31 478.156 1130.01 470.756 1121.81 464.256C1111.01 455.756 1100.31 447.256 1089.41 439.156C1069.51 424.456 1051.11 408.256 1036.61 387.756C1017.51 404.856 994.21 404.056 976.31 391.056C972.41 388.256 968.51 385.356 964.61 382.456C965.61 399.756 973.41 414.356 982.11 428.456C993.81 447.456 1008.91 463.456 1026.11 477.256C1039.71 488.256 1053.71 498.756 1067.51 509.556C1072.11 513.156 1077.31 516.256 1081.61 522.356C1054.71 545.956 1023.71 563.556 1000.61 590.656C1025.81 591.356 1044.01 602.556 1053.41 627.456C1053.81 629.056 1054.91 630.356 1055.81 631.756Z" fill="#F03D01"/>
<path d="M960.71 660.756C953.41 698.256 970.21 725.256 997.21 747.556C1013.41 760.856 1032.11 769.856 1051.11 777.956C1067.51 784.956 1083.91 792.356 1101.21 796.756C1103.21 761.856 1112.61 748.656 1141.71 739.856C1129.41 731.556 1115.31 727.856 1101.81 722.656C1078.21 713.556 1055.21 703.256 1033.81 689.156C1014.71 699.356 996.31 699.356 978.21 685.956C969.71 679.456 965.81 669.756 960.71 660.756Z" fill="#FF7A72"/>
<path d="M1119.31 226.256C1069.01 229.756 1023.01 243.756 988.51 284.456C984.01 289.756 978.51 294.756 979.01 302.856C984.01 304.156 988.41 301.356 992.91 300.156C1008.91 295.956 1022.21 301.356 1034.11 311.756C1038.11 315.256 1041.61 319.556 1045.31 323.556C1067.71 307.156 1093.01 299.056 1120.11 296.356C1125.91 295.756 1131.61 293.956 1137.31 292.756C1125.11 281.956 1116.11 269.556 1114.61 252.056C1113.81 242.756 1118.21 234.956 1119.31 226.256Z" fill="#FF7A72"/>
<path d="M1115.51 804.656L1115.61 804.756C1115.61 804.656 1115.61 804.656 1115.51 804.656Z" fill="#F03D01"/>
<path d="M1148 762C1153.56 764.773 1143.27 749.214 1148 755C1149.08 759.142 1140.67 777.5 1131 755C1133.65 774.994 1138.27 751.536 1120.85 762C1117.69 762 1116.74 768.634 1118.62 772.14C1129.17 792.199 1129.69 813.14 1120.85 834.156C1117.67 841.714 1112.92 848.614 1109.6 856.002C1101.23 874.612 1106.93 893.286 1123.52 902.865C1139.86 912.237 1160.71 908.316 1172.78 892.018C1214.56 835.499 1201 772.14 1166 755C1151.02 736.441 1169.85 765.767 1148 762Z" fill="#F03D01"/>
<path d="M1184.01 769.256C1179.11 762.756 1173.51 757.356 1167.21 752.856C1159.51 747.356 1151.01 743.156 1141.91 739.856C1114.31 748.156 1104.41 760.456 1101.81 791.556C1101.71 793.256 1101.51 794.956 1101.41 796.656C1106.01 799.256 1111.71 800.556 1117.11 805.556C1123.61 811.656 1125.91 822.056 1122.71 829.556C1139.01 841.556 1162.71 841.056 1180.11 830.956C1183.81 828.856 1187.01 825.756 1190.41 823.156C1193.91 816.556 1195.71 810.156 1196.11 803.956C1196.91 791.656 1192.21 780.156 1184.01 769.256Z" fill="#FFBC01"/>
<path d="M960.61 660.856C965.71 669.856 969.61 679.456 978.31 685.956C996.41 699.456 1014.81 699.356 1033.91 689.156C1024.71 678.456 1027.21 668.356 1034.21 657.656C1040.51 648.056 1048.91 640.456 1055.91 631.456C1055.01 630.056 1053.91 628.756 1053.31 627.256C1043.81 602.456 1025.61 591.156 1000.51 590.456C980.31 609.756 964.91 631.956 960.61 660.856Z" fill="#FFBC01"/>
<path d="M1045.21 323.456C1041.51 319.556 1038.11 315.256 1034.01 311.756C1022.11 301.356 1008.81 295.956 992.81 300.156C988.31 301.356 983.31 299.556 978.91 302.856C977.31 304.056 976.61 305.056 975.31 306.556C956.21 327.956 958.11 353.356 963.01 379.356C963.51 380.556 964.01 381.756 964.51 382.956L964.31 382.656C968.21 385.556 972.01 388.456 976.01 391.256C993.91 404.156 1017.31 405.056 1036.31 387.956C1029.01 370.456 1026.11 352.956 1036.91 335.756C1039.51 331.456 1042.41 327.456 1045.21 323.456Z" fill="#FFBC01"/>
<path d="M1119.31 226.456C1118.21 235.156 1113.81 242.856 1114.61 252.256C1116.11 269.756 1125.11 282.156 1137.31 292.956C1160.81 290.656 1182.61 283.756 1200.81 267.656C1206.81 262.256 1213.11 256.856 1215.41 248.356C1207.31 217.456 1191.61 203.756 1159.81 199.856C1160.11 212.956 1152.31 218.356 1141.21 221.056C1133.91 222.856 1126.21 222.756 1119.31 226.456Z" fill="#FFBC01"/>
<ellipse opacity="0.1" cx="20.5598" cy="12.307" rx="20.5598" ry="12.307" transform="matrix(-0.894959 0.446149 0.446149 0.894959 1073.28 409.837)" fill="black"/>
<path fill-rule="evenodd" clip-rule="evenodd" d="M1111.65 228.184C1111.05 227.52 1110.43 226.868 1109.8 226.231C1105.93 222.328 1101.61 219.169 1096.39 217.458C1088.3 214.806 1080.41 217.395 1075.46 224.426C1072 229.334 1070.64 234.993 1070.23 240.955C1069.49 251.654 1071.6 261.978 1074.63 272.136C1079.68 289.051 1087.28 304.851 1095.35 320.426C1095.39 320.503 1095.43 320.578 1095.46 320.652C1097.26 324.119 1097.27 324.123 1093.83 326.422C1084.9 332.382 1075.35 337.143 1065.66 341.603C1060.29 344.071 1054.86 346.395 1049.4 348.659C1046.19 349.992 1043.13 351.724 1040.07 353.453C1039.07 354.019 1038.07 354.585 1037.07 355.137C1036.53 355.433 1035.99 355.727 1035.45 356.021C1032.26 357.758 1029.07 359.496 1026.08 361.604C1023.82 363.199 1022.52 365.232 1022.27 368.075C1021.75 373.922 1025.1 377.784 1029.14 380.781C1032.46 383.242 1036.01 385.372 1039.55 387.502C1041.23 388.508 1042.9 389.514 1044.55 390.554C1050.22 394.128 1056.01 397.449 1062.11 400.171C1064.66 401.31 1065.93 401.869 1066.36 402.823C1066.78 403.773 1066.39 405.114 1065.61 407.808C1064.36 412.157 1062.2 415.967 1059.44 419.437C1058.35 420.797 1058.06 420.776 1056.89 419.524C1056.41 418.999 1055.97 418.423 1055.53 417.848C1055.42 417.701 1055.3 417.554 1055.19 417.408C1054.76 416.854 1054.35 416.289 1053.93 415.724C1053.09 414.582 1052.24 413.44 1051.31 412.388C1048.75 409.505 1044.66 409.025 1041.93 411.132C1038.75 413.587 1037.84 417.68 1040.11 421.108C1043.06 425.567 1046.18 429.946 1050.29 433.4C1055.76 438.002 1061.8 437.925 1066.82 432.92C1073.06 426.701 1077.63 419.357 1079.73 410.53L1079.73 410.523C1080.59 406.889 1080.61 406.821 1084.25 407.538C1093.99 409.45 1102.38 406.812 1109.58 399.986C1111.9 397.778 1113.77 395.209 1115.24 392.404C1116.15 392.442 1116.75 392.923 1117.33 393.386C1117.53 393.548 1117.73 393.708 1117.94 393.846C1120.39 395.451 1122.95 396.748 1125.75 397.497C1131.01 398.905 1136.05 398.426 1140.31 394.857C1146.97 389.281 1149.96 381.415 1151.6 373.094C1152.51 368.497 1148.04 364.758 1143.48 365.473C1140.38 365.958 1138.68 368.036 1137.68 370.857C1137.55 371.237 1137.41 371.617 1137.28 371.997C1136.21 375.046 1135.14 378.092 1133.46 380.859C1131.75 383.671 1130.45 384.095 1127.57 382.643C1124.58 381.143 1122.22 378.843 1120.03 376.294C1119.1 375.198 1119 374.271 1119.58 373.015C1121 369.991 1121.98 366.785 1122.55 363.494C1124.36 353.022 1124.39 342.737 1118.59 333.227C1118.56 333.168 1118.53 333.108 1118.49 333.047C1118.48 333.018 1118.46 332.989 1118.45 332.96C1109.99 317.618 1101.61 302.239 1094.86 286C1091.94 278.969 1089.3 271.845 1087.32 264.478C1085.55 257.889 1084.28 251.212 1084.39 244.352C1084.44 240.985 1084.79 237.647 1086.22 234.571C1087.49 231.828 1089.09 230.854 1091.54 231.372C1097.53 229.753 1107.02 228.698 1110.75 228.285C1111.1 228.245 1111.41 228.211 1111.65 228.184Z" fill="#83AFE1"/>
<path d="M1094.97 391.624C1089.91 394.135 1085.6 394.876 1081.08 394.153C1078.7 393.77 1076.47 392.926 1074.8 391.011C1073.42 389.432 1073.43 387.319 1074.72 386.087C1075.84 385.024 1077.36 384.819 1078.78 386C1081.87 388.594 1085.27 388.19 1088.61 387.189C1093.01 385.873 1096.51 383.166 1098.82 379.022C1099.95 377.009 1100.97 374.936 1102.04 372.894C1102.42 372.187 1102.75 371.429 1103.23 370.81C1104.29 369.466 1105.83 369.163 1107.19 369.923C1108.56 370.691 1109.28 372.21 1108.59 373.824C1105.38 381.292 1101.8 388.494 1094.97 391.622L1094.97 391.624Z" fill="#030303"/>
<path d="M1060.87 369.462C1060.33 372.458 1060.78 374.929 1061.22 377.389C1061.46 378.686 1061.89 379.949 1062.05 381.252C1062.24 382.755 1061.35 384.154 1060.04 384.601C1058.65 385.073 1057.52 384.511 1056.62 383.432C1056.04 382.73 1055.7 381.874 1055.48 380.976C1054.32 376.204 1053.83 371.383 1054.6 366.514C1055.09 363.366 1056.18 360.469 1058.38 358.125C1061.78 354.504 1066.71 353.888 1070.71 356.857C1074.93 359.972 1077.13 364.293 1076.92 369.659C1076.68 375.793 1070.98 378.761 1065.87 375.513C1063.71 374.139 1062.29 372.074 1060.87 369.468L1060.87 369.462Z" fill="#030303"/>
<path d="M1090.6 357.635C1090.06 359.278 1090.05 360.493 1090.1 361.708C1090.15 363.124 1090.26 364.541 1090.29 365.958C1090.33 368.33 1089.35 369.772 1087.59 369.992C1085.73 370.222 1084.18 368.853 1083.96 366.456C1083.41 360.36 1083.64 354.283 1085.45 348.438C1087.77 340.946 1094.72 339.037 1100.62 344.178C1104.57 347.619 1106.28 351.953 1104.91 357.208C1103.56 362.354 1098.5 364.205 1094.16 361.241C1092.85 360.342 1091.8 359.149 1090.6 357.635Z" fill="#030303"/>
<path d="M1035.94 262.519C1030.54 256.433 1020.56 261.346 1022.09 269.334L1037.04 347.23C1038.03 352.416 1043.69 355.232 1048.43 352.9L1086.1 334.355C1090.84 332.023 1092.06 325.822 1088.55 321.871L1035.94 262.519Z" fill="#8DBC76"/>
<circle cx="6.40247" cy="6.40247" r="6.40247" transform="matrix(-0.990292 0.139005 0.139005 0.990292 1075.12 312.35)" fill="white"/>
<circle cx="3.20123" cy="3.20123" r="3.20123" transform="matrix(-0.990292 0.139005 0.139005 0.990292 1041.84 300.497)" fill="white"/>
<circle cx="3.20123" cy="3.20123" r="3.20123" transform="matrix(-0.990292 0.139005 0.139005 0.990292 1045.22 278.474)" fill="white"/>
<ellipse opacity="0.1" cx="1165.89" cy="764.17" rx="24.3223" ry="18.7095" transform="rotate(-30.1116 1165.89 764.17)" fill="black"/>
<path d="M1227.23 716.845C1228.89 715.259 1230.18 713.409 1231.24 711.395C1234.41 705.364 1235.87 698.882 1236.15 692.131C1236.75 677.691 1232.32 664.672 1224.47 652.685C1220.62 646.809 1216.01 641.562 1210.68 636.941C1199.76 627.459 1187.19 621.409 1172.88 619.011C1161.29 617.069 1149.8 617.794 1138.4 620.353C1126.24 623.083 1114.76 627.591 1103.84 633.502C1100.35 635.389 1096.93 637.415 1094 640.139C1092.97 641.098 1092.06 642.153 1091.43 643.413C1090.06 646.155 1090.55 649.034 1092.7 651.274C1093.89 652.519 1095.33 653.392 1096.84 654.154C1099.88 655.678 1103.06 656.848 1106.22 658.06C1113.75 660.947 1121.25 663.908 1128.49 667.484C1131.04 668.748 1133.59 670.021 1136.02 671.487C1136.02 671.487 1137.48 672.274 1139.94 673.703C1141.03 673.064 1141.82 673.328 1143.8 674.328C1145.79 675.332 1147.63 676.577 1149.39 677.912C1150.38 678.655 1150.89 679.536 1151 680.52C1152.56 681.533 1154.19 682.615 1155.86 683.76C1157.12 683.403 1158.4 683.602 1159.75 684.362C1160.86 684.988 1162.07 685.426 1163.22 685.994C1163.78 686.277 1164.34 686.616 1164.84 687.004C1166.39 688.206 1166.73 689.303 1166.19 691.258C1169.42 693.761 1172.64 696.419 1175.69 699.19C1177.11 699.398 1178.33 700.11 1179.57 700.745C1184.87 703.461 1189.95 706.558 1195.13 709.481C1200.37 712.433 1205.56 715.47 1211.07 717.906C1213.16 718.831 1215.3 719.606 1217.58 719.918C1221.29 720.424 1224.51 719.428 1227.23 716.84L1227.23 716.845Z" fill="#502F2B"/>
<path d="M1229.64 576.117C1231.25 568.145 1221.32 563.133 1215.86 569.165L1155.56 635.832C1152.02 639.748 1153.18 645.961 1157.89 648.34L1200.38 669.781C1205.09 672.16 1210.77 669.4 1211.82 664.225L1229.64 576.117Z" fill="#76B8BC"/>
<circle cx="6.97157" cy="6.97157" r="6.97157" transform="matrix(-0.707107 -0.707107 -0.707107 0.707107 1211.48 645.389)" fill="white"/>
<circle cx="3.48578" cy="3.48578" r="3.48578" transform="matrix(-0.707107 -0.707107 -0.707107 0.707107 1199.97 608.686)" fill="white"/>
<circle cx="3.48578" cy="3.48578" r="3.48578" transform="matrix(-0.707107 -0.707107 -0.707107 0.707107 1221.34 597.187)" fill="white"/>
<path d="M1176.38 767.036C1178.4 764.723 1180.48 762.447 1182.25 759.919C1184.01 757.397 1184.18 754.731 1182.68 752.039C1182.12 751.028 1181.51 750.033 1180.88 749.058C1178.41 745.176 1176.36 741.089 1174.56 736.867C1172.35 731.672 1170.36 726.404 1169.57 720.78C1169.16 717.889 1169.16 715.02 1169.91 712.149C1170.74 708.976 1172.14 706.049 1173.52 703.108C1174.16 701.748 1174.73 700.333 1175.75 699.176C1158.25 683.288 1136.07 671.474 1136.07 671.474L1133.54 675.822C1129.79 681.976 1126.14 688.19 1121.72 693.908C1117.8 698.976 1113.62 703.78 1108.22 707.407C1105.98 708.917 1103.59 710.115 1101 710.844C1098.52 711.543 1095.98 711.98 1093.38 711.415C1092.11 711.14 1091.97 710.95 1091.9 709.674C1091.85 708.675 1092.04 707.704 1092.16 706.727C1092.49 703.994 1092.45 701.276 1091.79 698.594C1090.75 694.437 1088.42 691.288 1084.25 689.888C1079.94 688.443 1076 689.661 1072.58 692.331C1069.6 694.653 1067.48 697.735 1065.95 701.176C1063.24 707.305 1062.15 713.705 1062.98 720.384C1063.53 724.908 1065.17 729.06 1067.93 732.684C1069.58 734.85 1071.58 736.757 1073.87 738.299C1082.4 744.043 1091.87 745.856 1101.95 744.787C1107.82 744.166 1113.34 742.386 1118.48 739.425C1122.39 737.169 1125.92 734.453 1129.14 731.316C1130.1 730.381 1130.88 729.251 1132.06 728.389C1132.94 731.445 1134.11 734.209 1135.64 736.831C1137.62 740.211 1139.94 743.325 1142.58 746.215C1144.19 747.976 1145.88 749.656 1147.45 751.45C1148.72 752.903 1148.67 752.962 1147.53 754.575C1145.71 757.139 1143.95 759.728 1142.8 762.682C1141.39 766.324 1140.64 770.033 1141.52 773.926C1142.37 777.725 1144.62 780.36 1148.33 781.661C1151.08 782.622 1153.85 782.413 1156.61 781.679C1159.94 780.798 1162.89 779.128 1165.63 777.174C1169.67 774.297 1173.12 770.755 1176.38 767.039L1176.38 767.036Z" fill="#EED8A4"/>
<path d="M1150.63 682.853C1149.08 686.849 1146.27 689.504 1142.04 690.462C1139.04 691.141 1136.48 689.901 1135.31 687.395C1134.67 686.044 1134.6 684.602 1134.78 683.146C1135.07 680.805 1135.99 678.697 1137.2 676.695C1137.49 676.211 1137.98 675.828 1138.01 675.204C1138.11 675.137 1138.21 675.084 1138.3 675.006C1140.58 672.955 1141 672.887 1143.82 674.313C1145.8 675.317 1147.64 676.562 1149.41 677.897C1151.13 679.195 1151.41 680.916 1150.63 682.857L1150.63 682.853Z" fill="#020202"/>
<path d="M1166.16 691.427C1165.13 692.894 1164.25 694.459 1163.01 695.782C1162.09 696.768 1161.07 697.622 1159.89 698.275C1155.6 700.654 1151.14 698.333 1150.71 693.483C1150.46 690.706 1151.28 688.216 1152.95 686C1153.3 685.537 1153.7 685.112 1154.08 684.669C1155.9 683.331 1157.78 683.229 1159.78 684.358C1160.88 684.984 1162.1 685.421 1163.24 685.989C1163.81 686.272 1164.36 686.611 1164.86 687C1166.46 688.237 1166.77 689.361 1166.16 691.427Z" fill="#020202"/>
<path d="M1134.89 699.948C1133.85 700.754 1132.41 700.864 1131.35 700.252C1130.21 699.596 1129.77 698.582 1129.9 697.312C1129.93 696.968 1130.04 696.632 1130.11 696.29C1130.53 694.052 1132.64 693.297 1134.38 694.8C1135.43 695.701 1136.27 696.742 1135.92 698.271C1135.76 698.978 1135.36 699.538 1134.89 699.946L1134.89 699.948Z" fill="#020202"/>
<rect x="1124.4" y="689.475" width="10.8918" height="4.83241" rx="2" transform="rotate(30 1124.4 689.475)" fill="#FFF614"/>
<path d="M1093.51 664.193C1088.95 664.231 1084.85 665.769 1081.01 668.12C1079.92 668.785 1078.91 669.542 1078.14 670.602C1077.65 671.266 1076.81 671.375 1076.2 670.954C1075.56 670.516 1075.39 669.678 1075.84 668.963C1076.26 668.28 1076.83 667.722 1077.44 667.196C1078.26 666.476 1079.16 665.852 1080.11 665.313C1083.03 663.656 1086.09 662.345 1089.4 661.716C1090.76 661.458 1092.13 661.273 1093.52 661.379C1093.86 661.735 1094.2 662.072 1094.24 662.618C1094.29 663.296 1093.99 663.778 1093.51 664.193L1093.51 664.193Z" fill="#F03D01"/>
<path d="M1112.6 673.067C1112.72 673.371 1112.67 673.701 1112.74 674.014C1112.67 674.975 1112.48 675.917 1112.3 676.859C1112.1 677.008 1112.07 677.249 1111.99 677.457C1110.86 680.268 1109.06 682.533 1106.5 684.163C1105.11 685.048 1103.61 685.618 1101.93 685.43C1101.29 685.359 1100.68 685.204 1100.2 684.731C1100.65 683.903 1101.04 683.04 1101.81 682.448C1102.34 682.647 1102.87 682.609 1103.41 682.456C1104.11 682.256 1104.75 681.922 1105.34 681.499C1106.87 680.415 1108.06 679.041 1108.89 677.362C1109.37 676.394 1109.59 675.356 1109.72 674.295C1109.89 674.003 1109.79 673.684 1109.82 673.379C1109.91 673.28 1109.99 673.175 1110.09 673.08C1110.98 672.185 1111.74 672.182 1112.6 673.066L1112.6 673.067Z" fill="#FFBC01"/>
<path d="M1092.94 679.286C1091.7 679.538 1090.49 679.388 1089.35 678.879C1087.59 678.099 1086.8 676.337 1087.32 674.472C1087.67 673.199 1088.44 672.191 1089.37 671.293C1090.37 670.335 1091.5 669.58 1092.72 668.947C1094.1 668.23 1095.54 667.663 1097.04 667.277C1097.06 667.362 1097.08 667.45 1097.11 667.534C1097.41 668.35 1097.56 669.18 1097.36 670.049C1096.91 670.388 1096.36 670.469 1095.85 670.672C1094.13 671.366 1092.5 672.208 1091.17 673.543C1090.75 673.967 1090.39 674.434 1090.16 674.994C1089.88 675.717 1090.06 676.11 1090.8 676.354C1091.16 676.476 1091.55 676.514 1091.94 676.523C1092.16 676.528 1092.39 676.473 1092.61 676.566C1092.7 676.797 1092.77 677.038 1092.88 677.255C1093.16 677.784 1093.21 678.32 1093.01 678.886C1092.96 679.011 1092.96 679.152 1092.94 679.286Z" fill="#FFBC01"/>
<path d="M1097.34 670.053C1097.55 669.186 1097.39 668.356 1097.09 667.542C1097.06 667.458 1097.05 667.371 1097.02 667.285C1097.79 667.033 1098.59 666.898 1099.38 666.738C1100.49 666.743 1101.58 666.562 1102.67 666.423C1104.5 666.362 1106.29 666.553 1108 667.215C1110.36 668.132 1111.96 669.763 1112.51 672.307C1112.57 672.553 1112.6 672.798 1112.59 673.048C1111.74 672.164 1110.97 672.168 1110.08 673.061C1109.99 673.156 1109.91 673.261 1109.82 673.361C1109.59 672.157 1109.11 671.119 1108.03 670.445C1107.46 670.095 1106.86 669.837 1106.23 669.662C1105.3 669.409 1104.36 669.333 1103.41 669.277C1102.52 669.204 1101.66 669.43 1100.78 669.44C1100.69 669.441 1100.61 669.512 1100.53 669.55C1100.21 669.486 1099.91 669.586 1099.59 669.617C1098.83 669.692 1098.12 670.048 1097.34 670.053L1097.34 670.053Z" fill="#4C6EFF"/>
<path d="M1120.53 686.493C1118.7 688.993 1116.38 690.745 1113.29 691.342C1112.72 691.451 1112.16 691.431 1111.6 691.318C1109.75 690.953 1108.71 689.453 1109.07 687.606C1109.28 686.556 1109.77 685.639 1110.56 684.897C1111.73 684.963 1112.5 685.53 1112.76 686.512C1112.66 686.905 1112.29 687.124 1112.15 687.483C1112.03 687.77 1111.75 688.068 1111.95 688.364C1112.15 688.651 1112.53 688.559 1112.84 688.515C1113.68 688.394 1114.45 688.059 1115.18 687.632C1116.11 687.089 1116.9 686.37 1117.65 685.61C1117.91 685.616 1118.13 685.503 1118.37 685.413C1118.81 685.24 1119.25 685.27 1119.68 685.479C1120.12 685.69 1120.35 686.069 1120.53 686.493L1120.53 686.493Z" fill="#F03D01"/>
<path d="M1120.52 686.488C1120.34 686.064 1120.1 685.685 1119.67 685.473C1119.24 685.264 1118.8 685.233 1118.35 685.406C1118.12 685.496 1117.89 685.61 1117.64 685.604C1118.01 685.012 1118.5 684.501 1118.83 683.884C1119.42 682.951 1119.64 681.908 1119.76 680.836C1119.77 679.309 1119.02 678.284 1117.66 677.682C1117.21 677.483 1116.74 677.334 1116.28 677.163C1117.09 676.383 1117.36 675.481 1116.91 674.416C1120.01 674.964 1121.95 676.958 1122.46 679.169C1122.6 679.745 1122.7 680.327 1122.64 680.925C1122.54 681.911 1122.28 682.865 1122.04 683.823C1121.66 684.779 1121.2 685.699 1120.52 686.487L1120.52 686.488Z" fill="#F03D01"/>
<path d="M1130.83 687.114C1131.15 688.49 1130.73 689.676 1129.86 690.733C1129.33 691.376 1128.66 691.847 1127.94 692.242C1126.63 692.954 1125.24 693.442 1123.82 693.878C1123.22 694.065 1122.69 693.927 1122.27 693.468C1121.68 692.811 1121.86 691.747 1122.66 691.298C1122.94 691.144 1123.25 691.053 1123.55 690.962C1124.51 690.674 1125.45 690.312 1126.33 689.841C1126.67 689.66 1127.01 689.46 1127.31 689.222C1128.08 688.617 1128.22 688.004 1127.85 687.111C1127.8 686.986 1127.76 686.857 1127.71 686.729C1127.84 686.606 1127.97 686.475 1128.11 686.362C1128.62 685.946 1129.17 685.841 1129.8 686.098C1130.29 686.301 1130.53 686.737 1130.83 687.114Z" fill="#4C6EFF"/>
<path d="M1101.82 682.447C1101.05 683.039 1100.65 683.902 1100.21 684.73C1099.06 684.108 1098.66 682.49 1098.9 681.341C1099.13 680.263 1099.64 679.335 1100.38 678.536C1101.88 676.921 1103.73 675.9 1105.8 675.246C1105.83 675.446 1105.69 675.588 1105.62 675.749C1105.11 676.81 1105.28 677.414 1106.27 678.029C1106.03 678.147 1105.8 678.277 1105.55 678.382C1104.73 678.727 1103.97 679.16 1103.28 679.716C1102.64 680.23 1102.07 680.803 1101.79 681.606C1101.68 681.901 1101.65 682.174 1101.82 682.448L1101.82 682.447Z" fill="#67B887"/>
<path d="M1102.68 666.403C1101.58 666.542 1100.49 666.724 1099.38 666.718C1099.12 666.183 1098.63 665.885 1098.18 665.571C1096.91 664.707 1095.48 664.364 1093.97 664.237C1093.82 664.224 1093.66 664.211 1093.5 664.198C1093.98 663.783 1094.28 663.301 1094.23 662.623C1094.18 662.076 1093.85 661.739 1093.51 661.383C1097.44 661.458 1100.67 662.821 1102.68 666.402L1102.68 666.403Z" fill="#FFBC01"/>
<path d="M1092.93 679.293C1092.95 679.16 1092.96 679.019 1093 678.894C1093.2 678.328 1093.16 677.792 1092.88 677.263C1092.76 677.046 1092.69 676.805 1092.6 676.575C1092.83 676.407 1093.12 676.41 1093.38 676.349C1095.26 675.905 1096.92 675.021 1098.36 673.732C1098.51 673.597 1098.67 673.472 1098.83 673.342C1099.84 673.227 1100.5 673.784 1100.69 674.52C1100.76 674.774 1100.74 675.054 1100.76 675.323C1100.67 675.429 1100.6 675.546 1100.5 675.637C1098.46 677.547 1096.08 678.776 1093.34 679.277C1093.21 679.301 1093.07 679.289 1092.93 679.293Z" fill="#F03D01"/>
<path d="M1112.75 686.501C1112.49 685.518 1111.72 684.951 1110.56 684.886C1111.1 684.102 1111.86 683.572 1112.64 683.058C1113.84 682.258 1115.17 681.718 1116.55 681.329C1116.72 681.279 1116.9 681.244 1117.09 681.272C1116.94 681.752 1116.61 682.141 1116.42 682.601C1116.18 683.184 1116.01 683.762 1116.41 684.341C1115.13 684.872 1113.91 685.505 1112.88 686.472C1112.85 686.498 1112.8 686.492 1112.75 686.501L1112.75 686.501Z" fill="#F2934C"/>
<path d="M1100.75 675.322C1100.73 675.053 1100.76 674.773 1100.69 674.518C1100.49 673.782 1099.83 673.224 1098.82 673.339C1098.91 673.212 1098.99 673.075 1099.09 672.957C1099.93 671.973 1100.5 670.873 1100.54 669.551C1100.62 669.513 1100.7 669.442 1100.78 669.441C1101.66 669.43 1102.53 669.204 1103.42 669.278C1103.39 671.669 1102.46 673.668 1100.75 675.322L1100.75 675.322Z" fill="#67B887"/>
<path d="M1130.83 687.106C1130.52 686.731 1130.29 686.294 1129.79 686.091C1129.16 685.834 1128.62 685.938 1128.1 686.355C1127.96 686.468 1127.84 686.599 1127.71 686.722C1126.84 685.604 1125.68 684.918 1124.39 684.405C1124.27 684.355 1124.15 684.298 1124.02 684.244C1124.33 683.689 1124.81 683.41 1125.42 683.242C1126.22 683.019 1127.03 683.027 1127.85 683.022C1127.85 683.022 1127.83 683.014 1127.83 683.014C1127.84 683.033 1127.85 683.07 1127.86 683.07C1127.9 683.071 1127.94 683.06 1127.98 683.053C1129.11 683.792 1129.97 684.78 1130.54 686.009C1130.7 686.353 1130.86 686.707 1130.83 687.105L1130.83 687.106Z" fill="#D085CE"/>
<path d="M1116.92 674.409C1117.37 675.472 1117.1 676.373 1116.29 677.153C1114.97 676.913 1113.63 676.864 1112.29 676.862C1112.47 675.92 1112.66 674.979 1112.73 674.019C1114.03 673.985 1115.33 674.035 1116.61 674.303C1116.71 674.325 1116.81 674.373 1116.92 674.41L1116.92 674.409Z" fill="#F2934C"/>
<path d="M1106.26 678.025C1105.27 677.411 1105.1 676.807 1105.61 675.746C1105.68 675.586 1105.82 675.444 1105.79 675.244C1107.06 674.747 1108.37 674.422 1109.72 674.291C1109.59 675.352 1109.37 676.39 1108.89 677.357C1108.75 677.376 1108.62 677.381 1108.49 677.416C1107.75 677.615 1107.01 677.822 1106.26 678.025Z" fill="#F2934C"/>
<path d="M1127.84 683.014C1127.03 683.018 1126.22 683.011 1125.42 683.234C1124.81 683.402 1124.33 683.681 1124.02 684.236C1123.36 684.091 1122.72 683.869 1122.03 683.827C1122.28 682.871 1122.54 681.918 1122.63 680.933C1123.25 681.084 1123.86 681.221 1124.47 681.388C1125.54 681.684 1126.55 682.12 1127.49 682.716C1127.62 682.799 1127.78 682.848 1127.84 683.015L1127.84 683.014Z" fill="#FFBC01"/>
<path d="M1116.41 684.345C1116 683.766 1116.17 683.188 1116.41 682.605C1116.6 682.144 1116.93 681.755 1117.08 681.275L1117.07 681.278C1117.14 681.289 1117.19 681.261 1117.22 681.202C1118.05 680.966 1118.9 680.89 1119.76 680.837C1119.64 681.908 1119.42 682.95 1118.84 683.883C1118.57 683.812 1118.3 683.877 1118.04 683.94C1117.5 684.071 1116.95 684.21 1116.41 684.345Z" fill="#FFBC01"/>
<path d="M1117.22 681.199C1117.19 681.259 1117.14 681.287 1117.07 681.276C1117.1 681.205 1117.15 681.184 1117.22 681.199Z" fill="#F2934C"/>
<path d="M1127.97 683.05C1127.94 683.057 1127.9 683.067 1127.86 683.067C1127.85 683.067 1127.84 683.03 1127.83 683.011C1127.88 683.024 1127.93 683.037 1127.97 683.05Z" fill="#FFBC01"/>
<path d="M919.834 646.624C933.209 650.022 946.116 648.991 958.445 642.542C959.202 642.147 959.892 641.713 960.804 642.152C964.614 643.992 968.521 645.651 972.016 648.081C973.765 649.296 973.84 649.524 972.553 651.154C970.748 653.436 968.825 655.626 966.92 657.826C965.566 659.391 964.257 660.989 963.157 662.746C962.252 664.191 961.549 665.726 961.254 667.424C960.525 671.61 963 675.365 967.132 676.373C969.297 676.902 971.466 676.742 973.549 676.134C982.24 673.589 989.673 669.017 995.593 662.108C996.319 661.258 996.906 660.273 997.46 659.294C1001.01 653.025 999.895 646.779 994.412 642.074C992.175 640.155 989.617 638.771 986.954 637.561C983.181 635.846 979.262 634.5 975.353 633.132C974.205 632.732 973.06 632.319 971.973 631.935C971.928 631.038 972.506 630.609 972.867 630.081C974.581 627.585 976.067 624.965 976.816 622.013C977.145 620.717 977.735 620.203 979.101 620.087C982.957 619.759 986.679 618.779 990.269 617.306C1011.69 608.523 1010.59 586.284 998.914 574.676C997.367 573.138 995.575 571.921 993.496 571.197C988.498 569.452 983.656 571.876 982.069 576.92C981.406 579.022 981.398 581.173 981.619 583.346C981.981 586.918 983.003 590.345 983.86 593.812C985.14 599.001 985.156 599.07 980.352 601.26C977.963 602.349 975.442 603.142 972.988 604.092C972.188 604.4 971.531 604.28 970.957 603.636C970.249 602.845 969.367 602.296 968.359 602.007C962.498 600.327 958.166 596.423 954.272 592.042C945.769 582.474 942.478 571.28 944.287 558.591C945.021 553.452 946.341 548.449 947.725 543.46C949.207 538.108 950.76 532.774 951.575 527.263C952.45 521.325 952.485 515.422 950.333 509.728C947.202 501.446 941.017 496.463 932.676 494.038C924.603 491.69 916.479 492.165 908.411 494.089C880.548 500.737 860.398 523.904 857.428 552.736C855.859 567.972 858.634 582.511 864.782 596.46C871.239 611.108 880.654 623.481 893.284 633.364C894.392 634.232 895.569 635.011 896.714 635.831C896.975 635.305 896.681 634.992 896.326 634.639C895.199 633.518 894.104 632.366 893.009 631.216C891.878 630.026 891.044 628.66 891.135 626.964C891.263 624.592 892.073 622.559 894.407 621.475C896.641 620.44 898.744 620.561 900.72 622.141C902.778 623.785 904.392 625.874 906.329 627.634C908.818 629.894 911.223 632.257 914.237 633.871C916.101 634.874 918.164 635.095 920.141 635.65C922.222 636.237 923.641 637.496 923.947 639.682C924.256 641.895 923.533 643.728 921.577 644.998C920.913 645.43 919.9 645.535 919.834 646.624ZM887.625 509.92C888.89 508.919 890.904 508.354 892.851 507.703C895.762 506.727 898.631 508.209 899.68 511.072C900.626 513.642 899.282 516.865 896.498 517.728C892.084 519.102 890.038 522.283 889.045 526.446C888.61 528.27 888.337 530.13 887.929 531.961C887.587 533.5 886.74 534.694 885.318 535.459C883.269 536.561 881.136 536.816 879.17 535.501C877.298 534.249 876.152 532.411 876.359 530.028C876.496 528.441 876.691 526.851 876.997 525.29C878.266 518.825 881.269 513.509 887.625 509.92ZM928.854 507.005C930.849 505.814 932.929 505.693 935.047 506.598C937.213 507.524 939.271 508.675 941.061 510.199C942.403 511.343 943.69 512.617 944.422 514.279C946.882 519.874 946.055 525.506 944.288 531.029C943.327 534.028 940.66 535.111 937.74 534.213C935.01 533.371 933.677 531.057 934.19 527.769C934.465 526.002 934.719 524.25 934.632 522.46C934.545 520.637 933.776 519.277 932.074 518.449C930.899 517.877 929.7 517.281 928.674 516.487C925.262 513.849 925.388 509.065 928.85 507.004L928.854 507.005ZM956.315 618.282C955.845 617.467 955.306 616.686 954.92 615.832C954.16 614.153 953.883 612.424 954.764 610.678C956.6 607.038 961.002 606.202 964.004 609.067C967.33 612.24 969.042 616.263 969.462 620.81C969.889 625.425 968.006 629.269 965.088 632.624C963.266 634.717 960.308 634.918 958.187 633.392C956.233 631.985 955.514 629.14 956.543 626.804C956.845 626.117 957.211 625.456 957.561 624.791C958.364 623.25 958.383 621.738 957.454 620.238C957.059 619.599 956.699 618.935 956.321 618.286L956.315 618.282ZM914.833 561.171C913.879 559.689 913.454 558.088 913.611 556.336C913.813 554.092 913.841 551.818 914.256 549.615C914.915 546.105 915.748 542.616 917.833 539.598C919.492 537.198 921.954 536.478 924.472 537.641C926.941 538.78 928.317 541.656 927.14 544.274C925.488 547.946 925.425 551.724 925.53 555.586C925.57 557.09 925.594 558.612 925.023 560.035C924.081 562.377 922.491 563.935 919.823 564.101C917.485 564.25 915.86 563.211 914.834 561.167L914.833 561.171ZM881.107 604.321C878.581 600.021 877.314 595.587 877.331 591.238C877.346 587.823 879.475 585.367 882.68 585.063C886.021 584.746 888.664 586.861 889.142 590.288C889.273 591.215 889.275 592.163 889.29 593.104C889.333 595.885 889.896 598.506 891.466 600.863C891.827 601.404 892.131 602.009 892.336 602.624C893.281 605.459 892.259 607.967 889.678 609.266C887.227 610.498 884.431 609.701 882.808 607.251C882.184 606.313 881.669 605.302 881.105 604.325L881.107 604.321ZM914.105 606.794C917.097 605.047 919.869 605.594 922.002 608.496C924.404 611.769 926.904 614.913 930.509 616.969C930.747 617.105 930.929 617.346 931.154 617.51C933.577 619.276 933.167 622.381 932.203 624.131C931.042 626.24 928.156 627.232 925.845 626.298C920.09 623.97 915.654 619.949 912.107 614.992C909.987 612.027 910.99 608.616 914.104 606.798L914.105 606.794ZM875.047 559.664C872.283 561.195 868.52 560.108 867.014 557.346C865.571 554.7 866.441 552.042 869.256 550.498C871.886 549.058 875.747 550.111 877.135 552.644C878.523 555.178 877.609 558.247 875.047 559.664ZM934.452 643.64C932.939 640.993 933.763 637.897 936.394 636.352C939.122 634.748 942.34 635.63 943.863 638.399C945.29 640.994 944.351 644.245 941.752 645.683C939.134 647.133 935.938 646.237 934.452 643.64ZM892.907 563.68C894.465 566.323 893.867 568.933 891.353 570.433C888.723 572.004 884.782 571.134 883.417 568.685C882.004 566.147 882.787 563.078 885.233 561.578C888.003 559.878 891.176 560.75 892.907 563.68ZM932.442 563.018C934.917 561.501 938.214 562.11 939.61 564.505C941.356 567.5 940.587 570.225 937.847 572.097C935.749 573.534 932.048 572.418 930.623 570.17C929.186 567.903 930.057 564.483 932.442 563.018ZM911.141 527.079C913.41 525.759 917.098 526.687 918.349 528.889C919.699 531.267 918.708 535.089 916.415 536.345C913.969 537.685 910.509 536.648 909.099 534.151C907.734 531.735 908.664 528.519 911.143 527.078L911.141 527.079ZM949.208 604.943C946.327 607.086 943.095 605.206 941.899 603.231C940.463 600.862 941.463 597.564 943.937 596.142C946.472 594.688 949.635 595.459 951.07 597.884C952.503 600.303 951.667 603.471 949.209 604.939L949.208 604.943Z" fill="#F03D01"/>
<path d="M919.836 646.625C919.903 645.536 920.913 645.432 921.579 644.999C923.535 643.729 924.258 641.896 923.949 639.683C923.643 637.497 922.225 636.238 920.144 635.651C918.164 635.094 916.104 634.871 914.239 633.872C911.226 632.254 908.821 629.891 906.331 627.635C904.393 625.879 902.778 623.787 900.722 622.142C898.746 620.562 896.641 620.442 894.409 621.476C892.075 622.56 891.268 624.592 891.137 626.964C891.045 628.659 891.877 630.025 893.011 631.217C894.107 632.369 895.204 633.517 896.329 634.64C896.683 634.993 896.977 635.306 896.717 635.832C901.602 639.485 906.985 642.23 912.662 644.398C914.998 645.291 917.291 646.375 919.834 646.626L919.836 646.625Z" fill="#F2934C"/>
<path d="M887.626 509.92C881.27 513.508 878.267 518.824 876.998 525.29C876.692 526.85 876.495 528.442 876.359 530.027C876.153 532.411 877.299 534.248 879.171 535.501C881.137 536.816 883.268 536.561 885.319 535.458C886.742 534.696 887.588 533.499 887.93 531.961C888.338 530.13 888.611 528.269 889.046 526.445C890.037 522.284 892.085 519.101 896.499 517.727C899.284 516.86 900.625 513.639 899.681 511.071C898.63 508.21 895.763 506.726 892.852 507.702C890.906 508.356 888.891 508.918 887.626 509.92Z" fill="#F2934C"/>
<path d="M928.856 507.007C925.394 509.068 925.268 513.852 928.68 516.489C929.706 517.283 930.905 517.88 932.08 518.451C933.784 519.278 934.551 520.64 934.638 522.462C934.723 524.25 934.47 526.005 934.195 527.772C933.683 531.06 935.015 533.374 937.746 534.215C940.666 535.113 943.332 534.034 944.293 531.032C946.061 525.509 946.887 519.876 944.427 514.282C943.696 512.619 942.409 511.346 941.067 510.202C939.277 508.678 937.219 507.526 935.053 506.6C932.934 505.693 930.855 505.817 928.86 507.008L928.856 507.007Z" fill="#F2934C"/>
<path d="M956.318 618.281C956.694 618.932 957.054 619.596 957.452 620.234C958.381 621.736 958.363 623.248 957.558 624.786C957.209 625.454 956.845 626.111 956.54 626.799C955.51 629.14 956.231 631.983 958.184 633.387C960.306 634.916 963.263 634.713 965.086 632.62C968.007 629.266 969.886 625.421 969.459 620.806C969.039 616.258 967.324 612.237 964.001 609.062C960.999 606.198 956.597 607.033 954.761 610.674C953.88 612.42 954.157 614.149 954.917 615.827C955.303 616.681 955.842 617.463 956.313 618.278L956.318 618.281Z" fill="#F2934C"/>
<path d="M914.834 561.171C915.858 563.216 917.485 564.254 919.824 564.105C922.492 563.935 924.08 562.378 925.023 560.039C925.597 558.615 925.571 557.09 925.531 555.589C925.428 551.727 925.489 547.949 927.141 544.278C928.318 541.66 926.941 538.784 924.473 537.645C921.951 536.481 919.491 537.199 917.834 539.602C915.749 542.62 914.917 546.112 914.256 549.619C913.841 551.822 913.815 554.099 913.611 556.34C913.453 558.089 913.88 559.693 914.833 561.175L914.834 561.171Z" fill="#F2934C"/>
<path d="M881.106 604.319C881.67 605.296 882.185 606.307 882.809 607.245C884.432 609.695 887.229 610.494 889.678 609.26C892.26 607.962 893.282 605.453 892.337 602.618C892.132 602.003 891.826 601.4 891.467 600.857C889.895 598.501 889.332 595.877 889.291 593.098C889.277 592.159 889.273 591.209 889.143 590.282C888.665 586.855 886.022 584.74 882.681 585.057C879.476 585.361 877.346 587.82 877.332 591.232C877.312 595.583 878.579 600.016 881.107 604.315L881.106 604.319Z" fill="#F2934C"/>
<path d="M914.103 606.792C910.989 608.609 909.986 612.02 912.106 614.986C915.651 619.944 920.09 623.966 925.844 626.292C928.155 627.225 931.041 626.234 932.202 624.125C933.166 622.375 933.573 619.271 931.153 617.504C930.926 617.338 930.746 617.099 930.508 616.963C926.902 614.91 924.402 611.763 922.001 608.49C919.872 605.588 917.097 605.043 914.104 606.788L914.103 606.792Z" fill="#F2934C"/>
<path d="M875.048 559.664C877.612 558.245 878.523 555.177 877.135 552.644C875.748 550.111 871.884 549.059 869.256 550.498C866.44 552.039 865.568 554.699 867.014 557.346C868.52 560.107 872.286 561.193 875.048 559.664Z" fill="#F2934C"/>
<path d="M934.45 643.638C935.937 646.235 939.132 647.13 941.751 645.681C944.349 644.242 945.289 640.992 943.862 638.396C942.339 635.628 939.121 634.745 936.393 636.349C933.761 637.895 932.938 640.99 934.45 643.638Z" fill="#F2934C"/>
<path d="M892.905 563.677C891.174 560.746 888.002 559.875 885.232 561.576C882.786 563.076 882.003 566.145 883.416 568.683C884.779 571.133 888.722 572.001 891.352 570.431C893.866 568.93 894.467 566.319 892.905 563.677Z" fill="#F2934C"/>
<path d="M932.442 563.016C930.056 564.479 929.187 567.901 930.623 570.168C932.048 572.416 935.749 573.532 937.847 572.095C940.587 570.223 941.359 567.497 939.61 564.503C938.215 562.108 934.917 561.499 932.442 563.016Z" fill="#F2934C"/>
<path d="M911.139 527.077C908.66 528.519 907.73 531.734 909.095 534.15C910.507 536.647 913.965 537.685 916.411 536.344C918.705 535.089 919.696 531.267 918.345 528.888C917.096 526.686 913.406 525.759 911.137 527.079L911.139 527.077Z" fill="#F2934C"/>
<path d="M949.205 604.94C951.665 603.471 952.5 600.306 951.066 597.884C949.631 595.46 946.466 594.687 943.933 596.143C941.457 597.562 940.458 600.861 941.895 603.232C943.092 605.203 946.322 607.084 949.204 604.944L949.205 604.94Z" fill="#F2934C"/>
<path d="M945.299 621.518C945.479 623.806 944.888 625.625 943.768 627.309C943.248 628.092 942.645 628.828 942.201 629.653C941.335 631.266 941.651 632.763 942.948 633.659C944.242 634.55 945.819 634.387 946.989 633.029C949.302 630.343 950.957 627.322 951.311 623.708C951.843 618.272 950.12 613.495 946.974 609.177C945.719 607.454 943.941 607.127 942.561 608.139C941.264 609.087 941.029 610.668 941.966 612.444C942.479 613.417 943.059 614.354 943.856 615.734C940.991 616.344 938.558 617.086 936.076 617.348C924.295 618.587 913.229 616.251 902.983 610.27C899.631 608.313 896.66 605.868 894.241 602.792C892.938 601.133 891.973 599.338 891.659 597.228C891.591 596.765 891.526 596.287 891.359 595.855C890.816 594.452 889.682 593.759 888.282 593.905C886.858 594.055 885.894 594.974 885.858 596.251C885.814 597.898 885.998 599.648 886.538 601.193C887.673 604.437 889.696 607.194 892.218 609.51C894.081 611.224 896.002 612.95 898.14 614.274C912.405 623.109 927.681 626.035 944.108 621.805C944.378 621.736 944.652 621.673 945.294 621.521L945.299 621.518Z" fill="black"/>
<path d="M906.643 552.32C907.258 553.385 907.785 554.134 908.15 554.958C909.985 559.08 911.765 563.227 913.584 567.355C914.767 570.036 916.448 571.01 918.26 570.114C919.944 569.282 920.192 567.514 919.063 564.926C917.443 561.221 915.902 557.484 914.247 553.797C913.478 552.087 912.662 550.369 911.628 548.816C909.757 546.004 906.95 545.403 904.018 547.079C902.968 547.678 901.862 548.356 901.105 549.266C897.925 553.083 894.861 556.999 891.774 560.892C891.489 561.252 891.293 561.708 891.156 562.15C890.759 563.452 891.064 564.591 892.174 565.405C893.289 566.223 894.516 566.2 895.57 565.36C896.287 564.786 896.838 563.989 897.411 563.253C899.552 560.519 901.64 557.744 903.824 555.044C904.573 554.12 905.538 553.373 906.642 552.318L906.643 552.32Z" fill="black"/>
<path d="M877.756 540.467C878.175 543.041 878.561 545.246 878.886 547.459C879.285 550.156 879.618 552.864 880.011 555.561C880.118 556.301 880.223 557.083 880.546 557.738C881.137 558.947 882.199 559.498 883.565 559.349C884.848 559.209 885.609 558.408 885.919 557.233C886.082 556.617 886.093 555.919 886.003 555.282C885.329 550.441 884.754 545.579 883.874 540.772C882.776 534.779 879.848 533.115 874.183 535.306C870.595 536.692 867.168 538.498 863.671 540.116C863.501 540.195 863.341 540.297 863.181 540.399C861.02 541.764 860.333 543.439 861.279 545.033C862.22 546.611 863.955 546.82 866.247 545.568C869.796 543.634 873.419 541.878 877.753 540.466L877.756 540.467Z" fill="black"/>
<path d="M965.647 418.956C967.745 411.396 959.068 405.523 953.134 410.656C939.868 422.131 922.967 437.934 912.452 452.203C903.501 464.348 893.633 482.907 888.451 493.088C886.415 497.088 888.173 501.927 892.261 503.78L939.855 525.351C945.182 527.765 951.25 523.842 951.319 517.994C951.46 505.967 951.957 487.696 953.595 474.223C955.67 457.147 961.077 435.43 965.647 418.956Z" fill="#767DBC"/>
<circle cx="7.42016" cy="7.42016" r="7.42016" transform="matrix(-0.736076 -0.676898 -0.676898 0.736076 951.832 499.486)" fill="white"/>
<circle cx="3.71008" cy="3.71008" r="3.71008" transform="matrix(-0.736076 -0.676898 -0.676898 0.736076 937.963 460.968)" fill="white"/>
<circle cx="3.71008" cy="3.71008" r="3.71008" transform="matrix(-0.736076 -0.676898 -0.676898 0.736076 960.17 447.788)" fill="white"/>
<path d="M1542.88 622.639C1539.73 623.483 1536.49 621.614 1535.64 618.463C1534.06 612.542 1534.82 608.907 1535.42 605.985C1535.9 603.694 1536.22 602.18 1535.36 598.973C1534.8 596.894 1533.82 596.246 1531.08 594.679C1527.91 592.867 1523.12 590.128 1521.26 583.186C1519.4 576.244 1522.18 571.475 1524.02 568.32C1525.61 565.593 1526.13 564.544 1525.58 562.465C1525.02 560.385 1524.04 559.738 1521.3 558.171C1518.13 556.359 1513.33 553.621 1511.47 546.68C1509.61 539.739 1512.4 534.97 1514.24 531.815C1515.83 529.088 1516.35 528.039 1515.79 525.959C1515.24 523.88 1514.26 523.233 1511.52 521.666C1508.35 519.854 1503.55 517.116 1501.69 510.175C1499.83 503.233 1502.62 498.465 1504.46 495.31C1506.05 492.584 1506.57 491.535 1506.01 489.457C1505.46 487.378 1504.48 486.731 1501.74 485.165C1498.57 483.354 1493.77 480.616 1491.91 473.675C1490.33 467.755 1491.08 464.121 1491.69 461.2C1492.17 458.909 1492.49 457.396 1491.63 454.193C1490.78 451.043 1492.65 447.805 1495.8 446.961C1498.95 446.116 1502.19 447.986 1503.04 451.136C1504.62 457.056 1503.87 460.69 1503.26 463.612C1502.78 465.902 1502.46 467.415 1503.32 470.618C1503.88 472.696 1504.85 473.343 1507.6 474.909C1510.77 476.72 1515.56 479.458 1517.42 486.4C1519.28 493.34 1516.5 498.109 1514.66 501.263C1513.07 503.99 1512.54 505.039 1513.1 507.118C1513.66 509.197 1514.63 509.844 1517.38 511.41C1520.55 513.222 1525.34 515.96 1527.2 522.902C1529.06 529.843 1526.28 534.612 1524.44 537.768C1522.85 540.494 1522.33 541.544 1522.88 543.623C1523.44 545.702 1524.42 546.349 1527.16 547.916C1530.33 549.728 1535.12 552.466 1536.98 559.408C1538.84 566.348 1536.06 571.117 1534.22 574.273C1532.63 576.999 1532.11 578.049 1532.66 580.129C1533.22 582.209 1534.2 582.856 1536.94 584.424C1540.11 586.236 1544.91 588.975 1546.77 595.916C1548.35 601.838 1547.6 605.474 1546.99 608.395C1546.51 610.686 1546.19 612.2 1547.05 615.406C1547.9 618.558 1546.03 621.795 1542.88 622.639Z" fill="white"/>
<path d="M1538.09 297.76C1549.45 340.154 1533.75 419.039 1491.36 430.399C1448.96 441.758 1395.93 381.29 1384.57 338.896C1373.21 296.502 1398.37 252.927 1440.76 241.568C1483.15 230.209 1526.73 255.367 1538.09 297.76Z" fill="#FFBC01"/>
<path d="M1480.86 241.284C1490.04 250.705 1497.01 262.537 1500.66 276.15C1512.02 318.544 1496.32 397.429 1453.93 408.788C1446.3 410.833 1438.33 410.541 1430.31 408.456C1449.43 425.332 1471.55 435.701 1491.36 430.395C1533.75 419.036 1549.45 340.15 1538.09 297.756C1530.37 268.976 1507.81 248.145 1480.86 241.284Z" fill="#EEAF00"/>
<path d="M1508.17 443.985C1509.99 450.767 1504.73 453.134 1497.95 454.951C1491.16 456.769 1485.43 457.349 1483.61 450.566C1481.79 443.783 1484.58 432.205 1491.37 430.388C1498.15 428.57 1506.35 437.202 1508.17 443.985Z" fill="#FFBC01"/>
<path d="M636.392 470.637C633.165 470.167 630.93 467.17 631.4 463.942C632.284 457.876 634.417 454.837 636.132 452.394C637.476 450.478 638.365 449.212 638.843 445.927C639.154 443.796 638.513 442.815 636.613 440.292C634.416 437.373 631.096 432.962 632.132 425.85C633.168 418.739 637.609 415.458 640.549 413.288C643.088 411.413 643.983 410.656 644.293 408.526C644.604 406.395 643.963 405.414 642.063 402.891C639.866 399.973 636.545 395.562 637.581 388.451C638.617 381.341 643.059 378.06 645.997 375.89C648.538 374.015 649.432 373.258 649.743 371.127C650.053 368.997 649.412 368.016 647.513 365.494C645.316 362.575 641.994 358.165 643.031 351.053C644.067 343.942 648.509 340.663 651.447 338.493C653.987 336.618 654.881 335.861 655.192 333.732C655.502 331.603 654.861 330.622 652.962 328.1C650.764 325.182 647.443 320.771 648.479 313.661C649.363 307.596 651.496 304.558 653.211 302.115C654.556 300.201 655.444 298.936 655.922 295.654C656.392 292.427 659.39 290.192 662.617 290.662C665.845 291.132 668.079 294.13 667.609 297.357C666.725 303.422 664.592 306.46 662.877 308.902C661.534 310.817 660.645 312.082 660.167 315.364C659.857 317.493 660.498 318.473 662.397 320.995C664.595 323.913 667.916 328.324 666.88 335.435C665.844 342.546 661.402 345.825 658.463 347.994C655.923 349.87 655.029 350.627 654.719 352.756C654.408 354.886 655.05 355.867 656.948 358.39C659.146 361.308 662.467 365.719 661.431 372.83C660.395 379.941 655.953 383.221 653.014 385.392C650.474 387.267 649.58 388.024 649.269 390.154C648.959 392.284 649.6 393.265 651.499 395.787C653.696 398.706 657.017 403.117 655.981 410.229C654.945 417.339 650.504 420.619 647.565 422.79C645.025 424.665 644.13 425.422 643.82 427.553C643.509 429.684 644.151 430.665 646.05 433.189C648.247 436.108 651.568 440.519 650.531 447.63C649.647 453.697 647.514 456.737 645.8 459.179C644.455 461.095 643.567 462.361 643.088 465.645C642.617 468.873 639.62 471.108 636.392 470.637Z" fill="white"/>
<path d="M760.448 170.338C754.119 213.768 708.511 280.02 665.08 273.691C621.65 267.363 596.844 190.852 603.172 147.421C609.501 103.991 649.838 73.9139 693.268 80.2422C736.699 86.5705 766.776 126.908 760.448 170.338Z" fill="#FF7A72"/>
<path d="M730.209 95.8353C734.922 108.12 736.649 121.745 734.617 135.691C728.288 179.122 682.679 245.372 639.249 239.044C631.433 237.905 624.223 234.484 617.687 229.4C628.572 252.459 644.794 270.731 665.081 273.687C708.511 280.015 754.12 213.765 760.448 170.334C764.744 140.85 752.257 112.795 730.209 95.8353Z" fill="#EF5D55"/>
<path d="M675.154 292.818C674.142 299.767 668.375 299.861 661.427 298.849C654.478 297.836 648.978 296.1 649.991 289.152C651.003 282.203 658.145 272.672 665.093 273.684C672.042 274.697 676.167 285.869 675.154 292.818Z" fill="#FF7A72"/>
<path d="M1356.14 118.971C1356.13 118.973 1356.13 118.97 1356.13 118.967C1357.19 117.517 1358.28 115.982 1359.36 114.379C1359.46 114.239 1359.52 114.154 1359.54 114.115C1359.55 114.111 1359.55 114.1 1359.55 114.103V114.103C1359.54 114.107 1359.53 114.109 1359.53 114.105C1362.12 110.201 1364.53 105.939 1365.86 101.711C1366.15 100.807 1366.4 99.8883 1366.61 98.9602C1366.96 97.4218 1367.81 96.039 1369.03 95.0432C1373.69 91.2512 1377.79 86.4282 1381.21 81.7645C1381.87 80.8777 1382.49 79.9747 1383.1 79.0553C1383.14 79.0077 1383.18 78.9664 1383.2 78.915V78.915C1390 68.6475 1393.73 56.9539 1391.24 45.3084C1390.31 40.9571 1384.88 40.4381 1382.24 44.0193L1381.32 45.2685C1379.97 47.1 1379.81 49.5233 1380.64 51.6428C1383.7 59.4848 1383.9 67.9607 1381.81 76.3059C1381.38 78.0222 1380.77 79.6714 1380.07 81.2898C1379.75 82.0587 1379.25 82.7479 1378.61 83.2836C1378.45 83.4116 1378.31 83.5296 1378.17 83.6355C1376.97 84.6152 1375.68 85.452 1374.33 86.1675C1370.98 87.9401 1367.33 85.1892 1366.35 81.5299C1364.63 75.0794 1361.03 69.2117 1355.49 65.0968C1351.25 61.9555 1344.93 57.956 1339.56 60.6338C1338.84 60.9947 1338.15 61.5281 1337.47 62.114C1337.45 62.1315 1337.43 62.1118 1337.45 62.0929V62.0929C1333.58 65.4058 1332.38 68.2381 1330.87 71.0532C1330.08 72.3578 1329.34 73.5594 1328.66 74.5722C1322.13 83.9445 1333.57 96.7499 1341.55 100.183C1344.69 101.538 1347.71 102.176 1350.62 102.242C1354.64 102.335 1358.66 105.087 1358.02 109.061C1357.76 110.642 1357.43 112.192 1357.02 113.692C1356.75 114.695 1356.41 115.665 1356.04 116.619C1355.72 117.444 1355.18 118.171 1354.51 118.749C1354.06 119.137 1353.68 119.456 1353.41 119.649C1352.23 120.482 1350.97 121.163 1349.67 121.717C1346.3 123.148 1343.05 120.178 1342.01 116.665C1341.26 114.134 1340.06 111.715 1338.32 109.504C1333.82 103.771 1327.61 107.942 1324.29 112.336C1320.81 116.954 1311.49 125.451 1315.81 132.059C1318.1 135.56 1322.46 136.713 1327.25 136.559C1330.77 136.445 1334.21 138.949 1333.58 142.41V142.41C1333.27 144.124 1332.68 145.756 1331.98 147.345C1331.69 148.013 1331.25 148.609 1330.73 149.112C1330.46 149.366 1330.19 149.619 1329.93 149.877C1324.83 154.683 1318.85 158.528 1312.81 162.013C1303.16 167.602 1292.67 172.01 1281.99 175.328C1281.06 175.614 1280.25 176.183 1279.68 176.96V176.96C1277.13 180.415 1280.4 184.932 1284.39 183.355C1292.94 179.976 1301.2 175.857 1308.98 171.008C1316.66 166.216 1322.8 160.309 1328.32 153.656C1328.44 153.503 1329.83 151.825 1329.94 151.662V151.662C1332.33 148.658 1334.63 145.517 1336.88 142.273C1338.28 140.247 1339.49 138.004 1340.47 135.649C1341.12 134.085 1342.3 132.798 1343.79 131.993C1344.57 131.568 1345.27 131.139 1345.86 130.72C1350.47 127.449 1352.87 123.46 1356.14 118.974C1356.14 118.972 1356.14 118.968 1356.14 118.971V118.971ZM1340.18 80.1853C1340.12 80.111 1340.06 80.0357 1340.01 79.9595C1337.46 76.5089 1340.88 73.0523 1344.44 75.4571C1347.31 77.404 1349.83 79.721 1351.41 81.4384V81.4384C1354.38 84.6862 1351.07 88.8025 1347.29 86.5527C1344.58 84.9423 1342.16 82.791 1340.18 80.1853ZM1323.69 117.846C1323.69 117.846 1323.69 117.845 1323.7 117.844C1324.57 117.09 1325.53 116.422 1326.18 116.662C1327.2 117.04 1328.09 117.654 1328.87 118.45C1330.81 120.419 1328.47 123.197 1326.24 121.557C1325 120.64 1324.07 119.429 1323.68 117.859C1323.68 117.853 1323.68 117.846 1323.69 117.846V117.846Z" fill="#FFDF85"/>
<path d="M1391.21 45.3016C1390.28 40.9519 1384.85 40.4335 1382.21 44.0125L1381.27 45.2863C1379.92 47.1178 1379.76 49.5417 1380.59 51.6618C1383.65 59.5035 1383.85 67.9791 1381.76 76.3239C1381.64 76.7982 1381.51 77.2674 1381.37 77.7322C1381.02 78.8502 1382.38 79.7962 1383.15 78.9159V78.9159C1389.95 68.648 1393.69 56.9433 1391.21 45.3016Z" fill="#FFBC01"/>
<path d="M1324 118.825C1324.83 118.859 1325.65 118.962 1326.44 119.254C1328.5 120.026 1330.05 121.588 1331.2 123.58C1332.91 123.94 1334.7 124.077 1336.28 124.043C1338.48 123.992 1340.73 123.871 1342.94 123.528C1342.94 118.55 1341.55 113.658 1338.29 109.504C1333.79 103.771 1327.57 107.942 1324.26 112.336C1324.23 112.388 1324.19 112.439 1324.14 112.474C1323.83 113.383 1323.59 114.482 1323.52 115.323C1323.4 116.662 1323.59 117.812 1324 118.791V118.825Z" fill="#FFBC01"/>
<path d="M1329.88 151.714C1329.64 152.023 1329.38 152.332 1329.12 152.641C1329 152.899 1329.26 152.59 1329.88 151.714Z" fill="#8A3CE5"/>
<path d="M1333.55 142.462C1333.17 144.539 1332.38 146.496 1331.49 148.402C1332.24 147.664 1333 146.908 1333.7 146.119C1331.9 148.814 1330.63 150.668 1329.89 151.732C1332.28 148.728 1334.58 145.587 1336.83 142.342C1338.72 139.613 1340.26 136.489 1341.34 133.227C1339.18 134.189 1336.64 135.047 1334 135.665C1334.06 138.257 1333.88 140.677 1333.55 142.48V142.462Z" fill="#FFBC01"/>
<path d="M1336.36 143.011C1336.35 143.011 1336.35 143.012 1336.34 143.016C1335.63 143.815 1332.24 147.664 1331.49 148.401C1330.96 148.916 1330.43 149.414 1329.89 149.929C1324.79 154.735 1318.82 158.58 1312.77 162.065C1303.12 167.653 1292.64 172.061 1281.95 175.379C1281.03 175.666 1280.22 176.234 1279.65 177.012V177.012C1277.1 180.467 1280.37 184.984 1284.36 183.406C1292.91 180.028 1301.16 175.909 1308.95 171.059C1317.03 166.013 1323.18 160.4 1328.93 153.328C1329.19 153.019 1329.43 152.71 1329.69 152.401C1331.79 150.09 1334.56 145.731 1336.37 143.034C1336.37 143.024 1336.37 143.011 1336.36 143.011V143.011Z" fill="#FFDF85"/>
<path d="M1383.19 78.9159C1383.19 78.933 1383.17 78.9501 1383.15 78.9672C1383.17 78.9501 1383.19 78.933 1383.2 78.8988L1383.19 78.9159Z" fill="#8A3CE5"/>
<path d="M1365.86 101.712C1366.4 100.029 1366.79 98.2957 1367.08 96.5448C1364.42 98.4845 1361.57 100.029 1358.57 101.025C1358.69 105.351 1358.1 109.711 1357.02 113.71C1356.64 115.135 1356.11 116.491 1355.53 117.847L1358.94 114.946C1361.83 110.826 1364.3 106.69 1365.88 101.712H1365.86Z" fill="#FFBC01"/>
<path d="M1383.14 78.9846C1379.45 84.323 1377.44 86.4515 1379.26 83.1558C1379.36 82.9326 1379.45 82.7095 1379.53 82.4863C1379.02 82.9498 1378.54 83.3618 1378.14 83.6707C1375.02 86.2112 1371.32 87.7905 1367.46 88.786C1365.93 89.1809 1364.39 89.4727 1362.84 89.6958C1360.66 90.0048 1358.5 90.0048 1356.4 89.7302C1350 88.9062 1344.18 85.4903 1340.16 80.2033C1338.5 78.0233 1336.98 74.9679 1336.23 71.8266C1335.42 68.445 1335.51 64.9261 1337.35 62.2311C1334.86 64.4626 1332.19 67.621 1330.32 70.7108C1329.53 72.0154 1328.83 73.217 1328.14 74.2126C1321.63 83.5849 1333.55 96.768 1341.53 100.218C1347.66 102.862 1353.35 102.776 1358.55 101.042C1361.55 100.029 1364.4 98.4845 1367.07 96.562C1372.54 92.5968 1377.3 87.0867 1381.2 81.7825C1381.87 80.8728 1382.5 79.9458 1383.14 79.0017V78.9846Z" fill="#FFDF85"/>
<path d="M1336.25 71.8267C1342.01 72.7708 1348.42 78.195 1351.41 81.4565C1353.64 83.894 1355.27 86.7091 1356.42 89.7302C1358.51 90.0049 1360.68 90.0049 1362.86 89.6959C1364.4 89.4727 1365.95 89.1638 1367.48 88.7861C1366.98 79.6198 1363.03 70.7452 1355.48 65.1321C1351.23 61.9908 1344.92 57.9913 1339.54 60.6691C1338.79 61.0468 1338.07 61.6132 1337.36 62.2311C1335.54 64.9261 1335.44 68.4451 1336.25 71.8267Z" fill="#FFBC01"/>
<path d="M1470.13 642.06C1466.98 652.168 1461.49 661.869 1451.7 665.573C1453.21 677.809 1451.46 688.952 1447.97 701.252C1447.97 701.252 1446.43 706.094 1445.91 708.129C1442.2 719.71 1437.53 730.043 1428.63 739.158C1417.11 750.931 1387.08 780.959 1385.54 761.98C1384.94 754.602 1387.68 750.472 1390.85 743.786C1401.3 721.805 1430.95 728.115 1443.01 709.692C1444.36 707.632 1445.46 705.394 1446.55 703.182C1446.57 703.079 1446.65 702.99 1446.68 702.887C1447.27 699.442 1447.61 695.927 1447.44 692.443C1447.12 685.533 1445.65 678.617 1444.06 671.892C1443.7 670.364 1443.34 668.753 1442.88 667.063C1433.56 666.958 1424.35 661.601 1417.77 655.463C1411.43 649.554 1409.65 644.399 1410.71 637.448C1411.11 634.089 1413.03 625.521 1414.71 621.9C1415.32 620.441 1416.07 619.099 1417.11 618.085C1421.14 614.02 1427.72 615.149 1431.96 617.992C1440.87 623.957 1445.39 636.778 1448.21 648.32C1457.14 648.128 1465.74 643.856 1471.18 634.361C1471.39 633.978 1471.55 633.581 1471.74 633.191C1472.07 629.702 1471.75 626.176 1471.21 622.731C1469.97 614.42 1466.19 606.581 1461.81 599.494C1452.41 584.263 1437.98 572.114 1422.52 563.403C1412.53 557.781 1400.23 553.552 1388.17 552.879C1387.94 556.615 1387.38 560.344 1386.49 563.985C1385.74 567.112 1385.49 568.449 1384.77 570.622C1382.28 580.109 1380.4 590.199 1369.06 591.672C1361.08 592.699 1352.69 587.066 1349.99 579.684C1348.49 575.623 1349.95 571.528 1351.08 567.595C1352.84 561.461 1354.01 554.318 1357.68 548.945C1361.4 543.476 1367.11 539.806 1373.47 537.547C1370.06 532.809 1365.86 528.549 1361.02 525.051C1344.48 513.078 1308.51 516.998 1291.47 519.725C1287.24 520.402 1283.54 516.431 1284.74 512.316V512.316V512.316C1286.36 506.754 1291.13 502.695 1296.89 502.146C1317.29 500.203 1365.03 498.358 1380.32 521.306C1383.13 525.498 1385.06 530.089 1386.36 534.81C1390.08 534.486 1393.73 534.502 1397.13 534.836C1414.42 536.551 1430.72 545.624 1444.16 556.158C1457.68 566.771 1469.24 580.928 1474.77 597.351C1479.95 612.801 1474.67 627.289 1470.06 642.124L1470.13 642.06ZM1423.15 634.259C1422.08 633.809 1420.9 633.602 1419.7 633.556C1423.75 638.988 1429.09 643.087 1434.94 645.59C1431.97 640.557 1428.16 636.373 1423.15 634.259ZM1356.11 563.218C1357.08 565.213 1358.54 566.978 1360.14 568.482C1364.87 572.913 1372.03 574.722 1378.18 572.626C1380.23 571.939 1381.91 570.6 1383.3 569.018C1383.29 565.962 1382.93 562.894 1382.55 559.902C1382.23 557.505 1381.69 555.214 1381.06 552.953C1371.91 553.612 1363.21 556.729 1356.13 563.25L1356.11 563.218Z" fill="#F26C64"/>
<path d="M1417.16 618.099C1421.19 614.034 1427.77 615.163 1432.01 618.006C1440.92 623.971 1445.44 636.792 1448.26 648.334C1450.32 655.821 1451.72 665.606 1451.72 665.606C1453.16 677.273 1451.62 687.949 1448.45 699.565C1447.78 701.036 1447.15 702.27 1446.54 703.291C1446.54 703.291 1446.56 703.24 1446.56 703.214C1446.59 703.112 1446.67 703.023 1446.7 702.92C1447.29 699.474 1447.63 695.96 1447.46 692.476C1447.14 685.566 1445.66 678.649 1444.08 671.924C1443.72 670.397 1443.36 668.786 1442.9 667.095C1440.54 656.999 1434.88 645.602 1434.88 645.602C1431.91 640.569 1428.1 636.385 1423.09 634.271C1422.03 633.821 1420.84 633.614 1419.64 633.568C1416.69 633.409 1413.1 635.612 1410.74 637.319C1411.18 633.858 1413.06 625.502 1414.71 621.9C1415.32 620.441 1416.07 619.099 1417.11 618.085L1417.16 618.099Z" fill="#FF7A72"/>
<path d="M1444.23 556.095C1457.75 566.708 1469.31 580.866 1474.84 597.288C1477.86 606.242 1477.33 614.879 1475.47 623.461C1474.06 627.621 1472.64 631.066 1471.8 632.96C1472.08 629.541 1471.77 626.1 1471.27 622.72C1470.03 614.408 1466.24 606.57 1461.87 599.482C1452.47 584.252 1438.04 572.102 1422.58 563.391C1412.58 557.769 1400.29 553.541 1388.23 552.868C1385.97 552.701 1385.55 552.616 1381.01 552.914C1371.87 553.573 1363.17 556.69 1356.08 563.211C1353.35 565.312 1351.28 568.914 1349.91 572.069C1350.26 570.566 1350.72 569.04 1351.15 567.558C1352.9 561.424 1354.07 554.281 1357.74 548.907C1361.46 543.438 1367.18 539.769 1373.53 537.51C1379.34 535.628 1386.4 534.741 1386.4 534.741C1390.12 534.416 1393.78 534.432 1397.18 534.766C1414.46 536.481 1430.77 545.554 1444.2 556.088L1444.23 556.095Z" fill="#FF7A72"/>
<path d="M1334.51 371.112C1333.98 374.02 1331.98 376.377 1329.14 377.224C1315.55 381.287 1272.65 390.472 1225.92 362.822C1220.94 359.876 1220.47 352.914 1223.8 348.182C1225.87 345.233 1227.6 342.241 1228.99 339.522C1231.66 334.299 1238.38 331.754 1243.64 334.341C1261.53 343.129 1299.17 357.897 1324.69 341.856C1330.09 338.457 1336.99 339.739 1337.07 346.126C1337.19 355.05 1335.58 365.315 1334.51 371.112Z" fill="#67B887"/>
<path d="M711.224 483.865C709.355 486.158 708.924 489.249 710.282 491.876C714.422 499.894 725.749 517.132 749.764 525.757C754.022 527.286 759.122 520.888 760.799 516.687V516.687C762.499 512.426 759.142 509.954 754.948 508.097C745.937 504.107 732.242 496.41 727.06 484.851C724.447 479.023 719.053 475.111 714.727 479.811C713.42 481.231 712.222 482.642 711.224 483.865Z" fill="#FFBC01"/>
<path d="M822.21 374.1C824.767 374.411 827.259 373.438 828.903 371.455C837.491 361.106 863.391 324.717 855.684 270.092C854.876 264.365 848.691 261.313 843.357 263.552C841.264 264.431 839.396 265.18 837.775 265.808C833.602 267.425 830.925 271.714 831.299 276.174C832.817 294.23 833.648 339.024 807.372 357.625C802.156 361.317 800.616 368.369 806.618 370.561C812.263 372.622 818.341 373.629 822.21 374.1Z" fill="#FFBC01"/>
</svg>
