<svg viewBox="0 0 340 240" fill="none" xmlns="http://www.w3.org/2000/svg">
<path d="M54.0978 207.582C58.1363 206.763 62.0391 206.046 65.9031 205.155C67.9838 204.676 70.5878 205.291 72.0578 203.745C73.3727 202.365 73.7216 200.074 74.539 198.204C77.1721 192.169 80.2704 186.372 83.4948 180.639C90.9966 167.293 97.9978 153.682 104.954 140.045C112.643 124.973 121.043 110.276 128.635 95.1383C137.872 76.7243 146.056 57.8373 154.585 39.0993C159.99 27.2219 165.605 15.458 172.338 4.26123C175.498 -0.992016 181.659 -1.53646 185.387 3.40244C188.466 7.4793 190.35 12.2075 191.985 17.0233C193.9 22.6687 195.002 28.5117 195.622 34.4034C197.302 50.3382 200.575 65.9197 205.492 81.1512C208.423 90.2253 210.248 99.523 211.108 108.996C212.164 120.604 215.492 131.606 219.411 142.486C224.389 156.307 230.457 169.637 237.287 182.629C238.993 185.876 240.821 189.052 243.076 191.959C243.942 193.074 244.714 194.279 244.95 195.682C245.241 197.416 246.061 197.967 247.809 197.659C257.023 196.036 266.325 195.034 275.61 193.945C277.293 193.748 277.743 193.132 277.723 191.534C277.636 183.792 279.038 176.293 281.71 169.04C283.17 165.077 285.044 161.324 287.729 158.022C288.824 156.674 290.052 155.471 291.47 154.476C297.88 149.978 305.279 152.451 307.74 159.937C308.803 163.168 308.926 166.496 308.525 169.857C308.012 174.157 307.01 178.344 305.595 182.431C302.048 192.698 296.988 202.167 290.763 211.044C288.808 213.831 286.324 215.176 282.886 215.208C273.95 215.295 265.094 216.559 256.206 217.347C250.53 217.849 244.869 218.514 239.199 219.042C236.611 219.282 234.098 219.654 231.791 220.989C229.416 222.364 226.829 222.837 224.079 222.979C217.727 223.31 211.547 224.833 205.324 226.042C196.76 227.701 188.091 228.54 179.404 229.156C168.358 229.94 157.331 231.01 146.25 231.347C131.879 231.784 117.689 230.446 103.577 227.821C95.1256 226.249 86.6416 224.862 78.3417 222.561C76.862 222.15 75.3693 222.111 73.8767 222.496C66.8594 224.308 59.6742 224.82 52.4857 225.251C49.8203 225.41 47.1613 224.933 44.4539 225.076C41.501 225.232 39.401 223.371 38.3542 220.604C35.2591 212.414 32.8748 204.031 31.7311 195.323C30.9686 189.522 30.6132 183.724 31.7537 177.926C32.1769 175.784 32.9265 173.775 34.2963 172.048C37.6693 167.802 43.0582 167.378 47.0547 171.037C49.0966 172.906 50.376 175.256 51.258 177.842C54.1657 186.362 54.6762 195.141 54.0365 204.044C53.9589 205.103 53.6229 206.16 54.0914 207.576L54.0978 207.582Z" fill="#FFBC01"/>
<path d="M161.684 134.306C161.361 135.362 161.138 136.04 160.944 136.724C159.035 143.532 154.554 147.791 147.927 149.913C142.251 151.731 136.49 151.706 130.701 150.594C123.36 149.184 116.799 146.086 111.174 141.137C102.616 133.606 99.7078 124.111 102.199 113.092C103.023 109.456 104.764 106.021 106.163 102.527C106.867 100.767 108.182 99.8762 110.188 99.9086C112.97 99.954 115.755 99.7401 118.537 99.7498C124.885 99.779 131.234 99.9248 137.582 99.9378C162.55 99.9961 187.514 100.019 212.482 100.054C213.021 100.054 213.557 100.048 214.097 100.061C217.683 100.152 219.211 101.38 219.715 104.967C220.468 110.311 219.825 115.513 217.696 120.5C217.528 120.896 217.376 121.307 217.15 121.673C209.267 134.474 198.244 142.861 183.185 144.874C175.534 145.895 169.121 142.615 163.984 136.886C163.293 136.114 162.605 135.34 161.684 134.303V134.306Z" fill="black"/>
<path d="M115.415 197.617C114.86 198.845 114.488 199.737 114.062 200.599C112.918 202.919 111.826 205.269 110.579 207.527C109.164 210.091 107.235 210.872 105.368 209.831C103.513 208.801 103.19 206.821 104.625 204.157C109.613 194.901 112.727 184.91 116.084 175.013C116.362 174.196 116.498 173.315 116.885 172.56C117.583 171.202 118.74 170.476 120.32 170.68C121.832 170.874 123.114 172.132 123.108 173.765C123.101 175.136 122.824 176.555 122.397 177.868C121.005 182.162 119.489 186.414 117.88 191.09C120.649 191.933 123.266 192.779 125.912 193.524C134.031 195.806 142.199 196.314 150.437 194.146C151.371 193.9 152.334 193.718 153.293 193.637C155.374 193.459 156.84 194.425 157.257 196.149C157.693 197.948 156.679 199.779 154.527 200.239C150.54 201.091 146.518 201.934 142.47 202.29C134.406 203.006 126.665 201.081 119.027 198.719C117.916 198.375 116.801 198.042 115.422 197.62L115.415 197.617Z" fill="black"/>
</svg>
