<svg width="109" height="119" viewBox="0 0 109 119" fill="none" xmlns="http://www.w3.org/2000/svg">
<path d="M28.3474 12.3565C34.9224 8.09081 42.0319 5.00051 49.5501 2.84541C56.4098 0.879579 63.4111 -0.181268 70.5572 0.0254943C77.9418 0.238619 85.0719 1.62868 91.6199 5.23907C101.255 10.5529 106.744 18.7518 108.166 29.61C109.613 40.6639 107.121 51.0115 101.815 60.6689C93.7209 75.4047 81.269 84.2557 64.7678 87.4272C64.1443 87.5464 63.5161 87.6355 62.891 87.7437C62.2708 87.8518 61.6505 87.9695 60.9347 88.0999C61.2179 92.399 61.3308 96.6615 61.4262 101.054C63.1026 100.596 64.6899 100.28 66.3376 100.37C68.2223 100.474 69.9941 100.945 71.6403 101.856C75.3922 103.933 76.8586 107.617 75.5799 111.711C75.1345 113.139 74.4522 114.448 73.5473 115.641C72.2224 117.385 70.4649 118.402 68.2843 118.511C64.3686 118.707 60.4465 118.782 56.5434 118.271C53.7951 117.912 52.4957 116.495 52.4973 113.719C52.502 105.721 52.3064 97.7192 52.7565 89.7254C52.8281 88.4419 52.8137 88.418 51.508 88.3894C50.199 88.3608 48.89 88.383 47.5413 88.383C47.3123 88.83 47.4475 89.3676 47.4506 89.886C47.4984 96.0301 47.791 102.174 47.457 108.32C47.3854 109.646 47.2646 110.965 46.9433 112.25C46.1258 115.52 44.0375 117.176 40.6688 117.22C38.5519 117.249 36.4366 117.056 34.3165 117.252C32.683 117.403 31.0544 117.657 29.4051 117.573C28.6671 117.537 27.9243 117.505 27.1927 117.406C22.663 116.792 21.0026 113.533 20.7226 110.15C20.1866 103.661 24.7895 100.499 29.7947 99.7772C30.6822 99.6484 31.5888 99.5673 32.4842 99.5832C33.3797 99.5991 34.2735 99.7645 35.1865 99.8663C35.5952 99.3717 35.5236 98.7578 35.5682 98.2011C35.8576 94.6114 36.1169 91.0185 36.3714 87.4272C36.4589 86.185 36.4445 86.1707 35.2278 85.8255C28.3585 83.8708 21.9266 80.981 15.9862 76.9888C7.92722 71.5749 2.66591 64.2411 0.541026 54.7285C-0.322605 50.8604 -0.268523 47.0576 1.56053 43.4249C1.95179 43.4567 2.22374 43.7239 2.53866 43.9116C4.43928 45.0393 6.49896 44.3872 7.37532 42.337C8.24531 40.2996 8.93239 38.1811 10.0728 36.2662C14.2955 29.1647 19.8813 23.3419 26.6631 18.6516C29.6548 16.5824 29.9617 15.4786 28.3458 12.3549L28.3474 12.3565ZM66.7623 81.0525C67.5543 81.1289 68.3337 80.7821 69.1305 80.499C73.5457 78.9308 77.2403 76.1968 80.7855 73.2433C83.7088 70.8082 86.5717 68.3 89.4425 65.8014C90.2807 65.0714 91.1077 64.3159 91.8394 63.4825C93.6684 61.4021 92.7301 58.5711 90.0358 57.9842C88.9113 57.7392 87.9602 58.21 87.1395 58.9242C84.5868 61.1461 82.0547 63.3886 79.5147 65.6233C77.5298 67.3696 75.4622 69.0158 73.3453 70.5983C70.9564 72.3828 68.3655 73.7777 65.5217 74.7272C63.8437 75.2886 62.996 76.9888 63.3618 78.67C63.6767 80.1094 64.9968 81.0589 66.7607 81.0509L66.7623 81.0525ZM60.1061 2.18536C58.6222 1.9945 56.9474 2.32055 55.2774 2.54481C54.1355 2.6975 52.9983 2.99809 51.9565 3.55635C50.2594 4.4677 49.5564 6.20133 50.2404 7.81726C50.9656 9.53179 52.5132 10.2268 54.417 9.67334C55.0245 9.49679 55.6066 9.26619 56.2396 9.15008C59.5669 8.53934 62.8751 8.82563 66.1674 9.35367C68.4561 9.71948 70.721 10.2316 73.0001 10.6579C74.3918 10.9187 75.968 10.0837 76.5453 8.82243C77.4169 6.91704 76.5628 4.87487 74.5302 4.27844C73.0176 3.83469 71.4574 3.5325 69.9035 3.24622C66.7384 2.66251 63.567 2.0947 60.1045 2.18536H60.1061ZM52.5354 80.7424C54.2945 80.7503 55.1867 80.1443 55.7784 78.6064C56.2714 77.3276 55.745 75.7212 54.4392 74.6954C52.9028 73.4898 51.3346 72.3256 49.7839 71.1391C46.9751 68.9903 44.1838 66.8193 41.3543 64.6992C40.4494 64.0217 39.4156 63.5843 38.2386 64.0153C37.0887 64.4352 36.1583 65.0905 35.9722 66.4122C35.767 67.8659 36.0787 69.1191 37.332 70.0655C41.6677 73.3435 45.9874 76.6421 50.3024 79.9487C51.0054 80.4863 51.7434 80.8203 52.537 80.7424H52.5354ZM23.1099 74.7017C24.4937 74.8528 25.3907 74.0496 25.9012 72.8679C26.4325 71.6353 26.3243 70.3899 25.3843 69.3148C24.9231 68.7867 24.3187 68.4464 23.7477 68.0742C20.2741 65.8109 17.3174 63.1024 15.789 59.1087C15.6045 58.6252 15.2848 58.1766 14.9619 57.7647C14.2367 56.839 12.8116 56.4239 11.6935 56.7627C9.79921 57.3353 8.83538 59.0689 9.42704 60.9838C9.94395 62.657 10.7678 64.2093 11.6887 65.6869C14.0426 69.4611 17.5067 72.0377 21.2284 74.3152C21.7914 74.6588 22.4117 74.7463 23.1115 74.7033L23.1099 74.7017ZM39.4935 23.458C39.581 22.0791 38.9034 21.1216 37.8489 20.5268C36.8008 19.9335 35.6397 19.8731 34.555 20.5999C34.0254 20.9546 33.5355 21.3491 33.0695 21.7848C31.9482 22.8314 30.8667 23.9161 29.72 24.9404C27.8655 26.5961 26.0746 28.336 24.3776 30.154C22.7282 31.9226 23.3962 34.4499 25.6468 35.3358C26.8857 35.8224 28.0388 35.6411 29.0361 34.7314C29.8949 33.9473 30.7411 33.1473 31.5904 32.352C33.868 30.2176 36.163 28.1023 38.4088 25.9344C39.0974 25.2696 39.6366 24.46 39.4935 23.4596V23.458ZM101.11 31.2339C101.013 30.8967 100.926 30.4212 100.741 29.9886C99.7456 27.6537 98.7914 25.2998 97.6923 23.0127C96.9162 21.3952 95.9619 19.8588 94.8995 18.4019C93.9627 17.1184 92.6283 16.8607 91.2111 17.1645C89.8974 17.4476 89.2103 18.4687 88.8938 19.7284C88.625 20.7972 89.0767 21.7085 89.6398 22.5515C90.8183 24.3153 91.8982 26.1237 92.6871 28.1038C93.3138 29.6752 93.9897 31.2275 94.7038 32.7608C95.4052 34.2685 97.0419 35.0685 98.4685 34.6852C100.097 34.2479 101.168 32.9039 101.11 31.2323V31.2339ZM65.1941 26.6804C67.583 26.6963 68.9428 25.2601 68.7377 23.0668C68.5897 21.489 67.6052 20.6047 66.1452 20.2357C62.926 19.4198 59.726 18.4926 56.4655 17.8914C53.7792 17.3967 52.009 20.0958 52.8424 22.192C53.2893 23.3165 54.0384 24.0529 55.1947 24.3439C58.2627 25.1185 61.334 25.874 64.4083 26.6231C64.7121 26.6963 65.0398 26.6708 65.1956 26.6804H65.1941ZM84.9478 43.0448C84.9637 41.5275 83.6771 39.6189 82.2472 39.0463C80.4881 38.3402 78.6479 39.1513 77.9815 40.9311C77.2658 42.8396 78.6511 45.4194 80.7489 46.0842C82.7689 46.7236 84.9256 45.1649 84.9478 43.0448ZM19.3739 48.6258C21.5211 48.8405 23.1274 46.4977 23.2086 45.1251C23.3119 43.374 21.599 41.6547 19.8129 41.642C18.1572 41.6309 16.1357 43.6206 16.0673 45.3303C15.9957 47.1021 17.5115 48.6115 19.3739 48.6242V48.6258ZM78.729 21.8835C80.5056 21.8866 82.0802 20.2978 82.0531 18.5275C82.0261 16.7637 80.1955 14.9235 78.4571 14.914C76.8491 14.9044 75.1791 16.5283 75.1234 18.1554C75.0614 19.9781 76.9016 21.8787 78.729 21.8835ZM64.9921 49.2365C63.3046 49.2143 61.7698 50.738 61.7332 52.4684C61.695 54.2434 63.4398 56.1217 65.1813 56.1806C66.88 56.2378 68.709 54.6092 68.6327 52.9265C68.5516 51.1292 67.2362 49.3288 64.9905 49.2365H64.9921ZM93.4426 55.9293C95.5102 55.9579 96.9989 54.6315 97.0228 52.742C97.0466 50.8859 95.5261 49.3463 93.6048 49.2795C91.744 49.2143 90.0517 50.7745 90.0326 52.5718C90.0119 54.5185 91.4163 55.9007 93.4426 55.9293ZM75.7278 34.6391C77.6523 34.6455 79.203 33.0598 79.195 31.0955C79.1871 29.3571 77.5855 27.6967 75.8964 27.6776C74.0371 27.6569 72.5437 29.2776 72.5262 31.3357C72.5087 33.3397 73.762 34.6328 75.7294 34.6375L75.7278 34.6391ZM89.0719 13.3235C90.9869 13.3235 92.5646 11.803 92.5503 9.96918C92.536 8.3628 90.8978 6.64506 89.266 6.71345C87.3033 6.79457 85.8592 8.03833 85.716 10.0566C85.592 11.8062 87.2174 13.3235 89.0719 13.3235ZM42.9941 12.4694C42.9703 10.5322 41.4879 9.10712 39.5476 9.15643C37.8378 9.19937 36.3698 10.6944 36.3348 12.4297C36.2998 14.2126 37.9507 15.8476 39.7845 15.846C41.6104 15.8444 43.0164 14.3653 42.9941 12.471V12.4694ZM40.5655 50.5455C42.6029 50.5789 43.8577 49.3447 43.9691 47.4123C44.0741 45.5943 42.288 44.0786 40.6402 44.1279C38.8621 44.182 37.6597 45.4369 37.5149 47.2421C37.3877 48.8262 38.9209 50.8095 40.5671 50.5439L40.5655 50.5455Z" fill="#F03D01"/>
<path d="M28.3456 12.3564C29.9599 15.4801 29.6545 16.584 26.6628 18.6532C19.881 23.3435 14.2969 29.1678 10.0725 36.2677C8.93375 38.1827 8.24508 40.3012 7.37509 42.3386C6.49873 44.3903 4.44065 45.0408 2.53843 43.9132C2.22193 43.7255 1.95156 43.4583 1.5603 43.4265C5.37587 33.8391 11.2734 25.7515 19.1256 19.0794C22.0314 16.611 25.0517 14.2952 28.3456 12.3564Z" fill="#F2934C"/>
<path d="M66.7627 81.0524C64.9989 81.0587 63.6788 80.1092 63.3639 78.6714C62.9965 76.9903 63.8442 75.2901 65.5237 74.7286C68.3675 73.7791 70.9584 72.3843 73.3473 70.5997C75.4642 69.0172 77.5319 67.3711 79.5168 65.6247C82.0568 63.3901 84.5904 61.1475 87.1415 58.9256C87.9622 58.2115 88.9118 57.7407 90.0378 57.9856C92.7321 58.5725 93.6705 61.4036 91.8414 63.4839C91.1098 64.3157 90.2828 65.0728 89.4446 65.8028C86.5738 68.3015 83.7109 70.8097 80.7876 73.2447C77.2424 76.1982 73.5477 78.9323 69.1325 80.5005C68.3357 80.7836 67.5564 81.1303 66.7643 81.054L66.7627 81.0524Z" fill="#F2934C"/>
<path d="M60.1077 2.18527C63.5702 2.09461 66.74 2.66401 69.9066 3.24613C71.4605 3.53241 73.0192 3.8346 74.5333 4.27835C76.566 4.87478 77.4201 6.91695 76.5485 8.82234C75.9711 10.0836 74.395 10.917 73.0033 10.6578C70.7241 10.2315 68.4593 9.72098 66.1706 9.35358C62.8783 8.82554 59.5701 8.54084 56.2428 9.14999C55.6098 9.2661 55.0261 9.4967 54.4201 9.67325C52.5179 10.2251 50.9688 9.53171 50.2435 7.81717C49.5596 6.19965 50.2626 4.46602 51.9597 3.55626C53.0014 2.99801 54.1386 2.69741 55.2806 2.54472C56.9506 2.32046 58.6254 1.99441 60.1093 2.18527H60.1077Z" fill="#F2934C"/>
<path d="M52.5369 80.7425C51.7448 80.8205 51.0053 80.4865 50.3023 79.9489C45.9889 76.6423 41.6675 73.3436 37.3319 70.0656C36.0802 69.1193 35.7669 67.866 35.972 66.4123C36.1597 65.0906 37.0886 64.4353 38.2385 64.0154C39.4154 63.586 40.4492 64.0218 41.3542 64.6993C44.1837 66.8195 46.975 68.9905 49.7838 71.1392C51.3345 72.3257 52.9027 73.4899 54.4391 74.6955C55.7449 75.7198 56.2713 77.3278 55.7783 78.6065C55.1866 80.1429 54.2944 80.7505 52.5353 80.7425H52.5369Z" fill="#F2934C"/>
<path d="M23.1118 74.7018C22.4119 74.7447 21.7916 74.6588 21.2286 74.3137C17.5069 72.0361 14.0428 69.4595 11.6889 65.6853C10.768 64.2094 9.94417 62.6571 9.42726 60.9823C8.8356 59.0689 9.79943 57.3353 11.6937 56.7611C12.8134 56.4224 14.2369 56.8375 14.9621 57.7631C15.285 58.1751 15.6047 58.6236 15.7892 59.1071C17.3176 63.1024 20.2743 65.8094 23.748 68.0726C24.3189 68.4448 24.9233 68.7852 25.3845 69.3132C26.3245 70.3884 26.4327 71.6337 25.9015 72.8663C25.3925 74.0497 24.4939 74.8513 23.1102 74.7002L23.1118 74.7018Z" fill="#F2934C"/>
<path d="M39.4912 23.458C39.6343 24.4584 39.0952 25.268 38.4065 25.9328C36.1591 28.099 33.8657 30.2159 31.5881 32.3504C30.7388 33.1456 29.8942 33.9456 29.0338 34.7297C28.0366 35.6395 26.8834 35.8224 25.6445 35.3341C23.3955 34.4498 22.7259 31.9209 24.3753 30.1523C26.0707 28.3344 27.8632 26.5944 29.7177 24.9387C30.8644 23.9145 31.946 22.8297 33.0672 21.7832C33.5348 21.3474 34.0231 20.9514 34.5527 20.5983C35.639 19.873 36.7985 19.9335 37.8466 20.5251C38.9011 21.1216 39.5771 22.0774 39.4912 23.4564V23.458Z" fill="#F2934C"/>
<path d="M101.105 31.2336C101.162 32.9052 100.093 34.2476 98.463 34.6865C97.0348 35.0698 95.3997 34.2698 94.6983 32.7621C93.9842 31.2288 93.3083 29.6765 92.6816 28.1051C91.8927 26.125 90.8128 24.3166 89.6343 22.5528C89.0712 21.7098 88.6195 20.7985 88.8883 19.7297C89.2048 18.47 89.8919 17.4473 91.2057 17.1658C92.6228 16.8605 93.9572 17.1197 94.894 18.4032C95.9564 19.8601 96.9107 21.3965 97.6869 23.014C98.7843 25.2995 99.7402 27.655 100.736 29.9899C100.92 30.4241 101.008 30.898 101.105 31.2352V31.2336Z" fill="#F2934C"/>
<path d="M65.1975 26.6805C65.0416 26.6709 64.714 26.6964 64.4102 26.6232C61.3358 25.8741 58.2646 25.1186 55.1965 24.3441C54.0403 24.0514 53.2911 23.3166 52.8442 22.1921C52.0108 20.0959 53.7826 17.3952 56.4673 17.8915C59.7278 18.4927 62.9279 19.4183 66.147 20.2358C67.6086 20.6064 68.5916 21.4891 68.7395 23.0669C68.9462 25.2602 67.5848 26.6964 65.1959 26.6805H65.1975Z" fill="#F2934C"/>
<path d="M84.9477 43.0446C84.9238 45.1631 82.7687 46.7234 80.7488 46.084C78.651 45.4192 77.2657 42.8379 77.9814 40.9309C78.6494 39.1527 80.488 38.34 82.2471 39.0462C83.6753 39.6203 84.9636 41.5273 84.9477 43.0446Z" fill="#F2934C"/>
<path d="M19.3696 48.6258C17.5056 48.6131 15.9914 47.1037 16.063 45.3319C16.1314 43.6222 18.1529 41.6325 19.8086 41.6436C21.5947 41.6563 23.3076 43.3756 23.2042 45.1268C23.1231 46.4993 21.5167 48.8421 19.3696 48.6274V48.6258Z" fill="#F2934C"/>
<path d="M78.7283 21.8838C76.8993 21.8806 75.0591 19.9784 75.1227 18.1557C75.1784 16.5287 76.8484 14.9048 78.4563 14.9143C80.1963 14.9239 82.0254 16.7625 82.0524 18.5279C82.0794 20.2997 80.5065 21.887 78.7283 21.8838Z" fill="#F2934C"/>
<path d="M64.9923 49.2368C67.2381 49.3291 68.5534 51.1295 68.6345 52.9267C68.7108 54.6095 66.8802 56.2397 65.1831 56.1809C63.4416 56.122 61.6968 54.2437 61.735 52.4687C61.7716 50.7366 63.3064 49.2145 64.9939 49.2368H64.9923Z" fill="#F2934C"/>
<path d="M93.4454 55.9291C91.4175 55.9005 90.0147 54.5184 90.0354 52.5716C90.0545 50.7744 91.7467 49.2141 93.6076 49.2793C95.5289 49.3461 97.0494 50.8857 97.0255 52.7418C97.0017 54.6313 95.513 55.9578 93.4454 55.9291Z" fill="#F2934C"/>
<path d="M75.7268 34.6393C73.7594 34.633 72.5061 33.3415 72.5236 31.3375C72.5411 29.2794 74.0346 27.6587 75.8939 27.6794C77.5829 27.6985 79.1861 29.3574 79.1925 31.0973C79.2004 33.06 77.6497 34.6457 75.7253 34.6409L75.7268 34.6393Z" fill="#F2934C"/>
<path d="M89.0737 13.3234C87.2176 13.3234 85.5921 11.8061 85.7178 10.0566C85.8609 8.03828 87.3067 6.79611 89.2677 6.7134C90.8996 6.64501 92.5377 8.36275 92.5521 9.96913C92.568 11.803 90.9902 13.325 89.0737 13.3234Z" fill="#F2934C"/>
<path d="M42.9939 12.4696C43.0161 14.3639 41.6101 15.843 39.7843 15.8446C37.9504 15.8462 36.2995 14.2128 36.3345 12.4283C36.3679 10.693 37.8359 9.19799 39.5473 9.15505C41.4893 9.10574 42.9716 10.5308 42.9939 12.468V12.4696Z" fill="#F2934C"/>
<path d="M40.5672 50.5454C38.9226 50.811 37.3894 48.8276 37.515 47.2435C37.6598 45.4383 38.8622 44.1818 40.6403 44.1293C42.2881 44.08 44.0742 45.5958 43.9692 47.4137C43.8579 49.3461 42.6046 50.5803 40.5656 50.5469L40.5672 50.5454Z" fill="#F2934C"/>
<path d="M37.0363 50.3136C34.1161 52.2588 31.6477 54.3757 29.604 56.9761C29.3431 57.3085 29.1077 57.6712 28.8023 57.9575C28.1582 58.5602 27.2596 58.6032 26.625 58.1133C26.0349 57.6584 25.8122 56.8727 26.1717 56.1077C26.415 55.5876 26.7633 55.101 27.1339 54.6588C31.1244 49.8889 35.9102 46.2436 41.8999 44.3366C43.4125 43.8547 44.9457 43.4427 46.4742 43.0117C46.8273 42.9115 47.1963 42.8065 47.5589 42.8034C48.3573 42.7954 49.0142 43.3219 49.1891 44.0614C49.3704 44.8296 49.0698 45.4388 48.4289 45.8237C48.0313 46.0638 47.5493 46.1736 47.0961 46.3151C45.3274 46.8638 43.5588 47.4157 41.7823 47.9358C41.0156 48.1601 40.583 48.6309 40.6355 49.4166C40.7453 51.0977 40.6562 52.8472 41.0968 54.4441C43.57 63.4144 49.1032 69.3389 58.4489 71.2077C62.7925 72.0761 67.1075 71.5926 71.3398 70.4236C78.815 68.3576 85.2978 64.6216 90.4255 58.7288C92.859 55.9328 94.6705 52.79 95.2447 49.046C95.4817 47.4969 95.4196 46.0002 94.793 44.529C94.3381 43.4586 94.6005 42.6125 95.3942 42.191C96.2419 41.7409 97.2821 42.0463 97.7847 43.0833C98.1918 43.9246 98.4845 44.8646 98.6117 45.7903C99.0237 48.7581 98.405 51.5892 97.2153 54.3041C95.2813 58.7241 92.2323 62.2851 88.5344 65.3023C82.1471 70.5143 74.8786 73.8145 66.6717 74.7513C58.2485 75.7136 50.6301 73.8034 44.564 67.5162C40.152 62.9436 37.55 57.4883 37.1874 51.0643C37.1794 50.9132 37.1285 50.7637 37.0363 50.3136Z" fill="black"/>
<path d="M57.3711 34.9952C57.6208 34.3335 57.7226 33.7912 58.0009 33.3649C59.8268 30.5768 61.6447 27.7807 63.5692 25.061C64.1656 24.218 65.015 23.5007 65.8706 22.9043C67.4261 21.818 69.1072 21.8387 70.5896 23.0204C71.528 23.7679 72.4266 24.6666 73.058 25.6749C74.6278 28.1847 76.072 30.7772 77.4923 33.3776C78.3798 35.0031 79.1337 36.7001 79.9369 38.3701C80.1198 38.7503 80.309 39.1399 80.4029 39.5471C80.5778 40.3153 80.1786 41.1169 79.4963 41.3905C78.7965 41.672 78.103 41.5972 77.6147 40.9944C77.2553 40.5491 77.0056 40.0083 76.7384 39.4946C75.0032 36.161 73.3188 32.8003 71.5248 29.5C70.8981 28.3485 70.0727 27.2845 69.2186 26.2825C68.417 25.3441 67.9796 25.3505 67.1033 26.2077C66.3875 26.9076 65.7116 27.6742 65.1533 28.5012C63.7314 30.6054 62.3875 32.7637 61.0054 34.895C60.7477 35.2926 60.5091 35.7204 60.1719 36.0417C59.6646 36.5252 58.9775 36.6238 58.4129 36.2405C57.9787 35.9447 57.7083 35.4119 57.3711 34.9952Z" fill="black"/>
<path d="M90.4717 25.7497C89.9071 26.9155 89.4363 27.6757 89.1595 28.4996C88.1766 31.4277 87.7663 34.4719 87.4848 37.5351C87.3973 38.4846 87.3687 39.4389 87.2526 40.3853C87.1031 41.6083 86.4207 42.235 85.4314 42.1411C84.5185 42.0537 83.8775 41.3682 83.965 40.2246C84.1702 37.5351 84.396 34.8408 84.8096 32.1784C85.0927 30.3605 85.6175 28.5632 86.2028 26.8137C86.5305 25.8339 87.0903 24.8765 87.744 24.0701C88.9766 22.5496 90.7771 22.2267 92.4455 23.2415C93.3759 23.8093 94.2411 24.5711 94.9505 25.4029C97.4094 28.2897 99.1096 31.6551 100.727 35.0492C101.394 36.4488 100.635 37.718 99.3068 37.6719C98.5195 37.6449 98.0535 37.1582 97.7179 36.522C97.1501 35.4452 96.665 34.3208 96.0384 33.2806C94.9219 31.4229 93.7688 29.5843 92.5425 27.7982C92.0844 27.1302 91.3783 26.6308 90.4701 25.7465L90.4717 25.7497Z" fill="black"/>
</svg>
