<svg width="155" height="87" viewBox="0 0 155 87" fill="none" xmlns="http://www.w3.org/2000/svg">
<path d="M149.279 40.1721C147.385 38.7115 145.2 37.8121 142.891 37.2327C138.224 36.0598 133.529 36.2401 128.832 37.0058C121.728 38.1646 115.011 40.5712 108.428 43.3971C100.982 46.5958 93.889 50.4914 86.7531 54.308C86.3014 54.5511 85.9044 54.9967 85.2278 54.8408C85.0759 54.5106 84.8815 54.156 84.7458 53.7813C78.5962 37.0139 71.2436 20.6983 65.8475 3.64524C64.5978 -0.303003 60.409 -1.22675 57.5509 1.77748C56.9007 2.46017 56.1736 2.81873 55.3472 3.09626C51.5695 4.36238 47.8892 5.86954 44.3465 7.68869C36.4165 11.7585 29.5135 17.0782 24.6603 24.6769C17.1902 36.3717 17.1011 48.2408 24.158 60.1787C25.2234 61.9816 26.5947 63.5617 28.0045 65.3728C25.4017 66.57 22.9184 67.4006 20.3622 68.0367C18.8491 68.4135 17.3036 68.691 15.7642 68.6809C12.0231 68.6566 11.3384 67.8463 10.2568 65.0386C9.8699 64.0338 9.61063 62.9682 9.14273 62.0059C7.93956 59.5365 5.26588 58.5641 2.83321 59.6257C0.870471 60.4826 -0.251674 62.4597 0.0481049 64.7407C0.33168 66.9023 1.13782 68.9179 2.12628 70.8383C4.23891 74.9405 7.54053 77.4383 12.1567 78.1919C15.2072 78.6903 18.211 78.4533 21.2007 77.8577C26.2625 76.8509 31.0144 74.9568 35.6225 72.6757C36.3375 72.3212 36.9513 71.9627 37.8729 72.3597C44.4174 75.1796 51.2394 75.1998 58.1485 74.2335C61.3569 73.7859 64.537 73.1964 67.6726 72.3921C68.7501 72.1166 69.4185 72.3536 70.0384 73.2916C71.1139 74.9223 72.2624 76.5126 73.4777 78.0441C75.6207 80.7505 77.9501 83.2787 80.9722 85.0553C83.178 86.3538 85.5519 87.1357 88.1122 86.842C93.3725 86.2383 97.3263 83.228 100.786 79.5087C102.028 78.1737 102.08 76.4153 101.375 74.7441C100.63 72.9715 99.1979 72.0214 97.3081 71.8371C95.8133 71.6912 94.5514 72.3091 93.4252 73.2531C92.0823 74.3794 90.7717 75.5523 89.2343 76.4234C88.1892 77.015 87.1197 77.2479 85.9672 76.6463C83.968 75.605 80.0627 71.1361 79.2181 68.8531C80.2329 68.3304 81.1586 67.9111 82.4367 68.3426C84.9787 69.2015 87.2777 68.0468 88.3249 65.5045C88.6611 64.6881 89.127 64.1675 89.8724 63.7643C97.5289 59.6358 105.123 55.3837 113.166 52.0249C119.97 49.1827 126.881 46.7295 134.325 46.215C136.842 46.0408 139.324 46.2393 141.702 47.1003C144.568 48.1375 145.579 49.9647 145.009 52.9507C144.754 54.2817 144.244 55.5316 143.579 56.7187C141.311 60.7641 138.082 63.8514 134.136 66.2297C133.097 66.8557 131.987 67.3885 131.033 68.1238C129.395 69.3879 128.763 71.1058 129.265 73.1518C129.749 75.1269 131.11 76.2411 133.02 76.705C134.416 77.0433 135.692 76.5652 136.897 75.915C139.933 74.2741 142.816 72.3962 145.338 70.024C149.743 65.8793 153.231 61.1227 154.529 55.094C155.82 49.1017 154.25 43.9988 149.287 40.168L149.279 40.1721Z" fill="#83AFE1"/>
<path d="M44.4534 31.9983C43.625 33.8498 43.5379 35.515 43.4528 37.1741C43.4082 38.0472 43.4974 38.9305 43.4042 39.7975C43.2948 40.7982 42.4866 41.564 41.5448 41.6511C40.5482 41.7423 39.8797 41.2034 39.4503 40.3668C39.1708 39.8239 39.0776 39.2182 39.0736 38.6023C39.0452 35.3408 39.4686 32.1502 40.7325 29.1217C41.5488 27.1648 42.7256 25.4611 44.5587 24.2861C47.3884 22.473 50.7609 22.8377 52.9708 25.374C55.29 28.0379 56.082 31.1677 55.1097 34.6034C53.9977 38.5294 49.74 39.5646 46.8415 36.6758C45.6161 35.4543 44.9922 33.9005 44.4554 31.9962L44.4534 31.9983Z" fill="#030303"/>
<path d="M54.319 63.7499C46.6706 63.7215 40.4319 60.4296 34.965 55.3632C34.7199 55.1363 34.485 54.877 34.3229 54.5893C33.8348 53.7304 33.9908 52.6122 34.647 51.972C35.3539 51.2812 36.3546 51.1313 37.2417 51.7289C38.0195 52.2536 38.7021 52.9201 39.4293 53.5217C43.3629 56.7731 47.7502 58.963 52.9153 59.439C54.7626 59.6092 56.5451 59.3762 58.3133 58.9306C61.4772 58.1324 63.5028 56.2038 64.159 52.9363C64.3575 51.9457 64.627 50.9692 64.8639 49.9888C64.9591 49.5978 65.0057 49.1845 65.1637 48.8199C65.664 47.6571 66.6646 47.1405 67.7564 47.4322C68.7529 47.6996 69.4943 48.6011 69.2735 49.7477C68.5889 53.307 68.1777 57.0122 65.421 59.7652C62.646 62.5385 59.1702 63.6223 55.3338 63.7499C54.9976 63.76 54.6593 63.7499 54.3231 63.7499H54.319Z" fill="#030303"/>
<path d="M62.596 36.5804C62.1444 37.644 62.0755 38.4482 62.0431 39.2545C62.0066 40.1965 62.0086 41.1385 61.956 42.0784C61.8669 43.6524 61.1215 44.562 59.9082 44.6248C58.628 44.6917 57.6396 43.7112 57.6132 42.1129C57.5484 38.0471 58.0143 34.032 59.5476 30.2459C61.5124 25.3901 66.3473 24.4501 70.1087 28.135C72.6245 30.5983 73.5765 33.5519 72.3713 36.9694C71.1924 40.316 67.6457 41.3066 64.8403 39.137C63.9916 38.4806 63.3313 37.6399 62.594 36.5804H62.596Z" fill="#030303"/>
</svg>
