<svg width="134" height="156" viewBox="0 0 134 156" fill="none" xmlns="http://www.w3.org/2000/svg">
<path d="M1.25038 46.92C2.52522 43.2958 3.83377 39.6813 5.20656 36.0924C7.04015 31.295 9.73916 27.032 13.3068 23.3211C17.2662 19.2026 21.8197 15.8417 26.7456 13.0056C37.1082 7.03804 48.1739 2.98211 60.004 1.05767C67.714 -0.195863 75.445 -0.435014 83.147 0.884326C99.598 3.70437 112.155 12.301 120.691 26.6676C124.989 33.9015 127.632 41.7742 129.486 49.9375C131.063 56.8793 131.973 63.9222 132.62 71.0004C132.893 73.9793 133.062 76.9695 133.227 79.9581C133.328 81.7638 132.636 83.2211 130.973 84.0525C129.332 84.8727 127.677 84.953 126.164 83.7251C125.689 83.3383 125.141 83.1585 124.591 82.9675C116.518 80.1812 108.565 77.0851 100.687 73.7947C99.4535 73.2795 98.2043 72.8221 96.9086 72.4882C93.6011 71.6376 90.2903 70.7997 86.9957 69.9041C86.1993 69.6875 85.8171 69.8688 85.5988 70.6569L82.28 70.0662L66.9771 67.3457L64.8079 66.9605L41.8045 62.8709L40.0833 62.5643L39.3415 62.4327C34.2004 61.9496 29.2439 60.7474 24.5171 58.6416C24.0354 58.4265 23.5039 58.3126 22.9869 58.1906C17.5857 56.9178 12.1588 55.7477 6.86033 54.0769C5.58709 53.6756 4.32188 53.239 3.20117 52.4895C1.19739 51.1509 0.462022 49.1687 1.25198 46.92L1.25038 46.92Z" fill="#502F2B"/>
<path d="M0.243282 128.563C0.785973 123.983 2.80903 119.907 5.53533 116.179C8.06736 112.715 11.0586 109.659 13.9968 106.568C17.4954 102.886 20.8977 99.127 24.0238 95.1273C27.4806 90.7038 30.6244 86.07 33.3041 81.1249C35.2597 77.5168 36.8204 73.7578 38.1434 69.9089L40.0476 62.5498C40.6658 62.6156 41.2791 62.683 41.8892 62.7504C44.5626 63.0474 47.1668 63.3636 49.6876 63.6894C70.851 66.426 86.0688 69.9105 86.0688 69.9105L83.3618 77.9357C81.3693 85.03 79.8728 92.2221 79.3093 99.6262C79.0074 103.595 79.0556 107.509 79.7444 111.412C80.385 115.041 81.883 118.224 84.8181 120.602C86.4462 121.922 88.3119 122.864 90.1149 123.902C93.1511 125.652 95.9176 127.703 98.0016 130.576C100.127 133.509 101.388 136.791 101.475 140.389C101.558 143.8 100.441 146.893 98.1044 149.475C96.0846 151.71 93.6071 153.226 90.77 154.178C86.4237 155.637 81.9762 156.138 77.3922 155.847C74.9806 155.695 72.6107 155.429 70.2971 154.77C67.1629 153.88 64.3387 152.353 62.0652 150.016C59.8462 147.734 58.3257 144.975 57.2243 141.981C55.2896 136.725 54.506 131.241 54.1127 125.708C53.7787 121.025 53.6438 116.322 53.7337 111.619C53.7402 111.298 53.7498 110.975 53.7209 110.658C53.6888 110.311 53.8558 109.89 53.3805 109.651C52.8587 109.762 52.4685 110.126 52.0446 110.447C49.2782 112.547 46.6819 114.85 44.0343 117.091C40.5261 120.058 37.0147 123.02 33.8613 126.371C33.2415 127.031 32.6587 127.738 32.1529 128.488C31.4802 129.486 31.1879 130.546 31.5171 131.815C31.957 133.513 32.3986 135.215 32.6683 136.961C33.3812 141.555 32.2444 145.582 28.969 148.859C25.7883 152.04 21.845 153.384 17.33 153.249C12.3736 153.101 8.3098 151.1 5.17086 147.381C0.566008 141.927 -0.570757 135.42 0.241675 128.56L0.243282 128.563Z" fill="#EED8A4"/>
<path d="M66.8415 67.5994C66.0355 70.1771 65.7256 72.7917 66.233 75.4721C66.6087 77.4559 67.4051 79.2231 68.863 80.6516C71.6952 83.4283 75.6161 83.1827 78.0534 80.0513C79.5418 78.1397 80.42 75.9023 81.3449 73.6937C81.5697 73.156 81.8025 72.6232 82.0321 72.0871C82.2874 70.8287 82.4319 69.5993 82.0385 68.3072C81.8201 67.5882 81.4605 67.1789 80.8166 66.9879C80.2065 66.8065 79.5723 66.6219 78.9445 66.6059C76.3723 66.5401 73.911 65.7793 71.3838 65.4487C71.1734 65.4214 70.9711 65.3379 70.7608 65.3122C68.3765 65.0169 68.1533 65.1485 66.8415 67.5978L66.8415 67.5994Z" fill="#020202"/>
<path d="M50.7501 63.9427C50.4803 65.4546 49.8365 66.8783 49.761 68.4432C49.6711 70.2794 49.8365 72.0626 50.5462 73.7687C52.5516 78.587 57.6895 79.3831 60.9938 75.3481C62.9189 72.9983 63.9625 70.2039 64.6979 67.2876C64.9564 66.6311 65.027 65.949 64.958 65.2524C64.9082 64.7596 64.7557 64.2444 64.2933 64.0454C63.3845 63.6538 62.4356 63.1065 61.4947 63.0856C59.0815 63.0358 56.763 62.4741 54.4413 61.9926C52.9995 61.694 52.0763 61.9749 51.3907 63.2381C51.2446 63.5093 50.9684 63.7099 50.7533 63.9427L50.7501 63.9427Z" fill="#020202"/>
<path d="M72.7954 92.1644C72.8002 90.4406 72.41 89.8467 71.1914 89.4358C69.5007 88.866 68.8472 89.0185 67.9689 90.2351C67.6575 90.6669 67.3572 91.1195 67.134 91.5994C66.6026 92.739 66.8739 94.0278 67.7634 94.8271C68.6353 95.612 69.9872 95.742 71.0469 95.0984C72.2495 94.3697 72.7825 93.2574 72.7954 92.1644Z" fill="#020202"/>
</svg>
