<svg width="137" height="114" viewBox="0 0 137 114" fill="none" xmlns="http://www.w3.org/2000/svg">
<path d="M11.3593 101.881C13.3474 101.478 15.2687 101.127 17.1709 100.689C18.1952 100.454 19.4771 100.756 20.2008 99.9974C20.8481 99.3199 21.0199 98.1954 21.4222 97.2777C22.7185 94.3162 24.2438 91.4708 25.8311 88.6573C29.5242 82.1077 32.9707 75.4277 36.395 68.7349C40.1804 61.3376 44.3156 54.1248 48.0533 46.6956C52.6004 37.6585 56.6291 28.3892 60.828 19.1931C63.4889 13.3639 66.2531 7.5905 69.5677 2.09539C71.1232 -0.482784 74.1562 -0.749984 75.9916 1.67391C77.5074 3.67473 78.4346 5.99524 79.2394 8.3587C80.1826 11.1293 80.7249 13.997 81.0303 16.8884C81.8573 24.7088 83.4685 32.3559 85.8892 39.8311C87.3318 44.2845 88.2304 48.8476 88.6535 53.4965C89.1735 59.1936 90.8117 64.5933 92.741 69.9326C95.1919 76.716 98.1788 83.2576 101.541 89.6338C102.381 91.2275 103.281 92.7862 104.391 94.2128C104.818 94.76 105.198 95.3516 105.314 96.0403C105.457 96.8912 105.861 97.1616 106.721 97.0105C111.257 96.2137 115.836 95.7222 120.407 95.1878C121.236 95.0908 121.457 94.7886 121.448 94.0045C121.405 90.2048 122.095 86.5245 123.41 82.965C124.129 81.0198 125.052 79.178 126.373 77.5573C126.912 76.8957 127.517 76.3056 128.215 75.8173C131.371 73.6098 135.013 74.8233 136.225 78.4973C136.748 80.083 136.808 81.7164 136.611 83.3658C136.358 85.4763 135.865 87.5312 135.169 89.5368C133.422 94.5755 130.932 99.2229 127.867 103.579C126.905 104.947 125.681 105.607 123.989 105.623C119.59 105.666 115.23 106.286 110.855 106.673C108.06 106.919 105.274 107.245 102.483 107.504C101.209 107.622 99.9713 107.805 98.8357 108.46C97.6667 109.135 96.3927 109.367 95.0392 109.437C91.9124 109.599 88.8698 110.347 85.8065 110.94C81.5901 111.754 77.3229 112.166 73.0461 112.468C67.6082 112.853 62.1799 113.378 56.7246 113.544C49.6501 113.758 42.6647 113.101 35.7175 111.813C31.5568 111.042 27.3802 110.361 23.2942 109.232C22.5658 109.03 21.831 109.011 21.0962 109.2C17.6417 110.089 14.1044 110.34 10.5656 110.552C9.25348 110.63 7.94451 110.396 6.61169 110.466C5.15799 110.542 4.12417 109.629 3.60886 108.271C2.08518 104.252 0.911403 100.137 0.348373 95.8638C-0.0269808 93.0168 -0.201933 90.1714 0.359507 87.3261C0.56786 86.2747 0.936851 85.2887 1.61121 84.4409C3.27168 82.3574 5.9246 82.1491 7.89202 83.9447C8.89721 84.8624 9.52704 86.0155 9.96124 87.2847C11.3927 91.4661 11.644 95.7747 11.3291 100.144C11.2909 100.664 11.1255 101.182 11.3561 101.877L11.3593 101.881Z" fill="#FFBC01"/>
<path d="M46.7683 90.7999C46.3516 92.4333 45.981 93.9013 45.6025 95.3677C45.3242 96.4429 45.1015 97.5372 44.7309 98.5805C44.3969 99.5221 43.5397 99.899 42.6983 99.6414C41.9428 99.4107 41.4673 98.6632 41.5579 97.7694C41.6009 97.3511 41.7186 96.9391 41.8219 96.5288C42.789 92.6798 43.748 88.8293 44.7325 84.9851C45.3894 82.4228 46.0828 79.8685 46.7667 77.3142C46.8765 76.907 46.9767 76.4871 47.1644 76.1134C47.5731 75.2975 48.3445 74.9682 49.1413 75.2068C49.9048 75.4358 50.3883 76.1818 50.2753 77.0724C50.2101 77.5941 50.0463 78.1047 49.9127 78.6168C49.267 81.0725 48.6371 83.5346 47.9532 85.9791C47.7544 86.6869 47.8785 87.1831 48.4447 87.6507C54.9943 93.0393 62.3391 95.433 70.7544 93.3447C74.8005 92.3411 77.8575 89.9076 79.712 86.0905C80.1748 85.1394 80.6265 84.1803 81.1418 83.2562C81.6921 82.2717 82.5462 81.9345 83.3764 82.2876C84.2639 82.6662 84.5915 83.6125 84.1367 84.7147C81.1211 92.0086 76.4165 96.9932 66.1945 97.4513C59.5653 97.7487 53.5947 95.6143 48.1966 91.813C47.7767 91.5172 47.36 91.2198 46.7651 90.7999H46.7683Z" fill="black"/>
<path d="M69.0847 65.9595C69.7527 59.9062 70.4223 53.8544 71.0903 47.801C71.0967 47.7485 71.1015 47.696 71.1094 47.6436C71.3273 46.228 72.051 45.5044 73.0928 45.657C74.0709 45.8018 74.6164 46.6193 74.486 47.9648C74.187 51.0217 73.8435 54.0739 73.4936 57.126C73.1325 60.2831 72.7444 63.4354 72.3659 66.5909C72.3277 66.9059 72.307 67.2303 72.21 67.5293C71.9603 68.2991 71.2573 68.8049 70.5496 68.7699C69.7496 68.7301 69.1038 68.1067 69.0052 67.224C68.9591 66.8073 68.9973 66.381 68.9973 65.9595C69.0275 65.9595 69.0561 65.9595 69.0863 65.9611L69.0847 65.9595Z" fill="black"/>
<path d="M65.4906 48.1605C65.1932 50.3554 64.8973 52.5057 64.611 54.6576C64.3104 56.9145 64.0242 59.173 63.7172 61.4299C63.6599 61.845 63.5884 62.2744 63.4293 62.6561C63.1351 63.3639 62.5482 63.7313 61.7895 63.6518C61.0356 63.5738 60.5235 63.1062 60.3581 62.3587C60.2802 62.0056 60.2865 61.6191 60.3343 61.2581C60.9148 56.9018 61.508 52.547 62.0997 48.1923C62.1204 48.0348 62.1315 47.8742 62.1697 47.7215C62.44 46.6464 63.1462 46.0976 64.0814 46.2249C65.0007 46.3505 65.5272 47.0917 65.489 48.1605H65.4906Z" fill="black"/>
</svg>
