<svg width="142" height="178" viewBox="0 0 142 178" fill="none" xmlns="http://www.w3.org/2000/svg">
<path d="M65.787 0.0469464C53.4483 -0.120036 43.271 3.32341 33.7667 9.05271C27.9373 12.5661 22.7582 16.8941 18.1981 21.9307C10.3517 30.5979 4.80913 40.5717 1.97683 51.9243C0.524548 57.7461 -0.272767 63.7191 0.0863516 69.7417C0.547108 77.4071 2.04005 84.8852 4.94914 92.0316C8.77974 101.439 14.1665 109.833 20.9265 117.44C26.8554 124.113 33.5951 129.785 40.8204 134.948C41.1253 135.167 41.446 135.366 41.7599 135.571C42.5708 136.101 42.6092 136.717 42.0174 137.455C41.0417 138.672 39.7475 139.394 38.3156 139.926C35.28 141.057 32.1157 141.652 28.9423 142.221C24.5222 143.011 20.0298 143.539 15.883 145.421C11.533 147.393 8.35059 150.59 7.41778 155.295C6.37882 160.539 7.5804 165.443 11.3071 169.514C15.5849 174.185 21.0282 176.414 27.2325 176.94C28.5041 177.048 29.7238 177.42 31.0248 177.387C36.8565 177.229 42.4849 176.125 47.9056 173.977C54.0671 171.533 59.4516 167.898 64.0772 163.175C67.088 160.102 69.4527 156.539 71.4787 152.748C72.3189 151.177 72.3573 151.155 74.0512 151.735C79.4493 153.589 84.9626 155.043 90.5797 156.002C94.9343 156.746 99.3319 157.326 103.781 157.134C104.457 157.105 105.139 157.168 105.812 157.121C106.891 157.046 107.366 157.38 107.526 158.585C107.928 161.632 108.513 164.66 110.123 167.365C112.978 172.154 117.109 174.88 122.751 175.173C126.035 175.345 129.209 175.042 132.005 173.065C137.082 169.478 139.129 164.644 138.313 158.466C137.805 154.621 136.28 151.267 133.983 148.235C133.374 147.429 133.245 146.971 133.983 146.163C136.92 142.948 138.952 139.202 140.039 134.987C142.774 124.381 141.285 114.513 134.076 106.058C130.469 101.827 125.622 99.3946 119.835 99.363C117.791 99.3518 117.857 99.345 118.133 97.3547C118.555 94.3175 118.869 91.2666 119.239 88.2226C119.644 84.883 120.109 81.5501 120.45 78.2037C120.716 75.5974 120.94 72.9776 120.996 70.36C121.089 66.1539 121.186 61.9364 121.008 57.7348C120.452 44.6696 116.59 32.7326 108.633 22.2105C102.611 14.2472 95.0337 8.24262 85.9089 4.27566C79.1715 1.34671 72.1134 -0.327636 65.7893 0.0537156L65.787 0.0469464Z" fill="#EED8A4"/>
<path d="M33.0349 63.0669C34.0987 62.7871 36.0478 62.2997 37.9789 61.7469C38.469 61.607 38.9411 61.3091 39.3476 60.9909C40.3685 60.1899 40.6305 59.0165 40.0772 57.9988C39.5577 57.0398 38.5548 56.6088 37.3894 56.8592C37.1726 56.9066 36.9558 56.9879 36.757 57.0894C30.6836 60.2102 23.8446 56.4508 20.7232 51.0104C19.9078 49.5887 19.3251 48.0295 18.6588 46.5221C17.7486 44.4597 16.5606 43.7218 15.1309 44.3694C13.7893 44.9764 13.4775 46.2672 14.2026 48.2642C15.6819 52.3394 17.726 56.0401 21.1613 58.8382C24.3482 61.4332 27.9485 62.9135 33.0326 63.0647L33.0349 63.0669Z" fill="black"/>
<path d="M27.834 28.8401C27.8363 30.9793 29.5461 32.7236 31.6624 32.7484C33.7832 32.7733 35.5765 31.0515 35.6127 28.9575C35.6511 26.7348 33.8464 24.898 31.6556 24.9296C29.5257 24.9612 27.8318 26.6919 27.8363 28.8401H27.834Z" fill="black"/>
<path d="M44.0472 32.3582C44.0743 34.529 45.7457 36.1695 47.9252 36.1649C50.0822 36.1604 51.7897 34.4793 51.8123 32.3447C51.8349 30.1423 49.9919 28.3303 47.7987 28.3958C45.6757 28.4612 44.0201 30.2077 44.0472 32.3582Z" fill="black"/>
</svg>
