<svg width="67" height="64" viewBox="0 0 67 64" fill="none" xmlns="http://www.w3.org/2000/svg">
<path d="M4.09399 31.252C2.01757 27.2789 0.762643 23.0471 0.566088 18.5835C0.324175 13.1102 1.43464 7.96955 5.45309 3.90406C8.83988 0.481989 12.986 -0.542783 17.6294 0.572707C22.0326 1.63108 25.5118 4.18797 28.4752 7.521C28.6986 7.77131 28.9035 8.03843 29.1001 8.31058C29.4999 8.8616 29.8628 8.82128 30.2996 8.32402C31.5579 6.89102 32.9119 5.55713 34.4692 4.44332C37.7485 2.09811 41.3336 0.757502 45.436 0.957417C48.4919 1.10525 51.2621 2.08803 53.7316 3.80998C60.0264 8.19802 63.8987 14.2408 65.5787 21.6948C66.5463 25.9921 66.3598 30.2508 64.8411 34.4053C63.1965 38.9042 54.7911 48.542 50.6199 51.7157C33.9838 64.3736 25.3366 78.091 4.09399 31.252Z" fill="#FF7A72"/>
<path d="M48.7727 11.4808C54.4566 15.3447 63.0859 25.9452 52.1326 37.4361" stroke="#FFBCB8" stroke-width="8.04255" stroke-linecap="round"/>
</svg>
