<svg width="137" height="134" viewBox="0 0 137 134" fill="none" xmlns="http://www.w3.org/2000/svg">
<path d="M7.90924 65.3363C3.59499 57.0812 0.987587 48.2887 0.579199 39.0144C0.0765668 27.6424 2.38382 16.9614 10.7331 8.51444C17.7699 1.40429 26.3845 -0.724909 36.0322 1.59278C45.1808 3.7918 52.4097 9.10433 58.5669 16.0295C59.0311 16.5496 59.4569 17.1046 59.8653 17.67C60.696 18.8149 61.45 18.7311 62.3575 17.6979C64.9719 14.7205 67.7852 11.9491 71.0209 9.63489C77.8343 4.76215 85.2832 1.97674 93.807 2.39211C100.156 2.69927 105.912 4.74121 111.043 8.31897C124.122 17.4362 132.167 29.9915 135.658 45.4788C137.669 54.4075 137.281 63.2559 134.126 71.8879C130.708 81.2355 113.244 101.26 104.578 107.854C70.0123 134.154 52.0456 162.655 7.90924 65.3363Z" fill="#FF7A72"/>
<path d="M100.74 24.257C112.549 32.2851 130.479 54.3101 107.721 78.1852" stroke="#FFBCB8" stroke-width="8.04255" stroke-linecap="round"/>
</svg>
