<svg width="343" height="240" viewBox="0 0 343 240" fill="none" xmlns="http://www.w3.org/2000/svg">
<g filter="url(#filter0_d_1_3600)">
<path d="M258.555 158.038C261.847 158.038 264.317 157.996 266.786 158.048C270.113 158.117 273.373 158.64 276.538 159.682C282.396 161.612 286.117 165.713 288.298 171.345C292.323 181.738 286.509 191.694 277.023 195.162C269.679 197.849 262.229 197.763 254.734 196.197C243.101 193.768 232.689 188.746 223.66 180.984C222.184 179.715 220.829 179.918 219.222 180.468C212.302 182.842 205.247 184.741 198.106 186.355C191.65 187.817 185.128 188.849 178.565 189.702C169.956 190.824 161.309 191.309 152.651 191.897C142.112 192.612 131.579 192.557 121.082 192.196C112.899 191.911 104.688 191.467 96.505 190.535C86.9771 189.451 77.5661 187.689 68.0829 186.444C62.772 185.746 57.413 185.36 52.1881 184.136C43.9364 182.199 36.4378 178.683 29.9884 173.092C20.9077 165.217 16.3295 155.024 14.6096 143.327C12.1537 126.645 17.2479 112.227 27.5497 99.2981C35.8909 88.8293 46.437 81.099 57.9152 74.4833C71.3575 66.7358 85.6528 60.9251 100.333 56.0674C115.086 51.1857 130.107 47.3979 145.52 45.0929C157.683 43.273 169.894 42.5299 182.098 43.3039C207.149 44.8934 229.885 52.8955 249.409 69.1509C258.872 77.0291 266.597 86.2181 271.784 97.4403C274.395 103.086 276.122 108.979 276.62 115.206C276.796 117.394 277.319 117.862 279.41 117.263C282.268 116.444 285.092 115.502 287.889 114.494C292.092 112.977 296.381 111.718 300.764 110.957C305.514 110.132 310.343 109.98 314.952 111.876C325.048 116.028 329.413 128.145 323.001 138.638C320.38 142.924 316.7 146.21 312.376 148.68C302.838 154.133 292.515 156.758 281.539 156.586C276.345 156.503 271.282 155.502 266.838 152.616C265.342 151.642 264.416 151.852 263.326 153.09C261.995 154.601 260.536 156.001 258.552 158.044L258.555 158.038Z" fill="#EED8A4"/>
</g>
<path d="M152.35 125.964C152.237 127.867 151.562 129.002 150.142 129.563C148.742 130.117 147.376 129.91 146.351 128.799C145.67 128.059 145.178 127.12 144.697 126.219C142.262 121.684 139.84 117.14 137.449 112.581C137.033 111.787 136.627 110.923 136.5 110.049C136.28 108.543 137.002 107.393 138.327 106.657C139.548 105.979 140.824 106.01 141.866 106.891C142.719 107.61 143.521 108.505 144.054 109.482C146.62 114.205 149.103 118.973 151.573 123.752C151.982 124.547 152.175 125.455 152.35 125.964Z" fill="black"/>
<path d="M93.3394 164.681C90.0545 164.601 87.5608 162.008 87.6021 158.705C87.6433 155.419 90.2128 152.874 93.4943 152.87C96.8996 152.867 99.5343 155.612 99.4036 159.028C99.2798 162.3 96.6415 164.756 93.336 164.677L93.3394 164.681Z" fill="black"/>
<path d="M78.7922 93.9484C78.7612 97.1857 76.1299 99.8416 72.9241 99.8657C69.5876 99.8932 66.884 97.079 66.9872 93.6869C67.087 90.4118 69.7287 87.9176 73.0136 87.9898C76.2985 88.0621 78.8198 90.6629 78.7888 93.9484H78.7922Z" fill="black"/>
<defs>
<filter id="filter0_d_1_3600" x="14" y="43" width="328.342" height="162.46" filterUnits="userSpaceOnUse" color-interpolation-filters="sRGB">
<feFlood flood-opacity="0" result="BackgroundImageFix"/>
<feColorMatrix in="SourceAlpha" type="matrix" values="0 0 0 0 0 0 0 0 0 0 0 0 0 0 0 0 0 0 127 0" result="hardAlpha"/>
<feOffset dx="16.3309" dy="8.16545"/>
<feComposite in2="hardAlpha" operator="out"/>
<feColorMatrix type="matrix" values="0 0 0 0 0.9625 0 0 0 0 0.9625 0 0 0 0 0.9625 0 0 0 1 0"/>
<feBlend mode="normal" in2="BackgroundImageFix" result="effect1_dropShadow_1_3600"/>
<feBlend mode="normal" in="SourceGraphic" in2="effect1_dropShadow_1_3600" result="shape"/>
</filter>
</defs>
</svg>
