<svg width="552" height="775" viewBox="0 0 552 775" fill="none" xmlns="http://www.w3.org/2000/svg">
<path opacity="0.2" d="M413.174 772.157C344.925 751.386 416.561 736.171 390 682.727C363.439 629.283 264.608 616.536 240.888 644.684C213.227 677.506 272.021 686.847 267.592 662.422C251.997 576.419 44.2302 648.717 36.6159 655.027C33.776 649.978 24.8152 633.715 11.6913 609.057" stroke="#6031D5" stroke-width="4" stroke-linecap="round" stroke-linejoin="round" stroke-dasharray="0.1 7"/>
<path d="M95.871 653.747C96.3096 655.35 96.9258 656.873 97.8604 658.26C99.6179 660.868 102.07 662.597 104.883 663.887C108.073 665.351 111.413 665.783 114.879 665.375C116.414 665.195 117.947 664.994 119.482 664.809C119.746 664.778 120.015 664.755 120.279 664.77C121.09 664.82 121.715 665.333 121.908 666.079C122.1 666.828 121.82 667.594 121.107 668.003C120.228 668.507 119.294 668.908 118.316 669.189C115.981 669.863 113.68 670.625 111.511 671.741C110.751 672.132 110.017 672.565 109.313 673.047C106.487 674.982 104.96 677.655 104.728 681.077C104.581 683.239 104.771 685.386 104.965 687.535C105.044 688.41 105.123 689.286 105.159 690.163C105.19 690.905 104.911 691.53 104.242 691.91C103.344 692.422 102.323 692.113 101.803 691.125C101.357 690.277 100.996 689.386 100.594 688.515C99.4966 686.14 98.246 683.859 96.621 681.792C94.44 679.018 91.603 677.493 88.0954 677.151C85.5073 676.899 82.9306 677.014 80.3551 677.282C79.4542 677.375 78.5551 677.489 77.664 677.663C77.1827 677.757 76.7056 677.734 76.3108 677.375C76.7236 677.269 77.1325 677.096 77.5501 677.071C78.6724 677.001 79.7241 676.594 80.8335 676.459C81.9461 676.322 82.9726 675.815 84.011 675.426C85.7697 674.768 87.4558 673.931 89.0864 672.975C91.0753 671.807 92.4703 670.148 93.3799 668.081C94.809 664.834 95.4794 661.401 95.733 657.873C95.8318 656.497 95.796 655.12 95.8737 653.745L95.871 653.747Z" fill="#FFBC01"/>
<path d="M95.8712 653.747C95.7935 655.122 95.8293 656.499 95.7305 657.875C95.4769 661.403 94.8063 664.835 93.3774 668.083C92.4678 670.15 91.0728 671.809 89.0839 672.977C87.4533 673.933 85.768 674.77 84.0085 675.428C82.9703 675.818 81.9436 676.324 80.8311 676.461C79.7208 676.596 78.6691 677.003 77.5476 677.073C77.13 677.098 76.7211 677.271 76.3083 677.376C75.2846 676.539 75.3084 675.319 76.3954 674.586C77.0364 674.153 77.7574 673.861 78.4976 673.634C79.6938 673.268 80.907 672.96 82.0872 672.537C84.6066 671.636 86.8485 670.293 88.7397 668.393C90.4822 666.644 91.363 664.489 91.6887 662.068C92.0302 659.531 92.0399 656.977 92.1083 654.426C92.132 653.549 92.1165 652.671 92.1569 651.795C92.2022 650.816 92.6703 650.223 93.4869 650.031C94.3253 649.834 95.1146 650.261 95.3835 651.082C95.4826 651.384 95.5373 651.702 95.5917 652.017C95.6921 652.593 95.7782 653.171 95.8707 653.748L95.8712 653.747Z" fill="#F2934C"/>
<path d="M129.214 678.641C130.27 678.918 131.338 679.068 132.434 678.992C134.493 678.849 136.282 678.022 137.939 676.846C139.819 675.513 141.161 673.755 142.067 671.65C142.468 670.718 142.858 669.781 143.256 668.847C143.325 668.687 143.4 668.526 143.496 668.381C143.79 667.936 144.287 667.749 144.774 667.885C145.264 668.021 145.607 668.432 145.606 668.972C145.604 669.637 145.525 670.3 145.364 670.948C144.981 672.497 144.658 674.056 144.581 675.656C144.554 676.216 144.559 676.775 144.602 677.334C144.775 679.576 145.793 681.322 147.663 682.578C148.844 683.371 150.127 683.968 151.413 684.563C151.936 684.805 152.46 685.048 152.971 685.315C153.403 685.541 153.667 685.905 153.664 686.41C153.66 687.089 153.149 687.568 152.416 687.539C151.788 687.515 151.162 687.427 150.535 687.37C148.825 687.215 147.117 687.177 145.408 687.422C143.114 687.752 141.316 688.864 139.97 690.746C138.977 692.135 138.196 693.638 137.503 695.191C137.261 695.734 137.03 696.282 136.836 696.846C136.732 697.151 136.562 697.414 136.228 697.521C136.304 697.252 136.34 696.962 136.462 696.716C136.791 696.056 136.905 695.324 137.192 694.648C137.48 693.971 137.528 693.221 137.648 692.503C137.851 691.287 137.929 690.053 137.92 688.812C137.91 687.298 137.424 685.96 136.547 684.764C135.17 682.885 133.438 681.377 131.515 680.075C130.765 679.567 129.97 679.135 129.214 678.639L129.214 678.641Z" fill="#FFBC01"/>
<path d="M129.214 678.641C129.97 679.136 130.765 679.568 131.515 680.076C133.438 681.379 135.169 682.887 136.547 684.765C137.424 685.961 137.909 687.299 137.92 688.813C137.929 690.055 137.851 691.288 137.648 692.504C137.529 693.223 137.48 693.973 137.192 694.65C136.905 695.326 136.791 696.058 136.462 696.718C136.339 696.964 136.303 697.253 136.228 697.523C135.416 697.83 134.73 697.416 134.669 696.557C134.634 696.05 134.704 695.544 134.819 695.049C135.003 694.249 135.226 693.458 135.373 692.648C135.688 690.919 135.66 689.204 135.201 687.505C134.778 685.939 133.842 684.731 132.572 683.751C131.242 682.724 129.793 681.88 128.365 681.003C127.874 680.702 127.369 680.423 126.884 680.112C126.343 679.765 126.159 679.304 126.318 678.777C126.481 678.235 126.983 677.927 127.538 678.043C127.742 678.086 127.941 678.159 128.138 678.232C128.499 678.364 128.856 678.505 129.214 678.641L129.214 678.641Z" fill="#F2934C"/>
<path opacity="0.2" d="M549.859 132.781C475.86 124.601 538.309 168.656 490.855 208.936C443.402 249.216 343.371 220.766 332.196 184.036C319.165 141.205 379.395 156.446 365.103 178.027C314.778 254.017 145.24 99.2563 140.532 90.0772C135.731 93.747 120.449 105.643 97.7212 123.87" stroke="#6031D5" stroke-width="4" stroke-linecap="round" stroke-linejoin="round" stroke-dasharray="0.1 7"/>
<path d="M445.918 310.551C444.133 311.649 442.103 312.14 440.174 312.875C428.269 317.411 416.767 322.823 405.591 328.949C405.304 329.106 405.016 329.264 404.734 329.432C398.41 333.216 391.854 333.325 385.089 330.937C378.638 328.661 372.765 325.327 367.162 321.481C363.68 319.089 360.215 316.67 356.765 314.232C355.396 313.264 354.072 312.228 352.755 311.189C351.076 309.863 350.678 307.941 350.558 305.958C350.487 304.792 351.124 303.893 352.063 303.201C352.628 302.785 353.323 302.52 353.69 301.861C356.612 300.793 359.202 299.021 362.078 297.853C362.122 297.835 362.146 297.769 362.18 297.726C363.594 298.168 364.843 297.64 366.1 297.059C373.737 293.524 380.765 288.856 388.227 284.995C391.907 283.091 395.612 281.244 399.461 279.705C401.198 281.081 402.923 282.473 404.676 283.829C407.498 286.013 410.342 288.169 413.17 290.347C416.168 292.655 419.116 295.031 422.163 297.273C425.517 299.74 428.751 302.362 432.188 304.729C435.041 306.697 438.008 308.32 441.369 309.081C442.949 309.439 444.442 309.94 445.92 310.55L445.918 310.551Z" fill="#F2944D"/>
<path d="M445.916 310.551C444.439 309.941 442.946 309.441 441.365 309.082C438.002 308.32 435.036 306.696 432.183 304.73C428.748 302.362 425.514 299.74 422.159 297.274C419.111 295.034 416.165 292.657 413.166 290.348C410.337 288.171 407.493 286.014 404.671 283.83C402.918 282.474 401.194 281.081 399.456 279.706C400.669 278.846 402.061 278.342 403.392 277.721C403.703 277.575 404.036 277.473 404.299 277.757C404.969 278.483 405.899 278.849 406.621 279.527C411.446 284.062 416.83 287.892 422.227 291.699C424.795 293.509 427.455 295.19 430.001 297.032C432.737 299.011 435.716 300.57 438.647 302.212C439.69 302.797 440.9 303.177 442.101 302.678C444.17 301.815 446.714 299.134 445.609 296.139C445.092 294.735 444.286 293.533 443.332 292.417C441.342 290.091 438.898 288.3 436.402 286.572C433.952 284.876 431.488 283.203 429.047 281.495C426.476 279.693 423.904 277.89 421.37 276.038C418.447 273.901 415.356 271.987 412.65 269.557C411.862 268.848 410.904 268.511 409.81 268.518C408.26 268.528 406.769 268.844 405.352 269.443C397.808 272.64 390.403 276.134 383.134 279.925C378.434 282.377 374.02 285.338 369.288 287.73C366.85 288.962 364.407 290.181 361.976 291.424C360.692 292.08 359.962 293.144 360.06 294.587C360.157 296 360.716 297.197 362.183 297.727C362.15 297.771 362.125 297.836 362.081 297.854C359.206 299.021 356.615 300.794 353.693 301.862C354.11 298.417 354.201 294.935 355.167 291.557C355.539 290.255 356.305 289.366 357.363 288.615C363.361 284.362 369.742 280.775 376.403 277.699C384.595 273.915 392.616 269.793 400.618 265.624C402.461 264.664 404.279 263.632 406.196 262.847C408.745 261.802 411.22 261.583 413.761 263.28C421.168 268.224 428.405 273.393 435.491 278.781C438.988 281.441 442.635 283.902 445.967 286.774C447.785 288.34 449.411 290.074 450.575 292.199C451.841 294.512 452.348 296.963 451.906 299.604C451.645 301.155 451.774 302.752 451.184 304.271C450.721 305.462 450.195 306.623 449.245 307.465C448.111 308.469 447.303 309.824 445.921 310.552L445.916 310.551Z" fill="#935750"/>
<path d="M362.177 297.727C360.713 297.196 360.151 296 360.054 294.586C359.956 293.143 360.687 292.078 361.97 291.423C364.403 290.18 366.847 288.961 369.282 287.729C374.014 285.337 378.428 282.376 383.128 279.925C390.397 276.134 397.803 272.638 405.346 269.443C406.764 268.842 408.253 268.527 409.805 268.517C410.897 268.509 411.855 268.847 412.644 269.556C415.35 271.986 418.44 273.902 421.364 276.037C423.898 277.889 426.47 279.693 429.041 281.494C431.481 283.204 433.945 284.877 436.396 286.571C438.891 288.299 441.337 290.089 443.326 292.416C444.28 293.533 445.085 294.736 445.603 296.138C446.71 299.135 444.165 301.815 442.095 302.677C440.894 303.177 439.684 302.796 438.641 302.212C435.71 300.569 432.731 299.011 429.995 297.031C427.451 295.19 424.789 293.509 422.221 291.698C416.824 287.892 411.439 284.06 406.615 279.526C405.893 278.848 404.963 278.482 404.293 277.756C404.03 277.472 403.697 277.575 403.386 277.72C402.054 278.343 400.663 278.845 399.45 279.705C395.601 281.245 391.896 283.092 388.217 284.995C380.755 288.857 373.728 293.524 366.089 297.06C364.832 297.641 363.584 298.168 362.17 297.727L362.177 297.727Z" fill="#EED8A4"/>
</svg>
