<svg width="2006" height="1057" viewBox="0 0 2006 1057" fill="none" xmlns="http://www.w3.org/2000/svg">
<path opacity="0.2" d="M591.062 605.38C487.841 539.457 613.306 547.508 594.116 446.926C574.926 346.344 417.437 279.507 365.204 315.013C304.293 356.415 397.17 399.079 401.146 356.682C415.146 207.401 38.228 230.576 22.7215 237.472C20.3622 227.816 13.0709 196.802 2.78006 149.993" stroke="#6031D5" stroke-width="4" stroke-linecap="round" stroke-linejoin="round" stroke-dasharray="0.1 7"/>
<path opacity="0.2" d="M1369.5 852.706C1249.5 828.206 1369.5 790.706 1315.5 703.706C1261.5 616.706 1090.52 610.824 1054.5 662.706C1012.5 723.206 1114.5 729.706 1103 688.706C1062.51 544.34 719 701.206 707 713.206C701.333 705.039 683.4 678.706 657 638.706" stroke="#6031D5" stroke-width="4" stroke-linecap="round" stroke-linejoin="round" stroke-dasharray="0.1 7"/>
<path opacity="0.2" d="M1778 40.9855C1659.02 33.221 1762.1 99.2109 1689.08 167.066C1616.05 234.922 1453.97 196.599 1433.45 138.639C1409.52 71.052 1506.98 91.1047 1485.67 126.66C1410.62 251.852 1128.25 16.4472 1120.06 2.10047C1112.64 8.31675 1089.05 28.448 1054 59.2427" stroke="#6031D5" stroke-width="4" stroke-linecap="round" stroke-linejoin="round" stroke-dasharray="0.1 7"/>
<path d="M541.723 1035.64C532.687 1027.1 526.754 1016.21 519.578 1006.28C475.283 944.997 426.587 887.368 374.298 832.708C372.956 831.303 371.606 829.896 370.212 828.537C338.801 798.095 328.108 760.676 331.403 718.223C334.546 677.743 344.635 638.949 358.081 600.922C366.442 577.282 374.989 553.703 383.663 530.178C387.112 520.843 391.015 511.66 394.949 502.516C399.976 490.849 410.384 485.619 421.566 481.882C428.141 479.687 434.276 481.956 439.685 486.274C442.937 488.877 445.527 492.454 449.867 493.546C460.478 508.655 474.614 520.784 485.728 535.477C485.9 535.704 486.315 535.736 486.613 535.867C486.255 544.653 491.195 551.001 496.457 557.315C528.458 595.666 566.015 628.79 599.616 665.639C616.181 683.809 632.463 702.213 647.199 721.915C641.982 733.991 636.647 746.015 631.566 758.149C623.378 777.684 615.39 797.303 607.246 816.861C598.619 837.591 589.525 858.145 581.354 879.059C572.361 902.077 562.298 924.645 554.007 947.983C547.11 967.365 542.36 986.867 543.162 1007.31C543.534 1016.91 542.961 1026.24 541.73 1035.66L541.723 1035.64Z" fill="#F2944D"/>
<path d="M541.71 1035.64C542.938 1026.24 543.512 1016.91 543.142 1007.29C542.343 986.841 547.102 967.342 553.987 947.966C562.287 924.631 572.351 902.063 581.334 879.043C589.496 858.126 598.597 837.584 607.226 816.845C615.36 797.285 623.358 777.668 631.547 758.132C636.627 745.999 641.962 733.975 647.179 721.898C653.973 727.533 658.998 734.736 664.607 741.415C665.918 742.972 667.016 744.722 665.793 746.668C662.66 751.627 661.99 757.522 659.213 762.697C640.627 797.331 626.935 834.079 613.404 870.871C606.967 888.372 601.421 906.205 594.772 923.63C587.626 942.354 583.267 961.83 578.352 981.157C576.605 988.034 576.28 995.557 580.99 1001.67C589.114 1012.21 608.391 1022.68 623.867 1011.74C631.119 1006.62 636.771 1000.15 641.708 992.965C651.984 977.985 658.496 961.225 664.57 944.257C670.528 927.608 676.338 910.909 682.379 894.293C688.757 876.785 695.147 859.271 701.873 841.897C709.631 821.855 715.858 801.198 725.634 781.951C728.486 776.344 728.944 770.332 727.228 764.073C724.784 755.202 720.684 747.136 715.073 739.936C685.157 701.596 653.748 664.508 620.849 628.661C599.573 605.479 575.816 584.724 554.835 561.271C544.026 549.187 533.281 537.051 522.425 525.025C516.69 518.673 509.469 516.121 501.347 518.9C493.391 521.624 487.389 526.671 486.602 535.893C486.302 535.772 485.889 535.73 485.717 535.503C474.612 520.813 460.467 508.681 449.856 493.573C470.247 490.668 490.353 485.842 511.201 486.189C519.235 486.324 525.511 489.352 531.439 494.262C565.04 522.117 595.405 553.189 623.268 586.652C657.551 627.806 693.504 667.455 729.696 706.929C738.033 716.018 746.74 724.857 754.187 734.639C764.093 747.652 769.148 761.5 763.322 778.675C746.355 828.736 727.84 878.168 707.833 927.066C697.959 951.199 689.449 975.892 678.105 999.407C671.922 1012.24 664.479 1024.22 654.081 1034.16C642.765 1044.97 629.493 1051.64 613.675 1053.16C604.38 1054.05 595.421 1057.24 585.806 1056.19C578.267 1055.37 570.808 1054.14 564.518 1049.98C557.018 1045.03 548.013 1042.47 541.712 1035.67L541.71 1035.64Z" fill="#935750"/>
<path d="M486.589 535.861C487.383 526.65 493.378 521.592 501.334 518.868C509.457 516.089 516.686 518.643 522.413 524.993C533.275 537.03 544.02 549.167 554.822 561.239C575.804 584.692 599.56 605.447 620.836 628.629C653.735 664.475 685.153 701.566 715.06 739.904C720.681 747.107 724.774 755.161 727.215 764.041C728.943 770.293 728.475 776.303 725.621 781.919C715.845 801.166 709.609 821.82 701.86 841.865C695.134 859.239 688.744 876.753 682.366 894.261C676.316 910.875 670.506 927.573 664.557 944.224C658.486 961.183 651.981 977.955 641.695 992.933C636.758 1000.12 631.097 1006.58 623.854 1011.71C608.376 1022.66 589.098 1012.18 580.977 1001.64C576.267 995.525 576.592 988.002 578.339 981.125C583.254 961.798 587.614 942.322 594.759 923.597C601.405 906.182 606.954 888.34 613.391 870.838C626.923 834.047 640.616 797.29 659.2 762.665C661.978 757.49 662.647 751.595 665.78 746.636C667.004 744.69 665.905 742.94 664.594 741.383C658.976 734.702 653.96 727.501 647.166 721.866C632.43 702.165 616.149 683.761 599.583 665.59C565.982 628.742 528.432 595.63 496.424 557.266C491.162 550.952 486.222 544.605 486.58 535.818L486.589 535.861Z" fill="#EED8A4"/>
<path d="M1827.91 765.255C1832.27 761.144 1835.14 755.902 1838.61 751.123C1860.04 721.627 1883.58 693.898 1908.85 667.604C1909.5 666.928 1910.15 666.251 1910.83 665.597C1926 650.956 1931.2 632.928 1929.66 612.457C1928.19 592.938 1923.37 574.223 1916.93 555.875C1912.92 544.468 1908.83 533.091 1904.67 521.739C1903.02 517.235 1901.15 512.803 1899.26 508.39C1896.85 502.76 1891.84 500.227 1886.45 498.413C1883.29 497.347 1880.33 498.434 1877.71 500.51C1876.14 501.761 1874.89 503.483 1872.8 504.005C1867.66 511.277 1860.84 517.109 1855.46 524.18C1855.38 524.289 1855.18 524.304 1855.03 524.367C1855.2 528.603 1852.81 531.658 1850.26 534.696C1834.79 553.15 1816.65 569.078 1800.41 586.806C1792.4 595.547 1784.53 604.402 1777.4 613.884C1779.91 619.712 1782.46 625.515 1784.9 631.37C1788.83 640.798 1792.66 650.265 1796.56 659.703C1800.7 669.707 1805.06 679.627 1808.97 689.719C1813.28 700.826 1818.11 711.718 1822.08 722.979C1825.38 732.331 1827.65 741.738 1827.24 751.592C1827.05 756.222 1827.32 760.721 1827.9 765.261L1827.91 765.255Z" fill="#F2944D"/>
<path d="M1827.91 765.253C1827.33 760.718 1827.06 756.219 1827.25 751.584C1827.66 741.726 1825.39 732.32 1822.09 722.971C1818.12 711.711 1813.29 700.82 1808.98 689.711C1805.07 679.618 1800.71 669.704 1796.57 659.696C1792.67 650.256 1788.84 640.79 1784.91 631.362C1782.47 625.507 1779.92 619.704 1777.41 613.876C1774.13 616.585 1771.7 620.052 1768.99 623.266C1768.36 624.015 1767.82 624.858 1768.41 625.797C1769.92 628.191 1770.23 631.034 1771.57 633.532C1780.49 650.25 1787.05 667.983 1793.53 685.735C1796.61 694.18 1799.27 702.784 1802.45 711.192C1805.88 720.227 1807.96 729.622 1810.31 738.945C1811.14 742.263 1811.29 745.89 1809.01 748.833C1805.08 753.903 1795.78 758.93 1788.33 753.638C1784.84 751.162 1782.12 748.039 1779.75 744.567C1774.81 737.333 1771.69 729.246 1768.78 721.059C1765.93 713.025 1763.14 704.968 1760.25 696.951C1757.2 688.503 1754.13 680.052 1750.91 671.668C1747.19 661.996 1744.21 652.031 1739.52 642.74C1738.15 640.034 1737.94 637.135 1738.77 634.12C1739.96 629.845 1741.95 625.961 1744.66 622.496C1759.13 604.045 1774.31 586.2 1790.21 568.954C1800.5 557.802 1811.97 547.822 1822.11 536.538C1827.34 530.725 1832.53 524.885 1837.78 519.1C1840.55 516.044 1844.04 514.822 1847.95 516.171C1851.78 517.493 1854.67 519.932 1855.04 524.379C1855.18 524.321 1855.38 524.302 1855.47 524.193C1860.84 517.123 1867.67 511.289 1872.8 504.017C1862.97 502.594 1853.29 500.245 1843.23 500.389C1839.36 500.445 1836.33 501.898 1833.47 504.259C1817.24 517.65 1802.56 532.596 1789.09 548.699C1772.52 568.501 1755.14 587.576 1737.65 606.567C1733.62 610.94 1729.41 615.191 1725.81 619.899C1721.02 626.161 1718.57 632.832 1721.36 641.119C1729.48 665.273 1738.35 689.125 1747.94 712.723C1752.68 724.369 1756.75 736.283 1762.19 747.633C1765.16 753.824 1768.74 759.611 1773.74 764.413C1779.18 769.637 1785.57 772.868 1793.2 773.62C1797.68 774.059 1801.99 775.609 1806.63 775.112C1810.26 774.724 1813.86 774.138 1816.9 772.142C1820.52 769.762 1824.87 768.541 1827.91 765.267L1827.91 765.253Z" fill="#935750"/>
<path d="M1855.05 524.364C1854.67 519.923 1851.79 517.477 1847.96 516.155C1844.04 514.806 1840.55 516.03 1837.79 519.084C1832.54 524.876 1827.34 530.715 1822.12 536.523C1811.98 547.807 1800.5 557.786 1790.22 568.939C1774.32 586.184 1759.13 604.031 1744.67 622.481C1741.95 625.947 1739.97 629.825 1738.78 634.104C1737.94 637.116 1738.16 640.014 1739.53 642.725C1744.22 652.015 1747.2 661.98 1750.92 671.652C1754.14 680.036 1757.2 688.487 1760.26 696.935C1763.16 704.952 1765.94 713.009 1768.79 721.043C1771.7 729.226 1774.81 737.319 1779.76 744.552C1782.13 748.023 1784.85 751.145 1788.34 753.623C1795.79 758.919 1805.09 753.892 1809.02 748.817C1811.3 745.874 1811.15 742.247 1810.31 738.93C1807.97 729.607 1805.89 720.212 1802.46 711.177C1799.28 702.773 1796.62 694.165 1793.54 685.72C1787.06 667.967 1780.49 650.23 1771.57 633.517C1770.24 631.019 1769.92 628.176 1768.42 625.781C1767.83 624.842 1768.36 623.999 1769 623.25C1771.71 620.035 1774.14 616.57 1777.42 613.86C1784.55 604.379 1792.42 595.524 1800.42 586.782C1816.66 569.055 1834.81 553.133 1850.28 534.673C1852.82 531.635 1855.21 528.58 1855.05 524.343L1855.05 524.364Z" fill="#EED8A4"/>
<path d="M570.41 227.675C567.808 229.275 564.848 229.991 562.036 231.062C544.681 237.675 527.914 245.564 511.623 254.495C511.204 254.723 510.784 254.954 510.373 255.199C501.155 260.715 491.598 260.874 481.735 257.393C472.332 254.074 463.77 249.215 455.603 243.608C450.526 240.121 445.476 236.595 440.446 233.042C438.451 231.63 436.52 230.12 434.601 228.606C432.153 226.671 431.574 223.87 431.398 220.979C431.295 219.28 432.223 217.969 433.592 216.96C434.416 216.354 435.429 215.967 435.964 215.007C440.223 213.45 443.999 210.867 448.191 209.165C448.256 209.138 448.29 209.042 448.34 208.979C450.402 209.623 452.222 208.854 454.054 208.007C465.187 202.853 475.432 196.049 486.31 190.42C491.674 187.645 497.075 184.953 502.686 182.709C505.219 184.714 507.733 186.744 510.288 188.721C514.402 191.905 518.549 195.048 522.671 198.223C527.041 201.587 531.339 205.051 535.781 208.319C540.67 211.916 545.384 215.738 550.394 219.188C554.554 222.057 558.878 224.423 563.778 225.532C566.081 226.055 568.258 226.784 570.413 227.674L570.41 227.675Z" fill="#F2944D"/>
<path d="M570.408 227.678C568.255 226.789 566.078 226.059 563.773 225.536C558.871 224.426 554.548 222.057 550.389 219.192C545.38 215.739 540.666 211.917 535.776 208.323C531.332 205.057 527.038 201.592 522.666 198.226C518.543 195.053 514.397 191.909 510.283 188.724C507.728 186.748 505.214 184.718 502.681 182.713C504.449 181.459 506.478 180.725 508.419 179.819C508.871 179.606 509.356 179.457 509.74 179.871C510.717 180.93 512.073 181.463 513.125 182.451C520.16 189.062 528.007 194.646 535.876 200.195C539.619 202.835 543.497 205.284 547.208 207.969C551.196 210.855 555.539 213.127 559.812 215.522C561.332 216.373 563.096 216.928 564.846 216.2C567.862 214.942 571.572 211.034 569.96 206.668C569.206 204.622 568.032 202.87 566.64 201.242C563.74 197.851 560.178 195.241 556.538 192.722C552.967 190.25 549.375 187.81 545.817 185.321C542.069 182.695 538.32 180.065 534.626 177.365C530.364 174.251 525.859 171.46 521.915 167.917C520.766 166.885 519.369 166.394 517.775 166.403C515.515 166.419 513.341 166.879 511.276 167.752C500.278 172.412 489.483 177.506 478.887 183.032C472.035 186.606 465.601 190.923 458.703 194.409C455.15 196.206 451.587 197.983 448.044 199.794C446.173 200.751 445.108 202.302 445.251 204.405C445.392 206.466 446.208 208.211 448.345 208.984C448.298 209.047 448.261 209.142 448.197 209.169C444.006 210.87 440.228 213.454 435.97 215.011C436.577 209.989 436.71 204.912 438.117 199.988C438.66 198.091 439.778 196.794 441.319 195.7C450.063 189.499 459.365 184.271 469.075 179.788C481.018 174.271 492.709 168.262 504.375 162.185C507.061 160.785 509.711 159.281 512.505 158.136C516.222 156.613 519.829 156.294 523.533 158.768C534.331 165.976 544.881 173.51 555.21 181.365C560.308 185.242 565.625 188.83 570.482 193.016C573.133 195.299 575.503 197.826 577.199 200.925C579.044 204.296 579.784 207.869 579.139 211.719C578.759 213.98 578.948 216.309 578.087 218.523C577.412 220.259 576.645 221.95 575.26 223.178C573.608 224.643 572.43 226.617 570.415 227.679L570.408 227.678Z" fill="#935750"/>
<path d="M448.337 208.984C446.202 208.211 445.383 206.467 445.243 204.406C445.1 202.302 446.165 200.75 448.036 199.795C451.582 197.983 455.144 196.205 458.695 194.41C465.593 190.923 472.026 186.607 478.879 183.033C489.474 177.507 500.271 172.411 511.267 167.753C513.333 166.877 515.504 166.418 517.766 166.404C519.359 166.391 520.755 166.884 521.906 167.918C525.851 171.461 530.354 174.253 534.617 177.366C538.311 180.066 542.06 182.695 545.808 185.321C549.365 187.813 552.957 190.253 556.529 192.722C560.167 195.241 563.732 197.85 566.632 201.242C568.023 202.871 569.196 204.624 569.951 206.668C571.565 211.036 567.855 214.944 564.837 216.201C563.087 216.929 561.323 216.374 559.803 215.522C555.53 213.128 551.187 210.855 547.199 207.97C543.49 205.286 539.61 202.835 535.867 200.196C527.999 194.647 520.149 189.062 513.116 182.452C512.065 181.464 510.709 180.93 509.731 179.872C509.348 179.458 508.863 179.607 508.41 179.819C506.468 180.727 504.441 181.46 502.672 182.713C497.061 184.957 491.66 187.65 486.296 190.424C475.418 196.054 465.176 202.857 454.04 208.012C452.208 208.859 450.388 209.627 448.326 208.984L448.337 208.984Z" fill="#EED8A4"/>
<path d="M1269.26 500.47C1260 498.543 1252.94 492.241 1244.68 488.334C1234.93 483.725 1228.97 475.726 1224.67 466.404C1218.45 452.925 1214.9 438.701 1215.33 423.785C1215.6 414.589 1218.71 405.854 1221.8 397.242C1226.06 385.365 1232.53 374.513 1239.5 364.108C1252.75 344.335 1269.43 328.003 1291.79 318.568C1305.86 312.626 1320.09 312.598 1333.81 320.146C1338.85 322.92 1339.9 322.559 1343.41 318.075C1358.22 299.19 1374.74 281.914 1394.48 268.129C1413.03 255.177 1433.86 247.596 1456.43 244.799C1479.54 241.935 1502.38 243.091 1524.94 248.624C1541.01 252.572 1556.39 258.454 1569.85 268.053C1579.2 274.714 1588.29 282.048 1593.48 292.825C1592.21 292.142 1590.97 291.422 1589.68 290.787C1581.09 286.556 1571.88 289.967 1568.21 298.645C1567.15 301.159 1567.49 303.815 1567.01 306.385C1562.59 303.436 1559.35 299.183 1555.37 295.717C1547.48 288.865 1538.21 284.89 1528.7 281.687C1509.56 275.231 1489.76 272.749 1469.43 274.021C1438.97 275.926 1413.56 288.406 1392.12 309.585C1381.49 320.081 1371.69 331.319 1362.43 343.016C1357.92 345.276 1356.92 349.422 1356.59 353.852C1356.16 359.639 1355.1 365.292 1353.27 370.814C1347.95 386.84 1339.99 401.731 1332.66 416.85C1328.08 426.29 1323.61 435.827 1317.31 444.577C1310.79 453.604 1304.4 462.599 1296.48 470.426C1292.19 474.668 1288 479.492 1282.18 481.428C1272.64 484.599 1268.62 490.834 1269.25 500.473L1269.26 500.47Z" fill="#83AFE1"/>
<path d="M1483.23 622.922C1475.45 618.537 1467.98 613.437 1459.81 609.938C1445.97 604.001 1437.71 593.268 1432.05 580.236C1426.13 566.573 1425.5 552.196 1429.11 537.793C1434.97 514.404 1446.49 493.958 1463.81 477.068C1478.29 462.945 1494.82 451.588 1514.3 445.205C1524.78 441.773 1535.53 440.427 1546.52 442.571C1548.14 442.888 1549.73 443.774 1551.48 443.194C1561.48 447.531 1569.75 453.899 1575.14 463.488C1577.73 468.08 1580.01 472.843 1582.52 477.488C1586.5 484.888 1587.84 492.813 1587.58 501.133C1587.03 518.75 1581.58 535.171 1573.9 550.747C1564.72 569.385 1553.1 586.576 1537.79 600.921C1527.31 610.748 1515.73 618.838 1501.23 622.174C1495.14 623.575 1489.19 621.977 1483.23 622.938L1483.23 622.922Z" fill="#4C6EFF"/>
<path d="M1483.23 622.923C1489.19 621.955 1495.14 623.553 1501.23 622.159C1515.73 618.823 1527.31 610.732 1537.79 600.906C1553.1 586.554 1564.73 569.373 1573.9 550.731C1581.58 535.155 1587.03 518.735 1587.58 501.117C1587.84 492.798 1586.51 484.866 1582.52 477.473C1580.02 472.831 1577.73 468.071 1575.14 463.473C1569.74 453.89 1561.48 447.522 1551.48 443.178C1552.28 441.784 1553.08 440.384 1553.87 438.98C1554.65 439.894 1555.31 440.934 1556.22 441.703C1560.93 445.713 1565.73 448.584 1572.61 446.366C1580.61 443.787 1584.67 437.428 1587.92 430.944C1591.32 424.151 1593.91 416.847 1595.99 409.436C1603.79 381.625 1607.35 353.475 1603.88 324.659C1603.52 321.694 1601.89 318.577 1603.71 315.5C1607.24 318.421 1607.29 322.792 1607.93 326.676C1611.93 350.817 1609.42 374.584 1602.55 397.973C1598.35 412.257 1593.49 426.28 1587.04 439.808C1584.45 445.231 1581.87 450.654 1579.05 455.966C1576.67 460.415 1576.71 460.618 1581.15 463.257C1584.45 465.221 1587.94 466.742 1591.58 468.139C1607.79 474.364 1617.48 485.954 1619.45 503.467C1621.08 517.931 1617.99 531.582 1612.91 545.069C1608.74 556.154 1603.94 566.898 1597.45 576.808C1584.1 597.172 1568.46 615.387 1546.86 627.612C1535.66 633.95 1523.63 637.195 1510.59 635.579C1505.97 635.008 1501.66 633.764 1497.66 631.267C1492.95 628.33 1488.05 625.681 1483.24 622.91L1483.23 622.923Z" fill="#83AFE1"/>
<path d="M1269.26 500.47C1268.63 490.825 1272.65 484.596 1282.19 481.425C1288.01 479.49 1292.2 474.665 1296.48 470.424C1304.4 462.593 1310.8 453.602 1317.31 444.575C1323.62 435.831 1328.08 426.294 1332.66 416.848C1340 401.732 1347.96 386.831 1353.28 370.811C1355.11 365.29 1356.17 359.636 1356.6 353.85C1356.93 349.419 1357.93 345.274 1362.43 343.013C1367.64 351.148 1375.32 357.145 1381.38 364.58C1387.02 371.495 1388.53 378.933 1386.65 387.3C1384.59 396.501 1380.57 405.017 1376.49 413.447C1372.6 421.458 1368.4 429.35 1364.13 437.131C1354.4 454.846 1343.65 472.025 1330.4 487.472C1325.34 493.378 1319 497.871 1312.9 502.615C1309.06 505.598 1304.2 506.441 1299.79 505.928C1289.53 504.734 1279.09 504.117 1269.25 500.467L1269.26 500.47Z" fill="#4C6EFF"/>
<path d="M1603.71 315.501C1601.9 318.581 1603.53 321.698 1603.88 324.659C1607.34 353.476 1603.8 381.619 1595.99 409.437C1593.91 416.851 1591.32 424.151 1587.92 430.944C1584.68 437.432 1580.61 443.791 1572.61 446.366C1565.74 448.578 1560.94 445.708 1556.22 441.703C1555.31 440.934 1554.64 439.891 1553.87 438.98C1551.83 432.526 1553.15 426.781 1557.21 421.362C1562.35 414.503 1564.97 406.484 1567.22 398.354C1572.73 378.512 1574.92 358.323 1574.09 337.792C1573.72 328.58 1571.86 319.739 1568.34 311.218C1567.71 309.683 1567.45 307.995 1567.01 306.374C1567.49 303.811 1567.15 301.154 1568.21 298.634C1571.88 289.956 1581.09 286.552 1589.68 290.776C1590.97 291.411 1592.22 292.131 1593.48 292.814C1595.06 294.383 1596.34 296.131 1596.98 298.295C1596.83 299.065 1597.03 299.705 1597.67 300.19C1597.91 300.486 1598.16 300.779 1598.42 301.06C1598.67 301.703 1598.91 302.346 1599.15 302.993L1599.15 302.957C1598.98 303.742 1599.2 304.403 1599.78 304.946L1599.77 304.893C1599.55 305.681 1599.74 306.357 1600.34 306.904L1600.33 306.865C1600.09 307.655 1600.3 308.319 1600.93 308.848L1600.93 308.822C1600.69 310.222 1601.51 310.993 1602.59 311.613L1602.57 311.56C1602.37 312.349 1602.58 313.02 1603.17 313.569L1603.16 313.52C1602.93 314.308 1603.11 314.98 1603.71 315.54L1603.71 315.497L1603.71 315.501Z" fill="#4C6EFF"/>
<path d="M1602.6 311.615C1601.52 310.995 1600.7 310.225 1600.94 308.825C1602.06 309.421 1602.78 310.254 1602.6 311.615Z" fill="#83AFE1"/>
<path d="M1600.36 306.91C1599.75 306.359 1599.56 305.684 1599.78 304.899C1600.35 305.46 1600.57 306.121 1600.36 306.91Z" fill="#83AFE1"/>
<path d="M1600.95 308.854C1600.31 308.324 1600.11 307.664 1600.35 306.871C1600.92 307.419 1601.14 308.071 1600.95 308.854Z" fill="#83AFE1"/>
<path d="M1603.18 313.572C1602.59 313.022 1602.38 312.359 1602.58 311.563C1603.18 312.113 1603.39 312.78 1603.18 313.572Z" fill="#83AFE1"/>
<path d="M1603.72 315.542C1603.12 314.982 1602.94 314.304 1603.17 313.523C1603.75 314.088 1603.93 314.763 1603.72 315.542Z" fill="#83AFE1"/>
<path d="M1599.8 304.951C1599.22 304.408 1598.99 303.744 1599.16 302.962C1599.77 303.503 1600 304.155 1599.8 304.951Z" fill="#83AFE1"/>
<path d="M1761.34 252.372C1762.16 255.393 1763.32 258.263 1765.09 260.878C1768.4 265.792 1773.02 269.052 1778.32 271.483C1784.33 274.242 1790.63 275.056 1797.16 274.287C1800.06 273.946 1802.95 273.569 1805.84 273.22C1806.34 273.16 1806.84 273.117 1807.34 273.146C1808.87 273.239 1810.05 274.207 1810.41 275.613C1810.77 277.025 1810.25 278.468 1808.9 279.239C1807.24 280.19 1805.48 280.944 1803.64 281.475C1799.24 282.745 1794.9 284.181 1790.81 286.285C1789.38 287.021 1788 287.837 1786.67 288.746C1781.35 292.394 1778.47 297.432 1778.03 303.881C1777.75 307.957 1778.11 312.002 1778.48 316.053C1778.63 317.702 1778.78 319.353 1778.84 321.007C1778.9 322.404 1778.38 323.582 1777.12 324.3C1775.42 325.264 1773.5 324.682 1772.52 322.819C1771.68 321.222 1771 319.542 1770.24 317.901C1768.17 313.425 1765.81 309.125 1762.75 305.23C1758.64 300.001 1753.29 297.127 1746.68 296.483C1741.8 296.007 1736.95 296.224 1732.09 296.73C1730.4 296.906 1728.7 297.12 1727.02 297.448C1726.11 297.626 1725.22 297.582 1724.47 296.905C1725.25 296.706 1726.02 296.38 1726.81 296.332C1728.92 296.201 1730.9 295.434 1733 295.178C1735.09 294.921 1737.03 293.965 1738.98 293.233C1742.3 291.991 1745.48 290.415 1748.55 288.611C1752.3 286.411 1754.93 283.283 1756.64 279.388C1759.34 273.268 1760.6 266.798 1761.08 260.149C1761.26 257.555 1761.19 254.959 1761.34 252.368L1761.34 252.372Z" fill="#FFBC01"/>
<path d="M1761.34 252.371C1761.19 254.962 1761.26 257.558 1761.07 260.152C1760.6 266.801 1759.33 273.27 1756.64 279.391C1754.92 283.286 1752.3 286.415 1748.55 288.614C1745.47 290.418 1742.3 291.994 1738.98 293.236C1737.02 293.97 1735.09 294.924 1732.99 295.181C1730.9 295.438 1728.92 296.205 1726.8 296.335C1726.02 296.384 1725.25 296.709 1724.47 296.908C1722.54 295.329 1722.58 293.03 1724.63 291.648C1725.84 290.832 1727.2 290.282 1728.59 289.855C1730.85 289.165 1733.14 288.583 1735.36 287.787C1740.11 286.088 1744.33 283.557 1747.9 279.977C1751.18 276.679 1752.84 272.617 1753.46 268.055C1754.1 263.272 1754.12 258.459 1754.25 253.651C1754.29 251.998 1754.26 250.343 1754.34 248.691C1754.42 246.846 1755.3 245.73 1756.84 245.368C1758.42 244.996 1759.91 245.801 1760.42 247.348C1760.61 247.916 1760.71 248.517 1760.81 249.11C1761 250.195 1761.16 251.285 1761.34 252.372L1761.34 252.371Z" fill="#F2934C"/>
<path d="M1833.81 224.595C1835.8 225.117 1837.81 225.399 1839.88 225.256C1843.76 224.986 1847.13 223.428 1850.26 221.211C1853.8 218.699 1856.33 215.386 1858.04 211.42C1858.79 209.662 1859.53 207.895 1860.28 206.136C1860.41 205.834 1860.55 205.531 1860.73 205.257C1861.28 204.419 1862.22 204.067 1863.14 204.322C1864.06 204.58 1864.71 205.353 1864.71 206.371C1864.7 207.625 1864.55 208.874 1864.25 210.096C1863.53 213.015 1862.92 215.953 1862.77 218.969C1862.72 220.024 1862.73 221.079 1862.81 222.131C1863.14 226.358 1865.06 229.649 1868.58 232.015C1870.81 233.511 1873.23 234.636 1875.65 235.757C1876.64 236.213 1877.62 236.671 1878.59 237.175C1879.4 237.601 1879.9 238.287 1879.89 239.239C1879.88 240.518 1878.92 241.421 1877.54 241.367C1876.36 241.321 1875.18 241.156 1874 241.048C1870.77 240.755 1867.55 240.683 1864.33 241.146C1860.01 241.767 1856.62 243.864 1854.08 247.411C1852.21 250.029 1850.74 252.861 1849.43 255.787C1848.98 256.811 1848.54 257.845 1848.18 258.907C1847.98 259.482 1847.66 259.979 1847.03 260.179C1847.17 259.672 1847.24 259.126 1847.47 258.663C1848.09 257.417 1848.3 256.038 1848.85 254.765C1849.39 253.489 1849.48 252.075 1849.71 250.721C1850.09 248.429 1850.24 246.104 1850.22 243.765C1850.2 240.911 1849.28 238.389 1847.63 236.135C1845.04 232.594 1841.77 229.751 1838.15 227.297C1836.73 226.339 1835.24 225.525 1833.81 224.591L1833.81 224.595Z" fill="#FFBC01"/>
<path d="M1833.81 224.595C1835.24 225.529 1836.73 226.343 1838.15 227.301C1841.77 229.756 1845.04 232.598 1847.63 236.139C1849.28 238.393 1850.2 240.915 1850.22 243.769C1850.24 246.109 1850.09 248.432 1849.71 250.726C1849.48 252.079 1849.39 253.493 1848.85 254.77C1848.31 256.044 1848.09 257.423 1847.47 258.667C1847.24 259.131 1847.17 259.676 1847.03 260.184C1845.5 260.763 1844.21 259.982 1844.09 258.363C1844.03 257.409 1844.16 256.455 1844.37 255.522C1844.72 254.013 1845.14 252.522 1845.42 250.996C1846.01 247.738 1845.96 244.504 1845.1 241.302C1844.3 238.352 1842.53 236.074 1840.14 234.227C1837.63 232.291 1834.9 230.701 1832.21 229.049C1831.29 228.48 1830.33 227.954 1829.42 227.368C1828.4 226.714 1828.05 225.846 1828.35 224.852C1828.66 223.831 1829.61 223.249 1830.65 223.469C1831.04 223.55 1831.41 223.688 1831.78 223.824C1832.46 224.073 1833.14 224.339 1833.81 224.597L1833.81 224.595Z" fill="#F2934C"/>
</svg>
