<svg width="2040" height="1226" viewBox="0 0 2040 1226" fill="none" xmlns="http://www.w3.org/2000/svg">
<path opacity="0.2" d="M665.062 747.108C561.842 681.185 687.306 689.236 668.116 588.654C648.926 488.073 491.438 421.236 439.204 456.741C378.294 498.144 471.17 540.807 475.146 498.411C489.146 349.13 112.228 372.305 96.7217 379.201C94.3624 369.545 87.071 338.53 76.7802 291.722" stroke="#6031D5" stroke-width="4" stroke-linecap="round" stroke-linejoin="round" stroke-dasharray="0.1 7"/>
<path opacity="0.2" d="M1443.5 994.434C1323.5 969.934 1443.5 932.434 1389.5 845.434C1335.5 758.434 1164.52 752.553 1128.5 804.435C1086.5 864.934 1188.5 871.434 1177 830.434C1136.51 686.069 793 842.934 781 854.934C775.334 846.768 757.4 820.434 731 780.434" stroke="#6031D5" stroke-width="4" stroke-linecap="round" stroke-linejoin="round" stroke-dasharray="0.1 7"/>
<path opacity="0.2" d="M1852 182.714C1733.02 174.95 1836.1 240.94 1763.08 308.795C1690.05 376.651 1527.97 338.328 1507.45 280.368C1483.52 212.781 1580.98 232.833 1559.67 268.388C1484.62 393.581 1202.25 158.176 1194.06 143.829C1186.64 150.046 1163.05 170.177 1128 200.972" stroke="#6031D5" stroke-width="4" stroke-linecap="round" stroke-linejoin="round" stroke-dasharray="0.1 7"/>
<path d="M615.723 1177.37C606.687 1168.83 600.754 1157.94 593.578 1148.01C549.283 1086.73 500.587 1029.1 448.298 974.437C446.957 973.032 445.606 971.625 444.212 970.266C412.801 939.824 402.109 902.405 405.403 859.952C408.546 819.472 418.635 780.678 432.081 742.651C440.442 719.011 448.989 695.432 457.663 671.907C461.112 662.571 465.016 653.389 468.949 644.245C473.976 632.578 484.384 627.348 495.566 623.611C502.141 621.416 508.276 623.685 513.685 628.003C516.937 630.606 519.527 634.183 523.867 635.275C534.478 650.383 548.614 662.513 559.728 677.206C559.9 677.433 560.315 677.465 560.613 677.596C560.255 686.382 565.195 692.73 570.457 699.044C602.458 737.395 640.015 770.519 673.616 807.368C690.181 825.538 706.463 843.942 721.199 863.644C715.982 875.72 710.647 887.744 705.567 899.878C697.378 919.413 689.39 939.032 681.246 958.59C672.62 979.32 663.525 999.874 655.354 1020.79C646.361 1043.81 636.298 1066.37 628.007 1089.71C621.11 1109.09 616.361 1128.6 617.162 1149.04C617.534 1158.64 616.961 1167.97 615.73 1177.38L615.723 1177.37Z" fill="#F2944D"/>
<path d="M615.71 1177.37C616.939 1167.96 617.512 1158.63 617.142 1149.02C616.343 1128.57 621.102 1109.07 627.987 1089.7C636.287 1066.36 646.351 1043.79 655.334 1020.77C663.496 999.855 672.597 979.313 681.227 958.574C689.361 939.014 697.359 919.397 705.547 899.861C710.628 887.728 715.962 875.704 721.179 863.627C727.973 869.262 732.999 876.465 738.607 883.144C739.918 884.701 741.017 886.451 739.793 888.397C736.66 893.356 735.991 899.251 733.213 904.426C714.627 939.06 700.936 975.808 687.405 1012.6C680.967 1030.1 675.421 1047.93 668.772 1065.36C661.627 1084.08 657.267 1103.56 652.352 1122.89C650.605 1129.76 650.28 1137.29 654.99 1143.4C663.114 1153.94 682.391 1164.41 697.868 1153.47C705.119 1148.35 710.771 1141.88 715.708 1134.69C725.984 1119.71 732.497 1102.95 738.57 1085.99C744.528 1069.34 750.338 1052.64 756.379 1036.02C762.757 1018.51 769.147 1001 775.873 983.626C783.631 963.584 789.858 942.927 799.634 923.68C802.486 918.073 802.944 912.061 801.228 905.802C798.785 896.931 794.684 888.865 789.073 881.665C759.157 843.325 727.748 806.236 694.849 770.39C673.573 747.208 649.817 726.453 628.835 703C618.026 690.916 607.281 678.78 596.426 666.754C590.69 660.402 583.47 657.85 575.347 660.629C567.391 663.353 561.389 668.4 560.602 677.622C560.302 677.501 559.889 677.459 559.717 677.232C548.612 662.542 534.467 650.41 523.856 635.302C544.247 632.397 564.353 627.571 585.201 627.918C593.235 628.053 599.512 631.081 605.439 635.991C639.04 663.846 669.405 694.918 697.269 728.381C731.551 769.535 767.505 809.184 803.697 848.658C812.034 857.747 820.74 866.586 828.187 876.368C838.094 889.38 843.148 903.229 837.323 920.404C820.355 970.465 801.841 1019.9 781.833 1068.8C771.959 1092.93 763.45 1117.62 752.105 1141.14C745.922 1153.96 738.479 1165.95 728.082 1175.89C716.766 1186.7 703.493 1193.37 687.675 1194.89C678.381 1195.78 669.421 1198.97 659.806 1197.92C652.267 1197.1 644.808 1195.86 638.518 1191.71C631.019 1186.76 622.013 1184.2 615.712 1177.4L615.71 1177.37Z" fill="#935750"/>
<path d="M560.59 677.59C561.383 668.379 567.378 663.321 575.334 660.597C583.457 657.818 590.686 660.372 596.413 666.722C607.275 678.759 618.02 690.896 628.822 702.967C649.804 726.421 673.56 747.176 694.836 770.358C727.735 806.204 759.153 843.295 789.06 881.633C794.681 888.836 798.774 896.889 801.215 905.77C802.943 912.022 802.475 918.032 799.621 923.648C789.845 942.895 783.609 963.549 775.86 983.594C769.134 1000.97 762.744 1018.48 756.366 1035.99C750.316 1052.6 744.506 1069.3 738.557 1085.95C732.486 1102.91 725.981 1119.68 715.695 1134.66C710.758 1141.85 705.097 1148.31 697.855 1153.44C682.376 1164.38 663.098 1153.91 654.977 1143.37C650.267 1137.25 650.592 1129.73 652.339 1122.85C657.254 1103.53 661.614 1084.05 668.759 1065.33C675.405 1047.91 680.954 1030.07 687.392 1012.57C700.923 975.776 714.616 939.019 733.2 904.394C735.978 899.219 736.647 893.324 739.781 888.365C741.004 886.419 739.905 884.669 738.594 883.112C732.976 876.431 727.96 869.23 721.166 863.595C706.43 843.894 690.149 825.49 673.583 807.319C639.982 770.471 602.433 737.359 570.424 698.995C565.163 692.681 560.222 686.334 560.581 677.547L560.59 677.59Z" fill="#EED8A4"/>
<path d="M1901.91 906.984C1906.27 902.873 1909.14 897.631 1912.61 892.852C1934.04 863.356 1957.58 835.627 1982.85 809.333C1983.5 808.657 1984.15 807.98 1984.83 807.326C2000 792.685 2005.2 774.657 2003.66 754.186C2002.19 734.666 1997.37 715.952 1990.93 697.603C1986.92 686.197 1982.83 674.82 1978.67 663.468C1977.02 658.964 1975.15 654.532 1973.26 650.119C1970.85 644.489 1965.84 641.956 1960.45 640.142C1957.29 639.076 1954.33 640.163 1951.71 642.239C1950.14 643.49 1948.89 645.212 1946.8 645.734C1941.66 653.006 1934.84 658.838 1929.46 665.909C1929.38 666.018 1929.18 666.033 1929.03 666.096C1929.2 670.332 1926.81 673.387 1924.26 676.425C1908.79 694.879 1890.65 710.807 1874.41 728.534C1866.4 737.276 1858.53 746.131 1851.4 755.613C1853.91 761.441 1856.47 767.244 1858.9 773.099C1862.83 782.526 1866.66 791.994 1870.56 801.432C1874.7 811.436 1879.06 821.356 1882.97 831.448C1887.28 842.555 1892.11 853.447 1896.08 864.707C1899.38 874.06 1901.65 883.467 1901.24 893.321C1901.05 897.951 1901.32 902.45 1901.9 906.989L1901.91 906.984Z" fill="#F2944D"/>
<path d="M1901.91 906.982C1901.33 902.447 1901.06 897.948 1901.25 893.313C1901.66 883.455 1899.39 874.049 1896.09 864.7C1892.12 853.44 1887.29 842.548 1882.98 831.44C1879.07 821.347 1874.71 811.433 1870.57 801.424C1866.67 791.985 1862.84 782.519 1858.91 773.091C1856.47 767.236 1853.92 761.433 1851.41 755.605C1848.13 758.314 1845.7 761.781 1842.99 764.994C1842.36 765.744 1841.83 766.586 1842.41 767.526C1843.92 769.92 1844.23 772.763 1845.57 775.261C1854.49 791.979 1861.05 809.711 1867.53 827.464C1870.62 835.909 1873.27 844.513 1876.46 852.921C1879.88 861.956 1881.96 871.351 1884.31 880.674C1885.14 883.992 1885.29 887.619 1883.01 890.561C1879.08 895.632 1869.78 900.658 1862.33 895.367C1858.84 892.891 1856.12 889.768 1853.75 886.296C1848.81 879.062 1845.69 870.975 1842.78 862.787C1839.93 854.754 1837.15 846.697 1834.25 838.679C1831.2 830.232 1828.13 821.78 1824.91 813.397C1821.19 803.725 1818.21 793.759 1813.52 784.469C1812.15 781.763 1811.94 778.864 1812.77 775.849C1813.96 771.574 1815.95 767.69 1818.66 764.225C1833.13 745.774 1848.31 727.928 1864.21 710.683C1874.5 699.53 1885.97 689.551 1896.11 678.267C1901.34 672.453 1906.53 666.614 1911.78 660.829C1914.55 657.773 1918.04 656.551 1921.95 657.899C1925.78 659.222 1928.67 661.661 1929.04 666.108C1929.18 666.05 1929.38 666.031 1929.47 665.922C1934.84 658.852 1941.67 653.018 1946.8 645.746C1936.97 644.323 1927.29 641.974 1917.23 642.118C1913.36 642.174 1910.33 643.627 1907.47 645.987C1891.24 659.379 1876.56 674.325 1863.09 690.427C1846.52 710.23 1829.14 729.305 1811.65 748.295C1807.62 752.668 1803.41 756.92 1799.81 761.627C1795.02 767.89 1792.57 774.561 1795.36 782.848C1803.48 807.002 1812.35 830.854 1821.94 854.451C1826.68 866.097 1830.75 878.011 1836.19 889.361C1839.16 895.553 1842.74 901.34 1847.74 906.141C1853.18 911.366 1859.57 914.597 1867.2 915.349C1871.68 915.788 1875.99 917.338 1880.63 916.841C1884.27 916.453 1887.86 915.867 1890.9 913.87C1894.52 911.491 1898.87 910.27 1901.91 906.996L1901.91 906.982Z" fill="#935750"/>
<path d="M1929.05 666.093C1928.67 661.652 1925.79 659.206 1921.96 657.884C1918.04 656.535 1914.55 657.759 1911.79 660.813C1906.54 666.605 1901.34 672.444 1896.12 678.252C1885.98 689.536 1874.5 699.515 1864.22 710.668C1848.32 727.913 1833.13 745.76 1818.67 764.21C1815.95 767.676 1813.97 771.554 1812.78 775.833C1811.94 778.845 1812.16 781.743 1813.53 784.454C1818.22 793.744 1821.2 803.709 1824.92 813.381C1828.14 821.765 1831.2 830.216 1834.26 838.664C1837.16 846.681 1839.94 854.738 1842.79 862.772C1845.7 870.955 1848.81 879.048 1853.76 886.281C1856.13 889.752 1858.85 892.874 1862.34 895.352C1869.79 900.648 1879.09 895.621 1883.02 890.546C1885.3 887.603 1885.15 883.976 1884.31 880.659C1881.97 871.336 1879.89 861.941 1876.46 852.906C1873.28 844.502 1870.62 835.894 1867.54 827.449C1861.06 809.696 1854.49 791.959 1845.57 775.246C1844.24 772.747 1843.92 769.905 1842.42 767.51C1841.83 766.571 1842.36 765.728 1843 764.979C1845.71 761.764 1848.14 758.299 1851.42 755.589C1858.55 746.108 1866.42 737.253 1874.42 728.511C1890.67 710.784 1908.81 694.862 1924.28 676.402C1926.82 673.364 1929.21 670.309 1929.05 666.072L1929.05 666.093Z" fill="#EED8A4"/>
<path d="M644.41 369.404C641.808 371.004 638.848 371.72 636.036 372.791C618.682 379.404 601.914 387.293 585.623 396.223C585.204 396.452 584.784 396.683 584.373 396.928C575.155 402.444 565.598 402.602 555.736 399.122C546.332 395.803 537.77 390.944 529.603 385.336C524.527 381.85 519.476 378.323 514.446 374.77C512.451 373.359 510.52 371.849 508.601 370.334C506.153 368.4 505.574 365.598 505.398 362.708C505.295 361.009 506.224 359.698 507.592 358.689C508.416 358.083 509.429 357.696 509.964 356.736C514.223 355.179 517.999 352.596 522.192 350.893C522.256 350.867 522.29 350.771 522.34 350.708C524.402 351.352 526.222 350.583 528.054 349.736C539.187 344.582 549.433 337.778 560.31 332.149C565.674 329.374 571.075 326.681 576.686 324.438C579.219 326.443 581.733 328.473 584.288 330.45C588.402 333.634 592.549 336.776 596.671 339.952C601.041 343.316 605.339 346.78 609.781 350.048C614.67 353.645 619.385 357.467 624.394 360.917C628.554 363.785 632.879 366.152 637.779 367.261C640.081 367.783 642.258 368.512 644.413 369.403L644.41 369.404Z" fill="#F2944D"/>
<path d="M644.408 369.406C642.255 368.517 640.078 367.788 637.773 367.265C632.871 366.154 628.548 363.786 624.389 360.921C619.381 357.468 614.666 353.646 609.776 350.052C605.333 346.786 601.038 343.321 596.666 339.955C592.543 336.782 588.397 333.638 584.283 330.453C581.728 328.477 579.214 326.447 576.681 324.441C578.45 323.188 580.478 322.453 582.419 321.547C582.872 321.335 583.357 321.186 583.74 321.6C584.718 322.658 586.074 323.192 587.125 324.18C594.16 330.791 602.008 336.375 609.876 341.924C613.619 344.564 617.497 347.013 621.208 349.698C625.196 352.583 629.539 354.856 633.812 357.25C635.332 358.102 637.096 358.657 638.846 357.929C641.862 356.671 645.572 352.763 643.96 348.396C643.207 346.35 642.032 344.599 640.641 342.97C637.74 339.58 634.178 336.97 630.538 334.45C626.967 331.979 623.375 329.539 619.817 327.049C616.069 324.423 612.32 321.794 608.626 319.094C604.364 315.979 599.86 313.189 595.915 309.646C594.766 308.613 593.369 308.122 591.775 308.132C589.515 308.147 587.341 308.607 585.276 309.481C574.279 314.141 563.483 319.235 552.888 324.761C546.035 328.335 539.602 332.651 532.704 336.138C529.15 337.934 525.588 339.712 522.045 341.523C520.173 342.48 519.109 344.031 519.252 346.134C519.392 348.195 520.208 349.939 522.346 350.712C522.298 350.776 522.262 350.871 522.197 350.898C518.006 352.598 514.228 355.183 509.97 356.74C510.577 351.718 510.71 346.641 512.118 341.717C512.66 339.82 513.778 338.523 515.319 337.429C524.064 331.228 533.365 326 543.075 321.517C555.018 315.999 566.71 309.99 578.375 303.913C581.061 302.513 583.712 301.01 586.506 299.865C590.223 298.342 593.829 298.023 597.534 300.497C608.331 307.704 618.881 315.239 629.21 323.094C634.308 326.971 639.625 330.559 644.483 334.745C647.133 337.028 649.503 339.555 651.199 342.653C653.045 346.025 653.784 349.598 653.14 353.448C652.759 355.709 652.948 358.038 652.087 360.252C651.412 361.988 650.646 363.679 649.26 364.907C647.608 366.372 646.43 368.346 644.415 369.408L644.408 369.406Z" fill="#935750"/>
<path d="M522.337 350.713C520.202 349.939 519.383 348.196 519.243 346.135C519.1 344.031 520.165 342.479 522.036 341.524C525.582 339.712 529.144 337.934 532.695 336.139C539.593 332.652 546.027 328.335 552.879 324.762C563.474 319.235 574.271 314.14 585.267 309.482C587.333 308.606 589.504 308.147 591.766 308.132C593.359 308.12 594.755 308.613 595.906 309.647C599.851 313.19 604.354 315.982 608.617 319.095C612.311 321.795 616.06 324.424 619.808 327.05C623.365 329.541 626.957 331.981 630.53 334.451C634.167 336.969 637.732 339.579 640.632 342.971C642.024 344.599 643.197 346.353 643.952 348.397C645.565 352.765 641.856 356.673 638.838 357.929C637.088 358.658 635.324 358.103 633.803 357.251C629.531 354.856 625.187 352.584 621.199 349.699C617.49 347.015 613.61 344.564 609.867 341.925C601.999 336.376 594.149 330.79 587.116 324.181C586.065 323.193 584.709 322.659 583.732 321.601C583.348 321.187 582.863 321.336 582.41 321.548C580.468 322.456 578.441 323.188 576.672 324.442C571.061 326.686 565.66 329.378 560.297 332.153C549.419 337.782 539.176 344.586 528.04 349.741C526.208 350.588 524.388 351.356 522.326 350.712L522.337 350.713Z" fill="#EED8A4"/>
<path d="M1343.26 642.199C1334 640.271 1326.94 633.97 1318.68 630.063C1308.93 625.454 1302.97 617.455 1298.67 608.133C1292.45 594.654 1288.9 580.43 1289.33 565.513C1289.6 556.318 1292.71 547.582 1295.8 538.971C1300.06 527.094 1306.53 516.242 1313.5 505.837C1326.75 486.064 1343.43 469.732 1365.79 460.297C1379.86 454.354 1394.09 454.327 1407.81 461.875C1412.85 464.649 1413.9 464.288 1417.42 459.804C1432.22 440.919 1448.74 423.643 1468.48 409.858C1487.03 396.905 1507.87 389.325 1530.43 386.528C1553.54 383.664 1576.38 384.819 1598.94 390.353C1615.01 394.301 1630.39 400.183 1643.85 409.782C1653.2 416.443 1662.29 423.776 1667.48 434.554C1666.21 433.871 1664.97 433.151 1663.68 432.516C1655.09 428.285 1645.88 431.696 1642.21 440.374C1641.15 442.888 1641.49 445.544 1641.01 448.114C1636.59 445.164 1633.35 440.911 1629.37 437.446C1621.48 430.593 1612.21 426.619 1602.7 423.416C1583.56 416.96 1563.76 414.478 1543.43 415.75C1512.97 417.655 1487.56 430.135 1466.12 451.314C1455.49 461.81 1445.69 473.048 1436.43 484.744C1431.92 487.005 1430.92 491.151 1430.59 495.581C1430.16 501.368 1429.1 507.021 1427.27 512.543C1421.95 528.569 1413.99 543.46 1406.66 558.579C1402.08 568.019 1397.61 577.556 1391.31 586.306C1384.79 595.333 1378.4 604.328 1370.48 612.155C1366.19 616.397 1362 621.221 1356.18 623.157C1346.64 626.327 1342.62 632.563 1343.25 642.202L1343.26 642.199Z" fill="#83AFE1"/>
<path d="M1557.23 764.651C1549.45 760.266 1541.98 755.166 1533.81 751.667C1519.97 745.73 1511.71 734.997 1506.05 721.965C1500.13 708.302 1499.5 693.924 1503.11 679.522C1508.97 656.133 1520.49 635.687 1537.81 618.797C1552.29 604.674 1568.82 593.317 1588.3 586.934C1598.78 583.502 1609.53 582.156 1620.52 584.299C1622.14 584.616 1623.73 585.503 1625.48 584.922C1635.48 589.26 1643.75 595.628 1649.14 605.217C1651.73 609.809 1654.02 614.571 1656.52 619.217C1660.5 626.617 1661.84 634.542 1661.58 642.861C1661.03 660.479 1655.58 676.899 1647.9 692.475C1638.72 711.114 1627.1 728.305 1611.79 742.65C1601.31 752.476 1589.73 760.567 1575.23 763.903C1569.14 765.303 1563.19 763.706 1557.23 764.667L1557.23 764.651Z" fill="#4C6EFF"/>
<path d="M1557.23 764.652C1563.19 763.684 1569.14 765.282 1575.23 763.888C1589.73 760.551 1601.31 752.461 1611.79 742.635C1627.1 728.283 1638.73 711.102 1647.9 692.46C1655.58 676.884 1661.03 660.463 1661.58 642.846C1661.84 634.526 1660.51 626.595 1656.52 619.202C1654.02 614.56 1651.73 609.8 1649.14 605.202C1643.74 595.619 1635.48 589.251 1625.48 584.907C1626.28 583.513 1627.08 582.113 1627.87 580.709C1628.65 581.623 1629.31 582.663 1630.22 583.432C1634.93 587.442 1639.73 590.313 1646.61 588.094C1654.61 585.516 1658.67 579.157 1661.92 572.673C1665.32 565.879 1667.91 558.576 1669.99 551.165C1677.79 523.354 1681.35 495.204 1677.88 466.388C1677.52 463.422 1675.89 460.306 1677.71 457.229C1681.24 460.15 1681.29 464.521 1681.93 468.405C1685.93 492.546 1683.42 516.313 1676.55 539.702C1672.35 553.986 1667.49 568.009 1661.04 581.537C1658.45 586.96 1655.87 592.383 1653.05 597.695C1650.67 602.144 1650.71 602.347 1655.15 604.986C1658.45 606.95 1661.94 608.471 1665.58 609.867C1681.79 616.093 1691.48 627.683 1693.45 645.196C1695.08 659.66 1691.99 673.31 1686.91 686.798C1682.74 697.883 1677.94 708.627 1671.45 718.537C1658.1 738.901 1642.46 757.116 1620.86 769.341C1609.66 775.679 1597.63 778.924 1584.59 777.308C1579.97 776.737 1575.66 775.493 1571.66 772.996C1566.95 770.059 1562.05 767.41 1557.24 764.639L1557.23 764.652Z" fill="#83AFE1"/>
<path d="M1343.26 642.199C1342.63 632.554 1346.65 626.325 1356.19 623.154C1362.01 621.219 1366.2 616.394 1370.48 612.152C1378.4 604.322 1384.8 595.33 1391.31 586.304C1397.62 577.56 1402.08 568.023 1406.66 558.576C1414 543.461 1421.96 528.56 1427.28 512.54C1429.11 507.019 1430.17 501.365 1430.6 495.578C1430.93 491.148 1431.93 487.003 1436.43 484.742C1441.64 492.877 1449.32 498.874 1455.39 506.309C1461.02 513.224 1462.53 520.662 1460.65 529.029C1458.59 538.23 1454.57 546.746 1450.49 555.176C1446.6 563.187 1442.4 571.079 1438.13 578.86C1428.4 596.575 1417.65 613.754 1404.4 629.2C1399.34 635.107 1393 639.6 1386.9 644.344C1383.06 647.327 1378.2 648.17 1373.79 647.656C1363.53 646.463 1353.09 645.846 1343.25 642.196L1343.26 642.199Z" fill="#4C6EFF"/>
<path d="M1677.71 457.23C1675.9 460.31 1677.53 463.427 1677.88 466.388C1681.34 495.205 1677.8 523.348 1669.99 551.166C1667.92 558.58 1665.32 565.88 1661.92 572.673C1658.68 579.161 1654.61 585.52 1646.61 588.095C1639.74 590.307 1634.94 587.436 1630.22 583.432C1629.31 582.663 1628.64 581.619 1627.87 580.709C1625.83 574.255 1627.16 568.51 1631.21 563.09C1636.35 556.232 1638.97 548.213 1641.22 540.083C1646.73 520.241 1648.92 500.052 1648.09 479.521C1647.72 470.309 1645.86 461.468 1642.34 452.947C1641.71 451.412 1641.45 449.724 1641.01 448.103C1641.49 445.539 1641.15 442.883 1642.21 440.363C1645.88 431.685 1655.09 428.28 1663.69 432.505C1664.97 433.14 1666.22 433.86 1667.48 434.543C1669.06 436.112 1670.34 437.86 1670.98 440.024C1670.83 440.794 1671.03 441.434 1671.67 441.919C1671.91 442.215 1672.16 442.508 1672.42 442.789C1672.67 443.432 1672.91 444.075 1673.15 444.721L1673.15 444.685C1672.98 445.471 1673.2 446.132 1673.79 446.675L1673.77 446.622C1673.55 447.41 1673.74 448.086 1674.34 448.633L1674.33 448.593C1674.09 449.384 1674.3 450.048 1674.93 450.577L1674.93 450.551C1674.69 451.951 1675.51 452.721 1676.59 453.342L1676.57 453.289C1676.37 454.078 1676.58 454.748 1677.17 455.298L1677.16 455.249C1676.93 456.037 1677.11 456.709 1677.71 457.268L1677.71 457.226L1677.71 457.23Z" fill="#4C6EFF"/>
<path d="M1676.6 453.344C1675.52 452.724 1674.7 451.954 1674.94 450.554C1676.06 451.15 1676.78 451.983 1676.6 453.344Z" fill="#83AFE1"/>
<path d="M1674.36 448.638C1673.75 448.088 1673.56 447.412 1673.78 446.628C1674.35 447.189 1674.57 447.85 1674.36 448.638Z" fill="#83AFE1"/>
<path d="M1674.95 450.582C1674.31 450.053 1674.11 449.393 1674.35 448.599C1674.92 449.148 1675.14 449.799 1674.95 450.582Z" fill="#83AFE1"/>
<path d="M1677.18 455.301C1676.59 454.751 1676.38 454.087 1676.58 453.292C1677.18 453.841 1677.39 454.509 1677.18 455.301Z" fill="#83AFE1"/>
<path d="M1677.72 457.271C1677.12 456.711 1676.94 456.033 1677.17 455.252C1677.75 455.817 1677.93 456.492 1677.72 457.271Z" fill="#83AFE1"/>
<path d="M1673.8 446.68C1673.22 446.137 1672.99 445.472 1673.16 444.691C1673.77 445.232 1674 445.884 1673.8 446.68Z" fill="#83AFE1"/>
<path d="M1835.34 394.101C1836.16 397.122 1837.32 399.992 1839.09 402.606C1842.4 407.521 1847.02 410.781 1852.32 413.212C1858.33 415.97 1864.63 416.785 1871.16 416.016C1874.06 415.675 1876.95 415.297 1879.84 414.949C1880.34 414.889 1880.84 414.845 1881.34 414.874C1882.87 414.968 1884.05 415.935 1884.41 417.341C1884.77 418.754 1884.25 420.197 1882.9 420.968C1881.24 421.918 1879.48 422.673 1877.64 423.204C1873.24 424.474 1868.9 425.91 1864.81 428.013C1863.38 428.75 1862 429.566 1860.67 430.475C1855.35 434.123 1852.47 439.16 1852.03 445.609C1851.75 449.686 1852.11 453.731 1852.48 457.781C1852.63 459.431 1852.78 461.082 1852.84 462.735C1852.9 464.133 1852.38 465.311 1851.12 466.029C1849.42 466.993 1847.5 466.41 1846.52 464.548C1845.68 462.951 1845 461.27 1844.24 459.63C1842.17 455.154 1839.81 450.854 1836.75 446.958C1832.64 441.73 1827.29 438.856 1820.68 438.212C1815.8 437.736 1810.95 437.953 1806.09 438.458C1804.4 438.635 1802.7 438.849 1801.02 439.177C1800.11 439.354 1799.22 439.311 1798.47 438.634C1799.25 438.434 1800.02 438.109 1800.81 438.061C1802.92 437.93 1804.9 437.163 1807 436.907C1809.09 436.65 1811.03 435.694 1812.98 434.962C1816.3 433.72 1819.48 432.143 1822.55 430.34C1826.3 428.14 1828.93 425.012 1830.64 421.116C1833.34 414.997 1834.6 408.527 1835.08 401.877C1835.26 399.284 1835.2 396.687 1835.34 394.096L1835.34 394.101Z" fill="#FFBC01"/>
<path d="M1835.34 394.099C1835.19 396.69 1835.26 399.287 1835.07 401.881C1834.6 408.53 1833.33 414.999 1830.64 421.119C1828.92 425.015 1826.3 428.143 1822.55 430.343C1819.47 432.147 1816.3 433.723 1812.98 434.965C1811.02 435.698 1809.09 436.653 1806.99 436.91C1804.9 437.166 1802.92 437.933 1800.8 438.064C1800.02 438.112 1799.25 438.438 1798.47 438.637C1796.54 437.058 1796.58 434.758 1798.63 433.377C1799.84 432.561 1801.2 432.01 1802.59 431.583C1804.85 430.893 1807.14 430.312 1809.36 429.516C1814.11 427.817 1818.33 425.286 1821.9 421.705C1825.18 418.408 1826.84 414.345 1827.46 409.783C1828.1 405.001 1828.12 400.188 1828.25 395.379C1828.29 393.727 1828.26 392.072 1828.34 390.42C1828.42 388.575 1829.31 387.459 1830.84 387.096C1832.42 386.725 1833.91 387.529 1834.42 389.076C1834.61 389.645 1834.71 390.246 1834.81 390.839C1835 391.924 1835.16 393.013 1835.34 394.101L1835.34 394.099Z" fill="#F2934C"/>
<path d="M1907.81 366.324C1909.8 366.846 1911.81 367.128 1913.88 366.985C1917.76 366.715 1921.13 365.157 1924.26 362.94C1927.8 360.427 1930.33 357.115 1932.04 353.148C1932.79 351.391 1933.53 349.624 1934.28 347.865C1934.41 347.563 1934.55 347.26 1934.73 346.986C1935.28 346.148 1936.22 345.796 1937.14 346.051C1938.06 346.308 1938.71 347.082 1938.71 348.1C1938.7 349.354 1938.55 350.603 1938.25 351.825C1937.53 354.744 1936.92 357.682 1936.77 360.697C1936.72 361.753 1936.73 362.807 1936.81 363.86C1937.14 368.087 1939.06 371.377 1942.58 373.744C1944.81 375.239 1947.23 376.364 1949.65 377.486C1950.64 377.942 1951.62 378.4 1952.59 378.904C1953.4 379.33 1953.9 380.016 1953.89 380.968C1953.88 382.247 1952.92 383.15 1951.54 383.096C1950.36 383.05 1949.18 382.885 1948 382.777C1944.77 382.484 1941.55 382.412 1938.33 382.875C1934.01 383.495 1930.62 385.592 1928.08 389.14C1926.21 391.757 1924.74 394.59 1923.43 397.516C1922.98 398.54 1922.54 399.573 1922.18 400.636C1921.98 401.21 1921.66 401.707 1921.03 401.908C1921.17 401.4 1921.24 400.855 1921.47 400.392C1922.09 399.146 1922.31 397.767 1922.85 396.494C1923.39 395.217 1923.48 393.803 1923.71 392.45C1924.09 390.158 1924.24 387.833 1924.22 385.493C1924.2 382.64 1923.28 380.117 1921.63 377.864C1919.04 374.323 1915.77 371.48 1912.15 369.025C1910.73 368.068 1909.24 367.254 1907.81 366.32L1907.81 366.324Z" fill="#FFBC01"/>
<path d="M1907.81 366.324C1909.24 367.258 1910.74 368.072 1912.15 369.03C1915.77 371.485 1919.04 374.327 1921.63 377.868C1923.28 380.122 1924.2 382.644 1924.22 385.498C1924.24 387.838 1924.09 390.161 1923.71 392.455C1923.48 393.808 1923.39 395.222 1922.85 396.499C1922.31 397.773 1922.09 399.152 1921.47 400.396C1921.24 400.86 1921.17 401.405 1921.03 401.913C1919.5 402.491 1918.21 401.711 1918.09 400.092C1918.03 399.137 1918.16 398.184 1918.37 397.25C1918.72 395.742 1919.14 394.251 1919.42 392.725C1920.01 389.467 1919.96 386.233 1919.1 383.031C1918.3 380.081 1916.53 377.803 1914.14 375.956C1911.63 374.02 1908.9 372.429 1906.21 370.777C1905.29 370.209 1904.33 369.683 1903.42 369.097C1902.4 368.443 1902.05 367.574 1902.35 366.58C1902.66 365.56 1903.61 364.978 1904.65 365.198C1905.04 365.278 1905.41 365.417 1905.78 365.553C1906.46 365.802 1907.14 366.067 1907.81 366.325L1907.81 366.324Z" fill="#F2934C"/>
</svg>
