<svg viewBox="0 0 581 450" fill="none" xmlns="http://www.w3.org/2000/svg">
<path d="M580.5 294C551.378 287.188 536.352 280.835 523 243L501.5 310C534.24 316.11 551.265 310.828 580.5 294Z" fill="#FFF0E6"/>
<path d="M414.523 431.849C376.922 444.147 338.221 452.543 297.787 449.299C249.823 445.451 202.134 440.023 157.505 422.011C108.955 402.42 67.3018 375.153 38.7959 334.783C-11.6301 263.34 -12.8134 189.13 34.7441 117.284C90.8235 32.5891 177.572 -6.78459 287.998 0.954451C368.591 6.60501 431.925 42.7346 480.427 99.6113C554.093 186.019 546.212 370.259 414.523 431.849Z" fill="#FFF0E6"/>
</svg>
