<svg viewBox="0 0 50 55" fill="none" xmlns="http://www.w3.org/2000/svg">
<path d="M45.1411 29.5171C43.2223 29.5273 41.3395 29.7594 39.5131 30.3873C36.0795 31.5683 33.4171 33.7868 31.1376 36.5389C28.552 39.6591 27.0715 43.2555 26.4908 47.2431C26.2337 49.0094 25.9988 50.7794 25.7463 52.5467C25.7029 52.85 25.6483 53.157 25.5521 53.4474C25.2544 54.337 24.4952 54.8808 23.6055 54.8725C22.7122 54.8632 21.9419 54.3222 21.6987 53.4039C21.3991 52.2729 21.2317 51.1114 21.2095 49.937C21.1559 47.1312 20.9941 44.3366 20.3976 41.5835C20.1886 40.6199 19.925 39.672 19.5977 38.7426C18.2836 35.0121 15.759 32.5097 12.012 31.228C9.64368 30.4179 7.19309 29.9878 4.73788 29.5624C3.73822 29.3895 2.73765 29.2157 1.74816 28.9937C0.912191 28.806 0.298159 28.3084 0.0734448 27.4484C-0.228948 26.2943 0.421149 25.2475 1.67881 24.9626C2.75707 24.7185 3.85937 24.5826 4.95057 24.3939C7.92734 23.8797 10.8458 23.1667 13.6367 21.9719C17.3829 20.3684 19.9315 17.6597 21.3612 13.8497C22.4163 11.0384 23.0581 8.12999 23.5288 5.1772C23.6934 4.14424 23.8358 3.10755 23.9079 2.06164C23.9468 1.4966 24.1151 0.971345 24.6339 0.638428C24.6283 1.13041 24.6986 1.6381 24.6024 2.11158C24.3444 3.38406 24.4841 4.67875 24.3037 5.95678C24.1234 7.23851 24.3823 8.53503 24.5053 9.80936C24.7143 11.9678 25.1434 14.0985 25.7232 16.2032C26.4307 18.7704 27.8649 20.8224 29.8985 22.4547C33.0925 25.019 36.7213 26.7928 40.5802 28.13C42.0857 28.6515 43.6328 29.0233 45.143 29.5208L45.1411 29.5171Z" fill="#FFBC01"/>
<path d="M45.142 29.517C43.6319 29.0195 42.0847 28.6477 40.5793 28.1261C36.7203 26.7889 33.0925 25.0152 29.8975 22.4508C27.8639 20.8186 26.4297 18.7665 25.7222 16.1994C25.1424 14.0946 24.7133 11.9649 24.5043 9.80554C24.3804 8.5312 24.1224 7.23466 24.3027 5.95293C24.4831 4.67398 24.3434 3.37929 24.6014 2.10773C24.6976 1.63425 24.6273 1.12656 24.6329 0.634582C25.873 -0.256896 27.2268 0.134288 27.7197 1.56583C28.011 2.41015 28.121 3.30162 28.1525 4.19494C28.2033 5.63851 28.1848 7.08393 28.3032 8.52657C28.5557 11.6061 29.3833 14.508 30.9369 17.1852C32.3675 19.6515 34.5083 21.2782 37.1105 22.3648C39.8385 23.5041 42.684 24.2782 45.5091 25.1169C46.4801 25.4055 47.464 25.6505 48.4295 25.9576C49.5077 26.3006 50.0284 26.9998 49.9988 27.968C49.9682 28.9621 49.2562 29.7149 48.2602 29.7695C47.894 29.7898 47.5223 29.7556 47.1552 29.7223C46.4829 29.6622 45.8124 29.5854 45.141 29.5161L45.142 29.517Z" fill="#F2934C"/>
</svg>
