<svg viewBox="0 0 32 30" fill="none" xmlns="http://www.w3.org/2000/svg">
<path fill-rule="evenodd" clip-rule="evenodd" d="M31.0082 3.21467L18.8295 15.3947C18.0781 16.1431 17.0607 16.5633 16.0002 16.5633C14.9396 16.5633 13.9223 16.1431 13.1709 15.3947L0.992188 3.21467C1.58216 2.23642 2.41426 1.42671 3.40822 0.86364C4.40219 0.30056 5.52448 0.00312 6.66685 0H25.3335C26.4759 0.00312 27.5982 0.30056 28.5922 0.86364C29.5861 1.42671 30.4182 2.23642 31.0082 3.21467ZM20.7147 17.2795L31.9387 6.05547C31.9456 6.13372 31.9558 6.20922 31.966 6.28394C31.9831 6.41036 32 6.53456 32 6.66613V22.6662C31.9979 24.4336 31.2948 26.1281 30.045 27.3779C28.7953 28.6276 27.1008 29.3307 25.3333 29.3328H6.66667C4.89921 29.3307 3.20474 28.6276 1.95496 27.3779C0.705176 26.1281 0.00211714 24.4336 0 22.6662V6.66613C0 6.53456 0.0168553 6.41036 0.0340127 6.28394C0.0441532 6.20922 0.0543992 6.13372 0.0613333 6.05547L11.2853 17.2795C12.5368 18.5278 14.2323 19.2289 16 19.2289C17.7677 19.2289 19.4632 18.5278 20.7147 17.2795Z" fill="#6031D5"/>
</svg>
