<svg width="56" height="56" viewBox="0 0 56 56" fill="none" xmlns="http://www.w3.org/2000/svg">
<path d="M23.2 7C17.5667 7 13 11.5667 13 17.2C13 22.8333 17.5667 27.4 23.2 27.4C28.8333 27.4 33.4 22.8333 33.4 17.2C33.4 11.5667 28.8333 7 23.2 7Z" fill="currentColor"/>
<path d="M29.2194 31.9379C25.2317 31.3015 21.1683 31.3015 17.1806 31.9379L16.7532 32.0061C11.1344 32.9028 7 37.7494 7 43.4393C7 46.5104 9.48962 49 12.5607 49H33.8393C36.9104 49 39.4 46.5104 39.4 43.4393C39.4 37.7494 35.2656 32.9028 29.6468 32.0061L29.2194 31.9379Z" fill="currentColor"/>
<path fill-rule="evenodd" clip-rule="evenodd" d="M42.4 21.4C43.3941 21.4 44.2 22.2059 44.2 23.2V26.2H47.2C48.1941 26.2 49 27.0059 49 28C49 28.9941 48.1941 29.8 47.2 29.8H44.2V32.8C44.2 33.7941 43.3941 34.6 42.4 34.6C41.4059 34.6 40.6 33.7941 40.6 32.8V29.8H37.6C36.6059 29.8 35.8 28.9941 35.8 28C35.8 27.0059 36.6059 26.2 37.6 26.2H40.6V23.2C40.6 22.2059 41.4059 21.4 42.4 21.4Z" fill="currentColor"/>
</svg>
