<svg viewBox="0 0 32 29" fill="none" xmlns="http://www.w3.org/2000/svg">
<path d="M14.9409 2.74069L15.8135 3.79564L16.788 2.74069C20.2174 -0.807113 25.5347 -0.642099 29.0608 2.74069L29.3093 2.98821C32.7387 6.53602 31.8983 13.6272 28.6285 17.2752L28.1984 17.7453L27.7195 18.2506C25.8744 20.1675 23.0464 22.792 19.2353 26.124L17.0591 28.0117C16.3081 28.6583 15.2152 28.6482 14.4756 27.9878L11.7892 25.5754L9.39737 23.3986C6.55435 20.7905 4.42035 18.7493 2.99536 17.2752C-0.51567 13.6429 -1.19138 6.62049 2.31966 2.98821C5.83069 -0.644064 11.4299 -0.891585 14.9409 2.74069Z" fill="currentColor"/>
</svg>
