<svg viewBox="0 0 30 31" fill="none" xmlns="http://www.w3.org/2000/svg">
<path fill-rule="evenodd" clip-rule="evenodd" d="M29.912 15.2891C29.912 6.91796 23.3524 0.131836 15.2607 0.131836C7.16898 0.131836 0.609375 6.91796 0.609375 15.2891C0.609375 23.6602 7.16898 30.4463 15.2607 30.4463C17.0268 30.4463 19.4529 29.7798 22.539 28.4467L27.5295 30.4607L27.6774 30.5104C28.3225 30.6853 29.0061 30.336 29.2544 29.6777C29.3536 29.4144 29.3723 29.126 29.3077 28.8514L27.9162 22.9311L28.1441 22.367C29.3227 19.3971 29.912 17.0378 29.912 15.2891ZM26.2776 21.6281L25.8183 22.7532L27.0643 28.0543L22.5136 26.2179L21.2708 26.7511C18.6498 27.8453 16.6253 28.3794 15.2607 28.3794C8.27238 28.3794 2.60727 22.5187 2.60727 15.2891C2.60727 8.05948 8.27238 2.19873 15.2607 2.19873C22.2489 2.19873 27.914 8.05948 27.914 15.2891C27.914 16.7297 27.3773 18.8651 26.2776 21.6281Z" fill="currentColor"/>
</svg>
