<svg viewBox="0 0 29 27" fill="none" xmlns="http://www.w3.org/2000/svg">
<path d="M15.1356 1.76558L17.8486 7.64734C18.2419 8.50001 19.05 9.08711 19.9825 9.19767L26.4147 9.96032C27.0079 10.0306 27.2461 10.7638 26.8076 11.1694L22.0521 15.5672C21.3626 16.2047 21.054 17.1546 21.237 18.0756L22.4993 24.4287C22.6158 25.0146 21.9921 25.4677 21.4709 25.176L15.8188 22.0122C14.9994 21.5535 14.0006 21.5535 13.1812 22.0122L7.52914 25.176C7.00791 25.4677 6.38424 25.0146 6.50065 24.4287L7.763 18.0756C7.94601 17.1546 7.63735 16.2047 6.94794 15.5672L2.19242 11.1694C1.75387 10.7638 1.99209 10.0306 2.58527 9.96032L9.01751 9.19767C9.95 9.08711 10.7581 8.50001 11.1514 7.64734L13.8644 1.76558C14.1145 1.22317 14.8855 1.22317 15.1356 1.76558Z" fill="currentColor" stroke="#facc15" stroke-width="2"/>
</svg>
