<svg width="56" height="56" viewBox="0 0 56 56" fill="none" xmlns="http://www.w3.org/2000/svg">
<path fill-rule="evenodd" clip-rule="evenodd" d="M41.5356 20.1421C41.5638 20.3836 41.5901 20.6253 41.6142 20.867C45.1078 21.1662 48.0416 23.7157 48.7894 27.2002L48.8118 27.3045C49.0627 28.474 49.0627 29.6834 48.8118 30.8529C48.0021 34.6254 44.6714 37.3198 40.8175 37.3198H40.0945C40.0305 37.5393 39.9647 37.7584 39.8971 37.9771L39.6053 38.9212C38.2544 43.2919 34.5773 46.5404 30.0777 47.3381C29.435 47.452 28.7896 47.5463 28.1426 47.6208C25.09 47.9723 21.6409 47.9428 18.5163 47.1098C15.3822 46.2741 12.4375 44.5865 10.6895 41.5282C10.6113 41.3914 10.5322 41.2503 10.4518 41.1047C9.70408 39.7517 9.1358 38.3269 8.69316 36.8948C7.13175 31.8428 6.64272 26.5197 7.25747 21.2673L7.5175 19.0457C8.13881 13.7372 12.2274 9.49952 17.5046 8.69436C22.1165 7.99071 26.8082 7.99071 31.4201 8.69436L31.7651 8.747C36.8386 9.52108 40.7693 13.5952 41.3666 18.6986L41.5356 20.1421ZM40.9179 34.0223C41.5895 30.7994 41.8918 27.5102 41.8187 24.2187C43.6638 24.5719 45.164 25.9985 45.5705 27.8928L45.5929 27.9971C45.7459 28.71 45.7459 29.4474 45.5929 30.1603C45.1163 32.3811 43.1773 33.9764 40.9179 34.0223ZM16.7802 25.5625C17.5075 25.5625 18.0971 26.1528 18.0971 26.8811V27.2182C18.0971 29.8056 18.414 32.3833 19.0408 34.8935L19.1552 35.3518C19.3316 36.0583 18.9026 36.7742 18.197 36.9508C17.4914 37.1274 16.7764 36.6979 16.6 35.9914L16.4856 35.5331C15.8066 32.8137 15.4632 30.0213 15.4632 27.2182V26.8811C15.4632 26.1528 16.0529 25.5625 16.7802 25.5625Z" fill="currentColor"/>
</svg>
