<svg width="56" height="56" viewBox="0 0 56 56" fill="none" xmlns="http://www.w3.org/2000/svg">
<path d="M35.3818 7C32.0621 7 29.2822 9.31085 28.5628 12.4117L8.9091 12.4117C7.85474 12.4117 7.00001 13.2664 7.00001 14.3208C7.00001 15.3752 7.85474 16.2299 8.9091 16.2299L28.7445 16.2299C29.6756 19.0026 32.2955 21 35.3818 21C38.4682 21 41.088 19.0026 42.0192 16.2299H47.0909C48.1453 16.2299 49 15.3752 49 14.3208C49 13.2664 48.1453 12.4117 47.0909 12.4117H42.2008C41.4815 9.31085 38.7015 7 35.3818 7Z" fill="currentColor"/>
<path d="M17.5636 21C14.3439 21 11.632 23.1737 10.8152 26.1337L8.85908 26.185C7.80508 26.2126 6.97304 27.0894 7.00067 28.1434C7.0283 29.1974 7.90513 30.0295 8.95913 30.0018L10.8396 29.9526C11.6848 32.8684 14.3753 35 17.5636 35C20.7337 35 23.4116 32.8928 24.273 30.0027H47.0909C48.1453 30.0027 49 29.1479 49 28.0936C49 27.0392 48.1453 26.1845 47.0909 26.1845H24.3259C23.5263 23.1986 20.8017 21 17.5636 21Z" fill="currentColor"/>
<path d="M35.3818 35C32.2266 35 29.5589 37.0876 28.6847 39.9569H8.9091C7.85474 39.9569 7.00001 40.8117 7.00001 41.866C7.00001 42.9204 7.85474 43.7751 8.9091 43.7751H28.6089C29.3946 46.7815 32.1291 49 35.3818 49C38.6345 49 41.369 46.7815 42.1548 43.7751H47.0909C48.1453 43.7751 49 42.9204 49 41.866C49 40.8116 48.1453 39.9569 47.0909 39.9569H42.079C41.2047 37.0876 38.5371 35 35.3818 35Z" fill="currentColor"/>
</svg>
