<svg width="56" height="56" viewBox="0 0 56 56" fill="none" xmlns="http://www.w3.org/2000/svg">
<path d="M26.0222 22.5712H26.584V25.9862L25.6386 25.6438C25.1356 25.4617 24.6947 24.895 24.6947 24.1416C24.6947 23.1562 25.4026 22.5712 26.0222 22.5712Z" fill="currentColor"/>
<path d="M29.4171 33.4285V30.014L30.3615 30.3559C30.8645 30.5381 31.3054 31.1047 31.3054 31.8582C31.3054 32.8435 30.5975 33.4285 29.9778 33.4285H29.4171Z" fill="currentColor"/>
<path fill-rule="evenodd" clip-rule="evenodd" d="M20.928 7.7707C25.5861 6.7431 30.4137 6.7431 35.0719 7.7707L36.0463 7.98566C42.5519 9.42082 47.6808 14.3998 49.287 20.8395C50.4598 25.5417 50.4598 30.4583 49.287 35.1606C47.6808 41.6002 42.5519 46.5792 36.0463 48.0144L35.0719 48.2293C30.4137 49.2569 25.5861 49.2569 20.928 48.2293L19.9535 48.0143C13.4479 46.5792 8.31904 41.6002 6.71288 35.1606C5.54004 30.4583 5.54004 25.5417 6.71288 20.8394C8.31904 14.3998 13.4479 9.42082 19.9535 7.98566L20.928 7.7707ZM29.4171 18.596C29.4171 17.817 28.7829 17.1854 28.0005 17.1854C27.2182 17.1854 26.584 17.817 26.584 18.596V19.75H26.0222C23.6108 19.75 21.8616 21.8342 21.8616 24.1416C21.8616 25.9542 22.9323 27.6658 24.6704 28.2952L26.584 28.9881V33.4285H26.4261C25.5834 33.4285 24.6947 32.6471 24.6947 31.4195C24.6947 30.6405 24.0605 30.0089 23.2781 30.0089C22.4958 30.0089 21.8616 30.6405 21.8616 31.4195C21.8616 33.9691 23.7917 36.2497 26.4261 36.2497H26.584V37.4039C26.584 38.183 27.2182 38.8145 28.0005 38.8145C28.7829 38.8145 29.4171 38.183 29.4171 37.4039V36.2497H29.9778C32.3892 36.2497 34.1385 34.1655 34.1385 31.8582C34.1385 30.0455 33.0677 28.334 31.3297 27.7046L29.4171 27.012V22.5712H29.574C30.4167 22.5712 31.3054 23.3527 31.3054 24.5803C31.3054 25.3593 31.9396 25.9909 32.7219 25.9909C33.5043 25.9909 34.1385 25.3593 34.1385 24.5803C34.1385 22.0307 32.2084 19.75 29.574 19.75H29.4171V18.596Z" fill="currentColor"/>
</svg>
