<svg width="22" height="22" viewBox="0 0 22 22" fill="none" xmlns="http://www.w3.org/2000/svg">
<path d="M20.9997 1.00018C20.6872 0.687733 20.2633 0.512207 19.8214 0.512207C19.3794 0.512207 18.9556 0.687733 18.643 1.00018L10.9997 8.64352L3.35636 1.00018C3.04382 0.687733 2.61997 0.512207 2.17803 0.512207C1.73609 0.512207 1.31224 0.687733 0.999696 1.00018C0.687245 1.31273 0.511719 1.73658 0.511719 2.17852C0.511719 2.62046 0.687245 3.04431 0.999696 3.35685L8.64303 11.0002L0.999696 18.6435C0.687245 18.9561 0.511719 19.3799 0.511719 19.8219C0.511719 20.2638 0.687245 20.6876 0.999696 21.0002C1.31224 21.3126 1.73609 21.4882 2.17803 21.4882C2.61997 21.4882 3.04382 21.3126 3.35636 21.0002L10.9997 13.3569L18.643 21.0002C18.9556 21.3126 19.3794 21.4882 19.8214 21.4882C20.2633 21.4882 20.6872 21.3126 20.9997 21.0002C21.3121 20.6876 21.4877 20.2638 21.4877 19.8219C21.4877 19.3799 21.3121 18.9561 20.9997 18.6435L13.3564 11.0002L20.9997 3.35685C21.3121 3.04431 21.4877 2.62046 21.4877 2.17852C21.4877 1.73658 21.3121 1.31273 20.9997 1.00018Z" fill="currentColor"/>
</svg>
