<svg viewBox="0 0 25 24" fill="none" xmlns="http://www.w3.org/2000/svg">
<g clip-path="url(#clip0_1_4232)">
<path d="M23.0564 10.9998C22.7912 10.9998 22.5369 10.8945 22.3493 10.7069C22.1618 10.5194 22.0564 10.265 22.0564 9.99981C22.0543 7.87873 21.2108 5.84512 19.711 4.34529C18.2111 2.84546 16.1775 2.00192 14.0564 1.99981C13.7912 1.99981 13.5369 1.89445 13.3493 1.70691C13.1618 1.51938 13.0564 1.26502 13.0564 0.999807C13.0564 0.73459 13.1618 0.480236 13.3493 0.2927C13.5369 0.105163 13.7912 -0.000193459 14.0564 -0.000193459C16.7077 0.00271814 19.2496 1.05722 21.1243 2.93195C22.999 4.80669 24.0535 7.34854 24.0564 9.99981C24.0564 10.265 23.9511 10.5194 23.7636 10.7069C23.576 10.8945 23.3217 10.9998 23.0564 10.9998ZM20.0564 9.99981C20.0564 8.40851 19.4243 6.88239 18.2991 5.75717C17.1739 4.63195 15.6477 3.99981 14.0564 3.99981C13.7912 3.99981 13.5369 4.10516 13.3493 4.2927C13.1618 4.48024 13.0564 4.73459 13.0564 4.99981C13.0564 5.26502 13.1618 5.51938 13.3493 5.70691C13.5369 5.89445 13.7912 5.99981 14.0564 5.99981C15.1173 5.99981 16.1347 6.42123 16.8849 7.17138C17.635 7.92153 18.0564 8.93894 18.0564 9.99981C18.0564 10.265 18.1618 10.5194 18.3493 10.7069C18.5369 10.8945 18.7912 10.9998 19.0564 10.9998C19.3217 10.9998 19.576 10.8945 19.7636 10.7069C19.9511 10.5194 20.0564 10.265 20.0564 9.99981ZM22.2394 22.1638L23.1494 21.1148C23.7287 20.5337 24.0539 19.7468 24.0539 18.9263C24.0539 18.1059 23.7287 17.3189 23.1494 16.7378C23.1184 16.7068 20.7124 14.8558 20.7124 14.8558C20.135 14.3061 19.368 14.0001 18.5707 14.0012C17.7735 14.0023 17.0074 14.3105 16.4314 14.8618L14.5254 16.4678C12.9696 15.8239 11.5563 14.879 10.3667 13.6873C9.17713 12.4957 8.23466 11.0807 7.59345 9.52381L9.19345 7.62381C9.74516 7.04798 10.0537 6.28168 10.055 5.48421C10.0564 4.68674 9.75028 3.91943 9.20045 3.34181C9.20045 3.34181 7.34745 0.938807 7.31645 0.907807C6.7459 0.333555 5.97233 0.00682856 5.16288 -0.00177868C4.35342 -0.0103859 3.57308 0.299817 2.99045 0.861807L1.84045 1.86181C-4.95355 9.74381 9.67645 24.2608 17.8184 23.9998C18.6406 24.0046 19.4554 23.8446 20.2148 23.5292C20.9741 23.2139 21.6625 22.7496 22.2394 22.1638Z" fill="#FF6A02"/>
</g>
<defs>
<clipPath id="clip0_1_4232">
<rect width="24" height="24" fill="white" transform="translate(0.0541992)"/>
</clipPath>
</defs>
</svg>
