<svg width="12" height="14" viewBox="0 0 12 14" fill="none" xmlns="http://www.w3.org/2000/svg">
<path d="M11.25 2.33332H9.44169C9.16259 0.976254 7.96882 0.00175 6.58334 0H5.41666C4.03118 0.00175 2.83741 0.976254 2.55834 2.33332H0.750011C0.427847 2.33332 0.166687 2.59448 0.166687 2.91665C0.166687 3.23881 0.427847 3.5 0.750011 3.5H1.33334V11.0833C1.33528 12.6934 2.63998 13.9981 4.25001 14H7.75001C9.36004 13.9981 10.6647 12.6934 10.6667 11.0833V3.5H11.25C11.5722 3.5 11.8333 3.23884 11.8333 2.91668C11.8333 2.59451 11.5722 2.33332 11.25 2.33332ZM5.41669 9.91668C5.41669 10.2388 5.15553 10.5 4.83336 10.5C4.51117 10.5 4.25001 10.2388 4.25001 9.91668V6.41668C4.25001 6.09451 4.51117 5.83335 4.83334 5.83335C5.1555 5.83335 5.41666 6.09451 5.41666 6.41668V9.91668H5.41669ZM7.75001 9.91668C7.75001 10.2388 7.48885 10.5 7.16669 10.5C6.84452 10.5 6.58336 10.2388 6.58336 9.91668V6.41668C6.58336 6.09451 6.84452 5.83335 7.16669 5.83335C7.48885 5.83335 7.75001 6.09451 7.75001 6.41668V9.91668ZM3.76644 2.33332C4.01455 1.63466 4.67529 1.16755 5.41669 1.16665H6.58336C7.32476 1.16755 7.9855 1.63466 8.23361 2.33332H3.76644Z" fill="currentColor" fill-opacity="0.6"/>
</svg>
