<svg viewBox="0 0 28 32" fill="none" xmlns="http://www.w3.org/2000/svg">
<path fill-rule="evenodd" clip-rule="evenodd" d="M0 0.688965V30.5245C0 30.8866 0.137767 31.2341 0.383509 31.4919C0.899989 32.0338 1.7433 32.04 2.2671 31.5056L13.6533 19.8909L25.0395 31.5056C25.2888 31.7599 25.6247 31.9024 25.9747 31.9024C26.7103 31.9024 27.3066 31.2855 27.3066 30.5245V0.688965C27.3066 0.30846 27.0085 0 26.6407 0H0.665968C0.298164 0 0 0.30846 0 0.688965ZM1.99792 28.8776V2.06692H25.3088V28.8776L14.5885 17.9422C14.0699 17.4132 13.2368 17.4132 12.7182 17.9422L1.99792 28.8776Z" fill="currentColor"/>
</svg>
