<svg viewBox="0 0 32 32" fill="none" xmlns="http://www.w3.org/2000/svg">
<path fill-rule="evenodd" clip-rule="evenodd" d="M31.0082 4.54829L18.8295 16.7283C18.0781 17.4767 17.0607 17.8969 16.0002 17.8969C14.9396 17.8969 13.9223 17.4767 13.1709 16.7283L0.992188 4.54829C1.58216 3.57004 2.41426 2.76033 3.40822 2.19726C4.40219 1.63418 5.52448 1.33674 6.66685 1.33362H25.3335C26.4759 1.33674 27.5982 1.63418 28.5922 2.19726C29.5861 2.76033 30.4182 3.57004 31.0082 4.54829ZM20.7147 18.6131L31.9387 7.38909C31.9456 7.46734 31.9558 7.54284 31.966 7.61756C31.9831 7.74398 32 7.86818 32 7.99975V23.9998C31.9979 25.7672 31.2948 27.4617 30.045 28.7115C28.7953 29.9612 27.1008 30.6643 25.3333 30.6664H6.66667C4.89921 30.6643 3.20474 29.9612 1.95496 28.7115C0.705176 27.4617 0.00211714 25.7672 0 23.9998V7.99975C0 7.86818 0.0168553 7.74398 0.0340127 7.61756C0.0441532 7.54284 0.0543992 7.46734 0.0613333 7.38909L11.2853 18.6131C12.5368 19.8614 14.2323 20.5625 16 20.5625C17.7677 20.5625 19.4632 19.8614 20.7147 18.6131Z" fill="#6031D5"/>
</svg>
