<svg viewBox="0 0 50 52" fill="none" xmlns="http://www.w3.org/2000/svg">
<path d="M22.7959 0C37.6248 0 49.012 10.3147 49.012 25.6249C49.012 40.9351 37.6248 51.5 22.7959 51.5H6.16254C2.80094 51.4926 0.0141602 49.2487 0.0141602 45.3421V6.40807C0.0141602 2.49407 2.80094 0 6.16254 0H22.7959Z" fill="#FF6900"/>
<path d="M7.99654 51.5C12.2531 49.1163 14.3632 46.9386 15.8257 44.8859C18.678 46.1661 21.4138 46.7179 23.8877 46.7179C28.5227 46.7179 32.4664 44.5622 34.5255 40.7144C36.6429 39.4269 38.0472 36.7857 38.1345 34.8949C39.4515 33.2175 39.6989 31.0987 39.2914 29.664C39.1969 29.3256 38.9204 29.3109 38.4474 29.6052C34.2709 32.136 30.2326 33.3426 26.3762 33.3426C24.0405 33.3426 21.6394 32.9674 19.0855 32.2169C18.9036 29.4507 18.3433 27.1332 18.1323 25.7279C17.834 23.8739 18.256 22.4982 20.2715 22.4982C21.7485 22.4982 24.4844 22.8807 26.6745 23.8813C28.8428 24.8745 30.1307 26.8389 31.0257 26.8389C31.3895 26.8389 31.7751 26.6108 31.7751 25.8309C31.7751 24.2492 31.2149 21.6962 30.5236 20.7839C32.5464 20.6662 34.1617 20.6883 35.064 20.7913C36.9485 21.1224 37.0358 22.0788 37.4069 22.7042C37.778 23.3295 38.411 23.6017 39.1678 23.6017C40.5721 23.6017 41.4452 22.8734 41.4452 20.2322C41.4452 14.4347 37.8217 11.6243 34.0235 11.6243C30.902 11.6243 29.7014 12.3159 26.74 12.3159C24.6372 12.3159 22.8982 7.99722 20.5116 7.42337C19.4565 5.05437 17.0918 4.78215 15.6365 5.97401C14.3123 5.15737 12.2458 5.59879 12.1585 7.09965C10.6378 6.62144 8.67322 7.45279 9.51726 9.47601C5.79913 9.58637 5.10061 12.9118 7.62545 13.2797C4.37299 15.141 5.85734 18.3487 8.58591 17.6645C8.77509 19.9452 9.69189 23.6312 9.69189 26.1694C9.69189 29.7082 8.10568 30.5248 5.93737 30.5248C4.22019 30.5248 1.70991 29.8921 0 29.4065V31.8712C1.72446 32.3052 4.31478 32.8644 6.25025 32.8644C9.67006 32.8644 11.5691 30.8338 11.5691 26.9713C11.5691 22.2259 10.0703 17.9147 10.5578 15.2146L10.4341 15.0601C8.72416 16.8626 7.61818 16.3844 7.49448 15.8032C7.25437 14.6407 9.24804 13.2208 10.3904 12.7279C10.4122 12.6543 10.4413 12.5734 10.4704 12.4924C9.40084 12.6617 8.14934 12.5219 8.10568 11.7494C8.05475 10.8297 9.8738 10.0131 12.2531 10.2191C12.2968 10.1823 12.3477 10.1455 12.3914 10.1014C12.2386 10.0425 12.0785 9.96894 11.882 9.85858C11.2635 9.54222 11.118 9.00515 11.3218 8.62258C11.54 8.19587 12.2167 8.03401 12.7624 8.04137C13.621 8.05608 14.3487 8.26944 14.8798 8.49015C14.938 8.46072 15.0035 8.43865 15.0544 8.41658C14.858 8.26208 14.6834 8.09287 14.5815 7.91629C14.436 7.65879 14.3996 7.31301 14.6834 7.08494C15.0181 6.82008 15.8621 6.72444 16.6261 7.42337C16.7862 7.57051 16.9172 7.71029 17.0408 7.84272C17.1282 7.82801 17.2082 7.81329 17.2955 7.79858C17.1718 7.59994 17.07 7.39394 17.0336 7.21001C16.9899 6.95251 17.07 6.67294 17.3756 6.56994C17.703 6.45958 18.125 6.63615 18.3433 6.95987C18.5761 7.30565 18.7144 7.73972 18.809 8.04137C17.1282 8.24001 12.6606 9.27001 12.6606 14.7217C12.6606 20.1733 17.0336 25.6249 17.0336 33.8723C17.0336 36.8667 16.3714 39.8757 13.6865 43.3704C11.6128 46.0704 8.31669 48.6822 3.1797 50.8232C4.06012 51.2572 5.07151 51.4927 6.14111 51.4927H7.97471L7.99654 51.5ZM28.5663 18.0324C29.0829 16.48 29.5268 15.3176 30.3636 14.42C31.244 13.4783 32.219 13.184 34.3582 13.184C37.3196 13.184 39.7862 16.2078 39.7862 20.4382C39.7862 21.0635 38.9495 21.0635 38.6875 20.4897C37.6834 18.6945 36.3155 18.437 34.169 18.2752C32.5828 18.1795 30.6692 18.3193 28.9301 18.3929C28.6027 18.4076 28.5154 18.1795 28.5663 18.0324ZM19.1291 34.9979C21.472 35.6527 24.71 36.0059 27.3949 35.8146C32.1171 35.4762 35.6534 33.7031 37.6543 32.4082C36.4537 35.4688 31.9643 37.3669 27.6059 37.904C27.5768 38.1247 27.5477 38.3454 27.504 38.5514C30.771 38.3749 33.878 37.3007 35.2823 36.3222C34.4746 39.3313 30.48 40.5379 26.8492 40.7144C26.7473 40.9499 26.6381 41.1706 26.529 41.3839C28.6391 41.4207 30.6692 41.0234 31.8697 40.6409C30.7856 42.7377 27.0383 44.393 23.2256 44.393C21.3484 44.393 19.0127 44.0252 16.9826 43.0467C18.4524 40.3319 19.0127 37.5582 19.1291 34.9906V34.9979Z" fill="black"/>
<path d="M0.0141602 39.405C1.8041 39.0445 3.56494 38.7134 3.56494 38.7134L3.7905 37.7349C2.98285 37.6908 1.38208 37.7129 0.0214364 37.7497V39.405H0.0141602Z" fill="black"/>
<path d="M19.2892 10.2928C19.915 10.0795 20.8099 10.7048 21.2902 11.6833C21.7704 12.6618 21.654 13.6256 21.0282 13.839C20.4097 14.0597 19.5148 13.4343 19.0345 12.4558C18.9691 12.3234 18.9181 12.191 18.8745 12.0586L18.9836 12.0291C19.1801 12.2204 19.4202 12.2719 19.5803 12.1689C19.7985 12.0218 19.7767 11.6392 19.5948 11.3008C19.4638 11.0286 19.1582 10.7416 18.9036 10.7637L18.8599 10.7048C18.9545 10.5136 19.1 10.3664 19.2892 10.3002M23.6695 20.1293C20.8681 19.5113 17.8121 18.6873 16.175 16.2595C16.1459 16.2153 16.0877 16.1933 16.0368 16.208C15.9858 16.2227 15.9494 16.2668 15.9422 16.3257C15.9422 16.4581 15.9567 16.6053 15.9858 16.7451L15.7675 16.826C15.3382 16.2153 15.2509 15.4649 15.6729 14.9352C16.2841 14.1627 17.5357 14.2436 18.2778 14.7218L18.1832 14.9278C17.783 14.8616 17.4047 14.8616 17.1064 15.0456C16.8517 15.2001 16.8226 15.4281 16.9754 15.7224C18.3288 18.268 22.2725 18.8271 26.9583 18.4519C27.4386 18.4151 27.555 18.1944 27.6132 17.959C28.0206 16.3183 28.7555 14.8543 29.8542 13.736C29.0029 13.8537 28.2026 13.8831 27.5113 13.9199C25.0883 14.0744 23.7059 13.7507 23.2766 13.4049L23.3566 13.1916C23.6113 13.2798 23.8805 13.3019 23.9387 13.2283C24.0115 13.1253 23.9533 13.0591 23.8368 12.9561C23.3784 12.5221 21.312 10.3811 21.3193 10.3958C21.0937 8.58598 18.4888 8.51977 17.4556 10.3002L17.0991 10.2046C17.2009 9.81462 17.3537 9.49827 17.4993 9.26284C15.3237 9.76312 14.0867 11.7348 13.8612 13.6403C12.8934 21.8362 25.1975 19.9454 28.7119 23.2267C28.7774 23.2782 28.9447 23.521 29.0684 23.3665C29.2067 22.9177 27.6568 21.0122 23.6695 20.122" fill="white"/>
<path d="M37.6393 32.4009C35.6456 33.6957 32.1021 35.4762 27.3798 35.8072C24.6949 35.9985 21.457 35.6454 19.1141 34.9906C19.0777 35.7778 18.9977 36.5944 18.8667 37.4184C20.1837 37.7642 22.5339 38.213 25.9246 38.3087C25.7718 39.2283 24.8477 42.3551 22.483 44.3783C26.7978 44.5622 30.7123 42.8627 31.8547 40.6482C30.6469 41.0308 28.6241 41.4281 26.514 41.3913C26.6231 41.1779 26.7323 40.9572 26.8341 40.7218C30.465 40.5452 34.4596 39.3387 35.2672 36.3296C33.8629 37.3081 30.756 38.3822 27.489 38.5588C27.5254 38.3454 27.5618 38.1321 27.5909 37.9114C31.942 37.3743 36.446 35.4688 37.6393 32.4156V32.4009Z" fill="white"/>
</svg>
