<svg viewBox="0 0 187 70" fill="none" xmlns="http://www.w3.org/2000/svg">
<path d="M31.5 0C51.9 0 67.5 14 67.5 34.8C67.5 55.7 51.7999 70 31.5 70H8.59995C3.99995 70 0.199951 66.9 0.199951 61.6V8.7C0.199951 3.4 3.99995 0 8.59995 0H31.5Z" fill="#FF6900"/>
<path d="M11.2 70C17 66.8 19.9 63.8 22 61C25.9 62.7 29.7 63.5 33.1 63.5C39.5 63.5 44.9 60.6 47.7 55.3C50.6 53.6 52.5 50 52.7 47.4C54.5 45.1 54.8 42.2 54.3 40.3C54.2 39.8 53.8 39.8 53.1 40.2C47.4 43.6 41.8 45.3 36.5 45.3C33.3 45.3 30 44.8 26.5 43.8C26.2 40 25.5 36.9 25.2 35C24.8 32.5 25.4 30.6 28.1 30.6C30.1 30.6 33.9 31.1 36.9 32.5C39.9 33.9 41.6 36.5 42.9 36.5C43.4 36.5 43.9 36.2 43.9 35.1C43.9 32.9 43.1 29.5 42.2 28.2C45 28 47.2 28.1 48.4 28.2C51 28.7 51.1 30 51.6 30.8C52.1 31.6 53 32 54 32C55.9 32 57.1 31 57.1 27.4C57.1 19.5 52.1 15.7 46.9 15.7C42.6 15.7 41 16.6 36.9 16.6C34 16.6 31.6 10.7 28.3 10C26.9 6.8 23.6 6.40001 21.6 8.00001C19.8 6.90001 16.9 7.5 16.8 9.5C14.7 8.9 12 10 13.2 12.7C8.1 12.8 7.1 17.4 10.6 17.9C6.1 20.4 8.2 24.8 11.9 23.9C12.2 27 13.4 32 13.4 35.5C13.4 40.3 11.2 41.4 8.2 41.4C5.8 41.4 2.4 40.5 0 39.9V43.3C2.4 43.9 5.9 44.6 8.6 44.6C13.3 44.6 15.9 41.8 15.9 36.6C15.9 30.2 13.8 24.3 14.5 20.6L14.6 20.4C12.3 22.8 10.7 22.2 10.6 21.4C10.3 19.8 13 17.9 14.6 17.2C14.6 17.1 14.7 17 14.7 16.9C13.2 17.1 11.5 16.9 11.4 15.9C11.3 14.7 13.8 13.5 17.1 13.8C17.2 13.7 17.2 13.7 17.3 13.6C17.1 13.5 16.9 13.4 16.6 13.3C15.8 12.9 15.5 12.1 15.8 11.6C16.1 11 17 10.8 17.8 10.8C19 10.8 20 11.1 20.7 11.4C20.8 11.4 20.9 11.3 20.9 11.3C20.6 11.1 20.4 10.9 20.3 10.6C20.1 10.3 20 9.8 20.4 9.5C20.9 9.1 22 9 23.1 10C23.3 10.2 23.5 10.4 23.7 10.6C23.8 10.6 23.9 10.6 24.1 10.5C23.9 10.2 23.8 10 23.7 9.7C23.6 9.3 23.8 9.00001 24.2 8.80001C24.7 8.70001 25.2 8.9 25.5 9.3C25.8 9.8 26 10.4 26.1 10.8C23.8 11.1 17.7 12.5 17.7 19.9C17.7 27.1 23.7 34.7 23.7 45.9C23.7 50 22.8 54.1 19.1 58.8C16.2 62.5 11.7 66 4.7 68.9C5.9 69.5 7.3 69.8 8.8 69.8H11.2V70ZM39.4 24.5C40.1 22.4 40.7 20.8 41.9 19.6C43.1 18.3 44.4 17.9 47.4 17.9C51.5 17.9 54.9 22 54.9 27.8C54.9 28.7 53.8 28.6 53.4 27.9C52 25.5 50.1 25.1 47.2 24.9C45 24.8 42.4 25 40 25.1C39.5 25 39.4 24.7 39.4 24.5ZM26.5 47.5C29.7 48.4 34.2 48.9 37.9 48.6C44.4 48.1 49.3 45.7 52 44C50.4 48.2 44.2 50.7 38.2 51.5C38.2 51.8 38.1 52.1 38.1 52.4C42.6 52.2 46.9 50.7 48.8 49.4C47.7 53.5 42.2 55.1 37.2 55.4C37.1 55.7 36.9 56 36.8 56.3C39.7 56.4 42.5 55.8 44.1 55.3C42.6 58.1 37.5 60.4 32.2 60.4C29.6 60.4 26.4 59.9 23.6 58.6C25.5 54.8 26.3 51 26.5 47.5Z" fill="black"/>
<path d="M0.199951 53.5C2.69995 53 5.09995 52.6 5.09995 52.6L5.39995 51.3C4.29995 51.2 2.09995 51.3 0.199951 51.3V53.5Z" fill="black"/>
<path d="M26.6999 13.9C27.5999 13.6 28.7999 14.5 29.4999 15.8C30.1999 17.1 29.9999 18.4 29.0999 18.7C28.1999 19 26.9999 18.2 26.3999 16.8C26.2999 16.6 26.1999 16.4 26.1999 16.3H26.3999C26.6999 16.6 26.9999 16.6 27.1999 16.5C27.4999 16.3 27.4999 15.8 27.1999 15.3C26.9999 14.9 26.5999 14.5 26.1999 14.6L26.0999 14.5C26.1999 14.2 26.3999 14 26.6999 13.9ZM32.6999 27.3C28.8999 26.5 24.5999 25.3 22.3999 22C22.3999 21.9 22.2999 21.9 22.1999 21.9C22.0999 21.9 22.0999 22 22.0999 22.1C22.0999 22.3 22.0999 22.5 22.1999 22.7L21.8999 22.8C21.2999 22 21.1999 21 21.7999 20.2C22.5999 19.2 24.3999 19.3 25.3999 19.9L25.2999 20.2C24.7999 20.1 24.1999 20.1 23.7999 20.4C23.4999 20.6 23.3999 20.9 23.5999 21.3C25.4999 24.8 30.8999 25.5 37.2999 25C37.9999 24.9 38.0999 24.6 38.1999 24.3C38.7999 22.1 39.7999 20.1 41.2999 18.6C40.0999 18.8 38.9999 18.8 38.0999 18.9C34.7999 19.1 32.8999 18.7 32.2999 18.2L32.3999 17.9C32.7999 18 33.0999 18 33.1999 17.9C33.2999 17.8 33.1999 17.7 33.0999 17.5C32.4999 16.9 29.5999 14 29.5999 14C29.2999 11.5 25.6999 11.5 24.2999 13.9L23.7999 13.8C23.8999 13.3 24.1999 12.8 24.3999 12.5C21.3999 13.2 19.6999 15.9 19.3999 18.5C18.0999 29.6 34.9999 27.1 39.7999 31.5C39.8999 31.6 40.0999 31.9 40.2999 31.7C40.2999 31.1 38.1999 28.5 32.6999 27.3Z" fill="white"/>
<path d="M51.9 44C49.2 45.8 44.3 48.2 37.8 48.6C34.1 48.9 29.7 48.4 26.4 47.5C26.4 48.6 26.2 49.7 26.1 50.8C27.9 51.3 31.1 51.9 35.8 52C35.6 53.3 34.3 57.5 31.1 60.2C37 60.4 42.4 58.1 44 55.1C42.3 55.6 39.6 56.2 36.7 56.1C36.9 55.8 37 55.5 37.1 55.2C42.1 55 47.6 53.3 48.7 49.2C46.8 50.5 42.5 52 38 52.2C38.1 51.9 38.1 51.6 38.1 51.3C44.1 50.7 50.3 48.2 51.9 44Z" fill="white"/>
<path d="M94.1 6.9H86.8C85.3 6.9 84.1 8 84.1 9.7V26.4C84.1 28.1 85.3 29 86.8 29H94.1C100.6 29 105.6 24.5 105.6 17.9C105.5 11.4 100.6 6.9 94.1 6.9ZM94.1 23.9H89.5V12.1H94.1C97.8 12.1 100.3 14.3 100.3 18C100.3 21.7 97.8 23.9 94.1 23.9ZM119.7 6.7C113.3 6.7 108.3 11.5 108.3 18C108.3 24.5 113.2 29.3 119.7 29.3C126.1 29.3 131.1 24.4 131.1 17.9C131.1 11.5 126.2 6.7 119.7 6.7ZM119.7 24.2C116.2 24.2 113.6 21.6 113.6 17.9C113.6 14.4 116.1 11.7 119.7 11.7C123.2 11.7 125.8 14.3 125.8 17.9C125.8 21.6 123.4 24.2 119.7 24.2ZM144.6 6.9H137.3C135.8 6.9 134.6 8 134.6 9.7V26.4C134.6 28.1 135.8 29 137.3 29H144.6C151.1 29 156.1 24.5 156.1 17.9C156.1 11.4 151.1 6.9 144.6 6.9ZM144.6 23.9H140V12.1H144.6C148.3 12.1 150.8 14.3 150.8 18C150.8 21.7 148.3 23.9 144.6 23.9ZM170.3 6.7C163.9 6.7 158.9 11.5 158.9 18C158.9 24.5 163.8 29.3 170.3 29.3C176.7 29.3 181.7 24.4 181.7 17.9C181.7 11.5 176.7 6.7 170.3 6.7ZM170.3 24.2C166.8 24.2 164.2 21.6 164.2 17.9C164.2 14.4 166.7 11.7 170.3 11.7C173.8 11.7 176.4 14.3 176.4 17.9C176.4 21.6 174 24.2 170.3 24.2Z" fill="black"/>
<path d="M95.8 40.8H86.8C85.3 40.8 84.2 41.8 84.2 43.4V60.5C84.2 62.2 85.4 63.1 86.9 63.1C88.4 63.1 89.5 62.1 89.5 60.5V56.5H95.7C100.5 56.5 103.6 53.1 103.6 48.6C103.7 44.1 100.7 40.8 95.8 40.8ZM95.8 51.5H89.6V45.9H95.8C97.6 45.9 98.5 47.2 98.5 48.7C98.5 50.2 97.6 51.5 95.8 51.5Z" fill="black"/>
<path d="M135.8 57.9H124.7L135.7 48C137.3 46.6 137.9 45.5 137.9 44V43.8C137.9 42 136.8 40.9 134.8 40.9H120.7C119 40.9 118.1 42.1 118.1 43.5C118.1 45 119.1 46 120.7 46H131L120.4 55.6C118.3 57.5 117.8 58.6 117.8 59.9V60.2C117.8 62 118.9 63.1 120.9 63.1H135.8C137.5 63.1 138.4 62 138.4 60.5C138.5 58.9 137.5 57.9 135.8 57.9Z" fill="black"/>
<path d="M159.1 57.9H148L159 48C160.6 46.6 161.2 45.5 161.2 44V43.8C161.2 42 160.1 40.9 158.1 40.9H144C142.3 40.9 141.4 42.1 141.4 43.5C141.4 45 142.4 46 144 46H154.3L143.7 55.6C141.6 57.5 141.1 58.6 141.1 59.9V60.2C141.1 62 142.2 63.1 144.2 63.1H159.1C160.8 63.1 161.7 62 161.7 60.5C161.8 58.9 160.8 57.9 159.1 57.9Z" fill="black"/>
<path d="M186 59.2L178.7 43.3C177.9 41.5 176.7 40.8 175.1 40.8H174.8C173.1 40.8 171.9 41.6 171.1 43.3L163.8 59.2C163.1 60.8 163.6 62.2 165 62.7C166.3 63.2 167.6 62.9 168.3 61.4L169.9 57.9C171.4 58.4 173.2 58.7 174.9 58.7C176.7 58.7 178.3 58.4 179.7 57.9L181.3 61.3C182 62.8 183.4 63.1 184.6 62.6C186.1 62.2 186.7 60.7 186 59.2ZM175 53.9C173.9 53.9 172.7 53.8 171.8 53.5L174.9 46.6L178 53.5C177.2 53.8 176.1 53.9 175 53.9Z" fill="black"/>
<path d="M110.6 40.6C109.1 40.6 107.8 41.6 107.8 43.3V60.5C107.8 62.2 109.1 63.2 110.6 63.2C112.1 63.2 113.4 62.2 113.4 60.5V43.3C113.4 41.6 112.1 40.6 110.6 40.6Z" fill="black"/>
<path d="M111.827 38.055C113.459 37.3787 114.235 35.5067 113.559 33.8739C112.882 32.2411 111.01 31.4657 109.377 32.1421C107.745 32.8184 106.969 34.6904 107.646 36.3232C108.322 37.956 110.194 38.7314 111.827 38.055Z" fill="black"/>
</svg>
