<?xml version="1.0" encoding="utf-8"?>
<svg version="1.1" id="Слой_1" xmlns="http://www.w3.org/2000/svg" xmlns:xlink="http://www.w3.org/1999/xlink" x="0px" y="0px"
	 viewBox="0 0 231.5 115.1" style="enable-background:new 0 0 231.5 115.1;" xml:space="preserve">
<style type="text/css">
	.st0{fill:#FF6900;}
	.st1{fill:#FFFFFF;}
</style>
<g>
	<path class="st0" d="M54,22.6c20.4,0,36,14,36,34.8c0,20.9-15.7,35.2-36,35.2H31.1c-4.6,0-8.4-3.1-8.4-8.4V31.3
		c0-5.3,3.8-8.7,8.4-8.7H54z"/>
	<path d="M33.7,92.6c5.8-3.2,8.7-6.2,10.8-9c3.9,1.7,7.7,2.5,11.1,2.5c6.4,0,11.8-2.9,14.6-8.2c2.9-1.7,4.8-5.3,5-7.9
		c1.8-2.3,2.1-5.2,1.6-7.1c-0.1-0.5-0.5-0.5-1.2-0.1c-5.7,3.4-11.3,5.1-16.6,5.1c-3.2,0-6.5-0.5-10-1.5c-0.3-3.8-1-6.9-1.3-8.8
		c-0.4-2.5,0.2-4.4,2.9-4.4c2,0,5.8,0.5,8.8,1.9c3,1.4,4.7,4,6,4c0.5,0,1-0.3,1-1.4c0-2.2-0.8-5.6-1.7-6.9c2.8-0.2,5-0.1,6.2,0
		c2.6,0.5,2.7,1.8,3.2,2.6c0.5,0.8,1.4,1.2,2.4,1.2c1.9,0,3.1-1,3.1-4.6c0-7.9-5-11.7-10.2-11.7c-4.3,0-5.9,0.9-10,0.9
		c-2.9,0-5.3-5.9-8.6-6.6c-1.4-3.2-4.7-3.6-6.7-2c-1.8-1.1-4.7-0.5-4.8,1.5c-2.1-0.6-4.8,0.5-3.6,3.2c-5.1,0.1-6.1,4.7-2.6,5.2
		c-4.5,2.5-2.4,6.9,1.3,6c0.3,3.1,1.5,8.1,1.5,11.6c0,4.8-2.2,5.9-5.2,5.9c-2.4,0-5.8-0.9-8.2-1.5v3.4c2.4,0.6,5.9,1.3,8.6,1.3
		c4.7,0,7.3-2.8,7.3-8c0-6.4-2.1-12.3-1.4-16L37.1,43c-2.3,2.4-3.9,1.8-4,1c-0.3-1.6,2.4-3.5,4-4.2c0-0.1,0.1-0.2,0.1-0.3
		c-1.5,0.2-3.2,0-3.3-1c-0.1-1.2,2.4-2.4,5.7-2.1c0.1-0.1,0.1-0.1,0.2-0.2c-0.2-0.1-0.4-0.2-0.7-0.3c-0.8-0.4-1.1-1.2-0.8-1.7
		c0.3-0.6,1.2-0.8,2-0.8c1.2,0,2.2,0.3,2.9,0.6c0.1,0,0.2-0.1,0.2-0.1c-0.3-0.2-0.5-0.4-0.6-0.7c-0.2-0.3-0.3-0.8,0.1-1.1
		c0.5-0.4,1.6-0.5,2.7,0.5c0.2,0.2,0.4,0.4,0.6,0.6c0.1,0,0.2,0,0.4-0.1c-0.2-0.3-0.3-0.5-0.4-0.8c-0.1-0.4,0.1-0.7,0.5-0.9
		c0.5-0.1,1,0.1,1.3,0.5c0.3,0.5,0.5,1.1,0.6,1.5c-2.3,0.3-8.4,1.7-8.4,9.1c0,7.2,6,14.8,6,26c0,4.1-0.9,8.2-4.6,12.9
		c-2.9,3.7-7.4,7.2-14.4,10.1c1.2,0.6,2.6,0.9,4.1,0.9H33.7z M61.9,47.1c0.7-2.1,1.3-3.7,2.5-4.9c1.2-1.3,2.5-1.7,5.5-1.7
		c4.1,0,7.5,4.1,7.5,9.9c0,0.9-1.1,0.8-1.5,0.1c-1.4-2.4-3.3-2.8-6.2-3c-2.2-0.1-4.8,0.1-7.2,0.2C62,47.6,61.9,47.3,61.9,47.1z
		 M49,70.1c3.2,0.9,7.7,1.4,11.4,1.1c6.5-0.5,11.4-2.9,14.1-4.6c-1.6,4.2-7.8,6.7-13.8,7.5c0,0.3-0.1,0.6-0.1,0.9
		c4.5-0.2,8.8-1.7,10.7-3c-1.1,4.1-6.6,5.7-11.6,6c-0.1,0.3-0.3,0.6-0.4,0.9c2.9,0.1,5.7-0.5,7.3-1c-1.5,2.8-6.6,5.1-11.9,5.1
		c-2.6,0-5.8-0.5-8.6-1.8C48,77.4,48.8,73.6,49,70.1z"/>
	<path d="M22.7,76.1c2.5-0.5,4.9-0.9,4.9-0.9l0.3-1.3c-1.1-0.1-3.3,0-5.2,0V76.1z"/>
	<path class="st1" d="M49.2,36.5c0.9-0.3,2.1,0.6,2.8,1.9c0.7,1.3,0.5,2.6-0.4,2.9c-0.9,0.3-2.1-0.5-2.7-1.9
		c-0.1-0.2-0.2-0.4-0.2-0.5l0.2,0c0.3,0.3,0.6,0.3,0.8,0.2c0.3-0.2,0.3-0.7,0-1.2c-0.2-0.4-0.6-0.8-1-0.7l-0.1-0.1
		C48.7,36.8,48.9,36.6,49.2,36.5 M55.2,49.9c-3.8-0.8-8.1-2-10.3-5.3c0-0.1-0.1-0.1-0.2-0.1c-0.1,0-0.1,0.1-0.1,0.2
		c0,0.2,0,0.4,0.1,0.6l-0.3,0.1c-0.6-0.8-0.7-1.8-0.1-2.6c0.8-1,2.6-0.9,3.6-0.3l-0.1,0.3c-0.5-0.1-1.1-0.1-1.5,0.2
		c-0.3,0.2-0.4,0.5-0.2,0.9c1.9,3.5,7.3,4.2,13.7,3.7c0.7-0.1,0.8-0.4,0.9-0.7c0.6-2.2,1.6-4.2,3.1-5.7c-1.2,0.2-2.3,0.2-3.2,0.3
		c-3.3,0.2-5.2-0.2-5.8-0.7l0.1-0.3c0.4,0.1,0.7,0.1,0.8,0c0.1-0.1,0-0.2-0.1-0.4c-0.6-0.6-3.5-3.5-3.5-3.5
		c-0.3-2.5-3.9-2.5-5.3-0.1l-0.5-0.1c0.1-0.5,0.4-1,0.6-1.3c-3,0.7-4.7,3.4-5,6c-1.3,11.1,15.6,8.6,20.4,13c0.1,0.1,0.3,0.4,0.5,0.2
		C62.8,53.7,60.7,51.1,55.2,49.9"/>
	<path class="st1" d="M74.4,66.6c-2.7,1.8-7.6,4.2-14.1,4.6c-3.7,0.3-8.1-0.2-11.4-1.1c0,1.1-0.2,2.2-0.3,3.3c1.8,0.5,5,1.1,9.7,1.2
		c-0.2,1.3-1.5,5.5-4.7,8.2c5.9,0.2,11.3-2.1,12.9-5.1c-1.7,0.5-4.4,1.1-7.3,1c0.2-0.3,0.3-0.6,0.4-0.9c5-0.2,10.5-1.9,11.6-6
		c-1.9,1.3-6.2,2.8-10.7,3c0.1-0.3,0.1-0.6,0.1-0.9C66.6,73.3,72.8,70.8,74.4,66.6z"/>
</g>
<g>
	<path d="M116.6,29.5h-7.3c-1.5,0-2.7,1.1-2.7,2.8V49c0,1.7,1.2,2.6,2.7,2.6h7.3c6.5,0,11.5-4.5,11.5-11.1
		C128,34,123.1,29.5,116.6,29.5z M116.6,46.5H112V34.7h4.6c3.7,0,6.2,2.2,6.2,5.9S120.3,46.5,116.6,46.5z M142.2,29.3
		c-6.4,0-11.4,4.8-11.4,11.3c0,6.5,4.9,11.3,11.4,11.3c6.4,0,11.4-4.9,11.4-11.4C153.6,34.1,148.7,29.3,142.2,29.3z M142.2,46.8
		c-3.5,0-6.1-2.6-6.1-6.3c0-3.5,2.5-6.2,6.1-6.2c3.5,0,6.1,2.6,6.1,6.2C148.3,44.2,145.9,46.8,142.2,46.8z M167.1,29.5h-7.3
		c-1.5,0-2.7,1.1-2.7,2.8V49c0,1.7,1.2,2.6,2.7,2.6h7.3c6.5,0,11.5-4.5,11.5-11.1C178.6,34,173.6,29.5,167.1,29.5z M167.1,46.5h-4.6
		V34.7h4.6c3.7,0,6.2,2.2,6.2,5.9S170.8,46.5,167.1,46.5z M192.8,29.3c-6.4,0-11.4,4.8-11.4,11.3c0,6.5,4.9,11.3,11.4,11.3
		c6.4,0,11.4-4.9,11.4-11.4C204.2,34.1,199.2,29.3,192.8,29.3z M192.8,46.8c-3.5,0-6.1-2.6-6.1-6.3c0-3.5,2.5-6.2,6.1-6.2
		c3.5,0,6.1,2.6,6.1,6.2C198.9,44.2,196.5,46.8,192.8,46.8z"/>
	<path d="M118.3,63.4h-9c-1.5,0-2.6,1-2.6,2.6v17.1c0,1.7,1.2,2.6,2.7,2.6c1.5,0,2.6-1,2.6-2.6v-4h6.2c4.8,0,7.9-3.4,7.9-7.9
		C126.2,66.7,123.2,63.4,118.3,63.4z M118.3,74.1h-6.2v-5.6h6.2c1.8,0,2.7,1.3,2.7,2.8C121,72.8,120.1,74.1,118.3,74.1z"/>
	<path d="M158.3,80.5h-11.1l11-9.9c1.6-1.4,2.2-2.5,2.2-4v-0.2c0-1.8-1.1-2.9-3.1-2.9h-14.1c-1.7,0-2.6,1.2-2.6,2.6
		c0,1.5,1,2.5,2.6,2.5h10.3l-10.6,9.6c-2.1,1.9-2.6,3-2.6,4.3v0.3c0,1.8,1.1,2.9,3.1,2.9h14.9c1.7,0,2.6-1.1,2.6-2.6
		C161,81.5,160,80.5,158.3,80.5z"/>
	<path d="M181.6,80.5h-11.1l11-9.9c1.6-1.4,2.2-2.5,2.2-4v-0.2c0-1.8-1.1-2.9-3.1-2.9h-14.1c-1.7,0-2.6,1.2-2.6,2.6
		c0,1.5,1,2.5,2.6,2.5h10.3l-10.6,9.6c-2.1,1.9-2.6,3-2.6,4.3v0.3c0,1.8,1.1,2.9,3.1,2.9h14.9c1.7,0,2.6-1.1,2.6-2.6
		C184.3,81.5,183.3,80.5,181.6,80.5z"/>
	<path d="M208.5,81.8l-7.3-15.9c-0.8-1.8-2-2.5-3.6-2.5h-0.3c-1.7,0-2.9,0.8-3.7,2.5l-7.3,15.9c-0.7,1.6-0.2,3,1.2,3.5
		c1.3,0.5,2.6,0.2,3.3-1.3l1.6-3.5c1.5,0.5,3.3,0.8,5,0.8c1.8,0,3.4-0.3,4.8-0.8l1.6,3.4c0.7,1.5,2.1,1.8,3.3,1.3
		C208.6,84.8,209.2,83.3,208.5,81.8z M197.5,76.5c-1.1,0-2.3-0.1-3.2-0.4l3.1-6.9l3.1,6.9C199.7,76.4,198.6,76.5,197.5,76.5z"/>
	<path d="M133.1,63.2c-1.5,0-2.8,1-2.8,2.7v17.2c0,1.7,1.3,2.7,2.8,2.7s2.8-1,2.8-2.7V65.9C135.9,64.2,134.6,63.2,133.1,63.2z"/>
	<ellipse transform="matrix(0.9239 -0.3827 0.3827 0.9239 -11.9508 55.3269)" cx="133.1" cy="57.7" rx="3.2" ry="3.2"/>
</g>
</svg>
