<svg viewBox="0 0 136 52" fill="none" xmlns="http://www.w3.org/2000/svg">
<path d="M22.7957 0.25C37.6246 0.25 49.0118 10.5647 49.0118 25.8749C49.0118 41.1851 37.6246 51.75 22.7957 51.75H6.1623C2.8007 51.7426 0.013916 49.4987 0.013916 45.5921V6.65807C0.013916 2.74407 2.8007 0.25 6.1623 0.25H22.7957Z" fill="#FF6900"/>
<path d="M7.99654 51.75C12.2531 49.3663 14.3632 47.1886 15.8257 45.1359C18.678 46.4161 21.4138 46.9679 23.8877 46.9679C28.5227 46.9679 32.4664 44.8122 34.5255 40.9644C36.6429 39.6769 38.0472 37.0357 38.1345 35.1449C39.4515 33.4675 39.6989 31.3487 39.2914 29.914C39.1969 29.5756 38.9204 29.5609 38.4474 29.8552C34.2709 32.386 30.2326 33.5926 26.3762 33.5926C24.0405 33.5926 21.6394 33.2174 19.0855 32.4669C18.9036 29.7007 18.3433 27.3832 18.1323 25.9779C17.834 24.1239 18.256 22.7482 20.2715 22.7482C21.7485 22.7482 24.4844 23.1307 26.6745 24.1313C28.8428 25.1245 30.1307 27.0889 31.0257 27.0889C31.3895 27.0889 31.7751 26.8608 31.7751 26.0809C31.7751 24.4992 31.2149 21.9462 30.5236 21.0339C32.5464 20.9162 34.1617 20.9383 35.064 21.0413C36.9485 21.3724 37.0358 22.3288 37.4069 22.9542C37.778 23.5795 38.411 23.8517 39.1678 23.8517C40.5721 23.8517 41.4452 23.1234 41.4452 20.4822C41.4452 14.6847 37.8217 11.8743 34.0235 11.8743C30.902 11.8743 29.7014 12.5659 26.74 12.5659C24.6372 12.5659 22.8982 8.24722 20.5116 7.67337C19.4565 5.30437 17.0918 5.03215 15.6365 6.22401C14.3123 5.40737 12.2458 5.84879 12.1585 7.34965C10.6378 6.87144 8.67322 7.70279 9.51726 9.72601C5.79913 9.83637 5.10061 13.1618 7.62545 13.5297C4.37299 15.391 5.85734 18.5987 8.58591 17.9145C8.77509 20.1952 9.69189 23.8812 9.69189 26.4194C9.69189 29.9582 8.10568 30.7748 5.93737 30.7748C4.22019 30.7748 1.70991 30.1421 0 29.6565V32.1212C1.72446 32.5552 4.31478 33.1144 6.25025 33.1144C9.67006 33.1144 11.5691 31.0838 11.5691 27.2213C11.5691 22.4759 10.0703 18.1647 10.5578 15.4646L10.4341 15.3101C8.72416 17.1126 7.61818 16.6344 7.49448 16.0532C7.25437 14.8907 9.24804 13.4708 10.3904 12.9779C10.4122 12.9043 10.4413 12.8234 10.4704 12.7424C9.40084 12.9117 8.14934 12.7719 8.10568 11.9994C8.05475 11.0797 9.8738 10.2631 12.2531 10.4691C12.2968 10.4323 12.3477 10.3955 12.3914 10.3514C12.2386 10.2925 12.0785 10.2189 11.882 10.1086C11.2635 9.79222 11.118 9.25515 11.3218 8.87258C11.54 8.44587 12.2167 8.28401 12.7624 8.29137C13.621 8.30608 14.3487 8.51944 14.8798 8.74015C14.938 8.71072 15.0035 8.68865 15.0544 8.66658C14.858 8.51208 14.6834 8.34287 14.5815 8.16629C14.436 7.90879 14.3996 7.56301 14.6834 7.33494C15.0181 7.07008 15.8621 6.97444 16.6261 7.67337C16.7862 7.82051 16.9172 7.96029 17.0408 8.09272C17.1282 8.07801 17.2082 8.06329 17.2955 8.04858C17.1718 7.84994 17.07 7.64394 17.0336 7.46001C16.9899 7.20251 17.07 6.92294 17.3756 6.81994C17.703 6.70958 18.125 6.88615 18.3433 7.20987C18.5761 7.55565 18.7144 7.98972 18.809 8.29137C17.1282 8.49001 12.6606 9.52001 12.6606 14.9717C12.6606 20.4233 17.0336 25.8749 17.0336 34.1223C17.0336 37.1167 16.3714 40.1257 13.6865 43.6204C11.6128 46.3204 8.31669 48.9322 3.1797 51.0732C4.06012 51.5072 5.07151 51.7427 6.14111 51.7427H7.97471L7.99654 51.75ZM28.5663 18.2824C29.0829 16.73 29.5268 15.5676 30.3636 14.67C31.244 13.7283 32.219 13.434 34.3582 13.434C37.3196 13.434 39.7862 16.4578 39.7862 20.6882C39.7862 21.3135 38.9495 21.3135 38.6875 20.7397C37.6834 18.9445 36.3155 18.687 34.169 18.5252C32.5828 18.4295 30.6692 18.5693 28.9301 18.6429C28.6027 18.6576 28.5154 18.4295 28.5663 18.2824ZM19.1291 35.2479C21.472 35.9027 24.71 36.2559 27.3949 36.0646C32.1171 35.7262 35.6534 33.9531 37.6543 32.6582C36.4537 35.7188 31.9643 37.6169 27.6059 38.154C27.5768 38.3747 27.5477 38.5954 27.504 38.8014C30.771 38.6249 33.878 37.5507 35.2823 36.5722C34.4746 39.5813 30.48 40.7879 26.8492 40.9644C26.7473 41.1999 26.6381 41.4206 26.529 41.6339C28.6391 41.6707 30.6692 41.2734 31.8697 40.8909C30.7856 42.9877 27.0383 44.643 23.2256 44.643C21.3484 44.643 19.0127 44.2752 16.9826 43.2967C18.4524 40.5819 19.0127 37.8082 19.1291 35.2406V35.2479Z" fill="black"/>
<path d="M0.013916 39.6548C1.80386 39.2943 3.5647 38.9632 3.5647 38.9632L3.79026 37.9847C2.9826 37.9406 1.38184 37.9626 0.0211922 37.9994V39.6548H0.013916Z" fill="black"/>
<path d="M19.2892 10.5426C19.915 10.3292 20.8099 10.9546 21.2902 11.9331C21.7704 12.9116 21.654 13.8754 21.0282 14.0887C20.4097 14.3095 19.5148 13.6841 19.0345 12.7056C18.9691 12.5732 18.9181 12.4407 18.8745 12.3083L18.9836 12.2789C19.1801 12.4702 19.4202 12.5217 19.5803 12.4187C19.7985 12.2715 19.7767 11.889 19.5948 11.5505C19.4638 11.2783 19.1582 10.9914 18.9036 11.0135L18.8599 10.9546C18.9545 10.7633 19.1 10.6162 19.2892 10.55M23.6695 20.3791C20.8681 19.7611 17.8121 18.9371 16.175 16.5092C16.1459 16.4651 16.0877 16.443 16.0368 16.4577C15.9858 16.4725 15.9494 16.5166 15.9422 16.5755C15.9422 16.7079 15.9567 16.855 15.9858 16.9948L15.7675 17.0757C15.3382 16.4651 15.2509 15.7147 15.6729 15.185C16.2841 14.4125 17.5357 14.4934 18.2778 14.9716L18.1832 15.1776C17.783 15.1114 17.4047 15.1114 17.1064 15.2953C16.8517 15.4498 16.8226 15.6779 16.9754 15.9722C18.3288 18.5177 22.2725 19.0769 26.9583 18.7017C27.4386 18.6649 27.555 18.4442 27.6132 18.2087C28.0206 16.5681 28.7555 15.104 29.8542 13.9857C29.0029 14.1035 28.2026 14.1329 27.5113 14.1697C25.0883 14.3242 23.7059 14.0005 23.2766 13.6547L23.3566 13.4413C23.6113 13.5296 23.8805 13.5517 23.9387 13.4781C24.0115 13.3751 23.9533 13.3089 23.8368 13.2059C23.3784 12.7718 21.312 10.6309 21.3193 10.6456C21.0937 8.83574 18.4888 8.76952 17.4556 10.55L17.0991 10.4543C17.2009 10.0644 17.3537 9.74802 17.4993 9.5126C15.3237 10.0129 14.0867 11.9846 13.8612 13.8901C12.8934 22.086 25.1975 20.1952 28.7119 23.4765C28.7774 23.528 28.9447 23.7707 29.0684 23.6162C29.2067 23.1675 27.6568 21.262 23.6695 20.3717" fill="white"/>
<path d="M37.6395 32.6509C35.6458 33.9457 32.1023 35.7262 27.3801 36.0572C24.6952 36.2485 21.4573 35.8954 19.1143 35.2406C19.078 36.0278 18.9979 36.8444 18.8669 37.6684C20.1839 38.0142 22.5341 38.463 25.9249 38.5587C25.7721 39.4783 24.848 42.6051 22.4832 44.6283C26.798 44.8122 30.7126 43.1127 31.8549 40.8982C30.6471 41.2808 28.6243 41.6781 26.5142 41.6413C26.6234 41.4279 26.7325 41.2072 26.8344 40.9718C30.4652 40.7952 34.4598 39.5887 35.2675 36.5796C33.8632 37.5581 30.7562 38.6322 27.4892 38.8088C27.5256 38.5954 27.562 38.3821 27.5911 38.1614C31.9423 37.6243 36.4462 35.7188 37.6395 32.6656V32.6509Z" fill="white"/>
<path d="M68.3157 5.29695H63.0259C61.9563 5.29695 61.0686 6.08416 61.0686 7.32752V19.6581C61.0686 20.8941 61.9563 21.6077 63.0259 21.6077H68.3157C73.0307 21.6077 76.6542 18.2897 76.6542 13.4119C76.6542 8.53409 73.0307 5.29695 68.3157 5.29695ZM68.3157 17.8114H64.9832V9.09323H68.3157C71.0006 9.09323 72.7978 10.6971 72.7978 13.4119C72.7978 16.1267 71.0006 17.8114 68.3157 17.8114ZM87.001 5.17188C82.3369 5.17188 78.7425 8.72537 78.7425 13.4707C78.7425 18.2161 82.3369 21.7696 87.001 21.7696C91.665 21.7696 95.2594 18.1352 95.2594 13.4192C95.2594 8.7033 91.665 5.17188 87.001 5.17188ZM87.001 18.0542C84.447 18.0542 82.5989 16.1046 82.5989 13.4413C82.5989 10.778 84.447 8.88723 87.001 8.88723C89.5549 8.88723 91.4031 10.8369 91.4031 13.4413C91.4031 16.0457 89.6568 18.0542 87.001 18.0542ZM105.111 5.3043H99.8216C98.752 5.3043 97.8643 6.09152 97.8643 7.33487V19.6581C97.8643 20.8941 98.752 21.6077 99.8216 21.6077H105.111C109.826 21.6077 113.45 18.2897 113.45 13.4119C113.45 8.53409 109.826 5.29695 105.111 5.29695V5.3043ZM105.111 17.8188H101.779V9.09323H105.111C107.796 9.09323 109.594 10.6971 109.594 13.4119C109.594 16.1267 107.796 17.8114 105.111 17.8114V17.8188ZM123.789 5.17188C119.125 5.17188 115.531 8.72537 115.531 13.4707C115.531 18.2161 119.125 21.7696 123.789 21.7696C128.453 21.7696 132.048 18.1352 132.048 13.4192C132.048 8.7033 128.453 5.17188 123.789 5.17188ZM123.789 18.0542C121.235 18.0542 119.387 16.1046 119.387 13.4413C119.387 10.778 121.235 8.88723 123.789 8.88723C126.343 8.88723 128.191 10.8369 128.191 13.4413C128.191 16.0457 126.445 18.0542 123.789 18.0542Z" fill="black"/>
<path d="M69.5161 30.2229H63.0039C61.9343 30.2229 61.0757 30.9365 61.0757 32.1725V44.7385C61.0757 45.9745 61.9634 46.6882 63.0548 46.6882C64.1462 46.6882 64.983 45.9745 64.983 44.7385V41.7883H69.5161C73.0305 41.7883 75.2497 39.2869 75.2497 35.9909C75.2497 32.6949 73.0377 30.2229 69.5161 30.2229ZM69.5161 38.073H64.983V33.9383H69.5161C70.7894 33.9383 71.4734 34.8873 71.4734 36.0203C71.4734 37.1533 70.7967 38.073 69.5161 38.073Z" fill="black"/>
<path d="M80.2492 30.0906C79.1578 30.0906 78.241 30.8263 78.241 32.0696V44.7166C78.241 45.9526 79.1505 46.6956 80.2492 46.6956C81.3479 46.6956 82.2574 45.9599 82.2574 44.7166V32.0696C82.2574 30.8336 81.3479 30.0906 80.2492 30.0906Z" fill="black"/>
<path d="M98.5926 42.7889H90.4869L98.5126 35.4906C99.6622 34.4606 100.128 33.6219 100.128 32.511V32.3491C100.128 31.0028 99.3202 30.2156 97.8577 30.2156H87.6201C86.3977 30.2156 85.6919 31.0837 85.6919 32.1358C85.6919 33.1879 86.3977 33.953 87.6201 33.953H95.1219L87.3873 41.0159C85.8738 42.3843 85.51 43.2009 85.51 44.2015V44.3854C85.51 45.7024 86.3468 46.519 87.7511 46.519H98.5926C99.815 46.519 100.521 45.6729 100.521 44.6209C100.521 43.5688 99.815 42.7742 98.5926 42.7742V42.7889Z" fill="black"/>
<path d="M115.553 42.7889H107.447L115.473 35.4906C116.623 34.4606 117.088 33.6219 117.088 32.511V32.3491C117.088 31.0028 116.281 30.2156 114.818 30.2156H104.581C103.358 30.2156 102.652 31.0837 102.652 32.1358C102.652 33.1879 103.358 33.953 104.581 33.953H112.082L104.348 41.0159C102.834 42.3843 102.47 43.2009 102.47 44.2015V44.3854C102.47 45.7024 103.307 46.519 104.712 46.519H115.553C116.775 46.519 117.481 45.6729 117.481 44.6209C117.481 43.5688 116.775 42.7742 115.553 42.7742V42.7889Z" fill="black"/>
<path d="M135.148 43.7674L129.836 32.0695C129.239 30.782 128.403 30.2229 127.202 30.2229H126.991C125.74 30.2229 124.91 30.7747 124.306 32.0695L118.994 43.7674C118.471 44.9298 118.834 45.9525 119.882 46.3498C120.821 46.7176 121.759 46.5043 122.276 45.4007L123.477 42.8478C124.546 43.2156 125.87 43.3995 127.122 43.3995C128.454 43.3995 129.625 43.2156 130.615 42.8478L131.764 45.3786C132.259 46.4822 133.278 46.6955 134.187 46.3498C135.228 45.9525 135.642 44.8783 135.148 43.7674ZM127.122 39.8975C126.314 39.8975 125.456 39.7945 124.801 39.6106L127.071 34.4974L129.334 39.6106C128.708 39.7945 127.93 39.8975 127.122 39.8975Z" fill="black"/>
</svg>
