<svg width="27" height="28" viewBox="0 0 27 28" fill="none" xmlns="http://www.w3.org/2000/svg">
<path d="M19.3236 10.2465C21.0599 11.4921 23.1869 12.225 25.4842 12.225V7.78856C25.0494 7.78865 24.6158 7.74315 24.1904 7.65272V11.1448C21.8933 11.1448 19.7666 10.4119 18.0299 9.16645V18.2199C18.0299 22.7488 14.3714 26.42 9.85884 26.42C8.17508 26.42 6.61009 25.9092 5.31006 25.0331C6.79383 26.5556 8.86307 27.5001 11.1523 27.5001C15.6652 27.5001 19.3238 23.8289 19.3238 19.2997V10.2465H19.3236ZM20.9196 5.77074C20.0323 4.79788 19.4497 3.54063 19.3236 2.15069V1.58008H18.0976C18.4062 3.34669 19.4588 4.85598 20.9196 5.77074ZM8.16428 21.5577C7.66852 20.9053 7.40062 20.1073 7.40182 19.2868C7.40182 17.2154 9.07515 15.5359 11.1396 15.5359C11.5243 15.5358 11.9068 15.5949 12.2734 15.7117V11.1761C11.8449 11.1172 11.4125 11.0922 10.9802 11.1013V14.6316C10.6133 14.5148 10.2307 14.4555 9.84583 14.4559C7.78139 14.4559 6.10815 16.1352 6.10815 18.2069C6.10815 19.6717 6.94454 20.9399 8.16428 21.5577Z" fill="#FF004F"/>
<path d="M18.0298 9.16636C19.7666 10.4118 21.8933 11.1447 24.1904 11.1447V7.65262C22.9082 7.37853 21.773 6.70608 20.9196 5.77074C19.4587 4.85588 18.4062 3.3466 18.0976 1.58008H14.8772V19.2996C14.8699 21.3653 13.1994 23.0379 11.1394 23.0379C9.92545 23.0379 8.847 22.4572 8.16399 21.5577C6.94434 20.9399 6.10795 19.6716 6.10795 18.207C6.10795 16.1355 7.78119 14.456 9.84563 14.456C10.2412 14.456 10.6224 14.5178 10.98 14.6317V11.1014C6.54667 11.1933 2.9812 14.8287 2.9812 19.2997C2.9812 21.5315 3.86909 23.5548 5.31013 25.0331C6.61017 25.9092 8.17515 26.4201 9.85891 26.4201C14.3716 26.4201 18.0299 22.7487 18.0299 18.2199V9.16636H18.0298Z" fill="black"/>
<path d="M24.1904 7.65253V6.7083C23.0341 6.71006 21.9006 6.38509 20.9196 5.77055C21.788 6.7247 22.9315 7.3826 24.1904 7.65253ZM18.0975 1.57998C18.0681 1.41115 18.0455 1.24121 18.0298 1.07062V0.5H13.5833V18.2197C13.5762 20.2851 11.9058 21.9578 9.84559 21.9578C9.24075 21.9578 8.66968 21.8137 8.16395 21.5576C8.84696 22.4571 9.92542 23.0377 11.1393 23.0377C13.1992 23.0377 14.8699 21.3653 14.8771 19.2996V1.57998H18.0975ZM10.9802 11.1013V10.0961C10.6086 10.0452 10.234 10.0196 9.85897 10.0198C5.3459 10.0197 1.6875 13.6911 1.6875 18.2197C1.6875 21.0588 3.12532 23.561 5.31019 25.0329C3.86914 23.5546 2.98126 21.5312 2.98126 19.2995C2.98126 14.8286 6.54664 11.1933 10.9802 11.1013Z" fill="#00F2EA"/>
</svg>
