<svg viewBox="0 0 54 57" fill="none" xmlns="http://www.w3.org/2000/svg">
<path d="M25.0691 0.00908675C41.387 0.00908675 53.8936 11.2186 53.8936 27.8968C53.8936 44.575 41.403 56.0568 25.0691 56.0568H6.77352C3.07437 56.0568 0.00776509 53.6547 0.00776509 49.3551V6.97501C-0.0362297 6.06515 0.107071 5.15595 0.428788 4.30373C0.750506 3.45151 1.24379 2.67443 1.87807 2.02063C2.51236 1.36683 3.27414 0.850229 4.11622 0.50284C4.9583 0.155451 5.86274 -0.0153297 6.77352 0.00107976H25.0691V0.00908675Z" fill="#FF6900"/>
<path d="M8.79948 56.0568C13.4835 53.4626 15.8054 51.0846 17.4148 48.8507C20.1982 50.1346 23.2213 50.8167 26.2864 50.8524C31.3867 50.8524 35.7264 48.5064 37.9923 44.3189C39.0891 43.628 40.0178 42.7008 40.7104 41.605C41.4031 40.5093 41.8422 39.2726 41.9957 37.9855C42.629 37.1971 43.0731 36.2739 43.2938 35.287C43.5145 34.3001 43.506 33.2757 43.2688 32.2926C43.1647 31.9243 42.8604 31.9083 42.34 32.2286C37.7441 34.9829 33.3003 36.296 29.0567 36.296C26.3431 36.2704 23.647 35.8579 21.0499 35.071C20.8268 32.6999 20.4767 30.3425 20.001 28.009C19.6727 25.9913 20.1371 24.494 22.355 24.494C24.7603 24.548 27.1341 25.0531 29.353 25.9833C31.755 27.0642 33.1562 29.186 34.157 29.186C34.5574 29.186 34.9577 28.9378 34.9577 28.0891C34.9577 26.3676 34.3412 23.5892 33.5806 22.5964C35.2436 22.471 36.9137 22.471 38.5768 22.5964C40.6506 22.9567 40.7466 23.9976 41.155 24.6782C41.3595 25.0009 41.6477 25.2622 41.9889 25.4342C42.3301 25.6062 42.7115 25.6825 43.0926 25.655C44.638 25.655 45.5988 24.8543 45.5988 21.9879C45.5988 15.6785 41.5954 12.6119 37.4318 12.6119C33.9969 12.6119 32.6758 13.3645 29.425 13.3645C27.1111 13.3645 25.1974 8.66453 22.5712 8.04C21.4102 5.46181 18.808 5.16556 17.2066 6.43864C15.7494 5.54988 13.4755 6.03029 13.3794 7.66368C11.706 7.14324 9.54412 8.04801 10.4729 10.2499C6.38143 10.37 5.61277 13.9891 8.39113 14.3894C4.81209 16.4151 6.44548 19.9061 9.44804 19.1935C9.65621 21.6756 10.6651 25.687 10.6651 28.4494C10.6651 32.3006 8.91959 33.1894 6.53356 33.1894C4.31552 33.0413 2.12261 32.6328 0 31.9724V34.6546C2.24686 35.2623 4.55293 35.6247 6.87785 35.7356C10.641 35.7356 12.7308 33.5257 12.7308 29.3301C12.7308 24.1657 11.0814 19.4737 11.6179 16.5192L11.4577 16.3751C9.57614 18.3368 8.35911 17.8163 8.25502 17.1758C7.9908 15.9107 10.1847 14.3654 11.4577 13.8209C11.4577 13.7408 11.5138 13.6528 11.5458 13.5647C10.3688 13.7489 8.98364 13.5647 8.9356 12.764C8.87955 11.7632 10.8813 10.8744 13.4995 11.0986L13.6516 10.9705C13.4494 10.9185 13.2514 10.8516 13.0591 10.7703C12.3785 10.426 12.2584 9.84153 12.4426 9.42518C12.635 9.19388 12.8826 9.01472 13.1624 8.90418C13.4422 8.79365 13.7454 8.75529 14.0439 8.79264C14.8443 8.80842 15.6346 8.97409 16.3739 9.28105L16.5741 9.20099C16.3688 9.05279 16.1924 8.86826 16.0537 8.65652C15.9553 8.51919 15.9122 8.34988 15.933 8.18225C15.9538 8.01461 16.0369 7.86094 16.1657 7.75175C16.5121 7.5658 16.9107 7.50104 17.2981 7.56778C17.6855 7.63453 18.0394 7.82893 18.3036 8.12007C18.4797 8.2802 18.6238 8.43233 18.76 8.57645L19.0402 8.52842C18.9078 8.33316 18.8103 8.11643 18.7519 7.88787C18.7139 7.74567 18.7316 7.59428 18.8016 7.46475C18.8716 7.33523 18.9885 7.23739 19.1283 7.19128C19.3218 7.14012 19.5264 7.14869 19.715 7.21585C19.9036 7.28301 20.0675 7.40562 20.1852 7.5676C20.4105 7.93388 20.583 8.33012 20.6976 8.7446C18.848 8.96078 13.9318 10.0817 13.9318 16.0228C13.9318 21.8117 18.7359 27.8969 18.7359 36.8405C18.7805 40.6175 17.4743 44.2863 15.0528 47.1853C12.7709 50.1238 9.14377 52.9662 3.49097 55.2962C4.50787 55.7832 5.62227 56.0323 6.74974 56.0248H8.79147L8.79948 56.0568ZM31.4267 19.6339C31.7925 18.1953 32.4674 16.8537 33.4044 15.7025C34.3732 14.6776 35.4461 14.3574 37.8001 14.3574C41.0589 14.3574 43.7812 17.6482 43.7812 22.2521C43.7812 22.9327 42.8605 22.9327 42.5722 22.3081C41.4673 20.3545 39.962 20.0742 37.6 19.9061C35.8545 19.802 33.7487 19.9541 31.8351 20.0342C31.4748 20.0422 31.3707 19.794 31.4267 19.6339ZM21.0659 38.0976C24.0329 38.8665 27.1019 39.1664 30.1616 38.9863C34.1745 38.7082 38.0547 37.4341 41.4512 35.2792C40.1301 38.61 35.1899 40.6758 30.3938 41.2603C30.3938 41.5005 30.3298 41.7407 30.2818 41.9649C33.8768 41.7727 37.2957 40.6037 38.841 39.5628C37.9523 42.8376 33.5565 44.1587 29.5611 44.3669C29.449 44.6231 29.3289 44.8633 29.2088 45.0955C31.197 45.1257 33.1783 44.8558 35.0858 44.2948C33.8768 46.5207 29.7453 48.3223 25.5497 48.3223C23.1758 48.3348 20.827 47.835 18.6639 46.857C20.1252 44.1598 20.947 41.1629 21.0659 38.0976Z" fill="black"/>
<path d="M0.00805664 42.8941C1.97773 42.5017 3.91538 42.1414 3.91538 42.1414L4.16359 41.0765C3.27483 41.0285 1.51334 41.0765 0.00805664 41.0765V42.8941Z" fill="black"/>
<path d="M21.2177 11.2108C21.9063 10.9786 22.8911 11.6592 23.4196 12.7241C23.948 13.789 23.8199 14.8379 23.1313 15.0701C22.4428 15.3023 21.4659 14.6297 20.9375 13.5648C20.8685 13.4251 20.8097 13.2806 20.7613 13.1325H20.8814C20.9588 13.2267 21.0651 13.2927 21.1838 13.3202C21.3026 13.3477 21.4271 13.3352 21.538 13.2846C21.7782 13.1244 21.7542 12.7081 21.538 12.3398C21.3218 11.9715 21.0576 11.7313 20.7373 11.7553L20.6893 11.6832C20.7331 11.581 20.7978 11.4891 20.8791 11.4133C20.9604 11.3375 21.0567 11.2794 21.1617 11.2428M25.9658 21.9399C22.8831 21.2674 19.5203 20.3386 17.7187 17.7284C17.7019 17.7048 17.6784 17.6869 17.6513 17.6769C17.6242 17.6669 17.5947 17.6653 17.5666 17.6723C17.5382 17.6804 17.513 17.6971 17.4944 17.72C17.4758 17.7429 17.4647 17.771 17.4625 17.8004C17.4591 17.954 17.4753 18.1073 17.5106 18.2568L17.2704 18.3449C17.0285 18.0614 16.8871 17.7059 16.8683 17.3337C16.8495 16.9615 16.9543 16.5936 17.1663 16.2871C17.5441 15.9241 18.0358 15.7027 18.5581 15.6604C19.0804 15.6181 19.6013 15.7574 20.0327 16.0549L19.9286 16.2791C19.531 16.1794 19.1108 16.2248 18.7436 16.4072C18.4634 16.5754 18.4313 16.8236 18.5995 17.1439C20.0888 19.9142 24.4284 20.5227 29.5848 20.1224C30.1133 20.1224 30.2414 19.8422 30.3054 19.5859C30.6988 17.8599 31.5508 16.2721 32.7715 14.99C31.8347 15.1181 30.954 15.1502 30.1934 15.1902C27.5271 15.3583 26.0058 15.006 25.5334 14.6297L25.6215 14.3975C25.9017 14.4936 26.198 14.5176 26.262 14.3975C26.3261 14.2774 26.262 14.2134 26.1499 14.1013C25.6455 13.6289 23.3716 11.2989 23.3796 11.3149C23.1313 9.34524 20.2649 9.27317 19.1199 11.2108L18.7276 11.1067C18.8223 10.745 18.9708 10.3995 19.168 10.0819C18.0851 10.3689 17.1181 10.9854 16.4009 11.8461C15.6837 12.7067 15.2517 13.769 15.1646 14.8859C14.0997 23.8055 27.6392 21.7478 31.5065 25.2948C31.5785 25.3508 31.7627 25.6151 31.8988 25.4469C32.0589 24.9665 30.3535 22.8847 25.9658 21.9159" fill="white"/>
<path d="M41.4189 35.271C38.0239 37.4293 34.1428 38.7037 30.1293 38.9782C27.0802 39.1549 24.0222 38.855 21.0656 38.0894C21.0244 38.9745 20.9335 39.8567 20.7933 40.7316C23.3384 41.3409 25.9432 41.6658 28.5599 41.7005C28.0183 44.2438 26.694 46.5537 24.7727 48.3061C29.5208 48.5063 33.8284 46.6567 35.0935 44.2466C33.1858 44.807 31.2046 45.0769 29.2165 45.0473C29.3366 44.8151 29.4567 44.5749 29.5688 44.3187C33.5722 44.1265 37.9599 42.8134 38.8487 39.5146C37.3034 40.5795 33.8845 41.7485 30.2894 41.9167C30.3294 41.6845 30.3695 41.4523 30.4015 41.212C35.1495 40.6756 40.0978 38.6018 41.4189 35.271Z" fill="white"/>
</svg>
